<svg width="300" height="256" viewBox="0 0 300 256" fill="none" xmlns="http://www.w3.org/2000/svg">
<path opacity="0.15" d="M268.668 112.344C257.887 109.909 247.046 108.417 236.195 107.664C234.826 107.478 233.454 107.298 232.085 107.125C244.348 107.593 256.604 108.556 268.757 109.932C275.426 110.687 279.34 101.262 272.093 98.4138C271.848 98.319 271.598 98.2334 271.35 98.1404C273.299 95.0976 271.651 89.5407 267.06 88.4359C253.294 85.1232 239.379 82.9938 225.445 81.8544C219.27 80.9829 213.075 80.332 206.895 79.8179C191.206 78.5107 175.553 78.4542 160.056 79.6228C172.833 77.8672 185.761 76.7569 198.689 76.1935C209.238 75.7341 219.86 75.776 230.478 76.3777C232.133 76.4707 233.802 76.5545 235.479 76.6511C244.213 78.5891 252.907 80.735 261.755 81.9145C268.124 82.7605 271.27 74.1954 264.843 71.262C262.272 70.0897 259.661 69.1617 257.018 68.4142C261.699 66.9539 263.067 58.5639 257.23 56.5894C256.668 56.3998 256.108 56.2211 255.548 56.0516C255.55 56.0425 255.553 56.0334 255.555 56.0242C247.189 53.3442 238.556 52.1774 229.888 51.6961C231 48.8192 229.896 44.7135 226.644 43.1055C226.556 43.0618 226.469 43.0253 226.379 42.9834C226.359 40.606 225.106 38.0974 222.597 36.7519C217.697 34.1248 212.223 33.8459 206.919 33.8258C200.496 33.8021 194.042 34.1102 187.628 34.236C172.424 34.5259 157.186 36.019 142.3 38.2378C127.53 40.4401 113.033 43.7108 98.2343 45.7947C96.6595 46.0171 95.0921 46.265 93.5265 46.5184C106.365 42.5951 119.719 40.0427 133.043 37.6854C147.703 35.0892 162.443 32.7921 177.406 31.6162C189.431 30.6736 201.771 29.7128 212.238 24.0083C214.393 22.836 214.026 18.9673 211.515 18.0339C199.875 13.7057 188.064 14.1925 176.159 14.6374C161.952 15.1697 147.681 15.6073 133.45 15.9026C130.581 15.961 127.691 16.0813 124.811 15.682C124.162 15.352 123.576 15.3885 123.051 15.7914C123.395 14.61 125.293 13.7696 126.251 13.157C131.771 9.62376 138.844 8.38038 145.409 7.46699C158.29 5.67668 171.276 3.86631 184.23 2.44792C185.812 2.27289 185.529 -0.122698 183.914 0.00492064C175.811 0.644839 167.82 1.89186 159.717 2.53178C152.611 3.0933 145.424 3.58373 138.426 4.70677C134.716 5.29929 112.918 10.384 119.514 17.9427C122.337 21.1824 128.446 20.6665 132.103 20.7485C140.703 20.9381 149.265 20.6902 157.841 20.5607C165.972 20.4386 174.123 20.5808 182.258 20.4568C187.774 20.3729 193.31 20.4495 198.759 21.3592C189.042 23.5452 178.331 23.1094 168.488 23.8624C153.073 25.0438 137.831 27.4029 122.678 29.8678C108.602 32.1558 94.0666 34.6043 80.841 39.4903C70.8122 43.1931 58.5756 46.1483 53.6197 56.2485C52.3478 58.8446 53.6671 61.6978 55.9973 63.2493C53.5211 65.0633 51.4701 67.2857 51.3022 69.8654C51.118 72.7496 52.4135 74.9739 55.0429 76.5035C55.7436 76.9119 56.5447 77.1908 57.4041 77.384C57.0702 77.7377 56.7509 78.1023 56.4462 78.4743C44.9066 82.5089 32.9947 87.6592 27.433 97.6427C25.5243 101.07 28.5369 106.045 32.5203 106.682C34.6607 107.024 36.719 106.875 38.7043 106.414C36.7555 108.222 35.2282 110.388 34.5129 113.127C33.7374 116.091 36.6971 119.715 39.7554 120.16C40.7845 120.31 41.7936 120.383 42.7881 120.395C42.0564 120.862 41.321 121.323 40.6148 121.832C35.5548 125.462 39.0145 132.508 45.0398 132.818C51.211 133.134 56.9863 131.365 62.5882 129.34C61.8802 129.691 61.1704 130.04 60.4624 130.392C51.2128 134.995 42.1987 139.628 34.4564 146.348C30.2814 149.972 35.1187 157.631 40.4068 157.029C42.518 156.79 44.5307 156.34 46.4813 155.742C46.3737 157.746 47.1966 159.79 48.9867 161.398C49.2732 161.655 49.5688 161.888 49.868 162.105C47.2988 163.647 44.8883 165.392 42.8209 167.423C41.4432 168.778 42.1622 171.18 43.9158 171.706C44.4212 171.857 44.9266 171.981 45.4303 172.083C45.1146 172.427 44.7953 172.772 44.4978 173.133C42.8027 175.184 43.361 178.402 46.0507 179.202C47.4393 179.616 48.8498 179.82 50.2695 179.875C50.1125 181.244 50.6399 182.741 51.6289 183.72C50.5213 186.103 50.9282 189.359 54.0539 189.866C57.0264 190.345 59.9606 190.331 62.8601 189.995C62.6356 192.077 63.9768 194.214 66.0625 194.994C71.0495 196.859 76.6204 196.396 82.1365 195.011C81.3884 195.57 80.6457 196.143 79.914 196.744C77.5364 198.695 78.5546 202.691 80.8355 204.133C90.7456 210.392 104.873 205.853 115.569 202.659C115.533 204.777 117.025 206.978 119.018 207.665C137.915 214.204 158.003 206.03 177.123 205.218C179.23 205.131 180.572 203.891 181.152 202.345C199.224 201.825 217.367 203.379 235.443 203.433C239.528 203.446 241.277 198.042 239.195 195.333C240.112 195.609 241.027 195.884 241.941 196.157C247.727 197.893 249.703 189.257 244.369 187.071C243.654 186.777 242.935 186.502 242.214 186.225C246.687 186.495 251.172 186.44 255.686 185.827C259.392 185.324 262.469 179.565 258.314 177.323C260.951 175.913 261.237 172.088 259.106 169.89C259.573 169.89 260.04 169.888 260.507 169.875C264.556 169.78 266.248 164.984 263.675 161.985C262.173 160.236 260.394 158.831 258.451 157.682C259.372 157.556 260.29 157.414 261.208 157.246C264.921 156.564 265.631 150.519 262.268 148.858C260.863 148.163 259.44 147.569 257.998 147.049C257.675 145.454 256.659 143.972 254.962 143.338C245.51 139.795 235.68 137.786 225.701 136.647C221.931 135.87 218.152 135.19 214.365 134.623C214.8 134.623 215.229 134.618 215.661 134.618C224.113 134.645 232.386 135.141 240.84 136.129C248.939 137.075 257.166 137.921 265.133 136.793C270.669 136.009 273.457 128.712 268.834 125.123C275.654 124.337 276.591 114.137 268.675 112.344H268.668ZM244.661 66.015C244.791 66.0387 244.922 66.0697 245.052 66.0952C242.348 65.7634 239.632 65.5282 236.908 65.3331C239.508 65.4316 242.1 65.6285 244.661 66.015ZM58.8457 95.7849C63.5571 93.176 68.3981 90.7567 73.3213 88.5161C91.8094 80.1005 111.894 74.0878 132.508 71.4534C135.535 71.0651 138.572 70.7424 141.612 70.4488C138.616 70.9739 135.632 71.5209 132.656 72.1024C110.515 76.4214 88.9537 82.9792 68.535 91.723C65.3198 93.0958 62.0736 94.4267 58.8439 95.7867L58.8457 95.7849ZM56.3239 164.229C56.3476 164.229 56.3713 164.229 56.3951 164.229C55.6597 164.586 54.9316 164.958 54.2182 165.348C54.9134 164.962 55.6196 164.592 56.3257 164.227L56.3239 164.229ZM57.6906 171.572C58.5501 171.089 59.4369 170.65 60.3347 170.231C60.4058 170.351 60.477 170.469 60.5554 170.59C59.6048 170.943 58.6486 171.283 57.6906 171.572ZM85.2969 184.338C88.5012 182.98 91.782 181.828 94.968 180.761C96.0172 180.411 97.0701 180.077 98.1248 179.747C93.8586 181.31 89.6179 182.94 85.2969 184.338ZM100.65 196.453C98.935 196.814 97.0062 197.207 95.0355 197.432C106.717 190.852 120.357 187.977 133.32 184.234C133.608 184.238 133.895 184.25 134.183 184.252C134.625 185.758 135.479 187.147 136.718 188.15C130.921 188.978 125.136 189.924 119.483 191.486C113.219 193.217 107.009 195.115 100.65 196.451V196.453ZM182.575 192.785C183.009 192.181 183.407 191.543 183.783 190.879C185.015 191.55 186.274 192.174 187.557 192.746C185.894 192.743 184.234 192.764 182.575 192.783V192.785ZM207.931 189.078C203.788 188.188 199.189 187.202 194.773 185.727C207.209 186.48 219.528 189.583 231.578 193.084C223.677 191.86 215.763 190.757 207.931 189.078Z" fill="#DB5800"/>
<path d="M281.149 79.9419C283.037 78.106 288.552 76.6402 288.552 76.6402C288.552 76.6402 289.935 83.6301 285.566 88.609C284.019 90.3738 280.711 91.8196 278.229 91.8123C278.229 91.8123 274.197 86.7021 281.147 79.9437L281.149 79.9419Z" fill="#3D835B"/>
<path d="M275.93 81.4095C276.638 83.2563 276.415 86.2882 275.434 88.1314C275.434 88.1314 270.038 89.1195 267.733 81.2892C267.107 79.1579 268.184 74.4816 268.184 74.4816C268.184 74.4816 273.939 76.2008 275.93 81.4095Z" fill="#74B486"/>
<path d="M266.206 94.6855C265.739 96.9699 263.6 99.8413 261.458 101.056C261.458 101.056 255.466 98.6289 258.132 89.3893C258.858 86.8789 262.889 82.9044 262.889 82.9044C262.889 82.9044 267.522 88.2499 266.206 94.6873V94.6855Z" fill="#42AA94"/>
<path d="M242.707 108.184C241.921 110.842 239.087 114.031 236.423 115.249C236.423 115.249 229.566 111.763 233.675 101.077C234.792 98.175 239.979 93.8761 239.979 93.8761C239.979 93.8761 244.926 100.685 242.707 108.184Z" fill="#42AA94"/>
<path d="M279.269 137.824C279.269 137.824 273.259 140.873 270.147 140.74C258.703 140.26 258.225 132.588 258.225 132.588C260.403 130.632 264.458 129.301 267.211 129.637C274.979 130.585 279.269 137.824 279.269 137.824Z" fill="#3D835B"/>
<path d="M255.509 151.153C246.056 157.614 241.076 151.757 241.076 151.757C241.649 148.885 244.096 145.398 246.503 144.018C253.291 140.129 261.069 143.363 261.069 143.363C261.069 143.363 258.082 149.398 255.509 151.155V151.153Z" fill="#42AA94"/>
<path d="M231.379 155.536C231.379 155.536 231.677 157.283 233.821 161.516C237.565 168.909 248.397 169.968 248.397 169.968C247.397 168.522 246.658 160.413 239.729 156.09C237.85 154.918 233.562 154.685 231.381 155.536H231.379Z" fill="#3D835B"/>
<path d="M224.451 111.819C230.898 118.324 227.646 123.595 227.646 123.595C225.301 123.557 221.557 121.619 220.126 119.925C216.086 115.147 217.519 108.572 217.519 108.572C217.519 108.572 222.699 110.053 224.451 111.819Z" fill="#3D835B"/>
<path d="M192.764 131.573C199.211 138.078 195.959 143.349 195.959 143.349C193.617 143.312 189.872 141.372 188.438 139.677C184.4 134.902 185.83 128.322 185.83 128.322C185.83 128.322 191.013 129.804 192.763 131.571L192.764 131.573Z" fill="#74B486"/>
<path d="M207.026 130.426C206.331 139.553 200.215 140.548 200.215 140.548C198.709 138.756 197.722 134.658 198.065 132.47C199.032 126.291 204.943 123.063 204.943 123.063C204.943 123.063 207.216 127.943 207.026 130.426Z" fill="#3D835B"/>
<path d="M250.072 100.935C248.752 99.2178 248.083 94.5834 248.083 94.5834C248.083 94.5834 253.922 94.124 257.568 98.1604C258.86 99.5916 259.725 102.428 259.484 104.45C259.484 104.45 254.924 107.247 250.072 100.935Z" fill="#3D835B"/>
<path d="M266.407 115.477C267.465 113.737 269.897 112.04 271.799 111.714C278.943 110.485 282.921 117.345 282.921 117.345C282.921 117.345 278.472 119.416 276.027 119.575C268.075 120.091 266.405 115.477 266.405 115.477H266.407Z" fill="#74B486"/>
<path d="M281.915 96.9243C281.915 96.9243 283.935 91.8269 291.803 94.0274C293.942 94.6272 297.341 98.0182 297.341 98.0182C297.341 98.0182 292.833 101.982 287.355 100.908C285.413 100.529 282.959 98.7311 281.915 96.9225V96.9243Z" fill="#42AA94"/>
<path d="M23.6248 79.9419C21.7344 78.106 16.2218 76.6402 16.2218 76.6402C16.2218 76.6402 14.8369 83.6301 19.2053 88.609C20.7526 90.3738 24.0627 91.8196 26.5425 91.8123C26.5425 91.8123 30.5752 86.7021 23.6248 79.9437V79.9419Z" fill="#74B486"/>
<path d="M28.8435 81.4095C28.1373 83.2563 28.3599 86.2882 29.3416 88.1314C29.3416 88.1314 34.7374 89.1195 37.0402 81.2892C37.6679 79.1579 36.5895 74.4816 36.5895 74.4816C36.5895 74.4816 30.8343 76.2008 28.8435 81.4095Z" fill="#3D835B"/>
<path d="M38.5656 94.6855C39.0328 96.9699 41.1713 99.8413 43.3136 101.056C43.3136 101.056 49.306 98.6289 46.6401 89.3893C45.9156 86.8789 41.883 82.9044 41.883 82.9044C41.883 82.9044 37.25 88.2499 38.5656 94.6873V94.6855Z" fill="#42AA94"/>
<path d="M62.0681 108.184C62.8528 110.842 65.6848 114.031 68.3489 115.249C68.3489 115.249 75.2062 111.763 71.0987 101.077C69.982 98.175 64.7943 93.8761 64.7943 93.8761C64.7943 93.8761 59.8475 100.685 62.0681 108.184Z" fill="#42AA94"/>
<path d="M25.5042 137.824C25.5042 137.824 31.5131 140.873 34.6261 140.74C46.0708 140.26 46.547 132.588 46.547 132.588C44.3683 130.632 40.3156 129.301 37.5621 129.637C29.7942 130.585 25.5042 137.824 25.5042 137.824Z" fill="#3D835B"/>
<path d="M49.2604 151.153C58.7161 157.614 63.6958 151.757 63.6958 151.757C63.1247 148.885 60.674 145.398 58.2691 144.018C51.4792 140.129 43.7041 143.363 43.7041 143.363C43.7041 143.363 46.6912 149.398 49.2604 151.155V151.153Z" fill="#42AA94"/>
<path d="M62.8564 157.868C58.707 160.829 55.4371 165.78 54.4371 167.226C54.4371 167.226 63.4367 167.408 68.847 163.682C74.2573 159.957 73.3924 155.534 73.3924 155.534C71.2082 154.683 67.0077 154.907 62.8564 157.866V157.868Z" fill="#3D835B"/>
<path d="M80.3209 111.819C73.8742 118.324 77.1258 123.595 77.1258 123.595C79.4688 123.557 83.2131 121.619 84.6455 119.925C88.6837 115.147 87.2531 108.572 87.2531 108.572C87.2531 108.572 82.0727 110.053 80.3209 111.819Z" fill="#3D835B"/>
<path d="M112.005 131.573C105.559 138.078 108.812 143.349 108.812 143.349C111.153 143.312 114.9 141.372 116.33 139.677C120.368 134.902 118.939 128.322 118.939 128.322C118.939 128.322 113.757 129.804 112.005 131.571V131.573Z" fill="#42AA94"/>
<path d="M97.7453 130.426C98.4423 139.553 104.559 140.548 104.559 140.548C106.064 138.756 107.053 134.658 106.708 132.47C105.741 126.291 99.8291 123.063 99.8291 123.063C99.8291 123.063 97.5555 127.943 97.7453 130.426Z" fill="#74B486"/>
<path d="M54.6999 100.935C56.0192 99.2178 56.6888 94.5834 56.6888 94.5834C56.6888 94.5834 50.8497 94.124 47.2021 98.1604C45.9102 99.5916 45.0452 102.428 45.2898 104.45C45.2898 104.45 49.8479 107.247 54.6999 100.935Z" fill="#74B486"/>
<path d="M38.3668 115.477C37.3066 113.737 34.8742 112.04 32.9747 111.714C25.8309 110.485 21.8511 117.345 21.8511 117.345C21.8511 117.345 26.3016 119.416 28.7468 119.575C36.6971 120.091 38.3686 115.477 38.3686 115.477H38.3668Z" fill="#74B486"/>
<path d="M22.8584 96.9243C22.8584 96.9243 20.8384 91.8269 12.9683 94.0274C10.8298 94.6272 7.4303 98.0182 7.4303 98.0182C7.4303 98.0182 11.9392 101.982 17.417 100.908C19.3586 100.529 21.8128 98.7311 22.8566 96.9225L22.8584 96.9243Z" fill="#74B486"/>
<path d="M170.324 157.591C170.324 156.636 169.526 155.837 168.57 155.837C167.614 155.837 166.815 156.636 166.815 157.591C166.815 158.546 167.612 159.345 168.57 159.345C169.528 159.345 170.324 158.548 170.324 157.591Z" fill="#A5CEC6"/>
<path d="M130.068 150.727C130.068 149.489 128.151 149.489 128.151 150.727C128.151 151.963 130.068 151.963 130.068 150.727Z" fill="#F48376"/>
<path d="M171.873 146.129C171.795 146.231 171.716 146.333 171.638 146.435C171.515 146.596 171.47 146.938 171.548 147.124C171.689 147.456 171.838 147.609 172.172 147.75C172.482 147.879 172.811 147.699 173.044 147.52C173.15 147.438 173.254 147.356 173.36 147.276C173.769 146.96 173.69 146.267 173.36 145.937C172.888 145.465 172.24 145.657 171.873 146.131V146.129Z" fill="#F48376"/>
<path d="M135.125 157.935C135.125 156.823 133.397 156.823 133.397 157.935C133.397 159.047 135.125 159.047 135.125 157.935Z" fill="#A5CEC6"/>
<path d="M134.012 143.956C133.926 144.056 133.838 144.154 133.751 144.255C133.063 145.04 134.108 146.085 134.897 145.398C134.995 145.312 135.094 145.225 135.194 145.135C136.008 144.426 134.723 143.141 134.01 143.954L134.012 143.956Z" fill="#A5CEC6"/>
<path d="M119.843 145.919C119.843 145.018 118.443 145.018 118.443 145.919C118.443 146.82 119.843 146.82 119.843 145.919Z" fill="#F48376"/>
<path d="M97.3164 142.486C97.3164 141.392 95.6176 141.392 95.6176 142.486C95.6176 143.584 97.3164 143.584 97.3164 142.486Z" fill="#F48376"/>
<path d="M89.4117 130.295C89.1763 130.193 88.9628 130.096 88.6983 130.169C88.3443 130.264 88.0395 130.534 87.941 130.893C87.7384 131.628 88.4373 132.326 89.1727 132.124C89.9354 131.914 90.2438 130.654 89.4117 130.297V130.295Z" fill="#C89DBE"/>
<path d="M94.0447 127.382C94.0447 126.074 92.0156 126.074 92.0156 127.382C92.0156 128.689 94.0447 128.689 94.0447 127.382Z" fill="#C89DBE"/>
<path d="M68.9784 143.039C68.8817 143.048 68.7868 143.055 68.6883 143.064C68.0715 143.121 67.5515 143.54 67.5515 144.204C67.5515 144.867 68.0715 145.285 68.6883 145.341C68.7868 145.35 68.8817 145.359 68.9784 145.367C69.6116 145.425 70.1444 144.796 70.1444 144.204C70.1444 143.611 69.6116 142.98 68.9784 143.039Z" fill="#F48376"/>
<path d="M60.8036 120.86C60.9186 120.678 61.0335 120.499 61.1467 120.317C61.3036 120.275 61.4605 120.233 61.6138 120.191C61.0043 120.259 61.5499 120.116 61.8163 120.28C61.3529 119.996 60.8675 120.295 60.6868 120.74C60.4259 121.376 60.9569 121.963 61.5682 122.031C62.1119 122.091 62.5845 121.61 62.6904 121.114C62.7962 120.603 62.5481 120.08 62.0207 119.934C61.4277 119.77 60.7927 120.233 60.8054 120.858L60.8036 120.86Z" fill="#F48376"/>
<path d="M44.9066 124.957C44.7186 125.157 45.0635 124.853 44.8409 125.022C44.7186 125.115 44.6402 125.188 44.5362 125.283C44.7204 125.114 44.684 125.201 44.5161 125.227C44.3154 125.303 44.2935 125.318 44.4504 125.269C44.4139 125.278 44.3829 125.272 44.3537 125.254C44.0617 125.185 43.7132 125.458 43.8318 125.777C44.1475 126.63 45.2733 127.159 46.1218 126.527C46.5579 126.202 46.7787 125.67 46.4795 125.159C46.1602 124.616 45.3518 124.483 44.9084 124.955L44.9066 124.957Z" fill="#A5CEC6"/>
<path d="M30.7558 108.499C30.7558 107.28 28.8654 107.28 28.8654 108.499C28.8654 109.719 30.7558 109.719 30.7558 108.499Z" fill="#F48376"/>
<path d="M33.5239 96.4831C33.544 96.6764 33.5622 96.8642 33.5841 97.0574C33.679 97.9508 34.8742 97.9508 34.9709 97.0574C34.991 96.866 35.0111 96.6764 35.0311 96.4831C35.1351 95.5114 33.4217 95.5114 33.5257 96.4831H33.5239Z" fill="#F48376"/>
<path d="M22.0956 104.724C22.0956 103.593 20.3402 103.593 20.3402 104.724C20.3402 105.854 22.0956 105.856 22.0956 104.724Z" fill="#C89DBE"/>
<path d="M10.5688 85.0084C10.4885 85.0175 10.4101 85.0266 10.3334 85.0375C9.89732 85.0886 9.52325 85.3639 9.52325 85.8433C9.52325 86.2426 9.89367 86.702 10.3334 86.6492C10.4046 86.6419 10.4794 86.6328 10.5524 86.6236C10.8699 86.5835 11.2513 86.4176 11.306 86.0512C11.3279 85.9035 11.3279 85.785 11.306 85.6355C11.2513 85.2672 10.8699 85.1013 10.5524 85.0612C10.4794 85.0539 10.4046 85.0448 10.3334 85.0357C9.89367 84.981 9.52325 85.4423 9.52325 85.8415C9.52325 86.321 9.8955 86.5963 10.3334 86.6473C10.4101 86.6565 10.4885 86.6674 10.5688 86.6765C11.0232 86.7312 11.4064 86.2572 11.4064 85.8415C11.4064 85.4277 11.0232 84.95 10.5688 85.0065V85.0084Z" fill="#C89DBE"/>
<path d="M23.0591 72.1097C23.0591 71.0687 21.4406 71.0687 21.4406 72.1097C21.4406 73.1525 23.0591 73.1525 23.0591 72.1097Z" fill="#C89DBE"/>
<path d="M12.1199 114.68C12.1162 114.627 12.1144 114.576 12.1144 114.525C11.9903 114.888 11.9885 114.92 12.1071 114.62C11.9009 114.953 11.8863 114.993 12.0688 114.744C12.0815 114.725 12.0925 114.703 12.0998 114.682C12.2604 114.333 12.1837 114.065 11.9465 113.788C11.6929 113.493 11.1746 113.478 10.859 113.661C10.4831 113.881 10.4119 114.284 10.3937 114.682C10.3389 115.794 12.1691 115.794 12.1217 114.682L12.1199 114.68Z" fill="#F48376"/>
<path d="M19.9114 137.13C19.8056 136.767 19.5447 136.557 19.1578 136.557C18.4772 136.557 18.125 137.409 18.6049 137.89C19.1542 138.437 20.1359 137.888 19.9114 137.13Z" fill="#A5CEC6"/>
<path d="M29.2924 124.359C29.2157 124.33 29.1391 124.3 29.0606 124.269C27.6738 123.75 28.1118 126.65 29.3836 125.496C29.4292 125.458 29.473 125.414 29.5186 125.374C29.7376 125.176 29.7376 124.778 29.5186 124.579C29.473 124.537 29.4292 124.497 29.3836 124.457C28.11 123.305 27.6738 126.204 29.0606 125.684C29.1391 125.655 29.2157 125.626 29.2924 125.597C29.9037 125.367 29.9037 124.583 29.2924 124.357V124.359Z" fill="#A5CEC6"/>
<path d="M36.1734 148.019C36.1187 148.01 36.064 148.003 36.0092 147.994C36.1479 148.1 36.2866 148.207 36.4271 148.313C36.0202 147.549 34.8012 147.742 34.8012 148.667C34.8012 149.591 36.0202 149.784 36.4271 149.018C36.2884 149.126 36.1497 149.232 36.0092 149.339C36.064 149.33 36.1187 149.323 36.1734 149.314C36.8176 149.215 36.8176 148.118 36.1734 148.019Z" fill="#F48376"/>
<path d="M61.4076 142.194C61.4405 142.147 61.4715 142.098 61.5025 142.049C61.5937 141.91 61.5937 141.691 61.5025 141.553C61.4715 141.505 61.4386 141.454 61.4076 141.407C60.9934 140.771 59.9515 140.997 59.9515 141.802C59.9515 142.608 60.9934 142.833 61.4076 142.196V142.194Z" fill="#A5CEC6"/>
<path d="M96.5975 155.206C96.5537 155.306 96.4807 155.423 96.4807 155.532C96.4807 155.642 96.5537 155.757 96.5975 155.857C96.8694 156.464 97.7982 156.134 97.7982 155.532C97.7982 154.931 96.8712 154.597 96.5975 155.206Z" fill="#F48376"/>
<path d="M80.164 144.944C80.1384 144.984 80.1111 145.024 80.0855 145.066C80.0235 145.161 80.0235 145.303 80.0855 145.401C80.1111 145.441 80.1366 145.483 80.164 145.524C80.4669 145.998 81.2388 145.823 81.2388 145.234C81.2388 144.645 80.4687 144.47 80.164 144.944Z" fill="#F48376"/>
<path d="M68.9656 126.681C68.9948 126.647 69.0277 126.616 69.0569 126.581C69.4601 126.147 68.8142 125.496 68.4036 125.93C68.2686 126.076 68.1317 126.222 67.9967 126.368C67.6117 126.784 68.2029 127.374 68.6171 126.99C68.7631 126.853 68.9091 126.718 69.0569 126.581C68.8415 126.366 68.6207 126.147 68.4036 125.93C68.3708 125.961 68.3379 125.992 68.3051 126.023C67.8635 126.434 68.5532 127.123 68.9656 126.681Z" fill="#C89DBE"/>
<path d="M51.8004 124.43C51.6909 124.434 51.5814 124.441 51.472 124.443C50.7822 124.47 50.7822 125.484 51.472 125.511C51.5814 125.517 51.6909 125.52 51.8004 125.524C52.5066 125.553 52.5066 124.401 51.8004 124.428V124.43Z" fill="#F48376"/>
<path d="M55.9206 111.59C55.9206 110.707 54.5484 110.707 54.5484 111.59C54.5484 112.472 55.9206 112.474 55.9206 111.59Z" fill="#F48376"/>
<path d="M183 151.066C183.206 151.038 183.413 151.031 183.604 150.942C183.743 150.878 183.847 150.758 183.956 150.652C184.104 150.512 184.104 150.251 183.956 150.111C183.871 150.027 183.763 149.897 183.655 149.846C183.44 149.746 183.228 149.729 182.998 149.697C182.115 149.58 182.115 151.184 182.998 151.068L183 151.066Z" fill="#F48376"/>
<path d="M210.455 143.327C210.408 143.296 210.358 143.265 210.311 143.232C210.216 143.172 210.072 143.172 209.979 143.232C209.93 143.265 209.88 143.296 209.835 143.327C209.329 143.653 209.512 144.473 210.145 144.473C210.778 144.473 210.961 143.651 210.455 143.327Z" fill="#F48376"/>
<path d="M210.898 134.946C211.559 134.57 211.559 133.925 210.898 133.551C210.366 133.248 209.68 133.629 209.68 134.246C209.68 134.866 210.366 135.247 210.898 134.946Z" fill="#C89DBE"/>
<path d="M220.995 136.063C220.98 136.018 220.966 135.974 220.951 135.93C220.679 135.099 219.54 135.099 219.267 135.93C219.254 135.974 219.239 136.016 219.225 136.063C219.037 136.636 219.535 137.225 220.11 137.225C220.685 137.225 221.185 136.634 220.995 136.063Z" fill="#C89DBE"/>
<path d="M215.145 126.541C215.241 126.441 215.313 126.393 215.442 126.339C215.639 126.255 215.718 126.111 215.849 125.967C216.01 125.797 216.021 125.533 215.849 125.365C215.614 125.126 215.438 124.986 215.079 125.006C214.688 125.026 214.371 125.243 214.077 125.478C213.331 126.074 214.459 127.259 215.145 126.543V126.541Z" fill="#C89DBE"/>
<path d="M217.161 135.735C217.112 135.474 217.159 135.885 217.157 135.691C217.152 135.445 217.05 135.259 216.884 135.082C216.942 135.296 216.999 135.511 217.053 135.724C217.072 135.649 217.092 135.578 217.115 135.509C217.238 135.124 216.833 134.7 216.442 134.835C216.322 134.876 216.201 134.924 216.084 134.979C216.196 134.949 216.307 134.918 216.418 134.887C216.395 134.887 216.369 134.884 216.345 134.882C215.966 134.847 215.687 135.159 215.564 135.476C215.531 135.56 215.515 135.644 215.497 135.735C215.387 136.278 215.738 136.825 216.329 136.825C216.92 136.825 217.267 136.278 217.161 135.735Z" fill="#C89DBE"/>
<path d="M223.226 130.127C223.226 128.767 221.115 128.767 221.115 130.127C221.115 131.485 223.226 131.485 223.226 130.127Z" fill="#F48376"/>
<path d="M232.615 116.397C232.615 115.777 231.655 115.777 231.655 116.397C231.655 117.017 232.615 117.013 232.615 116.397Z" fill="#C89DBE"/>
<path d="M238.207 126.009C238.207 124.826 236.37 124.826 236.37 126.009C236.37 127.192 238.207 127.192 238.207 126.009Z" fill="#F48376"/>
<path d="M247.253 120.324C246.964 120.352 246.621 120.361 246.362 120.512C246.054 120.692 245.953 121.015 245.824 121.325C245.703 121.613 246.008 122.002 246.316 121.969C246.377 121.958 246.439 121.954 246.503 121.956C246.399 121.93 246.293 121.901 246.189 121.872C246.548 122.071 246.864 122.045 247.254 122.076C248.388 122.173 248.384 120.222 247.254 120.324H247.253Z" fill="#F48376"/>
<path d="M242.373 117.77C242.364 117.673 242.355 117.577 242.348 117.48C242.278 116.72 241.233 116.72 241.165 117.48C241.156 117.579 241.147 117.675 241.138 117.77C241.067 118.565 242.444 118.565 242.373 117.77Z" fill="#C89DBE"/>
<path d="M250.838 114.337C250.838 113.26 249.165 113.26 249.165 114.337C249.165 115.415 250.838 115.416 250.838 114.337Z" fill="#C89DBE"/>
<path d="M247.479 106.97C247.444 106.716 246.977 107.353 247.236 107.292C247.389 107.258 247.488 107.145 247.572 107.021C247.656 106.897 247.665 106.673 247.572 106.549C247.386 106.303 247.123 106.195 246.82 106.292C246.506 106.392 246.382 106.671 246.34 106.97C246.287 107.344 246.488 107.717 246.91 107.717C247.333 107.717 247.528 107.344 247.479 106.97Z" fill="#C89DBE"/>
<path d="M273.366 105.962C273.259 105.965 273.151 105.971 273.04 105.974C271.998 106.016 271.998 107.551 273.04 107.591C273.149 107.595 273.257 107.601 273.366 107.604C274.428 107.648 274.428 105.921 273.366 105.962Z" fill="#A5CEC6"/>
<path d="M267.566 99.9179C267.566 98.9808 266.111 98.9808 266.111 99.9179C266.111 100.855 267.566 100.855 267.566 99.9179Z" fill="#F48376"/>
<path d="M281.769 104.842C281.707 104.888 281.649 104.933 281.589 104.977C281.017 105.407 281.017 106.098 281.589 106.529C281.649 106.574 281.707 106.618 281.769 106.664C283.703 108.12 283.703 103.387 281.769 104.842Z" fill="#A5CEC6"/>
<path d="M289.389 106.439C289.389 105.714 288.265 105.714 288.265 106.439C288.265 107.165 289.389 107.165 289.389 106.439Z" fill="#A5CEC6"/>
<path d="M271.042 93.7393C271.042 93.1906 270.193 93.1906 270.193 93.7393C270.193 94.2881 271.042 94.2863 271.042 93.7393Z" fill="#F48376"/>
<path d="M276.979 72.797C276.979 72.1261 275.939 72.1261 275.939 72.797C275.939 73.4679 276.979 73.4698 276.979 72.797Z" fill="#F48376"/>
<path d="M295.701 84.6091C295.615 84.6128 295.528 84.6182 295.444 84.6219C294.31 84.6766 294.31 86.3247 295.444 86.3775C295.528 86.383 295.615 86.3848 295.701 86.3903C296.85 86.445 296.85 84.5544 295.701 84.6091Z" fill="#F48376"/>
<path d="M290.823 90.3829C290.792 90.2973 290.765 90.2134 290.734 90.1295C290.429 89.2654 289.285 89.2654 288.982 90.1295C288.951 90.2134 288.922 90.2973 288.893 90.3829C288.676 91.0028 289.241 91.65 289.858 91.65C290.475 91.65 291.041 91.0046 290.823 90.3829Z" fill="#F48376"/>
<path d="M291.685 75.8854C291.685 74.8627 290.095 74.8627 290.095 75.8854C290.095 76.9082 291.685 76.9119 291.685 75.8854Z" fill="#C89DBE"/>
<path d="M282.871 69.592C282.946 69.5117 283.023 69.4406 283.081 69.3458C282.906 69.4461 282.729 69.5464 282.554 69.6467C282.583 69.6448 282.612 69.643 282.64 69.6394C282.539 69.5974 282.439 69.5555 282.337 69.5136C282.362 69.5409 282.386 69.5701 282.41 69.5974C282.517 69.7269 282.767 69.7287 282.875 69.5974C283.216 69.1891 283.234 68.8499 282.871 68.4507C282.386 67.9202 281.49 68.3413 281.49 69.0213C281.49 69.705 282.384 70.1188 282.871 69.592Z" fill="#F48376"/>
<path d="M300 78.9756C300 77.8635 298.272 77.8635 298.272 78.9756C298.272 80.0896 300 80.0896 300 78.9756Z" fill="#C89DBE"/>
<path d="M258.987 123.961C258.92 123.929 258.854 123.894 258.788 123.861C257.102 123.004 257.102 126.266 258.788 125.411C258.854 125.376 258.92 125.341 258.987 125.309C259.496 125.05 259.496 124.22 258.987 123.96V123.961Z" fill="#F48376"/>
<path d="M280.346 127.724C280.346 126.7 278.755 126.7 278.755 127.724C278.755 128.749 280.346 128.749 280.346 127.724Z" fill="#C89DBE"/>
<path d="M282.908 121.967C282.879 121.929 282.849 121.892 282.82 121.854C282.915 122.003 282.888 121.89 282.738 121.513C282.778 121.365 282.818 121.218 282.859 121.068C282.964 120.942 282.988 120.913 282.926 120.982C282.669 121.276 282.576 121.819 282.926 122.1C283.417 122.486 284.034 122.479 284.441 121.965C284.689 121.653 284.829 121.32 284.72 120.913C284.59 120.448 284.158 120.118 283.676 120.118C283.293 120.118 282.933 120.326 282.742 120.654C282.472 121.114 282.605 121.577 282.91 121.967H282.908Z" fill="#F48376"/>
<path d="M270.918 125.321C270.918 124.49 269.629 124.49 269.629 125.321C269.629 126.151 270.918 126.151 270.918 125.321Z" fill="#C89DBE"/>
<path d="M260.998 120.198C261.188 120.182 261.418 120.198 261.564 120.053C261.71 119.907 261.695 119.677 261.712 119.486C261.763 118.847 260.907 118.569 260.493 118.981C260.079 119.396 260.36 120.248 260.998 120.197V120.198Z" fill="#A5CEC6"/>
<path d="M248.105 125.704C248.065 125.715 248.023 125.723 247.984 125.732C247.368 125.87 247.368 126.835 247.984 126.971C248.023 126.982 248.066 126.99 248.105 126.999C249.187 127.241 249.187 125.462 248.105 125.704Z" fill="#F48376"/>
<path d="M242.246 138.683C242.109 138.71 241.992 138.747 241.866 138.811C241.421 139.035 241.421 139.759 241.866 139.985C241.994 140.05 242.109 140.085 242.246 140.111C242.714 140.198 243.183 139.91 243.183 139.398C243.183 138.885 242.714 138.597 242.246 138.683Z" fill="#A5CEC6"/>
<path d="M231.104 138.328C231.009 138.34 230.91 138.353 230.815 138.366C230.257 138.439 229.784 138.782 229.784 139.396C229.784 140.01 230.257 140.355 230.815 140.428C230.912 140.441 231.009 140.453 231.104 140.464C231.684 140.539 232.175 139.923 232.175 139.396C232.175 138.871 231.684 138.253 231.104 138.328Z" fill="#A5CEC6"/>
<path d="M228.118 147.465C227.858 147.514 228.268 147.471 228.1 147.465C227.359 147.452 228.5 147.633 228.325 147.529C228.144 147.42 227.876 147.409 227.697 147.529C227.434 147.708 227.241 147.956 227.241 148.291C227.241 148.807 227.666 149.088 228.117 149.181C228.677 149.296 229.244 148.931 229.244 148.324C229.244 147.713 228.679 147.354 228.117 147.465H228.118Z" fill="#A5CEC6"/>
<path d="M219.794 146.902C220.002 146.803 220.256 146.69 220.3 146.43C220.27 146.477 220.243 146.526 220.216 146.577C220.261 146.543 220.296 146.504 220.325 146.457C220.354 146.406 220.382 146.326 220.382 146.264C220.382 146.202 220.354 146.123 220.325 146.072C220.305 146.047 220.287 146.019 220.265 145.994C220.181 145.91 220.192 145.945 220.3 146.1C220.256 145.837 220.004 145.724 219.794 145.626C219.3 145.392 218.681 145.664 218.681 146.262C218.681 146.86 219.3 147.133 219.794 146.902Z" fill="#F48376"/>
<path d="M235.914 144.741C235.771 144.758 235.631 144.747 235.487 144.789C235.753 144.898 236.023 145.006 236.29 145.115C236.344 145.215 236.361 145.316 236.339 145.423C236.417 145.135 236.242 144.738 235.919 144.687C235.656 144.647 235.401 144.659 235.2 144.862C235.001 145.062 234.989 145.287 234.958 145.547C234.925 145.815 235.135 146.112 235.357 146.242C235.463 146.304 235.576 146.348 235.695 146.384C236.129 146.519 236.603 146.227 236.724 145.801C236.855 145.323 236.468 144.681 235.917 144.743L235.914 144.741Z" fill="#A5CEC6"/>
<path d="M238.662 134.933C238.662 134.049 237.29 134.049 237.29 134.933C237.29 135.815 238.662 135.815 238.662 134.933Z" fill="#F48376"/>
<path d="M254.96 136.65C254.96 135.573 253.289 135.573 253.289 136.65C253.289 137.73 254.96 137.73 254.96 136.65Z" fill="#F48376"/>
<path d="M271.136 149.352C271.136 148.24 269.408 148.24 269.408 149.352C269.408 150.466 271.136 150.466 271.136 149.352Z" fill="#F48376"/>
<path d="M249.546 158.621C249.546 157.879 248.395 157.879 248.395 158.621C248.395 159.363 249.546 159.363 249.546 158.621Z" fill="#F48376"/>
<path d="M223.016 157.299C223.044 157.407 223.069 157.512 223.097 157.62C223.124 157.726 223.283 157.726 223.308 157.62C223.334 157.512 223.361 157.407 223.389 157.299C223.465 156.993 222.942 156.993 223.018 157.299H223.016Z" fill="#F48376"/>
<path d="M207.585 155.19C207.796 155.157 207.977 155.12 208.136 154.951C208.379 154.692 208.379 154.311 208.136 154.052C207.977 153.883 207.796 153.846 207.585 153.815C207.134 153.746 206.682 153.997 206.682 154.502C206.682 155.007 207.134 155.257 207.585 155.19Z" fill="#F48376"/>
<path d="M212.302 150.858C212.21 150.893 212.117 150.927 212.026 150.962C210.849 151.401 211.716 153.111 212.663 152.47C212.698 152.442 212.736 152.419 212.771 152.395C213.245 152.072 213.245 151.441 212.771 151.121C212.736 151.095 212.698 151.071 212.663 151.046C211.716 150.404 210.849 152.112 212.026 152.55C212.117 152.585 212.21 152.621 212.302 152.656C213.794 153.215 213.794 150.3 212.302 150.858Z" fill="#F48376"/>
<path d="M214.588 157.321C214.63 157.383 214.67 157.445 214.71 157.507C214.999 157.945 215.597 157.945 215.885 157.507C215.927 157.445 215.968 157.383 216.01 157.321C217.015 155.797 213.583 155.797 214.588 157.321Z" fill="#F48376"/>
<path d="M116.921 150.143C116.825 150.156 116.728 150.171 116.631 150.182C116.093 150.255 116.093 151.193 116.631 151.266C116.73 151.277 116.825 151.292 116.921 151.303C117.896 151.434 117.896 150.01 116.921 150.141V150.143Z" fill="#F48376"/>
<path d="M93.6761 116.053C93.6925 116.215 93.7017 116.363 93.7692 116.514C93.8677 116.734 94.2546 116.734 94.3531 116.514C94.4206 116.363 94.4297 116.215 94.4443 116.053C94.4918 115.559 93.6287 115.559 93.6761 116.053Z" fill="#C89DBE"/>
<path d="M87.1746 123.112C87.1855 123.187 87.1983 123.261 87.2093 123.338C87.3096 124 88.441 124 88.5413 123.338C88.5504 123.263 88.5632 123.187 88.5742 123.112C88.6435 122.652 88.388 122.193 87.8735 122.193C87.3589 122.193 87.1034 122.652 87.1728 123.112H87.1746Z" fill="#C89DBE"/>
<path d="M77.8156 106.784C77.8156 106.465 77.321 106.465 77.321 106.784C77.321 107.101 77.8156 107.101 77.8156 106.784Z" fill="#C89DBE"/>
<path d="M57.2801 105.411C57.2801 104.545 55.9371 104.545 55.9371 105.411C55.9371 106.277 57.2801 106.277 57.2801 105.411Z" fill="#F48376"/>
<path d="M56.9899 88.6273C57.0282 88.682 57.0684 88.7367 57.1085 88.7914C57.3932 89.1833 57.884 89.1833 58.1705 88.7914C58.2107 88.7367 58.2508 88.682 58.291 88.6273C58.6395 88.1514 58.1687 87.4933 57.6395 87.4933C57.1104 87.4933 56.6396 88.1514 56.9899 88.6273Z" fill="#F48376"/>
<path d="M44.319 76.5746C44.319 75.5864 42.7844 75.5864 42.7844 76.5746C42.7844 77.5627 44.319 77.5627 44.319 76.5746Z" fill="#F48376"/>
<path d="M32.5057 67.9913C32.5732 68.5163 32.7575 69.0414 33.3396 69.1818C33.8104 69.2966 34.1918 68.8901 34.0932 68.4306C34.064 68.2902 33.9983 68.1809 33.9254 68.0605C33.9491 68.1061 33.9637 68.1553 33.9637 68.2082C33.96 68.1371 33.9746 68.0605 33.9837 67.9913C34.1024 67.0341 32.378 67.0396 32.5039 67.9913H32.5057Z" fill="#F48376"/>
<path d="M8.96125 74.8572C8.97037 74.9228 8.97585 74.9903 8.98315 75.0559C9.07073 75.7651 10.0032 75.7651 10.0871 75.0559C10.0944 74.9903 10.1017 74.9228 10.1108 74.8572C10.2002 74.117 8.87001 74.117 8.95943 74.8572H8.96125Z" fill="#C89DBE"/>
<path d="M1.49444 93.8961C1.64589 93.9308 1.7937 93.969 1.94697 93.9891C2.08565 94.0073 2.24623 93.8469 2.22798 93.7083C2.20609 93.5552 2.16959 93.4075 2.13675 93.2562C2.04916 92.8697 1.53276 92.7603 1.26635 93.0265C0.996291 93.2927 1.10942 93.8086 1.49444 93.8961Z" fill="#C89DBE"/>
<path d="M12.8917 68.334C12.91 68.4926 12.9063 68.6676 12.961 68.8171C13.2129 69.5063 14.107 69.5063 14.3606 68.8171C14.4135 68.6676 14.4117 68.4926 14.4281 68.334C14.5248 67.3459 12.7968 67.3459 12.8917 68.334Z" fill="#C89DBE"/>
<path d="M0.520048 76.5746C0.520048 76.2391 0 76.2391 0 76.5746C0 76.91 0.520048 76.91 0.520048 76.5746Z" fill="#C89DBE"/>
<path d="M14.7876 122.672C14.7201 122.745 14.6544 122.816 14.5924 122.891C14.3022 123.234 14.253 123.717 14.5924 124.054C14.908 124.37 15.4409 124.373 15.7565 124.054C15.8277 123.985 15.8989 123.919 15.97 123.852C16.7638 123.119 15.5175 121.878 14.7876 122.671V122.672Z" fill="#A5CEC6"/>
<path d="M46.0105 158.278C46.0105 157.766 45.215 157.766 45.215 158.278C45.215 158.79 46.0105 158.79 46.0105 158.278Z" fill="#F48376"/>
<path d="M41.3246 151.492C41.1823 151.52 41.0473 151.542 40.9214 151.62C40.5619 151.844 40.5619 152.355 40.9214 152.577C41.0473 152.657 41.1805 152.677 41.3246 152.707C41.7206 152.787 42.122 152.53 42.122 152.1C42.122 151.667 41.7206 151.412 41.3246 151.492Z" fill="#F48376"/>
<path d="M28.984 147.979C28.984 147.948 28.984 147.915 28.9822 147.884C28.9639 147.183 27.8709 147.179 27.891 147.884C27.891 148.019 27.8983 148.156 27.9001 148.293C27.9202 148.98 28.9548 148.98 28.9712 148.293C28.9749 148.156 28.9767 148.019 28.9822 147.884C29.0004 147.179 27.9092 147.183 27.891 147.884C27.8892 147.915 27.8891 147.95 27.8891 147.979C27.8691 148.687 29.0022 148.687 28.9858 147.979H28.984Z" fill="#F48376"/>
<path d="M283.421 83.8762C262.648 115.156 231.489 137.555 198.113 153.873C193.768 155.997 189.37 158.01 184.938 159.946H186.719C209.526 149.884 231.284 137.451 250.424 121.433C263.29 110.667 274.74 98.2115 284.026 84.2299C284.276 83.8525 283.667 83.5006 283.421 83.8762Z" fill="#004E2C"/>
<path d="M188.526 159.131C192.865 156.32 195.638 151.604 197.881 147.079C200.324 142.149 202.125 136.926 203.846 131.71C203.986 131.279 203.309 131.097 203.169 131.524C201.569 136.377 199.875 141.201 197.706 145.833C195.494 150.552 192.657 155.622 188.172 158.526C187.792 158.77 188.146 159.379 188.526 159.131Z" fill="#004E2C"/>
<path d="M197.521 147.713C196.998 142.785 193.554 138.638 190.989 134.592C190.75 134.211 190.14 134.563 190.383 134.946C192.865 138.86 196.313 142.949 196.819 147.713C196.866 148.158 197.569 148.163 197.52 147.713H197.521Z" fill="#004E2C"/>
<path d="M237.383 159.948H238.483C229.741 152.831 218.374 148.648 207.076 149.369C206.627 149.398 206.623 150.1 207.076 150.072C217.933 149.378 228.856 153.255 237.383 159.948Z" fill="#004E2C"/>
<path d="M218.887 151.062C225.089 152.278 231.449 152.721 237.76 152.362C243.822 152.014 250.083 150.829 255.38 147.742C255.772 147.513 255.416 146.907 255.026 147.137C249.656 150.266 243.353 151.341 237.224 151.689C231.168 152.036 225.022 151.549 219.073 150.384C218.63 150.298 218.442 150.975 218.887 151.062Z" fill="#004E2C"/>
<path d="M216.918 144.689C224.323 139.303 229.721 131.577 233.587 123.369C237.465 115.137 239.881 105.973 239.837 96.8423C239.833 96.3902 239.133 96.3902 239.134 96.8423C239.178 105.881 236.757 114.846 232.983 123.015C229.244 131.11 223.84 138.796 216.568 144.085C216.205 144.349 216.555 144.957 216.92 144.69L216.918 144.689Z" fill="#004E2C"/>
<path d="M229.405 130.911C229.334 127.343 228.166 123.832 226.856 120.552C225.584 117.373 223.993 114.193 221.785 111.551C221.495 111.203 221 111.704 221.289 112.047C223.529 114.731 225.08 117.992 226.37 121.218C227.589 124.271 228.639 127.597 228.704 130.911C228.712 131.361 229.414 131.361 229.405 130.911Z" fill="#004E2C"/>
<path d="M235.494 132.851C241.983 130.969 249.039 131.433 255.641 132.402C262.261 133.376 268.914 135.075 275.061 137.739C275.474 137.916 275.831 137.312 275.417 137.133C269.191 134.439 262.52 132.756 255.829 131.728C249.121 130.698 241.902 130.264 235.308 132.175C234.874 132.3 235.06 132.977 235.494 132.851Z" fill="#004E2C"/>
<path d="M251.446 120.567C254.991 118.364 259.097 117.212 263.166 116.434C267.542 115.597 272.193 115.258 276.612 115.954C277.056 116.023 277.246 115.349 276.799 115.276C272.563 114.611 268.235 114.904 264.018 115.575C259.555 116.288 254.958 117.557 251.092 119.961C250.707 120.2 251.059 120.806 251.444 120.567H251.446Z" fill="#004E2C"/>
<path d="M256.61 116.002C260.965 109.271 263.055 100.239 261.537 92.3209C261.451 91.8761 260.774 92.0675 260.858 92.5069C262.341 100.237 260.252 109.085 256.004 115.646C255.758 116.027 256.365 116.379 256.61 116V116.002Z" fill="#004E2C"/>
<path d="M260.591 106.809C259.736 103.094 257.311 99.7629 253.948 97.9307C253.548 97.7119 253.196 98.3172 253.594 98.536C256.805 100.286 259.095 103.448 259.914 106.995C260.017 107.437 260.694 107.249 260.591 106.809Z" fill="#004E2C"/>
<path d="M271.049 101.236C277.246 97.3783 284.922 95.8706 292.154 96.6764C292.604 96.7275 292.597 96.0237 292.154 95.9763C284.813 95.1577 276.988 96.7129 270.697 100.631C270.312 100.87 270.666 101.477 271.049 101.236Z" fill="#004E2C"/>
<path d="M275.184 96.3173C278.089 90.8096 274.945 83.5171 271.689 78.8608C271.434 78.4925 270.824 78.8444 271.084 79.2126C274.176 83.641 277.351 90.7057 274.576 95.9636C274.366 96.361 274.972 96.7165 275.182 96.3173H275.184Z" fill="#004E2C"/>
<path d="M20.7472 84.2317C41.1659 114.979 71.5859 137.217 104.302 153.496C108.849 155.759 113.454 157.897 118.098 159.948H119.786C95.8475 149.516 73.0202 136.504 53.1635 119.513C41.0217 109.125 30.1993 97.196 21.353 83.878C21.103 83.5043 20.4954 83.8543 20.7472 84.2317Z" fill="#004E2C"/>
<path d="M116.6 158.526C112.23 155.697 109.5 150.845 107.281 146.28C104.973 141.535 103.252 136.525 101.603 131.524C101.462 131.097 100.785 131.279 100.926 131.71C102.597 136.778 104.371 141.812 106.675 146.632C108.907 151.312 111.79 156.245 116.246 159.131C116.628 159.379 116.98 158.77 116.6 158.526Z" fill="#004E2C"/>
<path d="M107.951 147.713C108.458 142.949 111.907 138.86 114.387 134.946C114.631 134.563 114.022 134.211 113.781 134.592C111.219 138.638 107.774 142.785 107.248 147.713C107.201 148.163 107.904 148.158 107.951 147.713Z" fill="#004E2C"/>
<path d="M66.2888 159.948H67.3909C75.916 153.255 86.837 149.378 97.6942 150.072C98.1467 150.101 98.1431 149.4 97.6942 149.369C86.3954 148.647 75.031 152.831 66.2888 159.948Z" fill="#004E2C"/>
<path d="M85.6984 150.386C79.7297 151.556 73.6223 151.988 67.5478 151.691C61.4386 151.394 55.0867 150.249 49.7439 147.139C49.3516 146.909 49.0013 147.516 49.3899 147.744C54.7145 150.847 60.9313 151.965 67.0113 152.364C73.303 152.774 79.6987 152.275 85.8827 151.064C86.3279 150.978 86.14 150.3 85.6966 150.386H85.6984Z" fill="#004E2C"/>
<path d="M88.2092 144.083C80.903 138.771 75.604 131.106 71.7921 123.013C67.9693 114.897 65.5972 105.841 65.6392 96.8405C65.6392 96.3883 64.9385 96.3883 64.9385 96.8405C64.8928 106.009 67.3599 115.081 71.1863 123.367C74.9781 131.578 80.4833 139.327 87.8552 144.687C88.222 144.953 88.5705 144.346 88.2092 144.081V144.083Z" fill="#004E2C"/>
<path d="M76.0675 130.911C76.1332 127.578 77.2098 124.297 78.3995 121.218C79.6494 117.992 81.2552 114.714 83.4832 112.047C83.7715 111.703 83.2788 111.203 82.9869 111.551C80.768 114.208 79.2261 117.374 77.9159 120.552C76.5748 123.805 75.4361 127.362 75.3668 130.911C75.3577 131.361 76.0602 131.361 76.0675 130.911Z" fill="#004E2C"/>
<path d="M69.462 132.175C63.0152 130.306 56.0466 130.727 49.4775 131.65C42.6111 132.614 35.7264 134.375 29.3544 137.134C28.9402 137.312 29.2997 137.917 29.7103 137.739C35.71 135.139 42.1513 133.518 48.5944 132.486C55.3349 131.407 62.643 130.928 69.2758 132.851C69.712 132.977 69.8981 132.3 69.462 132.175Z" fill="#004E2C"/>
<path d="M53.6799 119.961C49.941 117.637 45.5726 116.439 41.2736 115.664C36.9179 114.877 32.3598 114.585 27.9731 115.276C27.5261 115.349 27.7177 116.023 28.1592 115.954C32.4291 115.28 36.8468 115.621 41.0856 116.341C45.319 117.059 49.6564 118.286 53.3259 120.567C53.7109 120.806 54.0631 120.2 53.6799 119.961Z" fill="#004E2C"/>
<path d="M48.7695 115.648C44.5234 109.086 42.4323 100.239 43.9139 92.5087C43.9997 92.0675 43.3227 91.8779 43.237 92.3228C41.7188 100.241 43.8081 109.272 48.1656 116.003C48.4082 116.381 49.0177 116.031 48.7714 115.65L48.7695 115.648Z" fill="#004E2C"/>
<path d="M44.8573 106.995C45.6748 103.448 47.9648 100.288 51.1782 98.536C51.576 98.3172 51.2201 97.7119 50.8242 97.9307C47.4612 99.7629 45.0361 103.094 44.1785 106.809C44.0782 107.249 44.7551 107.437 44.8555 106.995H44.8573Z" fill="#004E2C"/>
<path d="M34.0768 100.631C27.7833 96.7128 19.9589 95.1577 12.618 95.9763C12.1728 96.0237 12.1691 96.7274 12.618 96.6764C19.8476 95.8706 27.526 97.3783 33.7228 101.236C34.1078 101.477 34.46 100.87 34.0768 100.631Z" fill="#004E2C"/>
<path d="M30.1938 95.9636C27.4184 90.7056 30.5934 83.641 33.6863 79.2126C33.9454 78.8425 33.3378 78.4907 33.0805 78.8608C29.8288 83.517 26.683 90.8096 29.588 96.3172C29.7996 96.7165 30.4055 96.361 30.1956 95.9636H30.1938Z" fill="#004E2C"/>
<path d="M276.16 207.382C276.731 204.722 275.872 201.997 274.304 199.876C271.034 195.457 265.343 194.276 260.329 195.53C260.958 194.916 261.325 194.137 261.004 193.16C260.336 191.115 258.108 189.864 256.356 188.958C251.72 186.571 246.331 186.923 241.486 188.462C238.919 189.275 236.47 190.58 234.43 192.389C233.543 193.178 232.773 194.103 232.126 195.109C231.828 195.57 231.582 196.064 231.352 196.566C231.149 197.012 231.262 197.297 230.629 197.114C230.135 196.97 229.657 196.777 229.177 196.58C228.259 196.207 227.323 195.718 226.367 195.187C227.128 193.764 227.695 192.259 227.971 190.688C228.363 188.435 227.586 185.448 225.671 184.054C226.392 183.056 227.02 181.979 227.551 180.863C229.356 177.055 230.246 172.015 228.952 167.893C228.005 164.872 225.6 161.6 222.268 161.403C221.619 161.365 221.079 161.481 220.633 161.711C220.599 160.86 220.509 160.025 220.394 159.232C219.944 156.143 218.79 152.807 216.44 150.718C214.355 148.858 211.028 148.84 209.108 150.951C208.972 151.104 208.842 151.259 208.72 151.42C206.968 148.834 204.355 146.508 201.499 145.708C197.797 144.674 194.731 148.094 193.292 151.181C192.52 152.84 191.963 154.905 191.925 156.929C190.325 157.157 188.6 158.586 187.529 159.449C185.113 161.399 182.993 163.82 181.292 166.448C180.336 167.926 179.387 169.651 178.982 171.456C175.349 169.822 170.329 169.953 167.366 171.769C167.333 171.479 167.293 171.195 167.244 170.925C166.709 167.893 165.33 164.778 163.288 162.51C162.656 161.811 161.846 161.179 161.009 160.918C162.952 157.11 162.417 151.857 159.956 148.468C158.801 146.878 156.458 145.42 154.555 146.555C154.315 146.699 154.109 146.867 153.927 147.049C153.274 144.716 152.031 142.504 150.586 140.849C149.746 139.888 148.414 138.69 147.051 139.068C145.851 139.4 145.407 140.807 145.227 142.118C144.436 139.529 142.854 136.76 140.15 136.384C137.627 136.032 136.811 138.588 136.63 140.893C135.634 138.333 133.419 136.687 130.408 137.518C127.826 138.231 126.165 140.401 125.642 142.905C125.363 142.111 124.912 141.414 124.182 141.019C122.91 140.329 121.505 140.833 120.407 141.638C118.277 143.199 117.465 145.837 118.27 148.092C117.584 147.833 116.863 148.012 116.241 149.011C115.264 150.575 115.228 152.902 116.014 154.612C114.447 154.034 112.703 153.855 111.358 155.075C109.863 156.433 109.601 158.858 109.568 160.776C109.522 163.35 110.015 165.935 110.774 168.382C111.195 169.738 111.739 171.142 112.491 172.387C112.117 172.513 111.75 172.646 111.385 172.794C108.765 173.859 106.166 176.431 106.033 179.507C105.989 180.504 106.42 181.317 107.088 181.86C106.774 182.327 106.506 182.838 106.283 183.381C105.174 182.013 104.05 180.655 102.692 179.578C99.7032 177.206 95.5172 176.349 91.8641 175.868C84.4065 174.889 74.7409 175.634 69.1536 181.479C69.0459 181.591 69.1025 181.771 69.1992 181.862C69.7868 182.409 70.2703 182.843 70.8177 183.22C65.6957 182.69 60.0208 184.398 55.5831 186.732C51.2439 189.011 47.2459 193.063 48.3845 198.285C46.4266 196.338 43.5873 193.831 40.8484 194.515C38.8029 195.025 38.1916 197.472 38.1131 199.355C37.9744 202.71 39.3904 207.37 42.279 209.428C41.5746 210.243 41.2443 211.397 41.0965 212.456C40.6276 215.807 41.7461 220.17 44.2679 222.447C46.5671 224.523 49.8498 225.821 52.9737 226.398C54.0521 222.624 56.0776 219.07 58.7435 216.179C66.442 207.834 99.3547 191.612 155.638 191.612C211.922 191.612 247.023 206.172 256.217 213.173C264.405 219.408 266.686 226.755 264.69 233.542C281.826 230.033 270.792 214.923 270.792 214.923C273.315 213.043 275.459 210.604 276.154 207.388L276.16 207.382Z" fill="#006E4F"/>
<path d="M73.1296 198.516C73.6497 200.595 75.2299 202.471 76.5565 204.046C76.8229 204.361 77.1057 204.664 77.3813 204.972C93.8148 198.093 120.056 191.607 155.642 191.607C195.102 191.607 224.144 198.763 241.154 205.453C242.93 204.104 244.123 201.714 243.658 199.435C243.211 197.258 241.036 196.547 239.112 196.447C243.466 192.438 249.167 181.483 241.45 178.901C243.734 177.654 245.375 175.636 245.267 172.805C245.158 169.946 243.324 167.319 241.381 165.432C239.457 163.569 236.85 162.037 234.144 162.11C232.08 162.167 230.686 163.476 229.832 165.175C228.569 162.198 220.823 161.742 218.668 161.994C215.517 162.362 213.387 164.982 211.887 167.658C211.402 168.528 210.964 169.45 210.581 170.407C210.145 170.001 209.652 169.64 209.103 169.328C206.952 168.116 204.256 168.967 202.191 169.932C201.437 170.283 200.711 170.694 200.003 171.135C200.133 170.641 200.189 170.099 200.156 169.505C199.988 166.435 197.844 163.565 195.846 161.467C193.596 159.108 188.969 155.919 185.661 156.721C185.686 154.723 184.819 152.462 183.905 150.767C181.717 146.694 177.559 142.353 172.627 143.137C171.486 143.319 170.514 143.843 169.68 144.559C168.672 142.628 167.346 140.86 165.946 139.223C164.819 137.905 163.549 136.475 162.019 135.653C159.839 134.483 156.928 134.991 154.989 136.401C154.399 136.829 153.976 137.327 153.684 137.866C153.199 136.935 152.578 136.085 151.805 135.396C149.867 133.67 147.454 134.605 145.925 136.384C144.203 138.39 143.223 142.455 143.873 145.677C143.613 145.575 143.338 145.494 143.039 145.454C141.278 145.206 139.553 146.342 138.349 147.544C135.858 150.025 134.92 153.717 136.134 156.842C135.627 156.697 135.048 156.741 134.41 157.051C132.452 157.994 131.114 160.276 130.178 162.181C129.694 163.168 129.229 164.444 128.944 165.757C128.755 165.653 128.567 165.569 128.384 165.51C127.859 164.112 126.476 162.878 125.465 161.997C124.353 161.029 122.669 159.647 121.107 159.782C120.974 159.793 120.861 159.824 120.759 159.864C120.138 158.092 119.012 156.46 117.673 155.347C116.954 154.75 115.956 154.269 115.055 154.707C114.949 154.758 114.854 154.823 114.764 154.894C115.04 152.079 114.859 149.332 112.664 147.163C111.746 146.251 110.465 145.746 109.206 146.038C108.422 146.22 107.807 146.727 107.321 147.361C107.683 145.493 107.659 143.562 106.823 141.806C106.004 140.087 104.405 138.971 102.643 138.514C100.203 137.881 97.311 138.926 96.8529 141.205C96.4588 140.586 95.9096 140.109 95.1213 139.914C93.7527 139.573 92.3094 140.512 91.3532 141.42C89.6106 143.075 88.8114 145.469 89.4263 147.531C88.1435 147.709 87.0669 149.161 86.421 150.154C85.3188 151.846 84.682 153.892 84.5999 155.924C84.5725 156.577 84.64 157.74 84.9229 158.734C83.4448 158.96 81.6238 161.213 81.038 162.285C79.6457 164.832 79.1823 167.868 80.4304 170.194C80.0819 170.13 79.7187 170.15 79.341 170.282C77.9469 170.765 77.3959 172.714 77.0911 174.006C76.3886 177.007 76.3412 181.239 77.6823 184.376C73.9106 187.827 71.856 193.421 73.1351 198.518L73.1296 198.516Z" fill="#079479"/>
<path d="M256.221 213.167C247.026 206.166 211.928 191.607 155.642 191.607C99.3565 191.607 66.4457 207.831 58.7472 216.173C46.8773 229.037 47.6583 255.048 88.5486 255.048H225.192C257.336 255.048 278.368 230.027 256.221 213.167Z" fill="#74B486"/>
<path d="M54.0886 214.024C54.0941 214.064 54.1069 214.11 54.1361 214.15C55.147 215.61 57.0465 216.551 58.7471 216.175C66.4457 207.831 99.3583 191.609 155.642 191.609C211.926 191.609 247.012 206.163 256.216 213.165C256.913 212.294 257.551 211.408 258.11 210.531C259.681 208.064 261.153 204.943 260.746 201.907C260.38 199.162 258.06 197.948 255.655 197.634C257.812 195.623 258.672 192.19 256.907 189.585C254.652 186.258 250.98 189.291 249.105 191.556C248.787 187.16 245.895 183.202 241.264 183.31C239.346 183.353 237.549 184.092 236.218 185.534C235.563 186.247 235.085 187.178 234.835 188.123C234.616 188.95 234.644 189.745 234.646 190.549C233.386 187.209 231.206 183.106 227.285 183.939C226.89 184.024 226.505 184.161 226.131 184.331C222.562 181.603 217.743 180.81 214.615 184.232C213.085 180.393 208.342 178.258 204.683 177.549C202.114 177.051 199.173 177.388 197.604 179.082C196.151 177.428 193.722 176.44 191.646 176.227C190.108 176.07 188.662 176.723 187.409 177.678C187.661 176.477 187.633 175.211 187.188 173.93C185.949 170.342 182.248 169.933 179.026 170.601C180.77 169.465 182.276 167.952 182.836 165.85C183.394 163.764 182.648 161.625 181.413 159.966C179.743 157.726 176.137 155.717 173.628 157.004C173.86 154.034 168.415 150.758 166.032 150.626C164.375 150.537 161.293 152.519 160.054 154.506C158.131 152.169 154.894 151.425 151.71 152.22C149.651 152.734 147.453 154.136 146.661 156.007C142.862 151.917 130.815 151.498 132.34 159.649C128.069 157.576 122.868 161.717 122.629 166.482C121.684 166.016 120.615 165.799 119.615 165.997C119.235 163.323 117.819 160.8 115.44 159.768C114.85 159.511 114.171 159.336 113.504 159.33C112.805 158.074 111.391 157.201 110.168 156.656C109.259 156.253 107.997 155.842 106.966 156.132C106.515 154.513 105.922 152.918 105.15 151.434C104.732 150.632 104.154 149.525 103.221 149.288C103.042 149.243 102.886 149.261 102.745 149.321C102.732 148.69 102.557 148.08 102.092 147.56C101.305 146.685 100.01 146.519 98.924 146.694C97.8073 146.874 96.7398 147.558 96.3147 148.67C96.1869 149 96.1431 149.334 96.1541 149.668C95.4151 149.325 94.552 149.471 93.6414 150.466C92.1379 152.112 91.9517 154.512 92.605 156.603C92.2072 156.419 91.7528 156.388 91.2456 156.608C89.8022 157.237 89.1106 159.268 88.7384 160.683C88.2859 162.402 88.1508 164.508 89.0066 166.119C89.0705 166.238 89.1398 166.349 89.211 166.451C88.4245 167.257 88.1362 168.488 88.1089 169.611C88.0505 171.97 89.1581 173.901 90.8843 174.838C90.3989 175.518 90.1963 176.42 90.1142 177.246C90.0522 177.868 90.0759 178.539 90.1945 179.191C89.8369 179.343 89.5303 179.596 89.3132 179.941C88.5778 179.684 88.1052 179.875 87.8096 180.298C87.2312 178.923 86.0907 177.875 84.3974 177.602C82.5507 177.303 81.3555 178.28 80.8008 179.685C80.1859 178.229 78.9031 177.047 77.4287 176.446C76.4963 176.066 75.4197 175.984 74.542 176.533C74.4289 176.602 74.3358 176.686 74.2482 176.776C74.0074 174.98 73.2118 173.288 71.3451 173.036C70.3834 172.907 69.8616 173.288 69.6079 173.897C68.9456 172.493 67.9164 171.368 66.3855 171.279C65.9202 171.252 65.5862 171.348 65.3435 171.518C65.2231 171.407 65.0936 171.301 64.9458 171.21C63.8199 170.5 62.3528 170.849 61.2744 171.476C60.1668 172.123 59.2344 173.277 59.2198 174.635C59.2088 175.554 59.6431 176.296 60.2598 176.898C59.5829 178.573 59.8602 181.051 60.539 182.73C58.811 184.692 58.2508 187.415 59.0136 189.922L58.8293 189.895C58.5829 189.86 58.4789 190.141 58.5738 190.314C58.238 192.041 57.5027 193.034 58.2745 194.713C56.2144 195.59 56.3257 198.079 56.8786 200.035C54.7966 201.366 54.8313 203.754 55.5995 205.944C55.5283 205.937 55.4608 205.938 55.3915 205.937C55.3203 205.9 55.2327 205.9 55.1543 205.933C53.2438 205.997 52.4226 207.623 52.6307 209.754C52.7511 210.992 53.231 212.746 54.085 214.024H54.0886Z" fill="#42AA94"/>
</svg>
