<svg width="293" height="167" viewBox="0 0 293 167" fill="none" xmlns="http://www.w3.org/2000/svg">
<path d="M23.8045 166.256C23.8045 166.256 -10.2811 124.815 6.37685 82.1522C17.235 54.3435 57.9677 39.1055 80.9543 54.3435C90.7452 60.8339 122.155 54.5621 138.927 27.6926C171.518 -24.5212 285.262 7.18911 264.554 87.355C254.533 126.15 295.052 127.56 274.406 166.339L23.8045 166.256Z" fill="#D5E5D6"/>
<path d="M71.7592 111.567C69.1305 105.136 79.4064 99.9341 79.4064 99.9341C79.4064 99.9341 92.6502 104.597 94.5982 103.462C96.5461 102.328 84.0552 97.2668 84.0552 97.2668C87.2463 94.3056 99.2533 91.8277 99.2533 91.8277C99.2533 91.8277 107.016 103.132 108.624 101.553C110.233 99.9749 101.24 91.8946 101.24 91.8946C105.339 90.3507 111.422 91.8622 111.422 91.8622C120.151 95.2229 115.378 106.245 115.378 106.245C115.378 106.245 118.152 110.104 123.797 112.653C123.797 112.653 124.936 113.051 126.51 114.002L125.601 114.695C125.34 114.508 125.078 114.335 124.815 114.178C124.814 114.176 124.812 114.176 124.81 114.175C124.806 114.173 124.803 114.171 124.798 114.169C124.629 114.076 124.387 113.945 124.089 113.786C124.089 113.786 124.089 113.786 124.088 113.786H124.087C123.394 113.455 122.9 113.197 122.56 112.998C122.559 112.998 122.558 112.996 122.557 112.995C120.422 111.925 117.525 110.619 116.369 110.762C116.369 110.762 116.362 110.545 116.245 110.197C116.285 110.377 116.326 110.566 116.369 110.762C117.359 115.28 110.002 121.769 104.988 124.186C99.9738 126.605 100.93 123.942 101.749 120.18C102.568 116.418 107.858 113.211 108.709 111.331C109.56 109.452 106.854 110.285 104.134 112.712C101.413 115.139 102.175 119.127 97.8457 123.131C93.5163 127.136 83.2541 121.078 83.2541 121.078C87.2411 119.619 91.6637 113.434 91.0374 112.154C90.4112 110.874 81.9366 117.513 80.3479 118.197C78.7592 118.881 74.3879 117.997 71.7592 111.567Z" fill="#006837"/>
<path d="M138.808 31.9017C142.645 26.5881 151.946 32.1998 151.946 32.1998C151.946 32.1998 154.828 45.1116 156.711 46.1011C158.593 47.0906 156.405 34.5816 156.405 34.5816C160.371 35.6516 168.356 44.007 168.356 44.007C168.356 44.007 163.18 55.857 165.248 56.3539C167.317 56.8507 169.295 45.6272 169.295 45.6272C172.579 48.1303 174.409 53.7462 174.409 53.7462C176.078 62.3997 164.866 64.0942 164.866 64.0942C164.866 64.0942 163.161 68.2395 163.939 74.0238C163.939 74.0238 164.189 75.1315 164.215 76.8648L163.205 76.4851C163.225 76.1838 163.232 75.8878 163.226 75.5991C163.226 75.597 163.226 75.596 163.226 75.5939C163.226 75.5897 163.226 75.5855 163.226 75.5813C163.216 75.3993 163.2 75.1399 163.178 74.824C163.178 74.824 163.178 74.824 163.178 74.823C163.178 74.823 163.178 74.823 163.178 74.8219C163.097 74.1023 163.056 73.5793 163.046 73.208C163.046 73.2069 163.046 73.2059 163.046 73.2048C162.835 70.9643 162.435 67.9958 161.742 67.1443C161.742 67.1443 161.913 67.0293 162.133 66.7636C162.008 66.8849 161.878 67.0115 161.742 67.1443C158.618 70.1924 149.744 67.5575 145.303 64.7595C140.861 61.9615 143.471 61.3945 146.894 60.1697C150.316 58.9438 155.529 61.5682 157.46 61.3088C159.39 61.0494 157.37 59.3036 154.068 58.3423C150.764 57.3811 147.95 59.9824 142.58 58.5254C137.21 57.0673 136.933 45.8406 136.933 45.8406C140.095 48.2977 147.257 48.7401 147.969 47.6C148.681 46.4598 139.129 43.006 137.788 42.0792C136.446 41.1514 134.97 37.2175 138.807 31.9028L138.808 31.9017Z" fill="#33865F"/>
<path d="M212.929 154.526C222.423 152.576 220.479 136.657 220.479 136.657C220.479 136.657 204.799 124.961 204.603 121.828C204.406 118.695 219.964 129.213 219.964 129.213C220.92 123.225 214.477 107.418 214.477 107.418C214.477 107.418 195.352 107.213 195.933 104.128C196.515 101.043 212.859 105.172 212.859 105.172C211.47 99.2354 204.997 93.3737 204.997 93.3737C194.328 85.8885 185.255 99.9571 185.255 99.9571C185.255 99.9571 178.629 99.7427 171.294 95.1937C171.294 95.1937 169.951 94.1864 167.628 93.1027L167.529 94.6916C167.948 94.8475 168.351 95.0159 168.738 95.1989C168.741 95.1989 168.743 95.2 168.745 95.202C168.75 95.2052 168.757 95.2073 168.762 95.2104C169.001 95.3349 169.341 95.5127 169.756 95.7334C169.756 95.7334 169.756 95.7334 169.757 95.7334C169.757 95.7334 169.757 95.7345 169.759 95.7345C170.681 96.2784 171.363 96.6497 171.858 96.8892C171.859 96.8892 171.861 96.8903 171.863 96.8913C174.76 98.5304 178.522 100.867 179.252 102.315C179.252 102.315 179.511 102.154 180.003 102.02C179.764 102.114 179.514 102.212 179.252 102.315C173.247 104.675 171.433 118.216 172.521 125.89C173.608 133.565 175.952 130.393 179.679 126.527C183.405 122.661 183.018 114.055 184.536 111.614C186.054 109.172 187.188 112.947 186.486 117.975C185.784 123.003 180.57 125.217 179.286 133.33C178.003 141.442 192.987 148.609 192.987 148.609C191.585 142.866 195.324 132.955 197.293 132.686C199.263 132.417 198.142 147.368 198.581 149.735C199.021 152.103 203.437 156.471 212.932 154.522L212.929 154.526Z" fill="#003E21"/>
<path d="M192.552 55.0422H100.447C95.7564 55.0422 91.9538 58.8402 91.9538 63.5252V109.058C91.9538 113.743 95.7564 117.541 100.447 117.541H154.735L169.523 144.853V117.541H192.552C197.243 117.541 201.045 113.743 201.045 109.058V63.5252C201.045 58.8402 197.243 55.0422 192.552 55.0422Z" fill="#FF6633"/>
<path d="M200.884 18.2881H256.102C258.914 18.2881 261.194 20.947 261.194 23.1489V42.3993C261.194 45.7046 258.914 47.6659 256.102 47.6659H223.556L214.69 60.5044V47.6659H200.884C198.072 47.6659 195.792 45.8804 195.792 43.6785V24.131C195.792 20.4272 198.072 18.2881 200.884 18.2881Z" fill="#993D1F"/>
<path d="M95.2045 10.1639H53.9398C51.838 10.1639 50.1351 11.8657 50.1351 13.964V34.364C50.1351 36.4633 51.839 38.1641 53.9398 38.1641H78.2617L84.8868 50.4001V38.1641H95.2045C97.3064 38.1641 99.0093 36.4622 99.0093 34.364V13.964C99.0093 11.8647 97.3054 10.1639 95.2045 10.1639Z" fill="#CC5229"/>
<path d="M212.337 89.4941C212.337 89.4303 213.267 87.5088 212.972 87.3613C212.675 87.2138 212.145 87.2358 212.083 87.5726C212.022 87.9094 212.337 89.4941 212.337 89.4941Z" fill="#FFB27D"/>
<path d="M226.225 65.613C226.225 65.613 231.68 59.0651 234.568 63.2553C234.568 63.2553 236.723 64.1486 237.503 67.8117C238.298 71.549 235.809 74.3899 234.523 73.6881C233.698 73.2383 233.074 74.6797 233.074 74.6797L226.226 65.6141L226.225 65.613Z" fill="#4C4C4C"/>
<path d="M219.459 100.455C215.123 98.8588 210.945 91.4459 210.945 91.4459L212.313 90.4898C213.452 92.154 218.578 95.3506 218.578 95.3506C218.695 93.9479 218.865 92.6749 219.074 91.5222C220.497 83.6877 223.752 81.3667 224.626 80.874C224.767 80.7935 224.847 80.7632 224.847 80.7632C224.847 80.7632 224.843 80.8207 224.837 80.9305C224.825 81.1659 224.797 81.6418 224.751 82.2924C224.412 87.1427 223.084 101.79 219.46 100.455H219.459Z" fill="#FFB27D"/>
<path d="M233.973 62.5911C233.973 62.5911 234.706 59.6603 239.015 60.5766C239.015 60.5766 236.952 60.3171 236.386 61.1111C236.386 61.1111 238.021 60.3632 239.046 60.9887C240.07 61.6142 240.237 63.7208 240.084 64.362C239.931 65.0032 238.8 66.9111 238.052 66.9111C237.303 66.9111 236.417 66.2552 236.417 66.2552L233.971 62.5922L233.973 62.5911Z" fill="#4C4C4C"/>
<path d="M240.422 108.455C238.279 103.656 237.254 102.298 237.218 100.788C237.19 99.5931 237.779 98.3045 238.924 95.1456C239.193 94.4008 239.38 93.6351 239.495 92.8622C240.401 86.7713 236.875 80.1868 234.683 79.7391C234.073 79.5781 233.039 77.3783 233.052 73.8335L232.778 73.8879L228.162 74.801C228.162 74.801 228.267 76.2518 228.27 77.6179C228.273 78.7569 228.204 79.8364 227.947 79.9724C227.615 80.0027 227.419 80.0226 227.419 80.0226C227.419 80.0226 223.571 85.3603 223.247 90.3246C222.924 95.2889 226.328 97.4457 223.221 107.366C220.049 117.497 241.606 111.108 240.423 108.457L240.422 108.455Z" fill="#FFB27D"/>
<path d="M228.161 74.8C228.161 74.8 228.266 76.2508 228.269 77.6168C230.852 77.5446 232.216 75.1912 232.777 73.8868L228.161 74.8Z" fill="#E8945B"/>
<path d="M233.253 73.3858C233.253 73.3858 234.606 71.2499 234.932 69.4236C235.163 68.1192 234.499 63.2867 229.636 63.9823C229.636 63.9823 228.223 64.1214 226.896 65.0168C225.84 65.7291 224.317 67.2667 226.021 71.4842L226.462 72.9088L233.253 73.3858Z" fill="#4C4C4C"/>
<path d="M227.299 76.0939C227.299 76.0939 233.409 76.1943 233.413 72.3931C233.417 68.592 234.209 66.044 230.308 65.8191C226.407 65.5942 225.648 67.0439 225.337 68.3127C225.027 69.5815 225.71 75.9694 227.298 76.0939H227.299Z" fill="#FFB27D"/>
<path d="M227.525 65.726C227.525 65.726 229.198 70.1861 231.766 70.8451C234.334 71.504 235.447 70.8179 235.447 70.8179C235.447 70.8179 233.478 69.2552 233.069 66.5272C233.069 66.5272 228.787 63.6026 227.525 65.726Z" fill="#4C4C4C"/>
<path d="M227.939 66.0879C227.939 66.0879 226.69 67.0837 226.385 68.0512C226.08 69.0188 225.943 71.0124 225.362 70.9444C225.362 70.9444 224.101 67.9131 225.518 66.1977C227.02 64.3798 227.939 66.0868 227.939 66.0868V66.0879Z" fill="#4C4C4C"/>
<path d="M235.011 154.509C233.474 160.616 231.16 165.299 231.16 165.299L229.145 165.16C229.145 165.16 230.132 160.465 230.076 154.122C230.036 149.687 229.487 144.445 227.732 139.441C221.703 122.243 222.678 109.727 222.678 109.727L234.015 111.051L234.543 111.113C234.59 116.313 234.724 123.374 234.843 128.896C234.946 133.861 235.038 137.581 235.038 137.581C237.217 142.271 236.425 148.889 235.01 154.51L235.011 154.509Z" fill="#163560"/>
<path d="M248.368 113.553L246.534 114.102C246.534 114.102 240.482 104.074 239.933 101.465C239.753 100.616 239.313 98.9164 238.799 97.0116C237.736 93.0672 236.366 88.241 236.366 88.241L235.914 86.287L234.374 79.6241C234.374 79.6241 237.323 79.9253 239.049 80.646C239.619 80.8845 240.055 81.168 240.208 81.5016C241.475 84.285 242.74 91.3088 243.629 96.3202C244.125 99.113 244.503 101.28 244.701 101.739C245.251 103.021 246.931 110.073 248.368 113.552V113.553Z" fill="#FFB27D"/>
<path d="M241.516 153.534C240.864 160.482 237.994 164.976 237.994 164.976L237.032 165.675C237.032 165.675 236.12 160.778 235.476 154.954C234.862 149.418 234.02 143.56 233.068 141.772C229.287 134.68 228.149 107.91 228.149 107.91L239.645 107.341C240.801 109.282 241.304 112.466 241.424 116.086C241.727 125.223 239.575 137.136 239.255 138.859C239.255 138.859 239.255 138.861 239.254 138.863C239.229 138.996 239.268 139.127 239.329 139.248C241.617 143.77 241.946 148.943 241.517 153.533L241.516 153.534Z" fill="#1C468A"/>
<path d="M227.708 66.2385C227.708 66.2385 228.9 70.9089 232.139 72.4046C232.139 72.4046 228.9 69.5355 228.624 66.4519C228.349 63.3694 227.708 66.2385 227.708 66.2385Z" fill="#4C4C4C"/>
<path d="M241.862 111.92C241.882 112.307 241.862 112.617 241.79 112.837C241.545 113.606 240.705 113.957 238.675 113.746C237.434 113.618 236.881 111.54 236.634 109.767C235.888 112.303 234.845 113.727 233.495 114.026C231.526 114.463 221.596 115.669 220.945 110.954C220.23 105.768 222.372 96.5848 222.489 91.6342C222.197 89.879 222.097 88.355 222.129 87.0464C222.212 83.5194 223.248 81.5424 224.045 80.7464C224.272 80.5738 224.497 80.4651 225.403 80.3103C225.866 80.2318 226.508 80.1408 227.417 80.0205C227.417 80.0205 227.787 79.9787 227.779 79.9923C227.611 80.2925 225.362 83.694 225.537 84.5685C225.72 85.4837 233.697 84.6595 234.248 84.1564C234.799 83.6532 235.668 79.7956 235.668 79.7956C235.668 79.7956 238.493 80.1042 239.874 81.1073C239.874 81.1073 239.869 81.1136 239.859 81.1251C240.026 81.2443 240.151 81.3719 240.223 81.5069C241.697 84.3101 243.169 91.3852 244.204 96.4311C241.695 97.8118 239.502 97.4007 238.822 97.2187C239.712 103.03 241.729 109.271 241.861 111.919L241.862 111.92Z" fill="#FF6633"/>
<path d="M212.313 90.4898C212.313 90.3016 212.471 87.5757 211.985 87.0025C211.499 86.4303 210.507 85.6155 210.195 85.6406C209.883 85.6657 208.663 87.2849 209.03 88.5255C209.396 89.766 210.945 91.4459 210.945 91.4459L212.313 90.4898Z" fill="#FFB27D"/>
<path d="M209.993 82.2923L212.821 81.446C212.914 81.418 213.014 81.4714 213.042 81.5645L214.658 86.9512C214.686 87.0454 214.632 87.1433 214.539 87.1713L211.711 88.0176C211.617 88.0455 211.518 87.9922 211.49 87.899L209.874 82.5124C209.846 82.4182 209.9 82.3202 209.993 82.2923Z" fill="#FF6633"/>
<path d="M213.805 87.3749L211.239 88.1426C211.073 88.1928 210.898 88.0977 210.848 87.9324L209.31 82.8081C209.26 82.6418 209.355 82.4671 209.522 82.4169L212.088 81.6491C212.254 81.5989 212.429 81.6941 212.479 81.8604L214.017 86.9847C214.067 87.151 213.972 87.3257 213.805 87.3759V87.3749Z" fill="#CC5229"/>
<path d="M241.516 153.534C240.864 160.482 237.994 164.976 237.994 164.976L237.014 165.867C237.014 165.867 236.12 160.779 235.475 154.954C236.155 155.004 239.149 155.112 241.516 153.534Z" fill="#FFB27D"/>
<path d="M235.011 154.509C233.474 160.616 231.16 165.299 231.16 165.299L229.145 165.16C229.145 165.16 230.132 160.465 230.076 154.122C230.759 154.466 232.17 154.815 235.01 154.51L235.011 154.509Z" fill="#D9935C"/>
<path d="M232.32 166.986H231.034C230.603 166.918 230.285 166.794 229.843 166.736C229.172 166.649 228.863 166.924 228.801 166.986C228.793 166.995 228.79 166.999 228.79 166.999H223.325C223.188 166.803 223.32 166.348 223.448 166.015C223.535 165.788 223.725 165.615 223.96 165.547C224.539 165.38 225.681 165.23 226.727 164.285C227.316 163.753 229.57 162.332 229.57 162.332L229.581 162.329C229.631 162.329 229.866 162.402 230.891 163.266C231.421 163.711 232.324 162.636 232.324 162.636C232.324 162.636 232.494 162.776 232.62 163.037C232.722 163.243 232.796 163.526 232.738 163.875C232.656 164.366 232.919 165.28 233.129 165.899C233.257 166.273 233.364 166.539 233.364 166.539C233.364 166.539 233.426 166.847 232.319 166.985L232.32 166.986Z" fill="#233862"/>
<path d="M232.622 163.038C232.315 163.254 231.666 163.68 231.236 163.735C230.656 163.812 229.57 162.332 229.57 162.332L229.581 162.329C229.63 162.329 229.866 162.402 230.891 163.266C231.421 163.711 232.324 162.636 232.324 162.636C232.324 162.636 232.494 162.776 232.62 163.037L232.622 163.038Z" fill="#466AA5"/>
<path d="M232.32 166.986H231.034C230.603 166.918 230.285 166.794 229.843 166.736C229.172 166.649 228.863 166.924 228.801 166.986C228.793 166.995 228.79 166.999 228.79 166.999H223.325C223.188 166.803 223.32 166.348 223.448 166.015C223.614 165.867 223.661 166.655 223.753 166.78C223.845 166.906 228.211 166.826 228.463 166.643C228.715 166.46 229.471 166.139 230.526 166.391C231.443 166.61 232.796 166.049 233.131 165.9C233.258 166.274 233.365 166.54 233.365 166.54C233.365 166.54 233.427 166.848 232.32 166.986Z" fill="#466AA5"/>
<path d="M239.185 166.986H237.899C237.468 166.918 237.15 166.794 236.708 166.736C236.037 166.649 235.728 166.924 235.666 166.986C235.658 166.995 235.654 166.999 235.654 166.999H230.19C230.053 166.803 230.185 166.348 230.313 166.015C230.4 165.788 230.59 165.615 230.825 165.547C231.405 165.38 232.547 165.23 233.593 164.285C234.182 163.753 236.436 162.332 236.436 162.332L236.447 162.329C236.496 162.329 236.732 162.402 237.757 163.266C238.287 163.711 239.19 162.636 239.19 162.636C239.19 162.636 239.36 162.776 239.486 163.037C239.588 163.243 239.662 163.526 239.604 163.875C239.522 164.366 239.785 165.28 239.995 165.899C240.123 166.273 240.23 166.539 240.23 166.539C240.23 166.539 240.292 166.847 239.185 166.985V166.986Z" fill="#233862"/>
<path d="M239.486 163.038C239.18 163.254 238.531 163.68 238.101 163.735C237.521 163.812 236.435 162.332 236.435 162.332L236.446 162.329C236.495 162.329 236.731 162.402 237.756 163.266C238.286 163.711 239.189 162.636 239.189 162.636C239.189 162.636 239.359 162.776 239.485 163.037L239.486 163.038Z" fill="#466AA5"/>
<path d="M239.185 166.986H237.899C237.468 166.918 237.15 166.794 236.708 166.736C236.037 166.649 235.728 166.924 235.666 166.986C235.658 166.995 235.654 166.999 235.654 166.999H230.19C230.053 166.803 230.185 166.348 230.313 166.015C230.479 165.867 230.526 166.655 230.618 166.78C230.71 166.906 235.076 166.826 235.328 166.643C235.58 166.46 236.336 166.139 237.391 166.391C238.308 166.61 239.661 166.049 239.995 165.9C240.123 166.274 240.23 166.54 240.23 166.54C240.23 166.54 240.292 166.848 239.185 166.986Z" fill="#466AA5"/>
<path d="M241.862 111.92C240.498 111.465 238.747 110.255 236.645 107.542C231.08 100.358 236.173 91.9155 236.856 91.7586C237.538 91.6017 238.823 97.2208 238.823 97.2208C239.713 103.032 241.73 109.273 241.862 111.921V111.92Z" fill="#CC5229"/>
<path d="M224.387 80.5853C224.387 80.5853 220.576 82.5006 219.306 90.2304C219.306 90.2304 220.555 91.9396 222.312 92.4438C222.564 92.5159 222.825 92.563 223.094 92.5776C225.253 92.6927 224.386 80.5864 224.386 80.5864L224.387 80.5853Z" fill="#FF6633"/>
<path d="M209.903 85.8498C209.903 85.8498 211.081 84.0402 211.368 84.1407C211.779 84.284 210.3 86.581 210.3 86.581C210.3 86.581 211.395 84.8645 211.567 84.9931C211.957 85.2871 211.337 86.3655 210.721 87.1929C210.721 87.1929 211.823 86.1856 211.858 86.3665C211.984 87.0025 210.649 88.5422 210.649 88.5422L209.902 86.8393V85.8488L209.903 85.8498Z" fill="#FFB27D"/>
<path d="M209.02 87.5307C209.077 87.309 209.365 82.9869 209.487 83.397C209.61 83.807 209.903 86.0737 209.903 86.0737L209.019 87.5307H209.02Z" fill="#FFB27D"/>
<path d="M228.492 73.8376C228.492 73.8376 228.386 74.2853 227.271 74.2163C227.271 74.2163 226.334 74.1588 226.363 73.6661C226.363 73.6661 227.271 73.3157 228.492 73.8376Z" fill="white"/>
<path d="M248.368 113.553C248.368 113.553 250.581 115.023 250.919 115.642C251.258 116.261 252.047 118.541 252.047 118.541C252.047 118.541 251.484 118.626 250.919 117.641C250.356 116.655 248.495 116.74 247.875 116.205C247.255 115.67 246.534 114.102 246.534 114.102L248.368 113.553Z" fill="#FFB27D"/>
<path d="M246.774 114.586C246.774 114.586 247.142 116.316 247.593 116.824C248.045 117.33 248.665 118.175 248.918 117.95C249.172 117.725 248.636 115.838 248.636 115.838L246.774 114.586Z" fill="#FFB27D"/>
<path d="M250.609 115.838C250.666 115.923 252.611 117.987 252.611 117.987C252.611 117.987 251.906 118.306 251.709 117.987C251.512 117.668 250.609 115.838 250.609 115.838Z" fill="#FFB27D"/>
<path d="M119.083 98.2061H115.921V90.0945H107.749V98.2061H104.573V79.9515H107.749V87.5485H115.921V79.9515H119.083V98.2061Z" fill="white"/>
<path d="M136.09 90.0568H128.583V95.6738H137.357V98.2061H125.407V79.9515H137.269V82.5089H128.583V87.5485H136.09V90.0558V90.0568Z" fill="white"/>
<path d="M145.69 95.6738H153.988V98.2061H142.515V79.9515H145.69V95.6727V95.6738Z" fill="white"/>
<path d="M162.169 95.6738H170.467V98.2061H158.994V79.9515H162.169V95.6727V95.6738Z" fill="white"/>
<path d="M189.255 89.5558C189.255 90.9428 189.073 92.1865 188.709 93.2858C188.345 94.3851 187.833 95.3171 187.172 96.0817C186.511 96.8464 185.716 97.4342 184.787 97.8432C183.858 98.2522 182.829 98.4572 181.699 98.4572C180.569 98.4572 179.552 98.2522 178.623 97.8432C177.694 97.4342 176.893 96.8464 176.22 96.0817C175.546 95.3171 175.023 94.3851 174.651 93.2858C174.278 92.1865 174.093 90.9438 174.093 89.5558V88.628C174.093 87.241 174.279 85.9952 174.651 84.8917C175.023 83.7882 175.542 82.852 176.207 82.0832C176.872 81.3144 177.669 80.7255 178.598 80.3155C179.527 79.9065 180.552 79.7015 181.674 79.7015C182.795 79.7015 183.834 79.9065 184.768 80.3155C185.702 80.7255 186.501 81.3144 187.166 82.0832C187.831 82.852 188.346 83.7882 188.709 84.8917C189.074 85.9952 189.255 87.241 189.255 88.628V89.5558ZM186.08 88.6029C186.08 87.583 185.981 86.6824 185.784 85.9011C185.587 85.1197 185.302 84.466 184.924 83.9388C184.549 83.4127 184.086 83.0131 183.538 82.7412C182.989 82.4692 182.368 82.3332 181.674 82.3332C180.979 82.3332 180.385 82.4692 179.841 82.7412C179.296 83.0131 178.835 83.4116 178.453 83.9388C178.072 84.4649 177.78 85.1197 177.575 85.9011C177.369 86.6824 177.267 87.583 177.267 88.6029V89.5558C177.267 90.5756 177.369 91.4783 177.575 92.2639C177.78 93.0494 178.074 93.7073 178.46 94.2387C178.844 94.7701 179.311 95.1707 179.859 95.4426C180.407 95.7146 181.02 95.8506 181.698 95.8506C183.103 95.8506 184.185 95.3161 184.942 94.246C185.699 93.176 186.079 91.6133 186.079 89.5568V88.6039L186.08 88.6029Z" fill="white"/>
<path d="M102.45 134.673H137.909C139.002 134.673 139.889 135.559 139.889 136.649V150.158C139.889 151.249 139.002 152.135 137.909 152.135H102.45C101.357 152.135 100.47 151.249 100.47 150.158V136.649C100.47 135.559 101.357 134.673 102.45 134.673Z" fill="white"/>
<path d="M139.06 135.91L147.456 130.34L139.06 147.867V135.91Z" fill="white"/>
<path d="M260.701 78.5258C256.852 81.5853 251.228 80.9483 248.164 77.1032C245.101 73.2592 245.739 67.6422 249.588 64.5817C253.437 61.5211 259.062 62.1591 262.125 66.0042C265.189 69.8482 264.551 75.4652 260.701 78.5258ZM250.415 65.6193C247.139 68.2238 246.594 73.005 249.203 76.2769C251.811 79.5488 256.598 80.0927 259.874 77.4871C263.15 74.8826 263.693 70.1014 261.085 66.8295C258.478 63.5576 253.691 63.0148 250.415 65.6193Z" fill="#4C4C4C"/>
<path d="M270.178 90.4166C269.837 90.6875 269.341 90.6311 269.07 90.2911L259.832 78.7005C259.561 78.3605 259.617 77.8647 259.957 77.5938C260.298 77.3229 260.794 77.3794 261.065 77.7193L270.303 89.31C270.575 89.6499 270.518 90.1457 270.178 90.4166Z" fill="#4C4C4C"/>
<path d="M126.86 125.389H124.09V130.331H126.86V125.389Z" fill="#FFA561"/>
<path d="M122.488 125.389H128.273L125.475 121.165L122.488 125.389Z" fill="#FFA561"/>
<path d="M117.184 126.107H119.954V121.166H117.184V126.107Z" fill="white"/>
<path d="M121.555 126.106H115.77L118.568 130.331L121.555 126.106Z" fill="white"/>
<path d="M181.003 36.8106V34.5575H176.975V36.8106H181.003Z" fill="#FFA561"/>
<path d="M181.003 33.2542V37.9601L184.448 35.684L181.003 33.2542Z" fill="#FFA561"/>
<path d="M180.419 28.9405V31.1936H184.448V28.9405H180.419Z" fill="white"/>
<path d="M180.419 32.4958V27.791L176.975 30.066L180.419 32.4958Z" fill="white"/>
<path d="M25.0068 109.728C25.0068 109.728 21.6691 109.443 20.2846 110.094C18.9012 110.744 17.0695 111.029 17.5984 111.598C18.1273 112.167 21.4241 112.261 22.7269 112.703C24.0297 113.143 26.2593 112.118 26.2593 112.118L25.0058 109.728H25.0068Z" fill="#FFB27D"/>
<path d="M27.2752 153.014L20.8167 96.1173C20.8167 96.1173 19.9296 92.063 16.3469 92.4354C12.5243 92.8318 12.7317 96.9572 12.7317 96.9572C12.7317 96.9572 12.8239 97.3066 13.2155 97.2658C13.6261 97.2229 13.6575 96.862 13.6575 96.862C13.6575 96.862 13.4973 93.6822 16.4453 93.3758C19.207 93.0891 19.8909 96.2146 19.8909 96.2146L25.8174 153.166L27.2752 153.014Z" fill="#233862"/>
<path d="M25.3252 153.217L27.7025 152.97L27.2323 150.509C27.2323 150.509 27.2165 150.162 26.7338 150.192C26.2855 150.22 25.3974 150.248 25.3419 150.527C25.2927 150.771 25.3252 153.217 25.3252 153.217Z" fill="#233862"/>
<path d="M23.5207 111.238C23.5207 111.238 21.7194 112.598 20.8041 112.925C19.8888 113.254 22.0881 113.461 22.9102 113.131C23.7323 112.802 25.2435 113.114 26.2593 112.117C27.2752 111.119 23.5207 111.238 23.5207 111.238Z" fill="#FFB27D"/>
<path d="M91.028 88.4564C91.028 88.4564 94.5154 86.0057 94.9888 85.5329C95.4622 85.0601 97.2499 82.1721 97.3546 82.8551C97.4593 83.5382 96.0926 86.9513 95.6716 87.5809C95.2506 88.2106 97.4185 87.3184 97.3598 87.8435C97.3012 88.3686 95.1459 89.5767 94.5154 89.6813C93.885 89.7859 92.202 90.4166 92.202 90.4166L91.028 88.4564Z" fill="#FFB27D"/>
<path d="M44.5594 161.634C44.5594 161.634 43.6881 167.152 42.6429 166.996C42.5036 166.975 37.4275 165.826 37.4275 165.826L30.8789 164.345C30.8789 164.345 31.3512 162.773 33.3201 162.873C35.2889 162.971 38.7607 162.359 40.475 160.117C42.2784 157.76 44.5584 161.634 44.5584 161.634H44.5594Z" fill="#163560"/>
<path d="M58.3101 134.92C57.5131 136.368 56.9832 137.416 56.9361 137.862C56.0166 146.654 44.9364 162.867 44.9364 162.867C41.6784 163.866 37.86 161.611 37.86 161.611C40.9987 154.596 46.4068 133.131 49.7466 119.239C51.4892 111.993 52.6674 106.808 52.6674 106.808C52.6674 106.808 61.0246 107.575 62.7809 107.886C73.3678 109.754 62.3694 127.544 58.3101 134.92Z" fill="#2B478B"/>
<path d="M58.3101 134.92L49.7466 119.24C51.4892 111.994 52.6674 106.809 52.6674 106.809C52.6674 106.809 61.0246 107.576 62.7809 107.887C73.3678 109.755 62.3694 127.545 58.3101 134.922V134.92Z" fill="#233862"/>
<path d="M71.8912 161.168C71.8912 161.168 72.2619 166.742 71.2083 166.819C71.068 166.83 65.8631 166.83 65.8631 166.83H59.149C59.149 166.83 59.2621 165.193 61.2048 164.854C63.1475 164.516 66.3982 163.152 67.5743 160.588C68.8122 157.89 71.8922 161.167 71.8922 161.167L71.8912 161.168Z" fill="#163560"/>
<path d="M72.2022 163.177C68.7839 164.08 64.8964 163.72 64.8964 163.72C61.9661 138.784 57.5624 121.099 55.2217 112.835C54.9766 111.975 54.7546 111.214 54.5598 110.56C53.9713 108.591 53.6225 107.572 53.6225 107.572C53.6225 107.572 60.8613 103.922 67.3806 104.569C68.72 104.702 69.6416 105.809 70.2773 107.518C70.4679 108.027 70.6313 108.59 70.7727 109.197C72.4703 116.458 70.9947 129.954 72.2022 132.675C73.8485 136.386 72.2022 163.175 72.2022 163.175V163.177Z" fill="#2B478B"/>
<path d="M55.4364 77.188L52.1249 85.5768L48.14 79.5498C48.1264 79.281 48.0898 79.0153 48.0364 78.7538C47.8573 77.8898 47.4834 77.075 47.0823 76.393C46.3942 75.2215 45.6255 74.4339 45.6255 74.4339L50.7425 71.1526C51.2337 72.2017 51.8285 73.1473 52.4286 73.959C52.4307 73.9611 52.4318 73.9642 52.4339 73.9663C53.9231 75.9809 55.4364 77.1869 55.4364 77.1869V77.188Z" fill="#FFB27D"/>
<path d="M52.438 73.959C52.438 73.959 52.4381 73.9621 52.4339 73.9674C52.3407 74.1682 50.4556 78.1503 48.0364 78.7549C47.8573 77.8909 47.4834 77.076 47.0823 76.3941C48.1442 75.2717 50.1005 74.1483 52.4286 73.96C52.4318 73.96 52.4349 73.96 52.438 73.96V73.959Z" fill="#E8945B"/>
<path d="M92.4062 88.5067C91.7705 87.8184 90.5808 87.4899 90.5808 87.4899L77.5234 89.037C77.1736 89.0757 76.8259 88.9564 76.5756 88.7106C74.6612 86.8331 66.3741 78.7413 64.6356 77.6116C61.5546 75.6085 55.6008 77.098 55.6008 77.098C55.6008 77.098 55.6008 77.098 55.6008 77.0991C55.6008 77.0991 55.6008 77.0991 55.6008 77.098C55.6008 77.098 55.5474 77.1043 55.4123 77.1294C54.8091 78.0101 53.3481 79.781 50.9635 80.5341C49.3496 81.0435 48.4951 80.1032 48.14 79.5237C48.14 79.5237 44.2965 80.9786 42.3769 85.3467C40.8447 88.8351 38.1669 96.7731 36.5436 101.701L24.3627 109.095C24.3627 109.095 24.2842 111.114 26.1787 112.889C26.1787 112.889 26.2091 112.881 26.2688 112.866C27.4019 112.573 38.8895 109.568 40.3923 107.663C41.87 106.835 45.2915 101.859 47.9473 97.7511C48.8836 99.3714 49.6282 100.712 49.8481 101.244C50.6179 103.099 50.2042 107.136 50.7362 111.58C50.8389 112.444 51.0609 112.562 51.0609 112.562C51.0609 112.562 54.1734 113.181 61.3535 111.379C61.8604 111.252 62.3515 111.126 62.826 111.004C64.6838 110.525 66.2788 110.085 67.5617 109.72C67.9209 109.618 68.254 109.522 68.5629 109.433C70.226 108.947 73.8464 107.561 69.1641 96.793C69.0185 96.4562 68.7912 95.6675 68.5189 94.6445C68.5189 94.6424 68.5189 94.6414 68.5179 94.6393C69.5599 95.0493 70.6805 95.405 71.8859 95.6853C73.3731 96.0315 76.2426 96.8338 77.3202 96.7219C81.635 96.2742 93.5404 90.5453 93.5404 90.5453C93.5404 90.5453 93.0786 89.2357 92.4062 88.5077V88.5067Z" fill="#993D1F"/>
<path d="M68.5545 109.469C68.2456 109.558 67.9126 109.655 67.5533 109.757C63.4208 105.223 68.5085 94.6749 68.5085 94.6749L68.5106 94.6801C68.7829 95.7031 69.0101 96.4928 69.1557 96.8296C73.8391 107.599 70.2176 108.984 68.5545 109.469Z" fill="#662914"/>
<path d="M45.7585 77.1482C45.7585 77.1482 52.725 77.0802 52.6161 72.7477C52.5072 68.4152 53.3324 65.4885 48.8805 65.3484C44.4274 65.2082 43.6053 66.8828 43.2901 68.3378C42.9738 69.7928 43.9436 77.053 45.7585 77.1472V77.1482Z" fill="#FFB27D"/>
<path d="M47.9379 97.7877C45.282 101.895 41.8606 106.871 40.3829 107.7C38.88 109.604 27.3925 112.609 26.2593 112.902C27.9727 110.463 37.771 107.884 40.1891 105.357C42.8146 102.612 47.9379 97.7877 47.9379 97.7877Z" fill="#662914"/>
<path d="M47.9529 97.7647C47.9497 97.7723 47.9443 97.7798 47.9379 97.7884C47.9443 97.7755 47.9497 97.768 47.9529 97.7647Z" fill="#B2443B"/>
<path d="M43.2325 69.3169C43.2325 69.3169 39.7608 65.4143 42.7529 62.6696C45.7449 59.926 50.3927 61.7554 52.6171 62.4259C54.8415 63.0964 54.3629 69.6704 52.6161 72.7477C52.6161 72.7477 51.484 70.7802 51.7898 69.7436C52.0956 68.7071 51.3206 66.999 50.6085 67.7918C49.8963 68.5847 44.4442 64.0723 43.2325 69.3169Z" fill="white"/>
<path d="M45.7889 73.278C45.7889 73.278 47.1085 72.8712 47.7997 73.6441C48.4919 74.4161 48.8574 74.5991 48.8574 74.5991C48.8574 74.5991 46.9032 74.8638 45.8863 74.1117C45.8863 74.1117 44.9092 75.0813 43.9939 75.0636C43.9939 75.0636 44.6254 73.3534 45.7889 73.278Z" fill="white"/>
<path d="M81.3761 17.9285L80.9452 16.7854H81.6387C82.0336 16.7854 82.4107 16.8526 82.7697 16.9871C83.1243 17.1171 83.4497 17.3099 83.746 17.5654C84.0377 17.8209 84.4192 18.2692 84.8905 18.9103L86.2774 20.7931H85.86L84.7222 19.3137C84.3497 18.8296 83.9839 18.4777 83.6248 18.258C83.2612 18.0383 82.8169 17.9285 82.2917 17.9285H81.3761Z" fill="white"/>
<path d="M88.4723 20.6519V21.6067H86.4256V29.2591H86.1091L85.3685 28.3984V24.1553H83.6989C82.9807 24.1553 82.4802 24.2741 82.1975 24.5117C81.9147 24.7493 81.7733 25.0765 81.7733 25.4934C81.7733 25.9373 81.9529 26.4192 82.3119 26.9392C82.6755 27.4592 83.2657 28.1384 84.0826 28.9767L83.8537 29.1919C82.7181 28.0801 81.9731 27.2306 81.6185 26.6433C81.2639 26.056 81.0866 25.4665 81.0866 24.8748C81.0866 24.3727 81.228 23.9692 81.5107 23.6644C81.7935 23.3596 82.2805 23.2072 82.9717 23.2072H85.3685V21.6067H80.2046V20.6519H88.4723Z" fill="white"/>
<path d="M80.5749 25.0026C80.1081 25.2357 79.556 25.3522 78.9187 25.3522C78.4339 25.3522 77.8706 25.2289 77.2288 24.9824C76.9505 25.5562 76.6677 25.9798 76.3805 26.2533C76.8203 26.7912 77.2288 27.2776 77.6058 27.7125C77.9873 28.1473 78.3374 28.5284 78.6561 28.8556L78.4609 29.0843C77.8056 28.3939 77.2535 27.7932 76.8046 27.2821C76.3558 26.7666 76.0102 26.3407 75.7678 26.0045C75.2831 25.3276 75.0407 24.7941 75.0407 24.4041C75.0407 24.1755 75.0923 24.0051 75.1955 23.893C75.3033 23.7765 75.4626 23.7182 75.6736 23.7182C75.9204 23.7182 76.2032 23.7944 76.5219 23.9468C76.7328 23.6375 76.8383 23.2116 76.8383 22.6692C76.8383 22.3375 76.744 21.9833 76.5555 21.6067H74.3876V20.6519H80.3999V21.6067H77.4173C77.5744 22.1716 77.6529 22.6289 77.6529 22.9785C77.6529 23.3327 77.5924 23.7653 77.4712 24.2763C78.122 24.5005 78.6516 24.6125 79.0601 24.6125C79.6256 24.6125 80.1306 24.3906 80.5749 23.9468V25.0026Z" fill="white"/>
<path d="M74.5829 20.6519V21.6067H72.5362V29.2591H72.2332L71.4791 28.3782V25.6683H68.712V26.8114C68.712 27.0804 68.6245 27.2149 68.4495 27.2149C68.2789 27.2149 67.8884 26.8899 67.278 26.2398C66.672 25.5853 66.3691 25.1483 66.3691 24.9286C66.3691 24.7896 66.4746 24.7201 66.6855 24.7201H67.655V21.6067H65.6622V20.6519H74.5829ZM68.712 24.7201H71.4791V21.6067H68.712V24.7201Z" fill="white"/>
<path d="M65.8507 20.6519V21.6067H63.804V29.2389H63.6626L62.7469 28.3244V24.5789H60.5656C60.2469 24.5789 60.0516 24.6394 59.9798 24.7605C59.9125 24.877 59.8788 25.1214 59.8788 25.4934C59.8788 25.6817 59.8945 25.8902 59.926 26.1188C59.9394 26.2488 59.9462 26.3878 59.9462 26.5357C59.9462 26.7375 59.8609 26.8383 59.6903 26.8383C59.4883 26.8383 59.1854 26.5335 58.7814 25.9238C58.3819 25.3141 58.1822 24.83 58.1822 24.4713C58.1822 24.2203 58.2652 24.0186 58.4313 23.8661C58.5974 23.7092 58.7904 23.6308 59.0103 23.6308H62.7469V21.6067H57.583V20.6519H65.8507Z" fill="white"/>
<path d="M236.962 24.4786L236.373 22.9157H237.321C237.861 22.9157 238.376 23.0077 238.867 23.1915C239.352 23.3693 239.797 23.6328 240.202 23.9821C240.6 24.3315 241.122 24.9444 241.766 25.8208L243.663 28.3949H243.092L241.536 26.3724C241.027 25.7105 240.527 25.2294 240.036 24.9291C239.539 24.6287 238.931 24.4786 238.213 24.4786H236.962Z" fill="white"/>
<path d="M246.663 28.2019V29.5073H243.865V39.9693H243.432L242.42 38.7925V32.9916H240.137C239.155 32.9916 238.471 33.154 238.085 33.4788C237.698 33.8036 237.505 34.2511 237.505 34.821C237.505 35.4278 237.75 36.0866 238.241 36.7976C238.738 37.5085 239.545 38.4371 240.662 39.5832L240.349 39.8773C238.796 38.3574 237.778 37.196 237.293 36.3931C236.808 35.5902 236.566 34.7843 236.566 33.9753C236.566 33.2888 236.759 32.7372 237.146 32.3205C237.532 31.9037 238.198 31.6953 239.143 31.6953H242.42V29.5073H235.36V28.2019H246.663Z" fill="white"/>
<path d="M235.866 34.1499C235.228 34.4686 234.473 34.628 233.602 34.628C232.939 34.628 232.169 34.4594 231.292 34.1223C230.911 34.9068 230.525 35.486 230.132 35.8599C230.733 36.5953 231.292 37.2603 231.807 37.8548C232.329 38.4493 232.807 38.9703 233.243 39.4177L232.976 39.7303C232.08 38.7864 231.325 37.9651 230.712 37.2665C230.098 36.5616 229.626 35.9794 229.294 35.5197C228.632 34.5943 228.3 33.8649 228.3 33.3317C228.3 33.0192 228.371 32.7863 228.512 32.633C228.659 32.4737 228.877 32.394 229.165 32.394C229.503 32.394 229.889 32.4982 230.325 32.7066C230.614 32.2837 230.758 31.7014 230.758 30.9599C230.758 30.5063 230.629 30.0221 230.371 29.5073H227.407V28.2019H235.627V29.5073H231.549C231.764 30.2796 231.872 30.9047 231.872 31.3827C231.872 31.8669 231.789 32.4584 231.623 33.1571C232.513 33.4635 233.237 33.6167 233.795 33.6167C234.568 33.6167 235.259 33.3133 235.866 32.7066V34.1499Z" fill="white"/>
<path d="M227.674 28.2019V29.5073H224.876V39.9693H224.462L223.431 38.765V35.0601H219.648V36.6229C219.648 36.9907 219.528 37.1745 219.289 37.1745C219.056 37.1745 218.522 36.7302 217.687 35.8415C216.859 34.9467 216.445 34.3491 216.445 34.0488C216.445 33.8588 216.589 33.7638 216.877 33.7638H218.203V29.5073H215.478V28.2019H227.674ZM219.648 33.7638H223.431V29.5073H219.648V33.7638Z" fill="white"/>
<path d="M215.736 28.2019V29.5073H212.938V39.9417H212.744L211.493 38.6914V33.5707H208.51C208.075 33.5707 207.808 33.6535 207.71 33.819C207.618 33.9783 207.571 34.3123 207.571 34.821C207.571 35.0784 207.593 35.3634 207.636 35.676C207.654 35.8537 207.664 36.0437 207.664 36.246C207.664 36.5218 207.547 36.6597 207.314 36.6597C207.038 36.6597 206.623 36.2429 206.071 35.4094C205.525 34.5759 205.252 33.914 205.252 33.4237C205.252 33.0804 205.365 32.8046 205.592 32.5963C205.82 32.3817 206.083 32.2745 206.384 32.2745H211.493V29.5073H204.433V28.2019H215.736Z" fill="white"/>
</svg>
