<svg width="322" height="170" viewBox="0 0 322 170" fill="none" xmlns="http://www.w3.org/2000/svg">
<path d="M27.215 168.975C27.215 168.975 -10.2125 128.716 20.8849 85.13C48.477 46.4576 80.6477 49.1016 104.25 64.7944C114.302 71.4789 143.285 65.618 167.953 26.2675C201.594 -27.3957 318.204 5.15134 296.942 87.7133C286.653 127.667 328.255 129.121 307.058 169.058L27.2138 168.973L27.215 168.975Z" fill="#D5E5D6"/>
<path d="M219.811 150.504C219.811 150.504 222.835 146.964 219.997 144.715C219.997 144.715 217.925 143.456 216.235 143.558C216.235 143.558 218.629 147.587 217.855 147.988C217.08 148.389 215.51 143.305 215.51 143.305C215.51 143.305 210.794 142.846 209.278 143.578C209.278 143.578 213.309 146.89 212.459 147.086C211.61 147.283 207.256 144.033 207.256 144.033C207.256 144.033 202.867 144.783 203.101 147.471C203.335 150.158 204.847 150.988 205.512 150.917C206.177 150.846 210.065 149.356 210.15 149.902C210.234 150.447 207.895 152.235 206.255 152.319C206.255 152.319 209.35 155.745 211.406 154.756C213.463 153.768 213.639 152.201 214.921 151.613C216.202 151.026 217.297 151.027 216.767 151.626C216.238 152.225 213.918 152.809 213.185 154.109C212.452 155.411 211.794 156.289 213.922 155.967C216.049 155.646 219.508 154.083 219.66 152.294L219.811 150.504Z" fill="#2E7D32"/>
<path d="M205.258 147.544C205.258 147.544 217.178 147.084 219.811 150.504C219.811 150.504 220.394 152.254 222.185 153.849L222.465 154.613C222.465 154.613 220.399 152.427 219.66 152.295C219.66 152.295 220.815 148.056 205.258 147.544Z" fill="#2E7D32"/>
<path d="M222.185 153.849C222.185 153.849 224.744 155.749 224.922 159.143L224.458 159.184C224.458 159.184 223.642 155.675 222.164 154.303C220.686 152.93 222.185 153.85 222.185 153.85V153.849Z" fill="#2E7D32"/>
<path d="M230.382 146.052C230.382 146.052 225.572 143.348 227.817 139.68C227.817 139.68 229.612 137.428 231.536 136.848C231.536 136.848 230.51 142.319 231.536 142.447C232.562 142.576 232.241 136.268 232.241 136.268C232.241 136.268 237.308 133.822 239.295 134.016C239.295 134.016 236.153 139.358 237.179 139.23C238.205 139.102 241.732 133.694 241.732 133.694C241.732 133.694 246.927 132.728 247.761 135.818C248.594 138.907 247.248 140.452 246.478 140.646C245.708 140.839 240.77 140.774 240.899 141.418C241.028 142.062 244.362 143.092 246.221 142.512C246.221 142.512 244.169 147.598 241.476 147.34C238.782 147.082 237.949 145.409 236.281 145.281C234.614 145.153 233.396 145.603 234.23 146.053C235.063 146.504 237.886 146.201 239.232 147.35C240.578 148.5 241.669 149.208 239.167 149.722C236.667 150.237 232.178 149.914 231.279 147.983L230.382 146.052Z" fill="#2E7D32"/>
<path d="M245.388 136.783C245.388 136.783 231.922 141.161 230.383 146.052C230.383 146.052 230.448 148.241 229.101 150.751V151.716C229.101 151.716 230.512 148.434 231.282 147.983C231.282 147.983 228.268 143.735 245.389 136.783H245.388Z" fill="#2E7D32"/>
<path d="M229.1 150.751C229.1 150.751 227.023 153.916 228.208 157.77L228.742 157.626C228.742 157.626 228.224 153.382 229.31 151.248C230.397 149.114 229.1 150.752 229.1 150.752V150.751Z" fill="#2E7D32"/>
<path d="M222.73 142.324C222.73 142.324 229.07 138.761 226.112 133.925C226.112 133.925 223.745 130.956 221.209 130.192C221.209 130.192 222.562 137.404 221.209 137.574C219.857 137.744 220.279 129.428 220.279 129.428C220.279 129.428 213.601 126.204 210.98 126.459C210.98 126.459 215.123 133.501 213.77 133.332C212.418 133.162 207.768 126.035 207.768 126.035C207.768 126.035 200.922 124.762 199.822 128.835C198.724 132.908 200.498 134.945 201.512 135.199C202.526 135.454 209.035 135.369 208.867 136.216C208.697 137.065 204.302 138.423 201.851 137.659C201.851 137.659 204.556 144.362 208.106 144.022C211.655 143.683 212.755 141.477 214.952 141.307C217.15 141.137 218.756 141.73 217.657 142.324C216.559 142.918 212.839 142.518 211.064 144.033C209.289 145.548 207.852 146.481 211.148 147.16C214.445 147.839 220.363 147.415 221.546 144.87L222.729 142.324H222.73Z" fill="#2E7D32"/>
<path d="M202.951 130.107C202.951 130.107 220.701 135.876 222.73 142.324C222.73 142.324 222.646 145.21 224.42 148.517V149.79C224.42 149.79 222.561 145.463 221.546 144.868C221.546 144.868 225.519 139.269 202.949 130.106L202.951 130.107Z" fill="#2E7D32"/>
<path d="M224.422 148.517C224.422 148.517 227.16 152.691 225.599 157.77L224.894 157.579C224.894 157.579 225.578 151.985 224.146 149.171C222.714 146.357 224.422 148.517 224.422 148.517Z" fill="#2E7D32"/>
<path d="M223.07 168.784C229.929 168.784 235.489 163.204 235.489 156.319H210.652C210.652 163.204 216.211 168.784 223.07 168.784Z" fill="#EE9849"/>
<path d="M226.127 168.689C225.621 168.753 225.107 168.784 224.583 168.784C217.726 168.784 212.166 163.203 212.166 156.319H215.252C215.252 162.679 219.997 167.927 226.128 168.689H226.127Z" fill="#F3B175"/>
<path d="M235.661 169.419H210.481C210.481 168.57 211.167 167.881 212.013 167.881H234.129C234.974 167.881 235.661 168.57 235.661 169.419Z" fill="#EE9849"/>
<path d="M235.771 156.319H210.243V156.701H235.771V156.319Z" fill="#EE9849"/>
<path d="M53.1368 47.6673C53.1014 47.4732 52.6464 45.3885 49.4343 45.745C49.4343 45.745 51.0334 45.7044 51.405 46.3579C51.405 46.3579 50.2104 45.6575 49.3799 46.0597C48.5481 46.4619 48.2586 48.0695 48.3256 48.5745C48.3939 49.0795 49.1119 50.6338 49.6858 50.6909C49.9032 50.7125 50.1422 50.6643 50.3558 50.5945C50.242 50.847 50.1346 51.1223 50.0372 51.4255C49.1423 54.2385 50.8286 56.6151 51.8664 56.1748C52.5326 55.8918 52.9004 57.049 52.9004 57.049L58.8367 50.6033C58.8367 50.6033 55.6233 45.8313 53.1368 47.6686V47.6673Z" fill="#2C3A64"/>
<path d="M60.8706 125.303L59.427 125.842C59.427 125.842 53.1558 117.113 52.3847 109.431C52.2469 108.06 52.2924 106.731 52.5907 105.504C52.5907 105.504 52.5288 105.153 52.4226 104.531C52.3733 104.24 52.3114 103.892 52.2418 103.492C52.0383 102.319 51.7577 100.716 51.4366 98.8886C50.6984 94.6849 49.7427 89.3115 49.0007 85.3603L49.39 85.2347L53.5995 83.872L54.4692 81.0983L57.6029 80.2698C57.6029 80.2698 58.3032 81.6452 58.929 88.1391C59.044 88.9905 59.1489 89.9307 59.2286 90.9495C59.4725 94.0581 59.4902 97.9154 58.9302 102.326C58.7861 103.455 58.6054 104.62 58.3804 105.818C58.216 106.696 58.1907 107.892 58.2603 109.265C58.5763 115.544 60.8719 125.302 60.8719 125.302L60.8706 125.303Z" fill="#2B478B"/>
<path d="M59.2273 90.9521L52.4214 104.534C52.3721 104.243 52.3101 103.894 52.2406 103.494C52.0371 102.322 51.7564 100.718 51.4354 98.8911C50.6971 94.6875 49.7415 89.314 48.9994 85.3629L49.3888 85.2373L53.5982 83.8745L54.468 81.1009L57.6017 80.2723C57.6017 80.2723 58.302 81.6477 58.9277 88.1416C59.0428 88.993 59.1477 89.9332 59.2273 90.9521Z" fill="#233862"/>
<path d="M56.2326 82.0157L56.0746 80.6593C53.4352 81.3635 46.3827 78.6926 46.3827 78.6926C46.3827 78.6926 43.8254 80.9486 44.1617 86.3576C44.326 88.9968 44.6243 100.214 44.9378 103.534C45.0503 104.737 45.1502 105.593 45.1907 105.934C45.1907 105.936 45.1907 105.937 45.1907 105.938C45.2033 106.042 45.1666 106.141 45.1135 106.233C44.6534 107.017 44.2717 107.833 43.9594 108.669C40.8914 116.877 44.4322 126.984 44.4322 126.984L45.3512 126.612C45.3512 126.612 47.3662 115.364 49.0045 110.394C49.2826 109.552 49.5493 108.889 49.7933 108.494C50.505 107.34 51.1661 105.456 51.7653 103.215C52.8992 98.9774 53.8106 93.4656 54.4186 89.21C54.5021 89.2138 56.2339 82.017 56.2339 82.017L56.2326 82.0157Z" fill="#2B478B"/>
<path d="M57.0935 70.8792C57.115 70.9503 57.1352 71.0213 57.1656 71.0924C58.1971 74.0094 60.0338 77.0724 61.2865 78.1902C62.1095 78.9286 64.3697 79.695 66.2912 80.2431C67.5666 80.6187 68.7056 80.8915 69.1733 81.0095C69.3225 81.0476 69.4084 81.0628 69.4084 81.0628L69.837 79.7927C69.837 79.7927 68.8383 79.1659 67.621 78.345C65.9296 77.1916 63.816 75.6728 63.4102 75.0207C62.4735 73.5031 61.8516 68.8656 61.0476 65.7341C61.0084 65.5654 60.9667 65.4017 60.925 65.2405C60.8947 65.1225 60.8631 65.0071 60.8327 64.8916C60.8264 64.8688 60.8214 64.8345 60.8037 64.8091C60.7594 64.6785 60.7265 64.5605 60.6899 64.4539C60.6912 64.4437 60.6823 64.431 60.6735 64.4171C60.5116 63.8969 60.1312 63.1711 60.1312 63.1711C59.896 62.8057 59.6407 62.6255 59.3626 62.6877C59.3626 62.6877 58.9859 62.8019 58.5017 63.1368C58.3993 63.2066 58.2931 63.2853 58.1844 63.3766C58.1111 63.4185 58.0555 63.4756 58.0011 63.534C57.6181 63.8766 57.2212 64.3511 56.919 64.988C56.689 65.4689 56.5082 66.0386 56.4185 66.7251C56.2617 67.8442 56.56 69.3363 57.0935 70.8817V70.8792Z" fill="#FFB27D"/>
<path d="M58.5245 65.5565C57.7597 66.0577 56.8065 66.4612 55.6183 66.7022C51.1623 67.6031 49.572 63.8004 49.007 61.2044C49.6201 60.8745 50.1902 60.8149 50.5201 60.7844C50.8412 60.7552 51.1787 60.74 51.4568 60.7337C51.965 60.3657 52.7488 58.8228 52.9813 56.3994L53.1874 56.4615L56.6485 57.5185C56.6485 57.5185 56.4576 58.6274 56.3489 59.6767C56.2655 60.4977 56.2339 61.2843 56.3831 61.481C56.6536 61.5483 56.8154 61.5914 56.8154 61.5914C56.8154 61.5914 56.8154 61.5914 56.8167 61.5952C56.8609 61.6739 57.8267 63.3728 58.5207 65.5565H58.5245Z" fill="#FFB27D"/>
<path d="M56.6498 57.5185C56.6498 57.5185 56.4576 58.6261 56.3515 59.6767C54.3807 59.4217 53.5161 57.507 53.1887 56.4615L56.6511 57.5185H56.6498Z" fill="#ED985F"/>
<path d="M57.2111 58.5805C57.2111 58.5805 52.5275 58.1884 52.8158 55.2638C53.104 52.3404 52.6944 50.3204 55.6967 50.4473C58.6989 50.5742 59.1692 51.7478 59.3095 52.7477C59.4498 53.7475 58.4372 58.6084 57.2111 58.5817V58.5805Z" fill="#FFB27D"/>
<path d="M60.9263 65.2393C60.8959 65.1213 60.8643 65.0058 60.834 64.8903C60.8277 64.8675 60.8226 64.8332 60.8049 64.8079C60.7607 64.6772 60.7278 64.5592 60.6912 64.4526C60.6924 64.4424 60.6836 64.4298 60.6747 64.4158C60.5129 63.8956 60.1324 63.1698 60.1324 63.1698C59.963 62.9059 59.7911 62.6724 59.604 62.5874C59.4574 62.4948 58.6433 62.019 56.8179 61.5901C56.8179 61.5901 56.8179 61.5901 56.8192 61.5939C56.866 61.7018 58.1136 64.5554 57.9063 65.2342C57.6965 65.9232 51.6553 64.6772 51.2723 64.247C50.9664 63.9019 50.668 61.8858 50.5606 61.0991C50.5341 60.9037 50.5189 60.7831 50.5189 60.7831C50.5189 60.7831 48.3345 60.8035 47.1993 61.4683C47.1993 61.4683 47.8251 62.4364 48.1664 63.5543C48.198 63.6609 48.2283 63.7674 48.2549 63.8753C48.3117 64.1024 48.3522 64.3321 48.3712 64.5592C48.3964 64.8586 48.2814 65.1454 48.0754 65.4385C47.8883 65.7075 47.6203 65.9841 47.3156 66.2835C47.1159 66.4777 46.901 66.6819 46.681 66.9014C46.8542 68.2515 47.2701 70.4529 47.3637 72.8522C47.3877 73.4613 47.2714 74.064 47.0325 74.6172C46.9377 74.838 46.8239 75.0498 46.6912 75.2529C45.6318 76.8617 43.7976 80.03 44.5472 81.7251C44.8241 83.3873 59.1527 83.537 58.5877 81.7492C58.5877 81.7492 59.2197 71.2573 60.0022 68.6321C60.03 68.5357 60.0553 68.4431 60.0755 68.3479C60.2942 67.3506 60.1034 66.3863 59.8606 65.5273C60.2373 65.3712 60.6419 65.2837 60.9263 65.2367V65.2393Z" fill="#FF9843"/>
<path d="M59.3322 51.1071C58.6977 50.1555 58.1313 50.2938 57.7989 50.5272C55.3832 48.86 53.5287 50.7797 53.5287 50.7797C53.0066 52.8466 51.3797 53.896 51.3797 53.896C51.3797 53.896 52.1799 54.5101 54.1949 54.2005C54.8105 54.1053 55.3895 53.731 55.8964 53.2577C54.9673 54.5164 53.7891 55.3716 53.7891 55.3716C56.2453 54.5189 57.5144 51.3367 57.6421 50.9992C57.9025 51.2847 58.4094 51.9014 58.5257 52.466C58.685 53.2336 58.637 54.7765 59.087 54.7702C59.087 54.7702 60.2841 52.5358 59.3322 51.1083V51.1071Z" fill="#2C3A64"/>
<path d="M54.32 78.8779C51.5529 79.2509 48.7959 76.712 47.0325 74.6184C47.2714 74.0652 47.3864 73.4625 47.3636 72.8535C47.2701 70.4541 46.8555 68.2527 46.681 66.9027C46.9022 66.6832 47.1159 66.4789 47.3156 66.2848C47.6203 65.9853 47.887 65.7087 48.0753 65.4397C50.893 68.9493 58.0719 78.3729 54.3188 78.8792L54.32 78.8779Z" fill="#ED7D2B"/>
<path d="M73.7658 81.6477C73.1439 81.8279 72.2084 82.6019 70.9393 81.9155C70.0304 81.4308 69.052 81.0514 68.5766 80.8725C68.387 80.8129 68.2783 80.771 68.2783 80.771L68.9875 79.2915C68.9875 79.2915 69.0052 79.303 69.0494 79.3182C69.3831 79.4336 71.0783 80.011 71.9152 79.9209C72.8557 79.8156 74.2613 81.1034 74.2613 81.1034C74.2613 81.1034 74.3865 81.4765 73.7658 81.6477Z" fill="#FFB27D"/>
<path d="M49.7756 127.737H42.5044C42.5044 127.737 42.33 126.624 42.7105 125.78C43.0745 124.971 43.6446 124.603 43.5081 123.622C43.9708 124.099 44.7229 124.634 45.7747 124.492C45.9036 124.702 46.6065 125.823 47.0363 126.134C47.5116 126.477 49.6302 126.355 49.7768 127.737H49.7756Z" fill="#233862"/>
<path d="M65.3886 127.737H58.1162C58.1162 127.737 57.8444 126.573 58.3222 125.78C58.7444 125.08 58.5826 124.68 58.2704 124.1C58.6003 124.236 59.0263 124.359 59.4953 124.331C59.8581 124.311 60.2411 124.145 60.5761 123.949C60.8896 124.307 62.2296 125.832 62.648 126.134C63.1233 126.477 65.2419 126.355 65.3886 127.737Z" fill="#233862"/>
<path d="M56.0936 56.8891C56.0936 56.8891 56.1593 57.2761 57.1087 57.2774C57.1087 57.2774 57.9051 57.2774 57.9076 56.8574C57.9076 56.8574 57.1567 56.511 56.0949 56.8891H56.0936Z" fill="white"/>
<path d="M63.9159 79.8359C63.9159 79.8359 64.5391 79.813 64.9904 79.5707C65.4417 79.3283 66.9143 79.7179 66.7728 79.9145C66.6299 80.1112 65.8045 79.8689 65.7273 79.9805C65.6502 80.0922 65.3481 80.2343 65.3481 80.2343L63.9146 79.8371L63.9159 79.8359Z" fill="#FFB27D"/>
<path d="M72.6129 58.6655H101.389C105.516 58.6655 108.866 62.0291 108.866 66.1706V95.0542C108.866 99.1969 105.515 102.559 101.389 102.559H72.6129C68.4856 102.559 65.1357 99.1956 65.1357 95.0542V66.1706C65.1357 62.0279 68.4869 58.6642 72.6142 58.6642L72.6129 58.6655Z" fill="#99C3AF"/>
<path d="M103.204 69.4708V90.9051C103.204 91.5421 103.098 92.1536 102.902 92.7233C102.23 94.6773 100.504 96.1377 98.4071 96.4232C98.1618 96.4562 97.9103 96.474 97.6549 96.474H76.3003C73.8935 96.474 71.8456 94.9374 71.0771 92.788C70.8659 92.1993 70.7509 91.5649 70.7509 90.9038V69.4695C70.7509 66.3939 73.2349 63.8994 76.3003 63.8994H97.6549C100.719 63.8994 103.204 66.3939 103.204 69.4695V69.4708Z" fill="#F7FCF9"/>
<path d="M84.1884 78.6762C84.1884 78.6762 84.0797 82.0309 83.6524 83.5345L80.2658 85.9059L93.0131 87.8206L89.9729 83.6043C89.9729 83.6043 89.0552 79.105 89.5368 77.4416C90.0184 75.7782 84.1884 78.6762 84.1884 78.6762Z" fill="#FFB27D"/>
<path d="M84.1707 79.1393C84.1707 79.1393 85.1781 81.5754 87.0768 81.5209C88.9755 81.4676 89.4079 79.3118 89.4079 79.3118L84.1707 79.138V79.1393Z" fill="#ED985F"/>
<path d="M83.0368 77.1675C83.0368 77.1675 82.4237 74.0944 81.9951 73.1644C81.5679 72.2343 81.2101 68.0827 85.9531 67.867C85.9531 67.867 87.7721 68.0814 88.7695 67.4737C88.7695 67.4737 88.7695 68.0827 88.5205 68.2971C88.5205 68.2971 90.16 67.9038 91.4443 69.335C92.7287 70.7663 90.5885 75.7769 90.696 76.9582L83.0368 77.1675Z" fill="#B64C41"/>
<path d="M86.8594 80.5794C85.4841 80.5553 82.9508 78.7168 82.9508 76.4392V72.8865C82.9508 72.0554 83.5285 71.3741 84.2339 71.3741H89.4825C90.1878 71.3741 90.7655 72.0541 90.7655 72.8865V76.2387C90.7655 78.6267 88.4358 80.6073 86.8582 80.5794H86.8594Z" fill="#FFB27D"/>
<path d="M82.9508 74.7834C82.9508 74.7834 82.9584 72.648 84.6435 72.3206C86.3285 71.992 90.0993 73.361 90.6341 71.8042C91.1688 70.2473 83.3452 70.274 82.9521 71.2675C82.5577 72.261 82.9521 74.7834 82.9521 74.7834H82.9508Z" fill="#B64C41"/>
<path d="M94.8549 84.5496C94.8549 84.5496 94.8524 84.547 94.8499 84.547C94.4934 84.4151 94.3076 84.3998 94.3076 84.3998V84.4062C92.9221 84.056 91.6112 83.8136 90.3876 83.6563C90.2485 83.6385 90.1107 83.622 89.9742 83.6056C89.1386 84.7208 88.4686 85.2297 87.7658 85.5849C87.609 85.6636 87.4523 85.7346 87.2905 85.8032C87.1502 85.8615 87.0073 85.9199 86.8607 85.9783C86.6761 85.9529 86.4954 85.9059 86.3184 85.8412C86.2173 85.8044 86.1174 85.7626 86.0188 85.7156C84.6713 85.0774 83.6524 83.5764 83.6524 83.5358C83.464 83.5548 83.2795 83.5764 83.1038 83.5992C81.5122 83.7984 80.4289 84.0953 79.9599 84.2412H79.9574C79.8588 84.2539 76.3876 84.7335 71.0758 92.7906C71.8444 94.94 73.8922 96.4765 76.2991 96.4765H97.6537C97.9077 96.4765 98.1593 96.4588 98.4058 96.4258C100.503 96.1403 102.228 94.6799 102.901 92.7259C98.8773 86.5974 95.9989 84.9772 94.8549 84.5521V84.5496Z" fill="#2F5196"/>
<path d="M83.8306 82.7161C83.8306 82.7161 83.2643 82.9534 83.1038 83.5967C83.1038 83.5967 85.3741 85.9415 86.8594 85.977L83.8306 82.7161Z" fill="#EE9849"/>
<path d="M86.8594 85.977L89.7896 82.5981C89.7896 82.5981 90.3951 82.9978 90.3863 83.655C90.3863 83.655 88.1198 86.0658 86.8594 85.977Z" fill="#EE9849"/>
<path d="M88.1703 96.474H85.2426C85.5877 92.5279 86.0087 88.6238 86.2109 86.7979C86.2527 86.4274 86.2843 86.1419 86.3058 85.9592C86.3083 85.9288 86.3121 85.9008 86.3146 85.8767C86.3171 85.864 86.3171 85.8501 86.3184 85.8387C86.3272 85.7651 86.331 85.727 86.331 85.727L86.6243 85.7219L87.0857 85.7143L87.2817 85.7118C87.2817 85.7118 87.2842 85.7422 87.2892 85.8019C87.2918 85.8336 87.2956 85.8742 87.3006 85.9237C87.3031 85.9617 87.3069 86.0049 87.3107 86.0531C87.3284 86.2688 87.355 86.5822 87.3878 86.9743C87.5471 88.8813 87.8631 92.6777 88.1703 96.474Z" fill="#EE9849"/>
<path d="M85.7458 84.7779C85.7458 84.7779 87.0971 84.6422 87.92 84.7259C88.0831 84.7424 88.1741 84.9213 88.0945 85.066C87.8644 85.4821 87.3929 86.2054 86.9012 86.2054C86.2097 86.2054 85.1327 84.8262 85.7458 84.7779Z" fill="#E58638"/>
<path d="M68.1911 81.4041C67.8068 81.9269 66.7917 82.7237 65.4834 82.1147C64.5467 81.6858 63.548 81.3661 63.0626 81.2163C62.8692 81.1681 62.7592 81.1326 62.7592 81.1326L63.3786 79.6138C63.3786 79.6138 63.3963 79.624 63.4431 79.6367C63.7831 79.7318 65.4631 79.7369 66.3872 80.233C67.4566 80.8078 68.6436 80.79 68.1911 81.4041Z" fill="#FFB27D"/>
<path d="M63.9766 79.8295L63.7174 81.2608C63.7174 81.2608 63.2307 81.2151 62.4571 81.1389C62.2245 81.1148 62.0918 81.0945 62.0918 81.0945C61.4711 81.0273 60.7278 80.927 59.9188 80.8217H59.9074C58.5181 80.6136 56.9608 80.3523 55.6385 80.0274C54.7081 79.7902 53.8953 79.5199 53.3315 79.2268C53.2734 79.1989 53.2278 79.1697 53.1697 79.1304C51.8158 78.3133 50.0663 75.7134 48.6379 72.8878C48.4394 72.4982 48.2523 72.1062 48.0665 71.7268C47.3952 70.3095 46.8352 68.9062 46.4661 67.683C46.2386 66.9547 46.0705 66.2873 46.0009 65.7316C45.9731 65.5362 45.9466 65.3509 45.9428 65.1746C45.9352 65.0743 45.9289 64.9754 45.9238 64.8789C46.4712 64.398 47.7328 63.4997 49.4545 63.5936C49.4911 63.6558 49.5253 63.7179 49.5619 63.7814C50.304 65.1365 51.1143 66.904 51.8816 68.6651C52.305 69.6294 52.7171 70.5963 53.1229 71.4857C53.3568 72.0262 53.5869 72.535 53.803 73.0007C54.2202 73.8889 54.5893 74.6058 54.9015 75.0511C55.1025 75.3429 55.6398 75.7249 56.3451 76.1474C57.5713 76.8884 59.3461 77.7575 60.8871 78.4592C61.5267 78.7561 62.131 79.0225 62.6328 79.2433C63.4431 79.6024 63.9778 79.8308 63.9778 79.8308L63.9766 79.8295Z" fill="#FFB27D"/>
<path d="M49.5569 63.7865C47.4117 63.3893 45.9365 65.172 45.9365 65.172C45.6887 62.0063 47.2208 61.4366 47.2208 61.4366C47.8288 61.1194 48.6556 62.1522 49.5569 63.7865Z" fill="#FF9843"/>
<path d="M255.577 104.389H288.017C288.562 104.389 289.005 104.833 289.005 105.38V109.825C289.005 110.371 288.562 110.816 288.017 110.816H255.577C255.032 110.816 254.589 110.371 254.589 109.825V105.38C254.589 104.833 255.032 104.389 255.577 104.389Z" fill="#EE9849"/>
<path d="M262.93 110.816L262.522 114.576L256.603 169.017C256.587 169.207 256.453 169.35 256.293 169.35C255.99 169.35 255.752 169.034 255.785 168.67L260.479 112.921L260.657 110.814H262.93V110.816Z" fill="#EFCBAB"/>
<path d="M262.93 110.816L262.522 114.576C262.241 113.078 260.479 112.922 260.479 112.922L260.657 110.816H262.93Z" fill="#CCA07F"/>
<path d="M287.302 169.35C287.143 169.35 287.009 169.207 286.992 169.017L281.074 114.576L280.818 112.23L280.664 110.816H282.937L283.115 112.922L283.254 114.574L287.809 168.67C287.84 169.033 287.604 169.35 287.301 169.35H287.302Z" fill="#EFCBAB"/>
<path d="M283.255 114.574C282.676 112.782 280.819 112.232 280.819 112.232C280.819 112.232 280.819 112.232 280.819 112.23L280.665 110.816H282.938L283.116 112.922L283.255 114.574Z" fill="#CCA07F"/>
<path d="M34.6154 127.737H67.4507C67.8868 127.737 68.2407 128.092 68.2407 128.53V131.06C68.2407 131.497 67.8868 131.853 67.4507 131.853H34.6154C34.1793 131.853 33.8254 131.497 33.8254 131.06V128.53C33.8254 128.092 34.1793 127.737 34.6154 127.737Z" fill="#EE9849"/>
<path d="M42.1647 131.853L41.7564 134.262L35.8378 169.137C35.8214 169.259 35.6874 169.352 35.5281 169.352C35.2247 169.352 34.9871 169.149 35.0199 168.916L39.7136 133.203L39.8918 131.854H42.1647V131.853Z" fill="#EFCBAB"/>
<path d="M42.1647 131.853L41.7564 134.262C41.4758 133.303 39.7136 133.203 39.7136 133.203L39.8918 131.854H42.1647V131.853Z" fill="#CCA07F"/>
<path d="M66.538 169.35C66.3787 169.35 66.2447 169.258 66.2283 169.136L60.3097 134.261L60.0544 132.759L59.9001 131.853H62.173L62.3513 133.201L62.4903 134.26L67.0449 168.914C67.0765 169.146 66.8401 169.349 66.5367 169.349L66.538 169.35Z" fill="#EFCBAB"/>
<path d="M62.4903 134.261C61.9113 133.112 60.0544 132.76 60.0544 132.76L59.9001 131.854H62.173L62.3513 133.203L62.4903 134.261Z" fill="#CCA07F"/>
<path d="M88.3323 5.04103H117.412C121.582 5.04103 124.969 8.43895 124.969 12.6261V41.8142C124.969 46 121.582 49.3992 117.412 49.3992H88.3335C84.1632 49.3992 80.7767 46.0013 80.7767 41.8142V12.6248C80.7767 8.43895 84.162 5.03976 88.3335 5.03976L88.3323 5.04103Z" fill="#2E7D32"/>
<path d="M119.243 15.958V37.6182C119.243 38.1079 119.18 38.5837 119.064 39.0367C118.609 40.7966 117.326 42.2215 115.657 42.8686C115.594 42.894 115.53 42.9168 115.465 42.9384C114.891 43.1376 114.276 43.2454 113.635 43.2454H92.0563C91.7719 43.2454 91.4925 43.2238 91.2195 43.182C89.4725 42.9206 87.9884 41.8484 87.1592 40.3601C86.7066 39.5481 86.4487 38.6142 86.4487 37.6169V15.958C86.4487 12.8494 88.9592 10.3295 92.0563 10.3295H113.635C116.732 10.3295 119.242 12.8494 119.242 15.958H119.243Z" fill="#D5E5D6"/>
<path d="M101.011 24.0772C101.011 24.0772 100.916 27.026 100.541 28.3469L97.5653 30.4303L108.768 32.1127L106.097 28.4078C106.097 28.4078 105.29 24.4541 105.714 22.9924C106.137 21.5294 101.014 24.0772 101.014 24.0772H101.011Z" fill="#FFB27D"/>
<path d="M100.995 24.4845C100.995 24.4845 101.881 26.6251 103.55 26.5781C105.218 26.5312 105.597 24.6368 105.597 24.6368L100.995 24.4845Z" fill="#ED985F"/>
<path d="M100 22.7513C100 22.7513 99.4615 20.0513 99.0848 19.2341C98.7093 18.417 98.3958 14.7679 102.562 14.5788C102.562 14.5788 104.16 14.7679 105.037 14.2324C105.037 14.2324 105.037 14.7666 104.819 14.9557C104.819 14.9557 106.26 14.6093 107.389 15.8679C108.516 17.1253 106.637 21.5294 106.731 22.5673L100 22.7513Z" fill="white"/>
<path d="M106.792 18.9893V21.9355C106.792 22.4278 106.68 22.901 106.489 23.3363C106.159 24.0874 105.599 24.7256 104.986 25.157C104.442 25.5402 103.857 25.7597 103.359 25.7508C102.924 25.7419 102.359 25.5288 101.813 25.1659C101.076 24.6761 100.374 23.9148 100.076 23.0178L100.071 23.0051L100.059 22.9683C99.9734 22.6942 99.9241 22.4087 99.9241 22.1131V18.9905C99.9241 18.2597 100.432 17.6621 101.053 17.6621H105.664C106.285 17.6621 106.793 18.2597 106.793 18.9905L106.792 18.9893Z" fill="#FFB27D"/>
<path d="M109.903 29.1145C109.903 29.1145 107.272 28.5461 106.094 28.4078C105.054 29.7933 104.308 30.1664 103.359 30.5445C101.829 30.3326 100.54 28.3913 100.54 28.3469C98.8762 28.5194 97.7524 28.8747 97.2948 29.0181H97.2922C97.1861 29.032 93.1118 29.6005 87.1591 40.4109C87.9884 41.9005 89.4712 42.9714 91.2195 43.2327C91.9868 42.5679 93.6339 41.1316 94.9258 40.0048C94.9119 40.369 94.9081 40.6976 94.917 40.9844C94.9397 41.7584 94.9638 42.526 94.9802 43.2949H111.221C111.19 42.9054 111.165 42.5285 111.147 42.1682C111.091 41.0478 111.039 40.0239 110.991 39.09C110.991 39.0824 110.991 39.0735 110.989 39.0659C110.989 39.0558 110.989 39.0469 110.988 39.0367C110.988 39.0367 110.99 39.0393 110.991 39.0405C111.227 39.2448 111.507 39.4897 111.812 39.7549C111.872 39.8082 111.934 39.8615 111.998 39.9173C112.051 39.9642 112.106 40.0125 112.162 40.0607C112.238 40.1254 112.315 40.1926 112.392 40.2611C112.531 40.3829 112.671 40.5048 112.814 40.6291C112.879 40.6862 112.946 40.7433 113.01 40.8004C113.044 40.8308 113.08 40.86 113.115 40.8905C113.154 40.9247 113.195 40.9603 113.235 40.9958C113.264 41.0212 113.295 41.0465 113.325 41.0732C113.394 41.1328 113.464 41.195 113.532 41.2546C113.589 41.3041 113.645 41.3536 113.702 41.4018C113.748 41.4424 113.796 41.483 113.843 41.5236C114.014 41.6733 114.181 41.8193 114.344 41.9601C114.408 42.0159 114.473 42.0718 114.536 42.1276C114.602 42.186 114.667 42.243 114.732 42.2976C114.776 42.3369 114.822 42.3763 114.866 42.4143C114.886 42.4321 114.905 42.4486 114.925 42.4651C114.994 42.5247 115.058 42.5818 115.122 42.6364C115.188 42.6948 115.253 42.7506 115.313 42.8039C115.339 42.8267 115.364 42.8483 115.388 42.8686C115.415 42.8927 115.441 42.9143 115.466 42.9358C115.531 42.9143 115.594 42.8914 115.658 42.866C117.327 42.2189 118.609 40.7941 119.065 39.0342C113.489 29.4 109.904 29.112 109.904 29.112L109.903 29.1145Z" fill="#F99746"/>
<path d="M99.9241 20.6578C99.9241 20.6578 99.9304 18.7812 101.411 18.4931C102.891 18.2051 106.205 19.408 106.674 18.0389C107.145 16.6711 100.269 16.6939 99.9229 17.5669C99.5765 18.4399 99.9229 20.6565 99.9229 20.6565L99.9241 20.6578Z" fill="white"/>
<path d="M96.9054 43.2467H94.9802C94.9625 42.4778 94.9385 41.7101 94.917 40.9362C94.9094 40.6494 94.9119 40.3195 94.9258 39.9566C94.9284 39.8754 94.9322 39.7929 94.9359 39.7079C94.9536 39.7384 94.9878 39.7904 95.032 39.864C95.319 40.3347 96.104 41.648 96.9054 43.248V43.2467Z" fill="#ED7D2B"/>
<path d="M104.986 23.8577V25.1557C104.442 25.5389 103.857 25.7584 103.359 25.7496C102.924 25.7407 102.359 25.5275 101.813 25.1646V23.8577C101.813 23.1332 102.404 22.5394 103.126 22.5394H103.673C104.395 22.5394 104.987 23.1332 104.987 23.8577H104.986Z" fill="white"/>
<path d="M115.657 42.8686C115.594 42.894 115.53 42.9168 115.465 42.9384C115.44 42.9168 115.413 42.8952 115.387 42.8711C115.363 42.8495 115.337 42.828 115.312 42.8064C115.251 42.7531 115.187 42.6973 115.121 42.6389C115.057 42.5844 114.992 42.5273 114.924 42.4676C114.905 42.4511 114.885 42.4346 114.865 42.4169C114.82 42.3788 114.775 42.3395 114.731 42.3001C114.667 42.2456 114.6 42.1885 114.535 42.1301C114.47 42.0756 114.407 42.0185 114.343 41.9626C114.181 41.8205 114.013 41.6759 113.842 41.5262C113.795 41.4856 113.747 41.445 113.7 41.4044C113.643 41.3549 113.588 41.3067 113.531 41.2572C113.463 41.1975 113.393 41.1366 113.324 41.0757C113.295 41.0491 113.264 41.0237 113.234 40.9983C113.195 40.9628 113.154 40.9285 113.114 40.893C113.078 40.8626 113.044 40.8334 113.009 40.8029C112.944 40.7458 112.877 40.6887 112.813 40.6316C112.671 40.5073 112.53 40.3855 112.391 40.2637C112.314 40.1952 112.237 40.1279 112.161 40.0632C112.105 40.015 112.049 39.9668 111.996 39.9198C111.933 39.8653 111.871 39.8107 111.811 39.7574C111.505 39.4922 111.225 39.2473 110.99 39.0431C110.984 39.038 110.979 39.0342 110.974 39.0291C110.974 39.0291 110.979 39.0253 110.988 39.019C111.142 38.9098 112.546 37.9785 113.432 39.5531C114.058 40.6608 115.055 42.0578 115.655 42.8698L115.657 42.8686Z" fill="#ED7D2B"/>
<path d="M106.489 23.3363C105.868 24.7548 104.421 25.7699 103.359 25.7508C102.339 25.7318 100.595 24.5784 100.076 23.0178L100.071 23.0051L100.059 22.9683C100.059 22.9683 101.155 23.906 101.88 23.4416H104.924C104.924 23.4416 105.72 23.8983 106.489 23.3375V23.3363Z" fill="white"/>
<path d="M103.727 23.6991H103.07C102.92 23.6991 102.728 23.4517 102.728 23.3007C102.728 23.3007 102.919 23.1497 103.07 23.1497H103.727C103.877 23.1497 104.097 23.2753 104.132 23.3642C104.132 23.3642 104.041 23.6979 103.727 23.6979V23.6991Z" fill="#FFB27D"/>
<path d="M170.281 4.13511H141.203C137.029 4.13511 133.646 7.53105 133.646 11.7202V40.907C133.646 45.0961 137.029 48.492 141.203 48.492H170.281C174.455 48.492 177.838 45.0961 177.838 40.907V11.7202C177.838 7.53105 174.455 4.13511 170.281 4.13511Z" fill="#99C3AF"/>
<path d="M172.114 15.0534V36.7122C172.114 38.0978 171.615 39.3654 170.789 40.3462C169.761 41.5655 168.224 42.3408 166.508 42.3408H144.928C143.512 42.3408 142.218 41.8142 141.232 40.945C140.06 39.9135 139.32 38.3998 139.32 36.7135V15.0534C139.32 11.9447 141.831 9.42485 144.928 9.42485H166.508C169.605 9.42485 172.115 11.946 172.115 15.0534H172.114Z" fill="#D5E5D6"/>
<path d="M153.425 29.5789C153.425 29.5789 149.905 29.4013 149.806 27.3623C149.708 25.3232 146.8 23.8362 147.642 22.1994C148.675 20.1921 147.733 18.2622 149.036 16.9122C150.474 15.4251 152.288 16.2321 153.246 15.3655C154.203 14.4989 155.955 13.7008 157.682 14.7704C159.408 15.8413 160.727 15.2653 161.862 16.2955C163.116 17.4349 162.641 18.8687 163.675 19.6478C164.623 20.3609 164.236 22.3111 163.437 23.8958C162.862 25.0378 164.188 26.1087 161.91 27.4206C160.962 27.9675 161.168 29.3416 158.29 29.5789C156.994 29.6855 154.18 29.0764 153.424 29.5789H153.425Z" fill="white"/>
<path d="M153.532 27.7708C153.532 27.7708 153.429 30.9568 153.022 32.3843L149.806 34.6364L161.911 36.4547L159.024 32.4515C159.024 32.4515 158.152 28.1794 158.609 26.5997C159.067 25.0187 153.53 27.7721 153.53 27.7721L153.532 27.7708Z" fill="#B56F40"/>
<path d="M153.514 28.2111C153.514 28.2111 154.471 30.5242 156.273 30.4734C158.076 30.4227 158.487 28.376 158.487 28.376L153.514 28.2111Z" fill="#99592E"/>
<path d="M156.067 29.5789C154.762 29.5561 152.356 27.8102 152.356 25.6468V22.273C152.356 21.4838 152.905 20.8379 153.575 20.8379H158.559C159.229 20.8379 159.778 21.4838 159.778 22.273V25.4565C159.778 27.7239 157.565 29.6055 156.066 29.5789H156.067Z" fill="#B56F40"/>
<path d="M163.141 33.2636C163.141 33.2636 163.14 33.2636 163.139 33.2636C161.674 32.8943 160.297 32.6 159.024 32.4515C157.9 33.9487 157.095 34.3484 156.066 34.7557C154.414 34.5261 153.021 32.4325 153.021 32.3855C151.222 32.5695 150.009 32.9527 149.514 33.1075C149.514 33.1075 149.512 33.1075 149.509 33.1075C149.364 33.1265 146.147 33.6265 141.229 40.9958C142.215 41.8662 143.51 42.3928 144.926 42.3928H164.231C164.231 42.375 164.23 42.3585 164.228 42.342H166.505C168.222 42.342 169.759 41.5668 170.787 40.3474C167.332 34.3941 163.139 33.2636 163.139 33.2636H163.141Z" fill="#B64C41"/>
<path d="M152.356 23.642C152.356 23.642 153.262 20.8633 156.234 21.2973C159.205 21.7312 159.463 22.3681 159.779 23.1066C160.095 23.8463 160.704 20.4053 160.704 20.4053L157.2 19.3598C157.2 19.3598 152.959 19.8444 152.654 20.5575L152.35 21.2706L152.357 23.6408L152.356 23.642Z" fill="white"/>
<path d="M159.458 24.0087C159.291 23.8045 159.018 23.689 158.707 23.689H157.131C156.83 23.689 156.621 23.774 156.507 23.9453C156.454 24.024 156.428 24.1141 156.419 24.2067C156.155 24.1407 155.897 24.1737 155.717 24.2194C155.71 24.1217 155.682 24.0265 155.627 23.944C155.515 23.7727 155.305 23.6877 155.006 23.6877H153.428C153.117 23.6877 152.844 23.8045 152.678 24.0075C152.527 24.1915 152.476 24.4325 152.532 24.7028C152.711 25.5973 153.738 25.7115 154.251 25.7115C154.409 25.7115 154.518 25.7001 154.538 25.6988C155.018 25.6988 155.356 25.4235 155.601 24.8347C155.643 24.7345 155.711 24.5455 155.721 24.3488C155.892 24.3031 156.153 24.2625 156.416 24.3348C156.424 24.5366 156.493 24.732 156.536 24.8347C156.782 25.4235 157.12 25.6988 157.599 25.6988C157.62 25.7014 157.73 25.7115 157.888 25.7115C158.4 25.7115 159.427 25.5973 159.607 24.7028C159.661 24.4313 159.609 24.1902 159.46 24.0062L159.458 24.0087ZM155.614 24.383C155.596 24.5607 155.534 24.7256 155.505 24.7967C155.277 25.3423 154.969 25.5973 154.535 25.5973H154.529C154.529 25.5973 154.1 25.6481 153.654 25.5567C153.069 25.4374 152.726 25.1443 152.633 24.685C152.585 24.4452 152.628 24.2346 152.759 24.076C152.906 23.8971 153.15 23.7943 153.429 23.7943H155.007C155.27 23.7943 155.45 23.8641 155.543 24.0049C155.591 24.076 155.612 24.1623 155.617 24.2498C155.538 24.2765 155.486 24.2993 155.48 24.3018C155.448 24.3158 155.435 24.3526 155.449 24.3843C155.459 24.4072 155.482 24.4211 155.506 24.4211C155.515 24.4211 155.524 24.4198 155.531 24.416C155.533 24.416 155.564 24.4021 155.616 24.3843L155.614 24.383ZM159.503 24.6838C159.411 25.1431 159.067 25.4362 158.482 25.5554C158.037 25.6468 157.611 25.5973 157.607 25.596H157.601C157.166 25.596 156.857 25.341 156.631 24.7954C156.601 24.7244 156.536 24.5518 156.521 24.3716C156.552 24.383 156.582 24.397 156.611 24.4122C156.641 24.4287 156.679 24.4173 156.694 24.3869C156.711 24.3564 156.698 24.3183 156.669 24.3031C156.62 24.2765 156.57 24.2574 156.521 24.2397C156.528 24.1534 156.549 24.0722 156.595 24.0037C156.687 23.8628 156.868 23.793 157.131 23.793H158.707C158.987 23.793 159.231 23.8958 159.378 24.0747C159.508 24.2333 159.551 24.4439 159.505 24.6838H159.503Z" fill="white"/>
<path d="M230.113 47.4592L201.225 44.1159C197.08 43.6362 194.106 39.8729 194.585 35.7124L197.916 6.71718C198.394 2.55542 202.142 -0.428859 206.288 0.0520263L235.175 3.39539C239.322 3.875 242.295 7.63834 241.816 11.7988L238.485 40.7941C238.007 44.9558 234.258 47.9401 230.113 47.4605V47.4592Z" fill="#99C3AF"/>
<path d="M235.749 14.4519L233.277 35.9687C233.181 36.81 232.904 37.5852 232.489 38.2628C231.85 39.3108 230.884 40.1203 229.749 40.5669C229.1 40.822 228.396 40.959 227.667 40.9527C227.468 40.9527 227.267 40.94 227.065 40.9159L217.977 39.864L216.181 39.6559L210.308 38.9758L209.554 38.8883L205.629 38.4341C203.518 38.1892 201.816 36.7973 201.071 34.9499C201.023 34.8293 200.977 34.7088 200.938 34.5857C200.778 34.0947 200.684 33.577 200.668 33.0441C200.658 32.7662 200.668 32.4845 200.702 32.199L203.175 10.6823C203.528 7.59394 206.311 5.37983 209.388 5.7351L230.824 8.21566C233.901 8.5722 236.107 11.3636 235.752 14.4532L235.749 14.4519Z" fill="#F7FCF9"/>
<path d="M226.671 19.4181C226.668 19.4004 226.665 19.3839 226.662 19.3674C226.593 18.974 226.515 18.5845 226.429 18.2001C226.906 15.1232 225.73 13.8087 224.712 13.1412C224.165 12.0691 223.581 11.3129 223.027 11.0566C222.016 10.5884 220.856 10.6252 220.052 10.7419C220.241 10.5084 220.644 10.3955 220.644 10.3955C220.138 10.3625 219.061 10.9563 219.061 10.9563C211.86 8.84881 211.63 19.2468 211.978 21.6297C212.325 24.0113 209.902 25.0035 206.432 27.1973C203.279 29.1906 201.582 31.3388 200.669 33.0428C200.687 33.577 200.78 34.0934 200.94 34.5844C201.053 34.4817 201.167 34.4043 201.281 34.3624C201.273 34.384 201.187 34.6174 201.072 34.9486C201.816 36.796 203.518 38.1879 205.631 38.4328L209.556 38.887L210.309 38.9746L216.182 39.6547C216.799 38.7766 217.47 37.8682 218.168 36.9673C219.867 34.7697 221.724 32.6127 223.34 31.0431C223.872 30.5242 224.379 30.0712 224.844 29.7007C224.862 29.688 224.878 29.6728 224.896 29.6601C225.122 29.2566 225.305 28.7897 225.451 28.305C225.947 26.6746 226.041 24.8589 226.05 24.6787C226.05 26.3637 225.903 27.531 225.711 28.3405C225.635 28.6628 225.552 28.9267 225.468 29.1462C225.674 28.9217 225.856 28.6679 226.019 28.3887C227.243 26.2838 227.258 22.7526 226.673 19.4169L226.671 19.4181Z" fill="#163560"/>
<path d="M223.758 30.3186C223.78 30.3313 221.388 31.2461 219.744 30.5838C218.198 29.9621 217.393 27.7632 217.416 27.7607C218.107 27.7036 218.41 26.7938 218.856 22.7843L219.154 22.8808L224.176 24.4972C224.176 24.4972 223.873 26.1074 223.694 27.6363C223.543 28.9204 223.48 30.1473 223.757 30.3186H223.758Z" fill="#FFB27D"/>
<path d="M217.365 13.2339C217.365 13.2339 219.681 10.3003 223.091 12.6096C223.091 12.6096 221.206 12.4447 217.365 13.2339Z" fill="#BC3F3F"/>
<path d="M224.176 24.4985C224.176 24.4985 223.873 26.1087 223.694 27.6376C220.827 27.224 219.609 24.4135 219.154 22.882L224.176 24.4985Z" fill="#EF9E67"/>
<path d="M224.982 25.4184C224.982 25.4184 218.166 26.1087 217.801 21.8416C217.439 17.5745 216.314 14.7895 220.651 14.1677C224.988 13.546 225.973 15.1029 226.439 16.4973C226.906 17.8917 226.745 25.1291 224.98 25.4184H224.982Z" fill="#FFB27D"/>
<path d="M223.752 13.7998C223.752 13.7998 222.303 18.9652 219.497 19.9485C216.69 20.9318 215.382 20.2657 215.382 20.2657C215.382 20.2657 217.435 18.3257 217.635 15.2247C217.635 15.2247 222.142 11.5374 223.752 13.801V13.7998Z" fill="#163560"/>
<path d="M223.323 14.2451C223.323 14.2451 224.812 15.245 225.245 16.3032C225.676 17.3614 226.017 19.5856 226.66 19.4549C226.66 19.4549 227.783 15.9327 226.038 14.1411C224.189 12.2416 223.323 14.2451 223.323 14.2451Z" fill="#163560"/>
<path d="M229.592 29.9837C228.884 29.0929 227.437 28.6298 226.017 28.39C225.913 28.3735 225.811 28.357 225.709 28.3418C225.621 28.3291 225.535 28.3177 225.448 28.3063C224.849 28.2276 224.276 28.187 223.786 28.1654C223.712 28.0614 223.668 27.9979 223.654 27.9776C223.651 27.9738 223.649 27.9713 223.649 27.9713L217.885 27.5031L217.824 27.498C217.824 27.498 217.82 27.498 217.813 27.498C217.809 27.498 217.805 27.498 217.8 27.498C217.365 27.4511 211.395 26.856 210.24 28.9711C209.485 30.3529 209.47 32.9971 209.826 35.9307C209.719 36.9254 209.629 37.9379 209.551 38.8896L210.304 38.9771L216.177 39.6572L217.973 39.8653L227.061 40.9171C227.263 40.94 227.464 40.9527 227.663 40.9539C228.392 40.9603 229.096 40.8233 229.745 40.5682C230.88 40.1216 231.846 39.3121 232.485 38.2653C231.612 34.6732 230.518 31.1573 229.588 29.9849L229.592 29.9837Z" fill="#BC3F3F"/>
<path d="M234.12 58.3775H205.057C200.886 58.3775 197.505 61.7711 197.505 65.9574V95.1291C197.505 99.3154 200.886 102.709 205.057 102.709H234.12C238.291 102.709 241.672 99.3154 241.672 95.1291V65.9574C241.672 61.7711 238.291 58.3775 234.12 58.3775Z" fill="#2E7D32"/>
<path d="M235.953 69.2906V90.9381C235.953 91.4786 235.877 92.0027 235.736 92.4975C235.086 94.7598 233.06 96.4372 230.624 96.5565C230.533 96.5616 230.442 96.5641 230.349 96.5641H208.783C208.745 96.5641 208.705 96.5641 208.668 96.5616C208.631 96.5616 208.593 96.5616 208.556 96.559C206.111 96.4626 204.07 94.7928 203.406 92.5318C203.257 92.0268 203.177 91.4926 203.177 90.9394V69.2919C203.177 66.1846 205.687 63.6659 208.781 63.6659H230.348C233.444 63.6659 235.953 66.1846 235.953 69.2919V69.2906Z" fill="#F7FCF9"/>
<path d="M216.338 79.3195C216.338 79.3195 216.214 83.1691 215.724 84.8934L211.838 87.6138L226.464 89.8101L222.976 84.9734C222.976 84.9734 221.923 79.8118 222.475 77.9022C223.028 75.9926 216.339 79.3182 216.339 79.3182L216.338 79.3195Z" fill="#FFB27D"/>
<path d="M216.317 79.8511C216.317 79.8511 217.473 82.6451 219.651 82.5842C221.829 82.522 222.326 80.0503 222.326 80.0503L216.317 79.8511Z" fill="#ED985F"/>
<path d="M215.016 77.5888C215.016 77.5888 214.313 74.064 213.821 72.9956C213.331 71.9285 212.921 67.1641 218.362 66.9179C218.362 66.9179 220.449 67.1641 221.594 66.4662C221.594 66.4662 221.594 67.1641 221.307 67.4103C221.307 67.4103 223.19 66.9585 224.662 68.6004C226.135 70.2435 223.68 75.9913 223.803 77.3477L215.015 77.5875L215.016 77.5888Z" fill="#2C3A64"/>
<path d="M219.402 81.5044C217.823 81.4765 214.919 79.3664 214.919 76.7539V72.6771C214.919 71.723 215.581 70.9427 216.391 70.9427H222.413C223.224 70.9427 223.886 71.723 223.886 72.6771V76.523C223.886 79.2624 221.213 81.5361 219.402 81.5044Z" fill="#FFB27D"/>
<path d="M214.919 74.8545C214.919 74.8545 214.927 72.4044 216.86 72.0288C218.793 71.6519 223.12 73.2227 223.733 71.4362C224.346 69.6497 215.371 69.6802 214.919 70.8209C214.467 71.9603 214.919 74.8557 214.919 74.8557V74.8545Z" fill="#2C3A64"/>
<path d="M229.25 96.5616H208.783C208.745 96.5616 208.705 96.5616 208.668 96.559C209.185 91.8529 210.296 86.1762 211.184 85.8032C211.184 85.8032 211.286 85.7651 211.481 85.7042C211.484 85.7042 211.487 85.7042 211.487 85.7042C211.95 85.5583 212.935 85.2868 214.366 85.0673C214.369 85.0673 214.374 85.0673 214.376 85.0673C214.79 85.0025 215.238 84.9455 215.724 84.8947C215.724 84.9518 217.406 87.4209 219.402 87.6975C220.644 87.2052 221.618 86.7853 222.976 84.9746C223.423 85.0279 223.882 85.0888 224.351 85.1624C225.492 85.3388 226.694 85.5786 227.948 85.8958C228.096 85.9326 228.246 85.9707 228.396 86.0113C228.456 86.0252 228.515 86.0417 228.575 86.0582C228.575 86.0582 228.589 86.1204 228.624 86.4896C228.701 87.327 228.884 89.7378 229.248 96.5628L229.25 96.5616Z" fill="#739AF0"/>
<path d="M211.346 85.7308C211.346 85.7308 211.336 85.7334 211.331 85.7347C211.254 85.7524 211.15 85.7791 211.019 85.8247C211.011 85.8273 211.002 85.8298 210.996 85.8323C210.988 85.8349 210.982 85.8374 210.977 85.8387C210.969 85.8412 210.964 85.8425 210.964 85.8425C209.885 86.2181 207.181 87.5948 203.405 92.5292C204.069 94.7903 206.11 96.46 208.555 96.5565C208.592 96.559 208.63 96.559 208.666 96.559C208.704 96.5616 208.743 96.5616 208.781 96.5616H214.214C214.273 93.0862 214.314 90.0613 214.341 87.9894C214.352 87.0733 214.36 86.345 214.366 85.8425C214.371 85.3388 214.374 85.066 214.374 85.066C214.371 85.066 214.366 85.066 214.364 85.066C213.293 85.1941 211.979 85.5469 211.344 85.7296L211.346 85.7308Z" fill="#2B478B"/>
<path d="M228.576 86.0582C228.302 85.9554 228.113 85.9136 228.018 85.8971C228.016 85.8971 228.016 85.8971 228.015 85.8971C227.292 85.7144 225.66 85.3197 224.351 85.1624C224.351 85.1929 224.355 85.8197 224.364 86.8994C224.37 87.5935 224.378 88.4728 224.387 89.5018C224.404 91.4177 224.431 93.8501 224.466 96.5641H230.348C230.441 96.5641 230.532 96.5616 230.623 96.5565C233.057 96.4385 235.085 94.7611 235.735 92.4975C232.204 87.8561 229.682 86.4693 228.575 86.0582H228.576Z" fill="#2B478B"/>
<path d="M223.214 74.654C223.026 74.4243 222.719 74.2936 222.369 74.2936H220.596C220.259 74.2936 220.023 74.3913 219.895 74.5829C219.837 74.673 219.806 74.7733 219.795 74.8773C219.498 74.8037 219.209 74.8418 219.008 74.8925C218.998 74.7821 218.969 74.6768 218.907 74.5829C218.78 74.3913 218.544 74.2936 218.206 74.2936H216.434C216.084 74.2936 215.777 74.4256 215.59 74.654C215.42 74.8621 215.363 75.1323 215.424 75.4368C215.626 76.4418 216.781 76.5699 217.357 76.5699C217.534 76.5699 217.658 76.5572 217.681 76.556C218.22 76.556 218.6 76.2451 218.876 75.584C218.924 75.4724 218.999 75.2592 219.01 75.0384C219.201 74.9864 219.496 74.9407 219.792 75.0219C219.8 75.2491 219.879 75.4698 219.928 75.584C220.204 76.2464 220.584 76.556 221.124 76.556C221.147 76.5585 221.271 76.5699 221.448 76.5699C222.024 76.5699 223.178 76.4418 223.38 75.4368C223.441 75.1323 223.384 74.8621 223.215 74.654H223.214ZM218.89 75.0752C218.871 75.2744 218.801 75.461 218.769 75.5396C218.514 76.1537 218.166 76.4405 217.678 76.4405H217.67C217.67 76.4405 217.188 76.4976 216.686 76.3948C216.028 76.2603 215.642 75.9304 215.538 75.4153C215.484 75.1463 215.533 74.909 215.678 74.7301C215.843 74.5284 216.118 74.4129 216.432 74.4129H218.204C218.5 74.4129 218.703 74.4928 218.808 74.6502C218.863 74.7301 218.887 74.8278 218.892 74.9255C218.802 74.956 218.744 74.9813 218.736 74.9851C218.701 75.0016 218.686 75.0422 218.702 75.0778C218.713 75.1032 218.739 75.1184 218.765 75.1184C218.775 75.1184 218.785 75.1158 218.794 75.112C218.796 75.112 218.831 75.0955 218.889 75.0752H218.89ZM223.265 75.414C223.162 75.9292 222.775 76.2591 222.116 76.3935C221.614 76.4963 221.138 76.4405 221.133 76.4392H221.125C220.637 76.4392 220.29 76.1537 220.034 75.5384C220.001 75.4584 219.929 75.2656 219.912 75.0613C219.946 75.074 219.979 75.0892 220.013 75.107C220.047 75.1247 220.089 75.112 220.108 75.0778C220.125 75.0435 220.113 75.0016 220.079 74.9826C220.023 74.9534 219.966 74.9306 219.91 74.9103C219.918 74.8151 219.943 74.7238 219.994 74.6451C220.099 74.4878 220.301 74.4078 220.597 74.4078H222.37C222.685 74.4078 222.959 74.5233 223.124 74.725C223.27 74.9039 223.318 75.1412 223.265 75.4102V75.414Z" fill="#B64C41"/>
<path d="M163.378 56.6278H129.675C124.837 56.6278 120.916 60.5639 120.916 65.4195V99.2489C120.916 104.104 124.837 108.041 129.675 108.041H163.378C168.216 108.041 172.137 104.104 172.137 99.2489V65.4195C172.137 60.5639 168.216 56.6278 163.378 56.6278Z" fill="#99C3AF"/>
<path d="M165.503 69.283V94.3881C165.503 97.1249 163.824 99.4684 161.444 100.437C161.304 100.494 161.162 100.546 161.017 100.593C160.382 100.801 159.706 100.912 159.003 100.912H133.991C130.401 100.912 127.491 97.9915 127.491 94.3881V69.283C127.491 65.6796 130.401 62.7587 133.991 62.7587H159.003C162.593 62.7587 165.503 65.6796 165.503 69.283Z" fill="#F7FCF9"/>
<path d="M146.713 69.4137C146.014 69.245 145.202 69.2056 144.254 69.3414C144.254 69.3414 142.558 69.5089 140.964 70.5899C139.696 71.4489 137.867 73.304 139.913 78.392L140.882 80.1417C140.559 83.9532 139.005 83.9532 139.005 83.9532C139.005 83.9532 139.684 84.2895 140.012 84.2895C140.012 84.2895 140.492 84.1055 140.586 83.8403C140.586 83.8403 140.492 84.2577 140.369 84.391C140.369 84.391 143.006 84.6422 144.323 83.6424C145.039 83.0993 145.822 81.8241 146.328 80.5249L148.323 80.6657C148.344 81.5272 148.037 82.5118 147.078 83.5409C147.078 83.5409 149.538 83.7832 150.371 83.0993C150.371 83.0993 150.206 83.433 150.055 83.5827C150.055 83.5827 152.805 83.6817 153.94 82.8214C155.076 81.9599 154.346 67.8353 146.712 69.415L146.713 69.4137Z" fill="#233862"/>
<path d="M156.244 100.912H136.77C136.534 99.3961 136.388 97.9814 136.481 96.6237C136.596 94.9184 137.345 93.3844 138.23 92.1372C139.672 90.1045 141.472 88.8357 141.472 88.8357C141.472 88.8357 141.518 88.8268 141.595 88.8128C141.734 88.7887 141.974 88.7494 142.231 88.7266H142.233C142.476 88.5984 142.575 87.7128 142.604 86.6761C142.611 86.3881 142.615 86.0887 142.614 85.7905C142.614 85.5329 142.61 85.2728 142.604 85.0178C142.601 84.8985 142.598 84.7805 142.595 84.6638C142.595 84.6308 142.592 84.5978 142.592 84.5648C142.592 84.5153 142.59 84.4658 142.587 84.4176C142.587 84.3796 142.585 84.3428 142.584 84.3047C142.584 84.2451 142.58 84.188 142.577 84.1309C142.575 84.0535 142.571 83.9786 142.568 83.9037C142.568 83.8873 142.566 83.872 142.566 83.8555C142.563 83.7857 142.56 83.7172 142.557 83.65C142.553 83.5688 142.549 83.4888 142.544 83.414L142.542 83.3556C142.536 83.2351 142.529 83.1209 142.524 83.0194C142.524 82.9915 142.522 82.9648 142.52 82.9382C142.518 82.9064 142.518 82.8773 142.515 82.8481C142.513 82.8202 142.513 82.7923 142.51 82.7669C142.505 82.6819 142.5 82.6095 142.496 82.5512C142.496 82.5385 142.496 82.5258 142.494 82.5131C142.494 82.4992 142.491 82.4852 142.491 82.4738C142.489 82.4205 142.486 82.3913 142.486 82.3913L145.773 81.7391L148.026 81.2912L148.29 81.2392L148.356 81.2265V81.2303C148.353 82.0779 148.399 82.862 148.482 83.5751C148.551 84.1791 148.646 84.7336 148.758 85.2322C149.167 87.0568 149.805 88.1543 150.266 88.3358C150.282 88.3434 150.296 88.3484 150.311 88.3523C152.554 88.8141 155.959 94.6507 156.244 100.914V100.912Z" fill="#D9935C"/>
<path d="M142.484 82.3913C142.484 82.3913 142.61 84.141 142.614 85.7905C145.715 85.7029 147.353 82.8646 148.024 81.2912L142.484 82.3926V82.3913Z" fill="#CB7D45"/>
<path d="M141.448 83.9532C141.448 83.9532 148.784 84.075 148.789 79.4882C148.794 74.9027 149.745 71.8296 145.061 71.558C140.378 71.2865 139.466 73.035 139.093 74.5664C138.721 76.0966 139.541 83.8035 141.448 83.9545V83.9532Z" fill="#D9935C"/>
<path d="M141.72 71.4451C141.72 71.4451 143.729 76.825 146.811 77.6205C149.893 78.4161 151.23 77.5875 151.23 77.5875C151.23 77.5875 148.866 75.702 148.376 72.412C148.376 72.412 143.236 68.8846 141.722 71.4451H141.72Z" fill="#233862"/>
<path d="M142.218 71.8816C142.218 71.8816 140.718 73.0832 140.352 74.2505C139.987 75.4178 139.823 77.8223 139.124 77.741C139.124 77.741 137.611 74.0843 139.311 72.0148C141.113 69.821 142.217 71.8816 142.217 71.8816H142.218Z" fill="#233862"/>
<path d="M141.939 72.0631C141.939 72.0631 143.37 77.6979 147.258 79.5022C147.258 79.5022 143.37 76.0408 143.039 72.3206C142.709 68.6017 141.938 72.0631 141.938 72.0631H141.939Z" fill="#233862"/>
<path d="M160.491 98.1273C160.366 97.8279 160.242 97.5322 160.122 97.2417C160.061 97.0957 160.001 96.9524 159.94 96.8103C159.94 96.8026 159.937 96.7988 159.937 96.7988C158.242 92.7589 156.9 89.7086 156.768 89.4853C156.39 88.8433 151.224 88.2076 150.467 88.2114C149.917 88.2114 149.616 86.3856 149.493 85.3857C149.458 85.1104 149.147 84.9658 148.919 85.1231C148.865 85.1599 148.811 85.1967 148.756 85.2309C148.688 85.2741 148.621 85.3172 148.553 85.3604C148.484 85.4022 148.416 85.4428 148.349 85.4822C148.304 85.5088 148.258 85.5355 148.213 85.5608C148.161 85.59 148.109 85.6179 148.057 85.6458C148.01 85.6712 147.962 85.6953 147.916 85.7207C147.868 85.7448 147.821 85.7689 147.774 85.7918C147.726 85.8146 147.679 85.8374 147.632 85.8603C147.595 85.878 147.558 85.8945 147.521 85.9123C147.452 85.944 147.385 85.9745 147.315 86.0024C147.266 86.024 147.217 86.0443 147.169 86.0646C147.134 86.0785 147.099 86.0937 147.065 86.1064C146.877 86.18 146.687 86.2485 146.501 86.3094C144.926 86.8284 143.455 86.8779 142.605 86.6761C142.585 86.6711 142.563 86.666 142.543 86.6609C142.111 86.5492 141.718 86.935 141.81 87.374C141.924 87.8929 141.953 88.4614 141.661 88.7481C140.349 89.0412 137.156 89.8596 136.558 91.0003C136.128 91.8187 136.089 96.6326 135.856 100.912H159.004C159.707 100.912 160.385 100.801 161.018 100.593C161.164 100.546 161.305 100.494 161.445 100.437C161.123 99.6486 160.803 98.8759 160.492 98.1273H160.491Z" fill="#F99746"/>
<path d="M153.47 100.912H150.365C151.15 99.608 151.9 98.6589 152.332 98.6069C152.704 98.5625 153.1 99.542 153.47 100.912Z" fill="#ED7D2B"/>
<path d="M150.467 88.2127C150.467 88.2127 146.598 90.6717 143.672 90.0893C143.672 90.0893 142.969 89.6439 143.939 89.196C144.849 88.776 146.965 87.5351 146.5 86.3107C147.304 86.0481 148.133 85.6623 148.919 85.1243C149.148 84.9683 149.458 85.1117 149.493 85.387C149.616 86.3868 149.917 88.2139 150.467 88.2139V88.2127Z" fill="#ED7D2B"/>
<path d="M190.603 101.742C190.603 101.742 196.492 107.789 196.779 110.122C197.066 112.454 193.94 116.102 193.94 116.102L190.603 101.742Z" fill="#ED7D2B"/>
<path d="M187.974 165.836C187.974 165.836 187.77 169.123 187.137 169.17C187.052 169.177 183.923 169.177 183.923 169.177L179.929 169.154C179.929 169.154 179.955 168.187 181.122 167.983C182.29 167.778 184.244 166.955 184.952 165.406C185.697 163.776 187.975 165.836 187.975 165.836H187.974Z" fill="#163560"/>
<path d="M196.872 165.836C196.872 165.836 196.668 169.123 196.035 169.17C195.95 169.177 192.821 169.177 192.821 169.177L188.827 169.154C188.827 169.154 188.853 168.187 190.02 167.983C191.188 167.778 193.143 166.955 193.85 165.406C194.595 163.776 196.873 165.836 196.873 165.836H196.872Z" fill="#163560"/>
<path d="M183.549 130.504C183.549 130.504 184.595 137.212 188.492 149.119C192.39 161.027 192.921 166.182 192.921 166.182L197.103 166.064C197.103 166.064 197.138 153.051 195.342 147.063C193.546 141.076 194.954 125.477 194.954 125.477L183.549 130.504Z" fill="#163560"/>
<path d="M181.514 125.845C181.514 125.845 181.366 135.954 183.108 148.364C184.85 160.774 184.26 166.044 184.26 166.044L188.433 166.183C188.433 166.183 190.927 153.768 190.211 147.556C189.496 141.344 193.627 126.239 193.627 126.239L181.513 125.845H181.514Z" fill="#1C468A"/>
<path d="M189.593 102.19L187.369 103.653L184.156 103.052C184.2 102.792 184.413 101.712 184.606 100.735C184.617 100.678 184.63 100.619 184.64 100.563C184.806 99.7324 184.949 99.018 184.949 99.018L187.95 97.6883L189.068 97.1935C189.066 97.2112 188.981 98.1159 188.97 98.2491C188.76 100.596 189.592 102.191 189.592 102.191L189.593 102.19Z" fill="#FFB27D"/>
<path d="M184.979 101.452C185.041 101.425 188.848 100.297 189.262 100.434C189.675 100.571 189.92 101.374 189.92 101.374L183.693 102.788C183.693 102.788 184.184 101.788 184.979 101.452Z" fill="#ED7D2B"/>
<path d="M195.231 127.092C194.586 130.047 183.845 130.397 181.077 127.715C180.762 127.409 180.747 125.987 180.866 124.069C181.098 120.322 181.844 114.684 181.873 111.805C181.887 110.415 182.078 108.992 182.331 107.701C182.87 104.947 183.693 102.788 183.693 102.788C183.693 102.788 188.939 101.085 189.92 101.376C194.649 102.77 195.876 124.138 195.231 127.093V127.092Z" fill="#FF9843"/>
<path d="M180.866 124.07C181.098 120.323 181.844 114.686 181.873 111.807C181.887 110.416 182.078 108.994 182.331 107.702L185.486 107.142C185.486 107.142 188.572 119.791 180.864 124.07H180.866Z" fill="#ED7D2B"/>
<path d="M182.573 118.846C182.573 118.846 182.788 119.362 182.337 119.709C181.886 120.055 181.592 120.617 181.696 121.027C181.8 121.437 182.791 122.107 183.133 121.999C183.477 121.891 184.176 121.351 184.1 121.135C184.025 120.919 184.571 119.236 183.733 118.588C182.896 117.94 182.572 118.847 182.572 118.847L182.573 118.846Z" fill="#FFB27D"/>
<path d="M186.103 102.03C186.103 102.03 183.026 102.609 180.574 106.235C178.121 109.863 176.508 112.559 176.959 113.867C177.411 115.174 181.529 119.709 182.238 119.709C182.948 119.709 184.094 119.191 184.159 118.025C184.159 118.025 181.26 113.664 181.831 113.011C182.075 112.732 185.595 109.864 186.098 111.159C186.929 113.303 186.104 102.032 186.104 102.032L186.103 102.03Z" fill="#FF9843"/>
<path d="M188.745 98.2897C188.086 99.4101 185.63 100.379 184.605 100.736C184.616 100.679 184.629 100.621 184.639 100.565C184.805 99.7337 184.947 99.0193 184.947 99.0193L187.948 97.6896C188.612 97.6807 189.015 97.8292 188.743 98.291L188.745 98.2897Z" fill="#FCA56B"/>
<path d="M183.817 98.8341C183.817 98.8341 188.651 100.348 189.545 97.3115C190.437 94.2752 191.662 92.4252 188.615 91.3302C185.566 90.2352 184.622 91.216 184.079 92.1562C183.535 93.0964 182.583 98.3621 183.819 98.8341H183.817Z" fill="#FFB27D"/>
<path d="M184.267 91.8644C184.267 91.8644 184.576 95.3981 185.304 95.2446C186.032 95.091 186.692 94.9781 186.586 96.0426C186.479 97.1072 185.984 98.7998 188.228 98.9889C190.472 99.1779 193.182 92.9074 192.566 91.8073C190.788 88.6352 181.697 87.9945 184.269 91.8644H184.267Z" fill="#163560"/>
<path d="M268.75 35.5335C268.75 35.5335 266.543 38.1612 263.733 37.0624C263.733 37.0624 263.128 35.5944 263.119 34.5134C263.119 34.3801 263.117 34.2507 263.114 34.1289C263.099 32.9108 263.059 32.2269 263.059 32.2269C263.059 32.2269 263.059 32.2269 263.061 32.2269C263.189 32.1736 267.357 30.4556 267.354 30.599C267.282 33.8942 268.75 35.536 268.75 35.536V35.5335Z" fill="#FFB27D"/>
<path d="M266.936 31.3832C266.534 32.1305 265.155 33.5935 263.116 34.1289C263.1 32.9108 263.06 32.2269 263.06 32.2269C263.06 32.2269 263.06 32.2269 263.063 32.2269C263.178 32.1965 267.056 31.1637 266.936 31.3844V31.3832Z" fill="#ED975D"/>
<path d="M262.187 32.1001C262.187 32.1001 266.874 33.2065 267.515 30.2653C268.156 27.3255 269.193 25.4869 266.228 24.6571C263.262 23.826 262.434 24.8208 261.982 25.7496C261.529 26.6784 260.983 31.7372 262.187 32.1001Z" fill="#FFB27D"/>
<path d="M267.354 31.066C267.419 31.1066 268.426 31.4174 270.336 27.5983C270.636 26.9981 270.841 25.7014 270.142 24.5556C269.442 23.4099 266.965 22.509 264.906 22.1169C262.846 21.7248 262.352 22.8871 261.868 24.057C261.359 25.2839 259.888 26.2939 259.888 26.2939C261.664 27.2899 263.802 25.865 264.543 26.0998C265.284 26.3345 265.545 27.5056 265.601 27.8812C265.656 28.2568 265.742 28.5689 266.674 28.2339C267.606 27.899 267.095 29.5586 266.946 29.8771C266.946 29.8771 266.819 30.7234 267.354 31.0672V31.066Z" fill="#A9453D"/>
<path d="M279.429 104.395H282.267C282.862 104.395 283.523 103.798 283.689 102.703C283.855 101.608 285.077 101.01 285.342 100.114C285.607 99.2185 284.252 97.956 284.252 97.956L284.025 97.6642L283.789 97.3596L281.54 97.89C281.54 97.89 281.484 98.4267 281.45 99.1119C281.426 99.6055 281.412 100.178 281.441 100.678C281.507 101.873 281.108 103.159 280.051 103.392C278.993 103.624 279.43 104.395 279.43 104.395H279.429Z" fill="#2C3A64"/>
<path d="M259.671 104.395H267.194C267.266 104.381 267.32 104.365 267.353 104.348C267.855 104.096 267.698 102.166 267.637 101.57C267.626 101.459 267.617 101.395 267.617 101.395C267.617 101.395 264.971 99.2705 264.607 100.897C264.596 100.948 264.582 100.997 264.568 101.047C264.109 102.569 262.056 103.261 260.871 103.453C259.964 103.601 259.729 104.13 259.67 104.395H259.671Z" fill="#2C3A64"/>
<path d="M261.187 60.8491C261.187 60.8491 261.589 65.88 262.06 71.9285C262.702 80.1442 263.473 90.2364 263.55 92.1473C263.682 95.4665 264.212 100.777 264.212 100.777C264.212 100.777 265.468 102.038 267.981 101.506C267.981 101.506 270.221 93.9262 270.861 85.9047C270.871 85.7727 270.881 85.6407 270.891 85.5088C271.487 77.3439 272.412 60.1513 272.412 60.1513L261.187 60.8479V60.8491Z" fill="#2B478B"/>
<path d="M261.187 60.8491C261.187 60.8491 261.589 65.88 262.06 71.9285L270.861 85.9059C270.871 85.774 270.881 85.642 270.891 85.5101C271.487 77.3452 272.412 60.1525 272.412 60.1525L261.187 60.8491Z" fill="#233862"/>
<path d="M263.022 61.4468C263.022 61.4468 270.264 79.6684 275.026 88.2317C279.788 96.795 281.276 99.1842 281.276 99.1842C281.276 99.1842 284.004 98.0892 284.252 97.3419C284.252 97.3419 282.431 80.8103 279.242 76.7805C277.441 74.503 275.323 67.6704 275.225 65.2799C275.125 62.8894 274.58 58.1605 274.58 58.1605L263.023 61.4468H263.022Z" fill="#2B478B"/>
<path d="M279.536 58.1364L279.612 59.3088C279.612 59.3088 278.842 61.3909 281 62.458C281 62.458 281.924 62.8323 281.961 62.1104C281.999 61.3884 281.88 61.6599 281.956 60.6436C282.03 59.6273 281.634 58.6668 280.964 58.3432L280.414 57.7063L279.536 58.1351V58.1364Z" fill="#FFB27D"/>
<path d="M280.38 58.989C279.578 59.2479 279.449 59.1882 279.449 59.1882C279.449 59.1882 275.548 52.0587 275.152 51.4065C274.758 50.7543 266.869 43.4116 266.869 43.4116L268.896 35.8241C268.896 35.8241 277.868 47.4858 278.837 49.1582C280.439 51.9229 281.377 58.3457 281.377 58.3457C281.377 58.3457 281.009 58.786 280.38 58.989Z" fill="#1E3D70"/>
<path d="M259.658 46.3909C259.686 47.949 259.777 49.7 259.898 51.4801C259.906 51.5854 259.914 51.6907 259.921 51.7961C260 52.8987 260.083 54.0025 260.18 55.0798C260.22 55.5125 260.26 55.9388 260.304 56.3575L260.311 56.4146C260.314 56.5719 260.333 56.7419 260.35 56.8967C260.745 60.9316 261.16 64.1189 261.237 64.1684C261.329 64.2293 261.433 64.261 261.546 64.2471C262.6 64.1138 265.745 64.3536 268.32 63.7915C270.493 63.331 272.364 62.4593 274.346 61.2831C274.609 61.127 275.209 60.7134 275.16 60.4038C275.112 60.0637 275.024 59.5727 274.911 58.956C274.52 56.8105 273.847 53.1182 273.617 48.7978C273.572 47.9934 273.507 47.1978 273.422 46.4162C273.201 44.381 272.847 42.4473 272.371 40.7293C271.489 37.5382 270.191 35.0945 268.564 34.1391C268.352 34.0198 267.206 34.7506 266.156 35.4269C265.185 36.0512 264.164 36.2237 263.17 36.1375L262.295 37.1081C261.236 38.3439 260.108 39.9896 259.8 42.3281C259.777 42.5006 259.757 42.6846 259.74 42.88C259.656 43.8329 259.634 45.0383 259.658 46.3896V46.3909Z" fill="#2A4E96"/>
<path d="M259.658 46.3909C259.686 47.949 259.777 49.7 259.898 51.4801C259.906 51.5854 259.914 51.6907 259.921 51.7961C265.942 48.0124 266.87 41.0897 266.87 41.0897C263.908 41.2204 261.554 41.903 259.74 42.8813C259.656 43.8342 259.634 45.0396 259.658 46.3909Z" fill="#1E3D70"/>
<path d="M241.866 39.7295L240.77 39.1649C240.77 39.1649 240.063 36.8239 237.42 37.1589C237.42 37.1589 236.344 37.3771 236.794 38.0509C237.244 38.7246 237.169 38.4087 237.782 39.3704C238.396 40.3322 239.395 40.959 240.21 40.8473L241.128 41.091L241.866 39.7295Z" fill="#ED975D"/>
<path d="M240.793 40.0353C241.104 39.1928 241.585 39.2474 241.585 39.2474C241.585 39.2474 250.539 41.4868 251.342 41.5833C252.144 41.6797 260.983 38.1194 260.983 38.1194C260.983 38.1194 264.462 36.5524 266.091 37.9836C267.507 39.2271 267.572 40.8017 267.24 42.1251C266.846 43.7009 265.517 44.8657 263.911 45.0713C260.306 45.5319 253.112 46.3997 251.603 46.1891C248.247 45.7196 240.644 41.3143 240.644 41.3143C240.644 41.3143 240.549 40.6976 240.791 40.0366L240.793 40.0353Z" fill="#2A4E96"/>
<path d="M114.504 107.174C114.504 107.174 114.758 104.389 111.659 104.389C111.659 104.389 112.598 104.645 113.084 105.157C113.084 105.157 111.107 103.992 108.956 105.782C106.804 107.572 108.142 112.063 107.487 112.915C106.832 113.768 104.284 113.938 104.596 116.695C104.907 119.452 112.684 122.905 112.184 125.185C112.184 125.185 115.232 120.688 113.053 118.637C113.053 118.637 114.115 119.64 114.223 120.834C114.223 120.834 114.512 118.503 113.034 117.759C111.727 117.099 110.656 114.687 110.769 114.255C110.881 113.824 114.505 107.174 114.505 107.174H114.504Z" fill="#2C3A64"/>
<path d="M111.689 120.277C111.211 117.967 108.227 117.25 106.813 119.137C106.559 119.475 106.381 119.878 106.323 120.351C106.001 122.973 110.178 133.657 110.776 134.624C111.866 136.385 118.28 142.422 118.28 142.422L119.462 141.703C119.462 141.703 114.912 133.972 114.208 133.248C113.394 132.412 112.597 124.665 111.689 120.277Z" fill="#ED985F"/>
<path d="M111.002 118.843C111.002 118.843 111.911 119.793 112.327 120.929C112.327 120.929 110.877 125.11 107.486 125.634C107.486 125.634 110.169 118.842 111.002 118.843Z" fill="#AA413E"/>
<path d="M113.628 106.782C113.67 106.612 109.956 108.467 109.767 108.676C108.026 110.616 108.522 113.148 109.518 113.172C110.158 113.187 110.034 114.254 110.034 114.254L117.157 111.23C117.157 111.23 116.299 106.211 113.629 106.782H113.628Z" fill="#2C3A64"/>
<path d="M105.798 167.394L104.257 167.167C104.257 167.167 99.0739 163.033 98.3028 155.32C98.2244 154.534 98.208 153.737 98.2661 152.934C98.2725 152.842 98.2623 152.749 98.2118 152.672C98.2118 152.672 98.2118 152.672 98.2105 152.669C98.0449 152.414 97.6316 151.775 97.0728 150.865C96.5217 149.969 95.5786 148.275 94.5421 146.374C92.6737 142.951 90.4982 138.858 89.7511 137.555C87.3733 133.399 88.5199 130.605 88.5199 130.605C88.5199 130.605 95.1526 129.947 96.9704 128.351L97.6252 129.363C97.6252 129.363 99.0625 135.749 98.9943 135.78C99.0651 135.997 99.1371 136.217 99.2104 136.443C100.344 139.957 101.649 144.349 102.361 147.926C102.76 149.939 102.972 151.692 102.859 152.887C102.819 153.297 102.867 153.927 102.976 154.704C103.618 159.287 105.799 167.395 105.799 167.395L105.798 167.394Z" fill="#2B478B"/>
<path d="M109.03 169.352H102.599C102.599 169.352 102.445 168.368 102.781 167.621C103.104 166.905 103.561 166.883 102.839 165.76C103.248 166.182 104.561 166.356 105.492 166.232C105.605 166.417 106.226 167.66 106.606 167.934C107.026 168.238 108.901 168.13 109.03 169.352Z" fill="#233862"/>
<path d="M99.2082 136.443C98.647 139.553 97.3197 144.727 94.5399 146.376C92.6715 142.952 90.496 138.859 89.7489 137.556C87.3711 133.401 88.5177 130.607 88.5177 130.607C88.5177 130.607 95.1504 129.948 96.9682 128.352L97.623 129.365C97.623 129.365 99.0603 135.751 98.9921 135.781C99.0629 135.998 99.1349 136.219 99.2082 136.445V136.443Z" fill="#233862"/>
<path d="M94.6986 131.085L94.7201 129.878C92.3233 130.182 86.4578 127.005 86.4578 127.005C86.4578 127.005 83.9511 128.678 83.6073 133.458C83.4404 135.791 82.3798 145.656 82.2635 148.603C82.2206 149.671 82.2066 150.432 82.2016 150.737C82.2016 150.738 82.2016 150.739 82.2016 150.739C82.2003 150.832 82.1561 150.914 82.0992 150.988C81.6037 151.621 81.1726 152.291 80.801 152.986C77.1439 159.815 79.0565 169.093 79.0565 169.093L79.906 168.876C79.906 168.876 82.998 159.257 85.018 155.096C85.3606 154.391 85.6728 153.841 85.9332 153.524C86.693 152.598 87.4944 151.025 88.2845 149.132C89.7774 145.552 91.2261 140.83 92.2601 137.173C92.3334 137.187 94.6986 131.085 94.6986 131.085Z" fill="#2B478B"/>
<path d="M108.721 123.028C104.803 122.126 107.306 116.6 107.534 116.698C108.076 116.586 109.268 115.631 110.335 113.762L110.479 113.887L112.885 116.005C112.885 116.005 112.329 116.829 111.861 117.636C111.496 118.267 111.185 118.889 111.234 119.102C111.427 119.256 109.766 123.269 108.721 123.028Z" fill="#FFB27D"/>
<path d="M112.885 116.005C112.885 116.005 112.328 116.827 111.861 117.636C110.365 116.711 110.363 114.852 110.479 113.889L112.885 116.006V116.005Z" fill="#ED985F"/>
<path d="M112.951 117.066C112.951 117.066 109.319 115.037 110.613 112.786C111.906 110.535 112.308 108.757 114.682 109.958C117.056 111.158 117.009 112.275 116.759 113.132C116.508 113.989 113.928 117.535 112.951 117.066Z" fill="#FFB27D"/>
<path d="M117.372 111.819C117.206 110.819 116.7 110.724 116.347 110.791C115.006 108.565 112.814 109.434 112.814 109.434C111.643 110.908 109.951 111.159 109.951 111.159C109.951 111.159 110.372 111.946 112.109 112.433C112.64 112.582 113.241 112.492 113.822 112.296C112.617 112.97 111.356 113.229 111.356 113.229C113.645 113.44 115.823 111.34 116.048 111.114C116.154 111.44 116.338 112.121 116.227 112.619C116.077 113.295 115.477 114.522 115.843 114.68C115.843 114.68 117.618 113.318 117.369 111.819H117.372Z" fill="#2C3A64"/>
<path d="M84.1713 169.352H77.7408C77.7408 169.352 77.5866 168.368 77.9228 167.621C78.2452 166.905 78.7483 166.579 78.6282 165.713C79.0365 166.135 79.7027 166.608 80.6331 166.483C80.7468 166.668 81.3688 167.66 81.7493 167.934C82.1702 168.238 84.0436 168.13 84.1726 169.352H84.1713Z" fill="#233862"/>
<path d="M109.182 127.408C108.355 127.699 107.193 127.857 106.005 127.987C104.313 128.172 102.568 128.299 101.654 128.664C101.32 128.797 101.098 128.962 101.028 129.173C100.631 130.369 98.8841 132.216 98.8841 132.216C87.6867 131.704 86.4579 127.003 86.4579 127.003C93.992 118.21 106.747 115.665 106.747 115.665C106.747 115.665 107.658 115.278 109.953 117.108C111.483 118.33 111.283 118.799 111.283 118.799C111.283 118.799 111.617 126.555 109.183 127.408H109.182Z" fill="#C65447"/>
<path d="M106.006 127.987C104.314 128.172 102.569 128.299 101.655 128.664C101.281 123.058 103.916 118.842 103.916 118.842C103.916 118.842 105.635 125.864 106.006 127.985V127.987Z" fill="#AA413E"/>
<path d="M125.069 121.899H156.064C160.508 121.899 164.117 125.521 164.117 129.982V161.093C164.117 165.554 160.508 169.177 156.064 169.177H125.069C120.623 169.177 117.015 165.554 117.015 161.093V129.982C117.015 125.52 120.624 121.899 125.069 121.899Z" fill="#99C3AF"/>
<path d="M158.016 133.535V156.622C158.016 158.202 157.407 159.639 156.411 160.711C155.32 161.886 153.765 162.622 152.038 162.622H129.038C127.264 162.622 125.671 161.845 124.577 160.613C123.634 159.553 123.062 158.154 123.062 156.622V133.535C123.062 130.222 125.738 127.536 129.039 127.536H152.039C155.34 127.536 158.016 130.222 158.016 133.535Z" fill="#F7FCF9"/>
<path d="M136.036 144.915C136.036 144.915 132.697 138.838 135.759 136.154C138.821 133.47 144.211 135.072 145.203 136.154C146.195 137.236 147.515 140.315 144.777 144.691L136.036 144.915Z" fill="#2C3A64"/>
<path d="M137.42 147.416C137.42 147.416 137.299 151.169 136.821 152.851L133.033 155.502L147.29 157.644L143.89 152.929C143.89 152.929 142.863 147.898 143.402 146.037C143.94 144.176 137.42 147.417 137.42 147.417V147.416Z" fill="#B56F40"/>
<path d="M137.398 147.934C137.398 147.934 138.526 150.658 140.65 150.598C142.773 150.539 143.256 148.128 143.256 148.128L137.398 147.934Z" fill="#99592E"/>
<path d="M140.406 149.545C138.867 149.519 136.034 147.462 136.034 144.915V140.941C136.034 140.011 136.68 139.25 137.471 139.25H143.341C144.131 139.25 144.777 140.011 144.777 140.941V144.691C144.777 147.362 142.17 149.577 140.406 149.547V149.545Z" fill="#B56F40"/>
<path d="M156.412 160.711C155.321 161.886 153.766 162.622 152.039 162.622H129.039C127.265 162.622 125.673 161.845 124.578 160.613C129.507 154.038 132.632 153.623 132.714 153.614C133.296 153.433 134.714 153.019 136.835 152.801C136.835 152.856 138.487 155.285 140.434 155.554C141.643 155.075 142.55 154.604 143.873 152.84C145.372 153.016 147.039 153.363 148.763 153.798V153.791C148.763 153.791 151.683 154.527 156.412 160.71V160.711Z" fill="#74ACBE"/>
<path d="M136.036 142.553C136.036 142.553 137.104 139.28 140.603 139.791C144.102 140.301 144.405 141.052 144.777 141.922C145.149 142.793 145.867 138.74 145.867 138.74L141.739 137.509C141.739 137.509 136.745 138.08 136.386 138.92L136.027 139.76L136.036 142.552V142.553Z" fill="#2C3A64"/>
<path d="M140.12 136.221C140.12 136.221 136.423 132.848 138.009 132.128C139.595 131.407 140.12 136.221 140.12 136.221Z" fill="#2C3A64"/>
<path d="M139.971 136.31C139.971 136.31 135.295 134.541 136.506 133.285C137.717 132.029 139.971 136.31 139.971 136.31Z" fill="#2C3A64"/>
<path d="M140.277 136.408C140.277 136.408 139.512 132.057 141.36 132.089C143.208 132.12 140.277 136.408 140.277 136.408Z" fill="#2C3A64"/>
<path d="M140.537 136.125C140.537 136.125 142.54 131.444 144.404 131.883C146.269 132.321 140.537 136.125 140.537 136.125Z" fill="#2C3A64"/>
<path d="M140.434 136.408C140.434 136.408 143.622 132.444 145.299 133.372C146.977 134.299 140.434 136.408 140.434 136.408Z" fill="#2C3A64"/>
<path d="M107.746 117.759C107.746 117.759 103.508 118.179 103.168 120.942C102.828 123.706 107.231 134.964 107.862 135.983C109.01 137.839 115.769 144.2 115.769 144.2L117.014 143.442C117.014 143.442 112.219 135.295 111.477 134.534C110.312 133.337 109.18 118.717 107.746 117.759Z" fill="#FFB27D"/>
<path d="M103.291 122.606C103.302 122.669 107.202 123.884 109.711 122.606C109.711 122.606 110.249 116.793 107.253 117.109C104.257 117.425 102.482 118.371 102.406 119.812C102.33 121.252 103.291 122.606 103.291 122.606Z" fill="#C65447"/>
<path d="M115.768 144.201C115.768 144.201 115.245 146.196 115.768 147.099C116.291 148.002 117.013 148.7 117.013 148.7V143.443L115.768 144.201Z" fill="#FFB27D"/>
<path d="M258.431 169.177H225.344L236.219 121.899H267.711L269.158 122.537L258.431 169.177Z" fill="#CCA07F"/>
<path d="M256.835 169.177H223.75L234.623 121.899H267.71L256.835 169.177Z" fill="#E3F0FF"/>
<path d="M258.826 128.545H243.557C243.219 128.545 242.879 128.822 242.802 129.16C242.724 129.499 242.936 129.776 243.274 129.776H258.543C258.88 129.776 259.221 129.499 259.298 129.16C259.376 128.822 259.164 128.545 258.826 128.545Z" fill="#CBE2F7"/>
<path d="M258.497 131.825H242.376C242.274 131.825 242.169 131.91 242.146 132.013C242.122 132.117 242.187 132.2 242.29 132.2H258.411C258.514 132.2 258.619 132.115 258.642 132.013C258.666 131.91 258.601 131.825 258.497 131.825Z" fill="#CBE2F7"/>
<path d="M258.299 132.691H242.178C242.074 132.691 241.971 132.776 241.948 132.879C241.924 132.983 241.989 133.067 242.092 133.067H258.213C258.317 133.067 258.42 132.982 258.443 132.879C258.467 132.775 258.401 132.691 258.299 132.691Z" fill="#CBE2F7"/>
<path d="M236.546 129.776H240.671C241.008 129.776 241.349 129.499 241.426 129.16C241.504 128.822 241.292 128.545 240.954 128.545H236.829C236.492 128.545 236.152 128.822 236.075 129.16C235.996 129.499 236.209 129.776 236.546 129.776Z" fill="#CBE2F7"/>
<path d="M256.311 138.089H241.041C240.704 138.089 240.364 138.366 240.287 138.704C240.208 139.043 240.421 139.32 240.758 139.32H256.027C256.365 139.32 256.705 139.043 256.782 138.704C256.86 138.366 256.648 138.089 256.311 138.089Z" fill="#CBE2F7"/>
<path d="M255.983 141.369H239.862C239.758 141.369 239.655 141.454 239.631 141.557C239.607 141.661 239.672 141.745 239.775 141.745H255.896C256 141.745 256.103 141.66 256.127 141.557C256.151 141.453 256.086 141.369 255.983 141.369Z" fill="#CBE2F7"/>
<path d="M255.783 142.236H239.662C239.559 142.236 239.455 142.321 239.432 142.423C239.408 142.527 239.473 142.611 239.576 142.611H255.697C255.801 142.611 255.905 142.526 255.929 142.423C255.953 142.321 255.887 142.236 255.785 142.236H255.783Z" fill="#CBE2F7"/>
<path d="M234.031 139.32H238.155C238.493 139.32 238.833 139.043 238.91 138.704C238.988 138.366 238.776 138.089 238.439 138.089H234.314C233.976 138.089 233.636 138.366 233.559 138.704C233.481 139.043 233.693 139.32 234.031 139.32Z" fill="#CBE2F7"/>
<path d="M254.307 147.632H239.038C238.7 147.632 238.36 147.908 238.283 148.247C238.205 148.586 238.417 148.863 238.755 148.863H254.024C254.361 148.863 254.701 148.586 254.778 148.247C254.857 147.908 254.644 147.632 254.307 147.632Z" fill="#CBE2F7"/>
<path d="M253.978 150.912H237.857C237.753 150.912 237.65 150.997 237.626 151.1C237.602 151.202 237.666 151.287 237.77 151.287H253.891C253.995 151.287 254.098 151.202 254.122 151.1C254.146 150.996 254.081 150.912 253.978 150.912Z" fill="#CBE2F7"/>
<path d="M253.78 151.778H237.659C237.555 151.778 237.451 151.863 237.427 151.966C237.403 152.07 237.469 152.154 237.571 152.154H253.693C253.796 152.154 253.9 152.069 253.924 151.966C253.948 151.862 253.882 151.778 253.78 151.778Z" fill="#CBE2F7"/>
<path d="M232.027 148.864H236.152C236.489 148.864 236.829 148.587 236.906 148.249C236.985 147.91 236.772 147.633 236.435 147.633H232.31C231.973 147.633 231.633 147.91 231.556 148.249C231.477 148.587 231.69 148.864 232.027 148.864Z" fill="#CBE2F7"/>
<path d="M251.97 157.564H236.7C236.363 157.564 236.023 157.841 235.946 158.18C235.867 158.518 236.08 158.795 236.417 158.795H251.686C252.024 158.795 252.364 158.518 252.441 158.18C252.52 157.841 252.307 157.564 251.97 157.564Z" fill="#CBE2F7"/>
<path d="M251.641 160.844H235.52C235.417 160.844 235.312 160.929 235.29 161.032C235.266 161.136 235.33 161.22 235.434 161.22H251.555C251.659 161.22 251.762 161.135 251.785 161.032C251.809 160.928 251.745 160.844 251.641 160.844Z" fill="#CBE2F7"/>
<path d="M251.441 161.712H235.32C235.216 161.712 235.113 161.797 235.09 161.9C235.066 162.004 235.132 162.088 235.234 162.088H251.355C251.459 162.088 251.563 162.003 251.585 161.9C251.609 161.797 251.544 161.712 251.441 161.712Z" fill="#CBE2F7"/>
<path d="M234.098 157.564H229.973C229.635 157.564 229.295 157.841 229.218 158.18C229.14 158.518 229.352 158.795 229.69 158.795H233.814C234.152 158.795 234.492 158.518 234.569 158.18C234.648 157.841 234.435 157.564 234.098 157.564Z" fill="#CBE2F7"/>
<path d="M256.296 125.384H243.474C242.597 125.384 241.947 124.565 242.144 123.707L242.627 121.608H258.413L257.826 124.164C257.661 124.878 257.027 125.384 256.296 125.384Z" fill="#EE9849"/>
<path d="M258.413 121.608L259.501 121.899H258.346L258.413 121.608Z" fill="#ED7D2B"/>
<path d="M265.982 168.078C265.982 168.38 265.859 168.655 265.661 168.854C265.517 168.998 265.332 169.103 265.127 169.15C265.05 169.168 264.969 169.177 264.887 169.177H234.039C233.437 169.177 232.943 168.682 232.943 168.076C232.943 167.774 233.066 167.499 233.264 167.3C233.463 167.101 233.738 166.978 234.038 166.978H264.886C264.968 166.978 265.049 166.988 265.126 167.004C265.614 167.115 265.981 167.555 265.981 168.076L265.982 168.078Z" fill="#EE9849"/>
<path d="M265.127 166.978L269.156 167.872L265.127 169.177V166.978Z" fill="#739AF0"/>
<path d="M240.835 166.978V169.177H234.038C233.436 169.177 232.942 168.682 232.942 168.076C232.942 167.774 233.065 167.499 233.263 167.3C233.462 167.101 233.737 166.978 234.037 166.978H240.834H240.835Z" fill="#739AF0"/>
</svg>
