<svg width="241" height="249" viewBox="0 0 241 249" fill="none" xmlns="http://www.w3.org/2000/svg">
<g id="Security" clip-path="url(#clip0_2020_10753)">
<g id="Group">
<g id="OBJECTS">
<g id="Group_2">
<path id="Vector" d="M107.689 227.443C107.689 227.443 110.649 210.78 93.5478 200.098C94.0561 204.574 90.1246 211.525 93.4282 217.463C97.6886 225.146 104.983 224.042 107.689 227.443Z" fill="#80B377"/>
<g id="Group_3" opacity="0.15">
<path id="Vector_2" d="M88.5561 0.000239307C134.762 -0.238452 161.923 26.5099 195.483 95.0591C214.094 133.086 246.412 158.163 240.224 201.023C235.485 233.888 210.387 256.459 140.487 246.718C70.588 236.976 10.3754 245.927 1.70525 198.055C-7.23396 148.69 21.9605 117.675 20.4507 76.2323C18.9259 34.7746 42.3503 0.238931 88.5561 0.000239307Z" fill="#FF6200"/>
<path id="Vector_3" d="M195.483 95.0589C161.938 26.5246 134.762 -0.238697 88.556 -5.70214e-06C57.9564 0.164095 37.3723 15.3658 27.3717 37.6387C50.4223 80.8418 106.928 150.54 233.527 158.342C223.9 137.337 207.053 118.689 195.483 95.0589Z" fill="#FF914C"/>
</g>
<g id="Group_4">
<path id="Vector_4" d="M21.1372 126.074C21.1372 126.074 13.2294 145.169 17.699 162.817C22.662 182.45 45.9517 184.434 51.8714 193.355C58.8523 178.526 59.2858 160.162 48.2538 148.914C40.2863 140.783 23.6336 135.517 21.1372 126.074Z" fill="#2E7D32"/>
<path id="Vector_5" d="M22.8264 135.815C24.9491 156 53.6652 169.158 51.8714 193.355C50.4064 213.002 57.5368 227.16 67.4178 239.572" stroke="#003E21" stroke-width="1.02" stroke-miterlimit="10"/>
<path id="Vector_6" d="M20.1207 195.339C19.2537 204.588 20.7336 215.091 31.2424 218.418C38.0739 220.581 55.5487 218.985 55.5487 218.985C55.5487 218.985 50.7951 218.85 49.1507 213.942C47.5064 209.034 45.5182 203.514 40.1218 200.725C34.7254 197.935 23.813 200.635 20.1207 195.339Z" fill="#2E7D32"/>
<path id="Vector_7" d="M77.6725 189.193C83.338 196.562 87.688 206.244 80.5725 214.643C75.9385 220.088 60.3023 228.04 60.3023 228.04C60.3023 228.04 64.2637 225.399 63.0379 220.372C61.8121 215.344 60.5415 209.616 63.6209 204.38C66.7003 199.158 77.3735 195.638 77.6874 189.193H77.6725Z" fill="#2E7D32"/>
</g>
<g id="Group_5">
<path id="Vector_8" d="M134.462 154.866C134.462 154.866 129.155 164.518 116.987 170.948C104.819 177.363 103.907 194.802 113.863 213.763C136.734 214.27 145.001 199.292 145.09 184.33C145.195 166.249 134.447 154.881 134.447 154.881L134.462 154.866Z" fill="#2E7D32"/>
<path id="Vector_9" d="M134.462 154.866C134.462 154.866 137.766 167.397 127.885 186.209C117.989 205.021 109.318 211.66 107.076 243.092" stroke="#003E21" stroke-width="1.02" stroke-miterlimit="10"/>
<path id="Vector_10" d="M109.304 236.812C109.304 236.812 114.849 220.819 135 219.79C132.369 223.46 132.414 231.426 126.629 235.022C119.155 239.661 113.325 235.141 109.304 236.812Z" fill="#2E7D32"/>
</g>
<g id="Group_6">
<path id="Vector_11" d="M201.67 154.687L172.76 136.173L142.684 152.807L129.768 245.375C133.326 245.793 136.899 246.24 140.516 246.732C147.034 247.642 153.162 248.269 158.933 248.627L172.775 172.828L188.875 247.836C200.056 246.285 209.07 243.242 216.26 239.005L201.685 154.687H201.67Z" fill="#203E87"/>
<path id="Vector_12" d="M145.105 161.475L133.475 245.39" stroke="#3465D9" stroke-width="1.07" stroke-miterlimit="10"/>
<path id="Vector_13" d="M196.453 159.714L211.641 241.422" stroke="#3465D9" stroke-width="1.07" stroke-miterlimit="10"/>
<path id="Vector_14" opacity="0.2" d="M205.138 174.752L201.67 154.687L172.76 136.173L142.684 152.807L139.724 174.036C161.713 174.573 169.561 157.059 169.561 157.059C178.261 177.422 195.99 176.721 205.153 174.767L205.138 174.752Z" fill="url(#paint0_linear_2020_10753)" style="mix-blend-mode:multiply"/>
<g id="Group_7">
<path id="Vector_15" d="M148.813 41.6069L146.152 36.3706C146.152 36.3706 141.951 34.7594 140.561 32.5665C136.869 26.7185 144.896 16.6189 155.285 16.2758C165.361 15.9476 166.691 20.2739 166.691 20.2739C166.691 20.2739 171.878 20.2738 172.655 25.4803C173.433 30.6868 171.175 37.7282 171.175 37.7282L148.813 41.6069Z" fill="#61646B"/>
<path id="Vector_16" d="M171.878 61.4481H158.17L155.031 47.4698L168.111 44.5607L171.878 61.4481Z" fill="#FFAC79"/>
<path id="Vector_17" d="M172.267 33.5958C171.026 33.7003 170.219 34.4462 169.711 35.1324C169.531 34.0583 169.307 32.9394 168.993 31.746C168.993 31.746 158.155 33.7748 154.044 27.3302C153.282 32.9543 148.977 36.2065 148.977 36.2065C149.216 37.4895 149.5 38.6531 149.814 39.757C149.067 39.2946 147.916 38.847 146.615 39.3244C144.403 40.1449 148.768 48.4245 151.997 45.2768C154.747 50.2446 158.903 53.2879 163.088 52.3629C167.259 51.438 169.711 46.9327 170.099 41.3235C174.195 42.4722 174.584 33.4168 172.267 33.6107V33.5958Z" fill="#FFC8A5"/>
</g>
<path id="Vector_18" d="M142.863 63.3129L117.436 100.847L93.3834 83.4078L86.5519 93.6417L114.625 117.705C118.347 120.897 123.998 120.271 126.928 116.347L149.111 86.6898L142.878 63.3129H142.863Z" fill="#3465D9"/>
<path id="Vector_19" opacity="0.2" d="M129.215 83.4674L137.99 101.533L149.097 86.6898L142.863 63.3129L129.215 83.4674Z" fill="url(#paint1_linear_2020_10753)" style="mix-blend-mode:multiply"/>
<path id="Vector_20" opacity="0.2" d="M95.7901 89.3751C95.4313 89.2557 86.537 82.3486 86.537 82.3486C86.537 82.3486 79.556 74.3673 76.1029 72.9352L79.6905 79.4843L61.7822 81.9905L63.0678 85.4366C63.9497 87.7937 66.207 89.3751 68.7333 89.3751H82.4261L91.0215 96.6402L95.7901 89.3751Z" fill="url(#paint2_linear_2020_10753)" style="mix-blend-mode:multiply"/>
<path id="Vector_21" d="M144.208 62.5968C148.065 61.5973 155.808 59.8817 164.493 59.8071C165.794 59.8071 167.095 59.7773 168.395 59.7027C177.469 59.1955 185.885 59.2253 190.638 59.3148C192.926 59.3596 194.809 61.1348 194.973 63.4024L200.25 133.19L205.482 164.518C205.482 164.518 177.424 172.678 170.009 147.273C170.009 147.273 162.072 168.352 139.47 164.891L143.177 133.772L141.682 65.9385C141.652 64.3721 142.684 62.9847 144.208 62.5968Z" fill="#203E87"/>
<path id="Vector_22" d="M174.808 122.866C174.808 123.896 173.971 124.716 172.954 124.716C171.938 124.716 171.101 123.881 171.101 122.866C171.101 121.852 171.938 121.017 172.954 121.017C173.971 121.017 174.808 121.852 174.808 122.866Z" fill="white"/>
<path id="Vector_23" d="M175.496 135.696C175.496 136.725 174.658 137.546 173.642 137.546C172.625 137.546 171.788 136.711 171.788 135.696C171.788 134.682 172.625 133.846 173.642 133.846C174.658 133.846 175.496 134.682 175.496 135.696Z" fill="white"/>
<path id="Vector_24" d="M170.174 144.214L168.858 110.261L179.636 80.7672L173.522 76.4111L182.402 66.938L173.164 60.016" stroke="white" stroke-width="0.51" stroke-miterlimit="10"/>
<path id="Vector_25" opacity="0.2" d="M200.37 133.846L200.265 133.19L198.741 113.08L159.172 103.309L142.654 109.723C142.654 109.723 144.492 112.752 148.274 113.796C152.056 114.84 159.366 113.364 159.366 113.364L162.311 114.244L161.833 115.795C161.833 115.795 187.066 132.772 200.37 133.846Z" fill="url(#paint3_linear_2020_10753)" style="mix-blend-mode:multiply"/>
<path id="Vector_26" d="M95.7901 87.4208C95.4313 87.3014 86.537 80.3943 86.537 80.3943C86.537 80.3943 79.556 72.413 76.1029 70.9809L79.6905 77.53L61.7822 80.0363L63.0678 83.4824C63.9497 85.8394 66.207 87.4208 68.7333 87.4208H82.4261L91.0215 94.6859L95.7901 87.4208Z" fill="white"/>
<path id="Vector_27" d="M157.782 60.1801L168.858 110.261L172.102 59.3447L157.782 60.1801Z" fill="#3465D9"/>
<path id="Vector_28" d="M168.858 110.261L152.415 81.6772L157.139 76.4111L148.259 67.9525L157.258 60.7619" stroke="white" stroke-width="0.51" stroke-miterlimit="10"/>
<path id="Vector_29" d="M174.075 105.263C173.702 105.218 163.567 100.295 163.567 100.295C163.567 100.295 155.076 93.9251 151.399 93.2538L156.257 98.9227L139.26 105.069L141.234 108.187C142.579 110.32 145.12 111.379 147.587 110.857L160.996 108.023L170.906 113.349L174.075 105.248V105.263Z" fill="#FFC8A5"/>
<path id="Vector_30" d="M192.148 59.2701C202.657 59.2701 216.215 103.13 210.131 118.66C204.047 134.204 163.372 111.021 163.372 111.021L167.782 100.594L196.214 108.306C196.214 108.306 177.215 59.2701 192.163 59.2701H192.148Z" fill="#3465D9"/>
</g>
<g id="Group_8">
<path id="Vector_31" opacity="0.2" d="M108.631 71.6373H107.181V56.1521C107.181 38.4591 92.7556 24.078 75.0416 24.078C57.3276 24.078 42.9022 38.4741 42.9022 56.1521V71.6373H41.4522C39.8976 71.6373 38.627 72.9053 38.627 74.4568V129.222C38.627 133.682 42.2595 137.307 46.7291 137.307H103.384C107.854 137.307 111.486 133.682 111.486 129.222V74.4568C111.486 72.9053 110.215 71.6373 108.661 71.6373H108.631ZM53.1569 56.1521C53.1569 44.1131 62.9632 34.3268 75.0266 34.3268C87.0901 34.3268 96.8963 44.1131 96.8963 56.1521V71.6373H53.142V56.1521H53.1569Z" fill="url(#paint4_linear_2020_10753)" style="mix-blend-mode:multiply"/>
<g id="Group_9">
<g id="Group_10">
<path id="Vector_32" d="M102.622 80.6926H38.3429V53.1088C38.3429 35.4158 52.7683 21.0347 70.4823 21.0347C88.1963 21.0347 102.622 35.4307 102.622 53.1088V80.6926ZM48.6126 70.4438H92.3669V53.1238C92.3669 41.0848 82.5607 31.2984 70.4972 31.2984C58.4337 31.2984 48.6275 41.0848 48.6275 53.1238V70.4438H48.6126Z" fill="#FF751F"/>
<path id="Vector_33" d="M42.1997 76.8288V53.1088C42.1997 37.5491 54.891 24.8836 70.4823 24.8836C86.0736 24.8836 98.7649 37.5491 98.7649 53.1088V76.8288H42.1997Z" stroke="white" stroke-width="0.43" stroke-miterlimit="10"/>
</g>
<path id="Vector_34" opacity="0.2" d="M92.3519 55.3018V70.4438H48.6126V55.3018H38.3429V80.6926H102.622V55.3018H92.3519Z" fill="url(#paint5_linear_2020_10753)" style="mix-blend-mode:multiply"/>
<g id="Group_11">
<path id="Vector_35" d="M36.878 68.6089H104.072C105.626 68.6089 106.897 69.8769 106.897 71.4284V126.193C106.897 130.654 103.264 134.279 98.7947 134.279H42.1548C37.6852 134.279 34.0527 130.654 34.0527 126.193V71.4284C34.0527 69.8769 35.3233 68.6089 36.878 68.6089Z" fill="url(#paint6_radial_2020_10753)"/>
<g id="Group_12">
<path id="Vector_36" opacity="0.79" d="M78.0014 93.2538C78.0014 88.6142 73.7859 84.9741 68.9724 85.8991C65.9827 86.4809 63.6059 88.9275 63.0827 91.9111C62.6044 94.7157 63.6657 97.2817 65.5791 98.9227C66.1173 99.3851 66.3565 100.086 66.1771 100.758L63.5013 110.947C63.2322 111.976 64.0095 112.976 65.0709 112.976H75.9684C76.9998 112.976 77.7472 112.006 77.4782 111.021L74.7874 100.773C74.608 100.101 74.8323 99.4001 75.3704 98.9525C76.9699 97.58 78.0014 95.5512 78.0014 93.2687V93.2538Z" fill="black"/>
<path id="Vector_37" d="M75.0266 93.2538C75.0266 89.6137 72.4405 86.5853 69.0023 85.8991C65.5642 86.5853 62.9781 89.6137 62.9781 93.2538C62.9781 95.5362 63.9946 97.5651 65.609 98.9376C66.1322 99.3851 66.3565 100.086 66.192 100.758L63.5013 111.006C63.2472 111.991 63.9946 112.961 65.0111 112.961H73.5467C74.3091 112.961 74.8622 112.245 74.6678 111.514L71.8575 100.787C71.6781 100.101 71.9173 99.3702 72.4555 98.9078C74.04 97.5353 75.0565 95.5064 75.0565 93.2538H75.0266Z" fill="black"/>
</g>
</g>
</g>
</g>
<g id="Group_13">
<path id="Vector_38" d="M120.5 24.9134V28.8518" stroke="white" stroke-width="0.8" stroke-miterlimit="10"/>
<path id="Vector_39" d="M120.5 32.6709V36.6093" stroke="white" stroke-width="0.8" stroke-miterlimit="10"/>
<path id="Vector_40" d="M126.36 30.7614H122.413" stroke="white" stroke-width="0.8" stroke-miterlimit="10"/>
<path id="Vector_41" d="M118.587 30.7614H114.64" stroke="white" stroke-width="0.8" stroke-miterlimit="10"/>
</g>
<g id="Group_14">
<path id="Vector_42" d="M224.228 178.467V182.405" stroke="white" stroke-width="0.8" stroke-miterlimit="10"/>
<path id="Vector_43" d="M224.228 186.224V190.163" stroke="white" stroke-width="0.8" stroke-miterlimit="10"/>
<path id="Vector_44" d="M230.088 184.315H226.141" stroke="white" stroke-width="0.8" stroke-miterlimit="10"/>
<path id="Vector_45" d="M222.314 184.315H218.368" stroke="white" stroke-width="0.8" stroke-miterlimit="10"/>
</g>
<g id="Group_15">
<path id="Vector_46" d="M10.4789 178.467V182.405" stroke="white" stroke-width="0.8" stroke-miterlimit="10"/>
<path id="Vector_47" d="M10.4789 186.224V190.163" stroke="white" stroke-width="0.8" stroke-miterlimit="10"/>
<path id="Vector_48" d="M16.3238 184.315H12.3923" stroke="white" stroke-width="0.8" stroke-miterlimit="10"/>
<path id="Vector_49" d="M8.5655 184.315H4.61909" stroke="white" stroke-width="0.8" stroke-miterlimit="10"/>
</g>
<g id="Group_16">
<path id="Vector_50" opacity="0.2" d="M113.086 152.33H69.7797C68.6735 152.33 67.7616 153.225 67.7616 154.344V185.016C67.7616 187.06 69.4209 188.715 71.4689 188.715H111.381C113.429 188.715 115.089 187.06 115.089 185.016V154.344C115.089 153.24 114.192 152.33 113.071 152.33H113.086Z" fill="url(#paint7_linear_2020_10753)" style="mix-blend-mode:multiply"/>
<g id="Group_17">
<path id="Vector_51" d="M109.079 148.242H65.7735C64.6589 148.242 63.7554 149.144 63.7554 150.256V175.289C63.7554 176.401 64.6589 177.303 65.7735 177.303H109.079C110.194 177.303 111.097 176.401 111.097 175.289V150.256C111.097 149.144 110.194 148.242 109.079 148.242Z" fill="url(#paint8_linear_2020_10753)"/>
<path id="Vector_52" d="M83.1885 157.551L81.9926 154.956C81.6488 154.225 80.9163 153.747 80.1091 153.747H63.7554V180.913C63.7554 182.957 65.4147 184.613 67.4627 184.613H107.375C109.423 184.613 111.082 182.957 111.082 180.913V160.923C111.082 159.819 110.186 158.924 109.079 158.924H85.3261C84.3993 158.924 83.5622 158.387 83.1735 157.551H83.1885Z" fill="white"/>
</g>
</g>
</g>
</g>
</g>
</g>
<defs>
<linearGradient id="paint0_linear_2020_10753" x1="172.416" y1="137.964" x2="172.416" y2="185.732" gradientUnits="userSpaceOnUse">
<stop offset="0.13"/>
<stop offset="1" stop-color="white"/>
</linearGradient>
<linearGradient id="paint1_linear_2020_10753" x1="147.632" y1="75.889" x2="120.207" y2="100.843" gradientUnits="userSpaceOnUse">
<stop offset="0.13"/>
<stop offset="1" stop-color="white"/>
</linearGradient>
<linearGradient id="paint2_linear_2020_10753" x1="78.7936" y1="82.4232" x2="78.7936" y2="96.4314" gradientUnits="userSpaceOnUse">
<stop offset="0.13"/>
<stop offset="1" stop-color="white"/>
</linearGradient>
<linearGradient id="paint3_linear_2020_10753" x1="142.654" y1="118.585" x2="200.37" y2="118.585" gradientUnits="userSpaceOnUse">
<stop offset="0.13"/>
<stop offset="1" stop-color="white"/>
</linearGradient>
<linearGradient id="paint4_linear_2020_10753" x1="63.3817" y1="80.6926" x2="138.423" y2="80.6926" gradientUnits="userSpaceOnUse">
<stop offset="0.13"/>
<stop offset="1" stop-color="white"/>
</linearGradient>
<linearGradient id="paint5_linear_2020_10753" x1="70.4823" y1="78.3057" x2="70.4823" y2="41.4577" gradientUnits="userSpaceOnUse">
<stop offset="0.13"/>
<stop offset="1" stop-color="white"/>
</linearGradient>
<radialGradient id="paint6_radial_2020_10753" cx="0" cy="0" r="1" gradientUnits="userSpaceOnUse" gradientTransform="translate(70.4823 101.444) scale(34.7105 34.6401)">
<stop stop-color="#FFD363"/>
<stop offset="0.36" stop-color="#FFCB48"/>
<stop offset="1" stop-color="#FFBB10"/>
</radialGradient>
<linearGradient id="paint7_linear_2020_10753" x1="76.9251" y1="170.515" x2="124.267" y2="170.515" gradientUnits="userSpaceOnUse">
<stop offset="0.13"/>
<stop offset="0.66" stop-color="#9D9D9D"/>
</linearGradient>
<linearGradient id="paint8_linear_2020_10753" x1="87.4189" y1="145.721" x2="87.4189" y2="161.952" gradientUnits="userSpaceOnUse">
<stop stop-color="white"/>
<stop offset="1" stop-color="#BFD1FF"/>
</linearGradient>
<clipPath id="clip0_2020_10753">
<rect width="241" height="249" fill="white"/>
</clipPath>
</defs>
</svg>
