<svg preserveAspectRatio="none" width="100%" height="100%" overflow="visible" style="display: block;" viewBox="0 0 185 80" fill="none" xmlns="http://www.w3.org/2000/svg">
<g id="Primary Logo" clip-path="url(#clip0_0_76)">
<path id="Vector" d="M179.022 61.2497V27.4962H184.821V61.2497H179.022ZM159.075 61.2497V19.966H162.254L164.287 20.8242L164.874 22.8622V38.3588C165.382 37.3791 166.084 36.6282 166.986 36.0919C167.888 35.5556 168.912 35.2838 170.058 35.2838C171.883 35.2838 173.287 35.8058 174.253 36.8499C175.227 37.894 175.707 39.41 175.707 41.3694V61.2425H170.086V44.2728C170.086 42.6853 169.914 41.6269 169.571 41.0977C169.227 40.5685 168.64 40.2968 167.802 40.2968C166.75 40.2968 165.991 40.6543 165.54 41.3551C165.089 42.0631 164.867 43.3217 164.867 45.131V61.2425H159.067L159.075 61.2497ZM154.521 51.8959V53.6051C154.521 54.9495 154.65 55.8219 154.901 56.1866C155.151 56.5514 155.624 56.7301 156.297 56.7301C156.461 56.7301 156.59 56.7301 156.676 56.723C156.769 56.723 156.855 56.7087 156.927 56.7087V61.2497C156.089 61.3426 155.423 61.3998 154.958 61.4284C154.485 61.457 154.106 61.4713 153.812 61.4713C151.858 61.4713 150.504 61.078 149.774 60.2986C149.044 59.5191 148.672 57.9101 148.672 55.4787V14.9102H154.514V51.8888L154.521 51.8959ZM140.28 61.2497C140.152 61.0637 140.037 60.7705 139.944 60.3987C139.851 60.0197 139.751 59.4833 139.643 58.804C139.042 59.8194 138.254 60.5918 137.288 61.1209C136.321 61.6501 135.19 61.9219 133.908 61.9219C131.989 61.9219 130.5 61.2711 129.433 59.9768C128.374 58.6896 127.837 56.8803 127.837 54.5848C127.837 52.5038 128.309 50.8447 129.24 49.6147C130.171 48.3847 132.032 47.1547 134.789 45.9104C135.068 45.7889 135.462 45.6029 135.963 45.3884C138.24 44.4158 139.378 43.2645 139.378 41.9487C139.378 41.1478 139.156 40.5328 138.72 40.1037C138.276 39.6746 137.646 39.4529 136.801 39.4529C135.748 39.4529 134.961 39.739 134.467 40.3039C133.966 40.876 133.715 41.7699 133.715 42.9713V43.479H128.052C128.052 40.64 128.746 38.5733 130.135 37.279C131.517 35.9846 133.736 35.3339 136.801 35.3339C139.865 35.3339 142.006 35.9346 143.237 37.1145C144.469 38.3016 145.085 40.3754 145.085 43.3432V57.6169C145.085 58.3177 145.149 58.9613 145.278 59.5334C145.407 60.1055 145.629 60.6847 145.929 61.2497H140.266H140.28ZM139.478 47.9986C137.288 49.107 135.798 50.1082 135.025 50.9734C134.252 51.8459 133.858 52.8828 133.858 54.0771C133.858 55.1926 134.073 56.0222 134.481 56.5514C134.889 57.0805 135.541 57.3523 136.428 57.3523C137.445 57.3523 138.204 56.9018 138.712 56.015C139.221 55.1283 139.478 53.791 139.478 52.0175V47.9986ZM120.283 61.2497C120.154 61.0637 120.047 60.7705 119.947 60.3987C119.847 60.0197 119.753 59.4833 119.646 58.804C119.045 59.8194 118.257 60.5918 117.291 61.1209C116.324 61.6501 115.193 61.9219 113.911 61.9219C111.992 61.9219 110.503 61.2711 109.436 59.9768C108.377 58.6896 107.84 56.8803 107.84 54.5848C107.84 52.5038 108.312 50.8519 109.243 49.6147C110.174 48.3847 112.035 47.1547 114.792 45.9104C115.071 45.7817 115.465 45.6029 115.966 45.3884C118.25 44.4087 119.381 43.2645 119.381 41.9487C119.381 41.1478 119.159 40.5328 118.722 40.1037C118.279 39.6746 117.649 39.4529 116.804 39.4529C115.751 39.4529 114.964 39.739 114.47 40.3039C113.968 40.876 113.718 41.7699 113.718 42.9713V43.479H108.054C108.054 40.64 108.749 38.5733 110.138 37.279C111.52 35.9846 113.739 35.3339 116.804 35.3339C119.868 35.3339 122.009 35.9346 123.24 37.1145C124.472 38.3016 125.087 40.3754 125.087 43.3432V57.6169C125.087 58.3177 125.152 58.9613 125.281 59.5334C125.41 60.1055 125.632 60.6847 125.932 61.2497H120.269H120.283ZM119.481 47.9986C117.291 49.107 115.801 50.1082 115.028 50.9734C114.248 51.8459 113.861 52.8828 113.861 54.0771C113.861 55.1926 114.076 56.0222 114.484 56.5514C114.892 57.0805 115.544 57.3523 116.431 57.3523C117.448 57.3523 118.207 56.9018 118.715 56.015C119.224 55.1283 119.481 53.791 119.481 52.0175V47.9986ZM85.2579 49.4288H91.5084V51.5956C91.5084 53.6623 91.7661 55.0782 92.2816 55.8291C92.7971 56.58 93.6849 56.959 94.9522 56.959C96.2195 56.959 97.2791 56.6229 97.9664 55.9507C98.6538 55.2784 98.9974 54.2844 98.9974 52.9829C98.9974 51.9746 98.7612 51.1093 98.2743 50.3871C97.8018 49.6719 96.7565 48.7351 95.1598 47.6053L91.9666 45.3312C89.2029 43.4075 87.4488 41.82 86.697 40.5614C85.9453 39.3099 85.573 37.7367 85.573 35.8416C85.573 33.0169 86.4035 30.8 88.0789 29.1982C89.7471 27.5963 92.0525 26.7954 94.9808 26.7954C98.0953 26.7954 100.472 27.6464 102.126 29.3555C103.78 31.0575 104.611 33.5032 104.611 36.6997C104.611 37.0215 104.611 37.2647 104.604 37.4363C104.596 37.6151 104.582 37.7653 104.568 37.9011H98.6395V37.0072C98.6395 35.1765 98.3388 33.875 97.7445 33.0813C97.1502 32.2946 96.1694 31.9013 94.809 31.9013C93.8066 31.9013 93.0262 32.2017 92.4535 32.7881C91.8807 33.3744 91.5943 34.1968 91.5943 35.2481C91.5943 36.664 92.883 38.2301 95.4462 39.9535L95.5107 39.9893L98.9545 42.3348C101.41 43.9653 103.064 45.5028 103.93 46.9616C104.797 48.4062 105.241 50.2512 105.241 52.4966C105.241 55.5573 104.374 57.9172 102.627 59.5763C100.888 61.2425 98.396 62.0649 95.167 62.0649C91.938 62.0649 89.296 61.1925 87.6493 59.4476C86.0097 57.7027 85.1792 55.0282 85.1792 51.4526C85.1792 51.0807 85.2078 50.4514 85.2579 49.579V49.4431V49.4288Z" fill="white"/>
<path id="Vector_2" fill-rule="evenodd" clip-rule="evenodd" d="M181.384 18.5859C183.382 18.5859 185 20.202 185 22.1972C185 24.1924 183.382 25.8085 181.384 25.8085C179.387 25.8085 177.769 24.1924 177.769 22.1972C177.769 20.202 179.387 18.5859 181.384 18.5859Z" fill="white"/>
<path id="Vector_3" d="M26.1831 40.6758C28.0303 40.6758 29.7057 40.5828 31.2235 40.3897C32.5696 40.2253 33.9514 39.9607 35.3762 39.6031C35.6912 39.5244 35.906 39.2456 35.906 38.9238V25.1506C35.906 24.7645 35.591 24.4498 35.2043 24.4498H20.9493C20.7131 24.4498 20.5126 24.5499 20.3766 24.743C20.2405 24.9289 20.2047 25.1506 20.2763 25.3723C20.4696 25.9516 20.6343 26.588 20.7918 27.2817C21.0281 28.3686 21.1498 29.6201 21.1498 31.036C21.1498 33.0169 20.9279 34.7475 20.4768 36.2063C20.1474 37.2718 19.725 38.2158 19.2095 39.0382C19.0807 39.2456 19.0663 39.4744 19.1594 39.6961C19.2596 39.9178 19.4386 40.0608 19.6821 40.1037C21.8013 40.4827 23.9707 40.6686 26.1903 40.6686M164.867 24.457H163.478H81.7998C81.4132 24.457 81.0981 24.7716 81.0981 25.1578V62.8015C81.0981 63.1876 80.7831 63.5023 80.3965 63.5023H76.1293C75.7427 63.5023 75.4276 63.1876 75.4276 62.8015V53.0902C75.4276 52.8328 75.2988 52.6111 75.0768 52.4823C74.8549 52.3536 74.5971 52.3536 74.368 52.4823C73.3656 53.0687 72.2129 53.6122 70.9242 54.1128C69.1486 54.7993 67.0078 55.1426 64.5019 55.1426C61.996 55.1426 59.6619 54.6491 57.6572 53.6551C55.6453 52.6611 54.0774 51.281 52.939 49.5075C51.8006 47.734 51.2349 45.6458 51.2349 43.2359C51.2349 39.174 52.5953 36.0561 55.316 33.8822C58.0367 31.7082 61.6165 30.6213 66.0627 30.6213C66.6785 30.6213 67.4446 30.657 68.3682 30.7285C69.2918 30.8 70.1867 30.893 71.0674 31.0146C71.6115 31.0861 72.0697 31.1576 72.4564 31.222C72.8143 31.2792 73.0721 31.601 73.0434 31.9657L72.7857 35.7129C72.7714 35.9203 72.6783 36.0919 72.5136 36.2206C72.349 36.3493 72.1628 36.3922 71.9552 36.3565C71.2607 36.2278 70.5018 36.1133 69.6784 36.0132C68.54 35.8702 67.4302 35.7987 66.342 35.7987C63.4065 35.7987 61.1154 36.4352 59.4615 37.7152C57.8076 38.9881 56.977 40.8117 56.977 43.1715C56.977 45.5314 57.7217 47.355 59.2109 48.4849C60.7001 49.6219 62.5115 50.1868 64.6379 50.1868C67.1009 50.1868 69.213 49.6576 70.9886 48.5921C72.664 47.5838 74.0816 46.4897 75.2272 45.2954C75.356 45.1596 75.4205 44.9951 75.4205 44.8092V25.1649C75.4205 24.7788 75.1055 24.4641 74.7188 24.4641H42.3497C41.9631 24.4641 41.6481 24.7788 41.6481 25.1649V62.8086C41.6481 63.1948 41.3331 63.5094 40.9464 63.5094H36.6076C36.221 63.5094 35.906 63.1948 35.906 62.8086V45.5958C35.906 45.3669 35.8129 45.1739 35.6339 45.038C35.4549 44.9021 35.2401 44.8592 35.0253 44.9164C33.9514 45.2025 32.8703 45.4027 31.7963 45.51C30.4216 45.653 28.8179 45.7245 26.9707 45.7245C24.9803 45.7245 22.8896 45.5457 20.6916 45.1953C18.6367 44.8664 16.8611 44.4587 15.3648 43.9868C15.1643 43.9224 14.9567 43.9439 14.7777 44.0583C14.1261 44.4659 13.4245 44.8521 12.6655 45.2168C12.4651 45.3097 12.329 45.4814 12.2861 45.6959C12.236 45.9104 12.2861 46.1178 12.4221 46.2894C30.0637 68.079 56.7837 75.08 84.0623 74.7511C84.2556 74.7511 84.4274 74.8154 84.5634 74.9513C84.6995 75.0872 84.7711 75.2588 84.7711 75.4519V79.3135C84.7711 79.5137 84.6995 79.6782 84.5563 79.8141C84.4131 79.9499 84.2413 80.0215 84.0479 80.0143C54.9222 79.2849 28.0589 73.4853 9.45083 50.7303C9.45083 50.7303 9.44367 50.716 9.43651 50.716C7.64658 48.6636 6.22896 46.883 5.1908 45.3741C5.1908 45.3741 5.1908 45.3741 5.1908 45.3669C4.15264 43.901 3.5011 42.7496 3.24335 41.8986C2.9856 41.0476 2.85673 40.2181 2.85673 39.4172C2.85673 38.5161 3.21471 37.6723 3.92353 36.8642C4.63234 36.0633 5.79221 35.6628 7.40315 35.6628C8.5845 35.6628 9.6155 35.9346 10.489 36.4781C11.1692 36.9 11.8064 37.4506 12.3863 38.1157C12.5223 38.273 12.7085 38.3588 12.9233 38.3588C13.1381 38.3588 13.3171 38.273 13.4531 38.1157C14.1333 37.3219 14.613 36.3779 14.8922 35.2767C15.2502 33.8822 15.422 32.4806 15.422 31.0575C15.422 29.6344 15.3146 28.3615 15.0998 27.2316C14.928 26.3234 14.7204 25.5511 14.477 24.9146C14.3696 24.6357 14.119 24.4641 13.8183 24.4641H0.701652C0.315028 24.4641 0 24.1495 0 23.7633V20.1377C0 19.7515 0.315028 19.4368 0.701652 19.4368H72.442C72.6926 19.4368 72.9146 19.3153 73.0434 19.0936C73.1723 18.8791 73.1795 18.6288 73.0649 18.3999C72.442 17.22 71.8836 16.0043 71.411 14.7528C70.7237 12.9579 70.38 11.213 70.38 9.51104C70.38 6.34308 71.4325 3.96889 73.5375 2.38849C75.6424 0.808081 78.2557 0.0143023 81.3774 0.0143023C82.8881 0.0143023 84.2842 0.178779 85.5658 0.507732C86.5896 0.772325 87.5061 1.08698 88.3151 1.43738C88.6516 1.58756 88.8163 1.95942 88.7018 2.30267L87.592 5.62081C87.5276 5.82104 87.3915 5.96407 87.2054 6.04273C87.0121 6.12854 86.8188 6.12139 86.6326 6.03558C86.0383 5.76383 85.4226 5.52785 84.7854 5.32046C83.8833 5.03442 82.9167 4.89854 81.8785 4.89854C79.9884 4.89854 78.5421 5.42773 77.5469 6.49325C76.5517 7.55877 76.0577 8.91749 76.0577 10.5694C76.0577 12.1284 76.3799 13.6516 77.0171 15.139C77.5541 16.3905 78.2772 17.7134 79.2008 19.1079C79.3368 19.3081 79.5445 19.4225 79.7879 19.4225H164.165C164.552 19.4225 164.867 19.7372 164.867 20.1234" fill="white"/>
</g>
<defs>
<clipPath id="clip0_0_76">
<rect width="185" height="80" fill="white"/>
</clipPath>
</defs>
</svg>
