<svg preserveAspectRatio="none" width="100%" height="100%" overflow="visible" style="display: block;" viewBox="0 0 16 16" fill="none" xmlns="http://www.w3.org/2000/svg">
<g id="Iconography">
<path id="Vector" d="M10.1914 3.6512C10.1914 3.32463 10.0922 3.00538 9.90624 2.73384C9.72031 2.46231 9.45604 2.25067 9.14685 2.12569C8.83767 2.00072 8.49744 1.96802 8.16921 2.03173C7.84098 2.09544 7.53948 2.2527 7.30283 2.48363C7.06619 2.71455 6.90503 3.00877 6.83974 3.32907C6.77446 3.64937 6.80796 3.98138 6.93603 4.28309C7.0641 4.58481 7.28098 4.84269 7.55925 5.02413C7.83751 5.20557 8.16466 5.30241 8.49932 5.30241C8.94809 5.30241 9.37848 5.12844 9.69581 4.81878C10.0131 4.50912 10.1914 4.08913 10.1914 3.6512ZM8.49932 4.47681C8.33199 4.47681 8.16841 4.42839 8.02928 4.33767C7.89015 4.24695 7.78171 4.11801 7.71768 3.96715C7.65364 3.81629 7.63689 3.65029 7.66953 3.49014C7.70218 3.32999 7.78276 3.18288 7.90108 3.06742C8.0194 2.95195 8.17015 2.87332 8.33427 2.84147C8.49838 2.80961 8.66849 2.82596 8.82309 2.88845C8.97768 2.95094 9.10982 3.05676 9.20278 3.19252C9.29575 3.32829 9.34536 3.48792 9.34536 3.6512C9.34536 3.87017 9.25623 4.08016 9.09756 4.23499C8.9389 4.38982 8.72371 4.47681 8.49932 4.47681ZM13.9722 6.11305C13.924 5.88186 13.7946 5.67434 13.6064 5.52633C13.4181 5.37832 13.1828 5.29912 12.9411 5.30241H4.05759C3.81651 5.3024 3.58266 5.38277 3.3948 5.5302C3.20693 5.67764 3.07632 5.88328 3.02461 6.11306C2.97291 6.34284 3.0032 6.58296 3.11048 6.79364C3.21775 7.00432 3.39557 7.17291 3.61447 7.27147H3.62135L6.30489 8.42473L5.19446 12.5383C5.07827 12.788 5.06851 13.0726 5.16733 13.3294C5.26615 13.5862 5.46545 13.7941 5.72139 13.9075C5.97733 14.0209 6.26894 14.0304 6.53207 13.934C6.79521 13.8375 7.00831 13.6431 7.1245 13.3933L8.49932 11.078L9.87414 13.3933C9.99632 13.6324 10.2088 13.816 10.4668 13.9054C10.7248 13.9947 11.0083 13.983 11.2576 13.8726C11.507 13.7621 11.7027 13.5617 11.8036 13.3133C11.9046 13.0649 11.9029 12.788 11.7989 12.5409L10.6885 8.42731L13.372 7.27405H13.3789C13.6013 7.17878 13.7825 7.01045 13.8909 6.79833C13.9993 6.58621 14.028 6.34373 13.9722 6.11305ZM13.0309 6.52069L10.0206 7.81379C9.92846 7.85341 9.85381 7.92382 9.81009 8.01236C9.76638 8.10089 9.75647 8.20174 9.78214 8.29676L10.9915 12.7844C10.9976 12.8085 11.0063 12.8318 11.0174 12.8541C11.0351 12.8911 11.0412 12.9325 11.0348 12.9729C11.0285 13.0133 11.0099 13.0509 10.9816 13.081C10.9533 13.1112 10.9164 13.1324 10.8757 13.1421C10.835 13.1517 10.7923 13.1494 10.753 13.1353C10.7004 13.1165 10.6576 13.0781 10.634 13.0285C10.6286 13.0173 10.6226 13.0065 10.616 12.996L8.86523 10.0496C8.82805 9.98706 8.77467 9.93514 8.71046 9.89904C8.64624 9.86295 8.57343 9.84395 8.49932 9.84395C8.42521 9.84395 8.3524 9.86295 8.28818 9.89904C8.22397 9.93514 8.17059 9.98706 8.13341 10.0496L6.38421 12.9934C6.37759 13.0039 6.37159 13.0148 6.36623 13.0259C6.34263 13.0755 6.29984 13.1139 6.24726 13.1327C6.20792 13.1468 6.16519 13.1492 6.12449 13.1395C6.08378 13.1298 6.04693 13.1086 6.01861 13.0785C5.99029 13.0483 5.97177 13.0107 5.96541 12.9703C5.95905 12.9299 5.96512 12.8885 5.98287 12.8515C5.99393 12.8292 6.00261 12.8059 6.00878 12.7818L7.21651 8.29522C7.24218 8.20019 7.23226 8.09934 7.18855 8.01081C7.14483 7.92227 7.07019 7.85186 6.97803 7.81224L3.9677 6.52069C3.92448 6.50057 3.88955 6.46673 3.8686 6.42472C3.84765 6.38271 3.84192 6.33501 3.85236 6.28941C3.8628 6.24381 3.88878 6.20302 3.92606 6.1737C3.96334 6.14438 4.00971 6.12828 4.05759 6.12801H12.9411C12.9891 6.12793 13.0357 6.14378 13.0732 6.17298C13.1108 6.20217 13.137 6.24297 13.1477 6.28866C13.1583 6.33434 13.1527 6.38221 13.1318 6.42437C13.1109 6.46654 13.0759 6.50051 13.0325 6.52069H13.0309Z" fill="#FF751F"/>
</g>
</svg>
