<svg preserveAspectRatio="none" width="100%" height="100%" overflow="visible" style="display: block;" viewBox="0 0 16 16" fill="none" xmlns="http://www.w3.org/2000/svg">
<g id="Iconography">
<path id="Vector" fill-rule="evenodd" clip-rule="evenodd" d="M8.0791 1.70525C8.2622 1.72345 8.43418 1.80446 8.56543 1.93571C8.71531 2.08572 8.7998 2.28909 8.7998 2.50114V7.20134H13.5C13.7122 7.20134 13.9154 7.28569 14.0654 7.43571C14.2153 7.58572 14.2998 7.78909 14.2998 8.00114C14.2997 8.21314 14.2153 8.41666 14.0654 8.56657C13.9154 8.71645 13.7121 8.80095 13.5 8.80095H8.7998V13.5011C8.79968 13.7131 8.71534 13.9167 8.56543 14.0666C8.41542 14.2165 8.21206 14.3009 8 14.3009C7.78794 14.3009 7.58458 14.2165 7.43457 14.0666C7.28466 13.9167 7.20032 13.7131 7.2002 13.5011V8.80095H2.5C2.28794 8.80095 2.08458 8.71645 1.93457 8.56657C1.78466 8.41666 1.70032 8.21314 1.7002 8.00114C1.7002 7.78909 1.78469 7.58572 1.93457 7.43571C2.0846 7.28569 2.28783 7.20134 2.5 7.20134H7.2002V2.50114C7.2002 2.28909 7.28469 2.08572 7.43457 1.93571C7.5846 1.78569 7.78783 1.70036 8 1.70036L8.0791 1.70525Z" fill="#FF751F"/>
</g>
</svg>
