<svg preserveAspectRatio="none" width="100%" height="100%" overflow="visible" style="display: block;" viewBox="0 0 13.9 12.4" fill="none" xmlns="http://www.w3.org/2000/svg">
<g id="Group">
<path id="Vector" d="M11.1463 0.111164C11.4195 0.069101 11.689 0.154737 11.8934 0.309406C12.1061 0.470453 12.2205 0.719376 12.2205 0.967609V1.24007H12.8387C13.3569 1.24025 13.7996 1.62107 13.7996 2.11019V11.4295C13.7996 11.9186 13.3569 12.2995 12.8387 12.2996H1.06133C0.543055 12.2995 0.100391 11.9186 0.100391 11.4295V2.09652C0.100682 1.60764 0.543225 1.22658 1.06133 1.2264H1.69414V0.967609C1.69414 0.719377 1.80854 0.470453 2.02129 0.309406C2.22963 0.152291 2.49988 0.0821527 2.76738 0.110188H2.76836C3.53917 0.20025 4.39887 0.339829 5.16484 0.548664C5.88666 0.745464 6.53754 1.00987 6.95 1.36312C7.36251 1.00987 8.01356 0.745466 8.73711 0.548664C9.50489 0.339845 10.3682 0.200245 11.1463 0.110188V0.111164ZM1.06133 1.95296C0.94772 1.95314 0.874805 2.03434 0.874805 2.11019V11.4432C0.875007 11.5186 0.948051 11.5993 1.06133 11.5994H5.92656C5.6386 11.4646 5.27008 11.3371 4.82988 11.2225C4.19474 11.0571 3.41673 10.9199 2.53008 10.8241H2.5291C2.05773 10.768 1.67949 10.3989 1.67949 9.95394V1.95296H1.06133ZM12.2205 9.95394C12.2203 10.4127 11.841 10.7672 11.3709 10.8231H11.3699C10.4902 10.919 9.71195 11.0561 9.075 11.2215C8.63395 11.3361 8.26429 11.4648 7.97539 11.5994H12.8387C12.9521 11.5993 13.025 11.519 13.0252 11.4432V2.11019C13.0252 2.03435 12.9523 1.95315 12.8387 1.95296H12.2205V9.95394ZM11.2303 0.822102L11.2273 0.823078C10.154 0.951005 9.25189 1.13227 8.57793 1.34945C8.24096 1.45804 7.96359 1.57549 7.75078 1.6971C7.54883 1.81253 7.41333 1.92916 7.33672 2.04085V11.0994C7.83494 10.8161 8.49728 10.6033 9.17168 10.4461C9.91999 10.2717 10.6924 10.1619 11.2908 10.0975H11.2928C11.386 10.089 11.4461 10.0157 11.4461 9.94027V0.967609C11.4461 0.928464 11.4282 0.892074 11.3982 0.875813L11.3865 0.869953L11.3875 0.868977C11.3298 0.827911 11.2836 0.814087 11.2303 0.822102ZM2.64141 0.810383C2.59705 0.810402 2.55835 0.82396 2.51152 0.855305L2.5125 0.856281C2.46846 0.88773 2.45391 0.92125 2.45391 0.967609V9.94124C2.45405 10.0166 2.51403 10.09 2.60723 10.0985H2.60918C3.20761 10.1629 3.984 10.2726 4.73418 10.4471C5.40849 10.6039 6.06957 10.8158 6.5623 11.0985V2.02523C6.48884 1.91466 6.35659 1.79843 6.15703 1.68343C5.94621 1.56196 5.66964 1.44532 5.33281 1.33675C4.66037 1.12003 3.75732 0.938276 2.67949 0.810383H2.64141Z" fill="#FF751F" stroke="#FF751F" stroke-width="0.2"/>
</g>
</svg>
