<svg preserveAspectRatio="none" width="100%" height="100%" overflow="visible" style="display: block;" viewBox="0 0 16 16" fill="none" xmlns="http://www.w3.org/2000/svg">
<g id="Iconography">
<path id="Vector" d="M11.1111 2H4.88889C4.65314 2 4.42705 2.10114 4.26035 2.28118C4.09365 2.46122 4 2.70541 4 2.96002V13.5202C4.00004 13.6059 4.0213 13.69 4.06159 13.7638C4.10187 13.8376 4.15971 13.8984 4.22909 13.9399C4.29847 13.9814 4.37688 14.0021 4.45617 13.9998C4.53545 13.9976 4.61274 13.9724 4.68 13.927L8 11.686L11.3206 13.927C11.3878 13.9723 11.465 13.9973 11.5442 13.9995C11.6234 14.0016 11.7018 13.9809 11.771 13.9394C11.8403 13.8979 11.8981 13.8372 11.9384 13.7635C11.9786 13.6898 11.9999 13.6058 12 13.5202V2.96002C12 2.70541 11.9063 2.46122 11.7397 2.28118C11.573 2.10114 11.3469 2 11.1111 2ZM11.1111 12.6544L8.235 10.7134C8.16436 10.6657 8.08274 10.6404 7.99944 10.6404C7.91615 10.6404 7.83453 10.6657 7.76389 10.7134L4.88889 12.6544V2.96002H11.1111V12.6544Z" fill="#FF751F"/>
</g>
</svg>
