<svg preserveAspectRatio="none" width="100%" height="100%" overflow="visible" style="display: block;" viewBox="0 0 16 16" fill="none" xmlns="http://www.w3.org/2000/svg">
<g id="Iconography">
<path id="Vector" d="M13.0833 2.92308H11.7083V2.46154C11.7083 2.33913 11.66 2.22174 11.5741 2.13518C11.4881 2.04863 11.3716 2 11.25 2C11.1284 2 11.0119 2.04863 10.9259 2.13518C10.84 2.22174 10.7917 2.33913 10.7917 2.46154V2.92308H6.20833V2.46154C6.20833 2.33913 6.16004 2.22174 6.07409 2.13518C5.98814 2.04863 5.87156 2 5.75 2C5.62844 2 5.51186 2.04863 5.42591 2.13518C5.33996 2.22174 5.29167 2.33913 5.29167 2.46154V2.92308H3.91667C3.67355 2.92308 3.44039 3.02033 3.26849 3.19344C3.09658 3.36655 3 3.60134 3 3.84615V13.0769C3 13.3217 3.09658 13.5565 3.26849 13.7296C3.44039 13.9027 3.67355 14 3.91667 14H13.0833C13.3264 14 13.5596 13.9027 13.7315 13.7296C13.9034 13.5565 14 13.3217 14 13.0769V3.84615C14 3.60134 13.9034 3.36655 13.7315 3.19344C13.5596 3.02033 13.3264 2.92308 13.0833 2.92308ZM5.29167 3.84615V4.30769C5.29167 4.4301 5.33996 4.54749 5.42591 4.63405C5.51186 4.7206 5.62844 4.76923 5.75 4.76923C5.87156 4.76923 5.98814 4.7206 6.07409 4.63405C6.16004 4.54749 6.20833 4.4301 6.20833 4.30769V3.84615H10.7917V4.30769C10.7917 4.4301 10.84 4.54749 10.9259 4.63405C11.0119 4.7206 11.1284 4.76923 11.25 4.76923C11.3716 4.76923 11.4881 4.7206 11.5741 4.63405C11.66 4.54749 11.7083 4.4301 11.7083 4.30769V3.84615H13.0833V5.69231H3.91667V3.84615H5.29167ZM13.0833 13.0769H3.91667V6.61538H13.0833V13.0769ZM9.1875 8.69231C9.1875 8.82923 9.14718 8.96308 9.07164 9.07693C8.99609 9.19078 8.88872 9.27952 8.76309 9.33192C8.63747 9.38432 8.49924 9.39803 8.36588 9.37131C8.23251 9.3446 8.11001 9.27866 8.01386 9.18184C7.91772 9.08502 7.85224 8.96166 7.82571 8.82737C7.79918 8.69308 7.8128 8.55388 7.86483 8.42737C7.91687 8.30087 8.00499 8.19275 8.11805 8.11667C8.2311 8.0406 8.36403 8 8.5 8C8.68234 8 8.8572 8.07294 8.98614 8.20277C9.11507 8.33261 9.1875 8.5087 9.1875 8.69231ZM11.7083 8.69231C11.7083 8.82923 11.668 8.96308 11.5925 9.07693C11.5169 9.19078 11.4096 9.27952 11.2839 9.33192C11.1583 9.38432 11.0201 9.39803 10.8867 9.37131C10.7533 9.3446 10.6308 9.27866 10.5347 9.18184C10.4385 9.08502 10.3731 8.96166 10.3465 8.82737C10.32 8.69308 10.3336 8.55388 10.3857 8.42737C10.4377 8.30087 10.5258 8.19275 10.6389 8.11667C10.7519 8.0406 10.8849 8 11.0208 8C11.2032 8 11.378 8.07294 11.507 8.20277C11.6359 8.33261 11.7083 8.5087 11.7083 8.69231ZM6.66667 11C6.66667 11.1369 6.62635 11.2708 6.5508 11.3846C6.47526 11.4985 6.36789 11.5872 6.24226 11.6396C6.11664 11.692 5.9784 11.7057 5.84504 11.679C5.71168 11.6523 5.58918 11.5864 5.49303 11.4895C5.39688 11.3927 5.3314 11.2694 5.30488 11.1351C5.27835 11.0008 5.29196 10.8616 5.344 10.7351C5.39603 10.6086 5.48415 10.5004 5.59721 10.4244C5.71027 10.3483 5.84319 10.3077 5.97917 10.3077C6.1615 10.3077 6.33637 10.3806 6.4653 10.5105C6.59423 10.6403 6.66667 10.8164 6.66667 11ZM9.1875 11C9.1875 11.1369 9.14718 11.2708 9.07164 11.3846C8.99609 11.4985 8.88872 11.5872 8.76309 11.6396C8.63747 11.692 8.49924 11.7057 8.36588 11.679C8.23251 11.6523 8.11001 11.5864 8.01386 11.4895C7.91772 11.3927 7.85224 11.2694 7.82571 11.1351C7.79918 11.0008 7.8128 10.8616 7.86483 10.7351C7.91687 10.6086 8.00499 10.5004 8.11805 10.4244C8.2311 10.3483 8.36403 10.3077 8.5 10.3077C8.68234 10.3077 8.8572 10.3806 8.98614 10.5105C9.11507 10.6403 9.1875 10.8164 9.1875 11ZM11.7083 11C11.7083 11.1369 11.668 11.2708 11.5925 11.3846C11.5169 11.4985 11.4096 11.5872 11.2839 11.6396C11.1583 11.692 11.0201 11.7057 10.8867 11.679C10.7533 11.6523 10.6308 11.5864 10.5347 11.4895C10.4385 11.3927 10.3731 11.2694 10.3465 11.1351C10.32 11.0008 10.3336 10.8616 10.3857 10.7351C10.4377 10.6086 10.5258 10.5004 10.6389 10.4244C10.7519 10.3483 10.8849 10.3077 11.0208 10.3077C11.2032 10.3077 11.378 10.3806 11.507 10.5105C11.6359 10.6403 11.7083 10.8164 11.7083 11Z" fill="#FF751F"/>
</g>
</svg>
