<svg preserveAspectRatio="none" width="100%" height="100%" overflow="visible" style="display: block;" viewBox="0 0 16 16" fill="none" xmlns="http://www.w3.org/2000/svg">
<g id="Iconography">
<path id="Vector" d="M13.0833 2.92308H11.7083V2.46154C11.7083 2.33913 11.66 2.22174 11.5741 2.13518C11.4881 2.04863 11.3716 2 11.25 2C11.1284 2 11.0119 2.04863 10.9259 2.13518C10.84 2.22174 10.7917 2.33913 10.7917 2.46154V2.92308H6.20833V2.46154C6.20833 2.33913 6.16004 2.22174 6.07409 2.13518C5.98814 2.04863 5.87156 2 5.75 2C5.62844 2 5.51186 2.04863 5.42591 2.13518C5.33996 2.22174 5.29167 2.33913 5.29167 2.46154V2.92308H3.91667C3.67355 2.92308 3.44039 3.02033 3.26849 3.19344C3.09658 3.36655 3 3.60134 3 3.84615V13.0769C3 13.3217 3.09658 13.5565 3.26849 13.7296C3.44039 13.9027 3.67355 14 3.91667 14H13.0833C13.3264 14 13.5596 13.9027 13.7315 13.7296C13.9034 13.5565 14 13.3217 14 13.0769V3.84615C14 3.60134 13.9034 3.36655 13.7315 3.19344C13.5596 3.02033 13.3264 2.92308 13.0833 2.92308ZM5.97917 11.6923C5.84319 11.6923 5.71027 11.6517 5.59721 11.5756C5.48415 11.4996 5.39603 11.3914 5.344 11.2649C5.29196 11.1384 5.27835 10.9992 5.30488 10.8649C5.3314 10.7306 5.39688 10.6073 5.49303 10.5105C5.58918 10.4136 5.71168 10.3477 5.84504 10.321C5.9784 10.2943 6.11664 10.308 6.24226 10.3604C6.36789 10.4128 6.47526 10.5015 6.5508 10.6154C6.62635 10.7292 6.66667 10.8631 6.66667 11C6.66667 11.1836 6.59423 11.3597 6.4653 11.4895C6.33637 11.6194 6.1615 11.6923 5.97917 11.6923ZM8.5 11.6923C8.36403 11.6923 8.2311 11.6517 8.11805 11.5756C8.00499 11.4996 7.91687 11.3914 7.86483 11.2649C7.8128 11.1384 7.79918 10.9992 7.82571 10.8649C7.85224 10.7306 7.91772 10.6073 8.01386 10.5105C8.11001 10.4136 8.23251 10.3477 8.36588 10.321C8.49924 10.2943 8.63747 10.308 8.76309 10.3604C8.88872 10.4128 8.99609 10.5015 9.07164 10.6154C9.14718 10.7292 9.1875 10.8631 9.1875 11C9.1875 11.1836 9.11507 11.3597 8.98614 11.4895C8.8572 11.6194 8.68234 11.6923 8.5 11.6923ZM8.5 9.38462C8.36403 9.38462 8.2311 9.34401 8.11805 9.26794C8.00499 9.19187 7.91687 9.08374 7.86483 8.95724C7.8128 8.83074 7.79918 8.69154 7.82571 8.55725C7.85224 8.42295 7.91772 8.29959 8.01386 8.20277C8.11001 8.10595 8.23251 8.04002 8.36588 8.0133C8.49924 7.98659 8.63747 8.0003 8.76309 8.0527C8.88872 8.1051 8.99609 8.19383 9.07164 8.30768C9.14718 8.42153 9.1875 8.55538 9.1875 8.69231C9.1875 8.87592 9.11507 9.05201 8.98614 9.18184C8.8572 9.31168 8.68234 9.38462 8.5 9.38462ZM11.0208 11.6923C10.8849 11.6923 10.7519 11.6517 10.6389 11.5756C10.5258 11.4996 10.4377 11.3914 10.3857 11.2649C10.3336 11.1384 10.32 10.9992 10.3465 10.8649C10.3731 10.7306 10.4385 10.6073 10.5347 10.5105C10.6308 10.4136 10.7533 10.3477 10.8867 10.321C11.0201 10.2943 11.1583 10.308 11.2839 10.3604C11.4096 10.4128 11.5169 10.5015 11.5925 10.6154C11.668 10.7292 11.7083 10.8631 11.7083 11C11.7083 11.1836 11.6359 11.3597 11.507 11.4895C11.378 11.6194 11.2032 11.6923 11.0208 11.6923ZM11.0208 9.38462C10.8849 9.38462 10.7519 9.34401 10.6389 9.26794C10.5258 9.19187 10.4377 9.08374 10.3857 8.95724C10.3336 8.83074 10.32 8.69154 10.3465 8.55725C10.3731 8.42295 10.4385 8.29959 10.5347 8.20277C10.6308 8.10595 10.7533 8.04002 10.8867 8.0133C11.0201 7.98659 11.1583 8.0003 11.2839 8.0527C11.4096 8.1051 11.5169 8.19383 11.5925 8.30768C11.668 8.42153 11.7083 8.55538 11.7083 8.69231C11.7083 8.87592 11.6359 9.05201 11.507 9.18184C11.378 9.31168 11.2032 9.38462 11.0208 9.38462ZM13.0833 5.69231H3.91667V3.84615H5.29167V4.30769C5.29167 4.4301 5.33996 4.54749 5.42591 4.63405C5.51186 4.7206 5.62844 4.76923 5.75 4.76923C5.87156 4.76923 5.98814 4.7206 6.07409 4.63405C6.16004 4.54749 6.20833 4.4301 6.20833 4.30769V3.84615H10.7917V4.30769C10.7917 4.4301 10.84 4.54749 10.9259 4.63405C11.0119 4.7206 11.1284 4.76923 11.25 4.76923C11.3716 4.76923 11.4881 4.7206 11.5741 4.63405C11.66 4.54749 11.7083 4.4301 11.7083 4.30769V3.84615H13.0833V5.69231Z" fill="#FF751F"/>
</g>
</svg>
