<svg preserveAspectRatio="none" width="100%" height="100%" overflow="visible" style="display: block;" viewBox="0 0 16 16" fill="none" xmlns="http://www.w3.org/2000/svg">
<g id="Iconography">
<path id="Vector" d="M12.6154 4.43478H11.0162L10.2298 3.21283C10.1877 3.14739 10.1306 3.09374 10.0637 3.05662C9.99678 3.01949 9.92206 3.00005 9.84615 3H6.15385C6.07794 3.00005 6.00322 3.01949 5.93629 3.05662C5.86937 3.09374 5.81232 3.14739 5.77019 3.21283L4.98327 4.43478H3.38462C3.01739 4.43478 2.66521 4.58595 2.40554 4.85502C2.14588 5.12409 2 5.48904 2 5.86957V12.5652C2 12.9457 2.14588 13.3107 2.40554 13.5798C2.66521 13.8488 3.01739 14 3.38462 14H12.6154C12.9826 14 13.3348 13.8488 13.5945 13.5798C13.8541 13.3107 14 12.9457 14 12.5652V5.86957C14 5.48904 13.8541 5.12409 13.5945 4.85502C13.3348 4.58595 12.9826 4.43478 12.6154 4.43478ZM13.0769 12.5652C13.0769 12.6921 13.0283 12.8137 12.9417 12.9034C12.8552 12.9931 12.7378 13.0435 12.6154 13.0435H3.38462C3.26221 13.0435 3.14481 12.9931 3.05826 12.9034C2.9717 12.8137 2.92308 12.6921 2.92308 12.5652V5.86957C2.92308 5.74272 2.9717 5.62108 3.05826 5.53138C3.14481 5.44169 3.26221 5.3913 3.38462 5.3913H5.23077C5.30677 5.39136 5.38161 5.37196 5.44864 5.33483C5.51567 5.2977 5.57282 5.24399 5.615 5.17848L6.40077 3.95652H9.59865L10.385 5.17848C10.4272 5.24399 10.4843 5.2977 10.5514 5.33483C10.6184 5.37196 10.6932 5.39136 10.7692 5.3913H12.6154C12.7378 5.3913 12.8552 5.44169 12.9417 5.53138C13.0283 5.62108 13.0769 5.74272 13.0769 5.86957V12.5652ZM8 6.34783C7.49794 6.34783 7.00715 6.5021 6.58971 6.79113C6.17226 7.08017 5.8469 7.49099 5.65477 7.97164C5.46264 8.45229 5.41237 8.98118 5.51031 9.49143C5.60826 10.0017 5.85003 10.4704 6.20504 10.8383C6.56005 11.2061 7.01236 11.4567 7.50477 11.5582C7.99718 11.6596 8.50758 11.6076 8.97143 11.4085C9.43527 11.2094 9.83172 10.8722 10.1107 10.4397C10.3896 10.0071 10.5385 9.49851 10.5385 8.97826C10.5377 8.28087 10.27 7.61227 9.79412 7.11914C9.31823 6.62601 8.67301 6.34862 8 6.34783ZM8 10.6522C7.68051 10.6522 7.36819 10.554 7.10254 10.3701C6.83689 10.1861 6.62984 9.92471 6.50758 9.61884C6.38531 9.31297 6.35332 8.9764 6.41565 8.6517C6.47798 8.32699 6.63184 8.02873 6.85775 7.79463C7.08367 7.56052 7.3715 7.4011 7.68485 7.33651C7.99821 7.27192 8.32301 7.30507 8.61818 7.43177C8.91335 7.55846 9.16564 7.77301 9.34314 8.04828C9.52064 8.32356 9.61538 8.64719 9.61538 8.97826C9.61538 9.42221 9.44519 9.84798 9.14225 10.1619C8.83931 10.4758 8.42843 10.6522 8 10.6522Z" fill="#FF751F"/>
</g>
</svg>
