<svg preserveAspectRatio="none" width="100%" height="100%" overflow="visible" style="display: block;" viewBox="0 0 16 16" fill="none" xmlns="http://www.w3.org/2000/svg">
<g id="Iconography">
<path id="Vector" d="M12.3478 4.30435H10.8413L10.1005 3.19348C10.0609 3.134 10.0071 3.08522 9.94407 3.05147C9.88103 3.01772 9.81064 3.00004 9.73913 3H6.26087C6.18936 3.00004 6.11897 3.01772 6.05593 3.05147C5.99289 3.08522 5.93914 3.134 5.89946 3.19348L5.15815 4.30435H3.65217C3.30624 4.30435 2.97447 4.44177 2.72986 4.68638C2.48525 4.931 2.34783 5.26276 2.34783 5.6087V11.6957C2.34783 12.0416 2.48525 12.3734 2.72986 12.618C2.97447 12.8626 3.30624 13 3.65217 13H12.3478C12.6938 13 13.0255 12.8626 13.2701 12.618C13.5148 12.3734 13.6522 12.0416 13.6522 11.6957V5.6087C13.6522 5.26276 13.5148 4.931 13.2701 4.68638C13.0255 4.44177 12.6938 4.30435 12.3478 4.30435ZM9.95652 8.43478C9.95652 8.82175 9.84177 9.20002 9.62679 9.52177C9.4118 9.84352 9.10624 10.0943 8.74873 10.2424C8.39122 10.3905 7.99783 10.4292 7.6183 10.3537C7.23877 10.2782 6.89015 10.0919 6.61653 9.81825C6.34291 9.54463 6.15656 9.19601 6.08107 8.81648C6.00558 8.43695 6.04432 8.04356 6.19241 7.68605C6.34049 7.32855 6.59127 7.02298 6.91301 6.80799C7.23476 6.59301 7.61304 6.47826 8 6.47826C8.5189 6.47826 9.01655 6.68439 9.38347 7.05131C9.75039 7.41823 9.95652 7.91588 9.95652 8.43478Z" fill="#FF751F"/>
</g>
</svg>
