<svg preserveAspectRatio="none" width="100%" height="100%" overflow="visible" style="display: block;" viewBox="0 0 16 16" fill="none" xmlns="http://www.w3.org/2000/svg">
<g id="Iconography">
<path id="Vector" fill-rule="evenodd" clip-rule="evenodd" d="M12.2847 5C12.3818 5 12.4786 5.02006 12.5684 5.05725C12.6579 5.09443 12.7399 5.14846 12.8085 5.21704C12.877 5.28562 12.9311 5.36762 12.9683 5.45715C13.0054 5.54683 13.0247 5.64379 13.0247 5.74084L13.0212 5.81348C13.0141 5.88551 12.9961 5.95655 12.9683 6.02368C12.9404 6.0908 12.9031 6.15397 12.8572 6.20996L12.8085 6.26379L8.03528 11.0361C7.96674 11.1047 7.88553 11.1596 7.79602 11.1968C7.70626 11.234 7.60949 11.2532 7.51233 11.2532C7.41517 11.2532 7.3184 11.234 7.22864 11.1968C7.16154 11.1689 7.09918 11.1308 7.04321 11.0848L6.98938 11.0361L2.21619 6.26379C2.07772 6.12518 2.00015 5.93677 2 5.74084C2 5.54468 2.07754 5.3558 2.21619 5.21704C2.35497 5.07826 2.54373 5 2.73999 5L2.81262 5.00427C2.98202 5.02102 3.14147 5.0957 3.26294 5.21704L7.51233 9.46643L11.7617 5.21704L11.8156 5.16833C11.8716 5.12238 11.9346 5.0851 12.0018 5.05725C12.0915 5.02011 12.1876 5.00002 12.2847 5ZM7.51233 10.99C7.54366 10.99 7.57489 10.9875 7.60547 10.9814L7.51233 10.99ZM12.7623 5.73999C12.7623 5.8027 12.7496 5.86492 12.7256 5.92285C12.7016 5.98075 12.6665 6.03319 12.6222 6.07751L7.84985 10.8507C7.80559 10.895 7.75301 10.9301 7.69519 10.9541L7.77722 10.9105L7.84985 10.8507L12.6222 6.07751C12.6443 6.05536 12.6647 6.03166 12.682 6.00574L12.7256 5.92285C12.7375 5.89407 12.7468 5.86439 12.7529 5.83398L12.7623 5.73999ZM12.7538 5.66138C12.753 5.65689 12.7538 5.65215 12.7529 5.64771L12.7375 5.59558C12.7445 5.61718 12.7495 5.63921 12.7538 5.66138ZM2.27173 5.83398C2.27718 5.86123 2.2856 5.88767 2.29565 5.91345C2.2851 5.88638 2.27653 5.85839 2.27087 5.82971L2.27173 5.83398Z" fill="#FF751F"/>
</g>
</svg>
