<svg preserveAspectRatio="none" width="100%" height="100%" overflow="visible" style="display: block;" viewBox="0 0 14.2 12.9781" fill="none" xmlns="http://www.w3.org/2000/svg">
<g id="Group 7">
<path id="Vector" d="M14.0912 5.98047C14.0393 5.68789 13.7806 5.47242 13.4853 5.47242H13.47L12.2619 5.50468C12.2001 5.50632 12.1444 5.47679 12.111 5.42648L11.3869 4.32452C11.2163 4.06257 10.9429 3.88209 10.6377 3.82741C10.2401 3.75468 9.82998 3.89905 9.56693 4.20421L9.55709 4.21514C9.25302 4.56951 8.67115 5.2471 8.39772 6.19587C8.3753 6.20407 8.35288 6.21392 8.33045 6.22267L8.26866 5.35478C8.25881 5.21642 8.19701 5.09009 8.09202 4.9993C7.98702 4.90852 7.85249 4.86368 7.71522 4.87352L7.66327 4.8779C7.6578 4.82758 7.64795 4.77727 7.631 4.72696C7.51889 4.36985 7.15632 4.14618 6.76857 4.19376L5.37568 4.36055C5.21872 4.3786 5.06232 4.30477 4.97536 4.17133L4.5302 3.47296C4.33552 3.16507 4.06098 2.91132 3.73777 2.74069C3.45504 2.59085 3.12855 2.58374 2.84034 2.72264C2.55323 2.85991 2.35471 3.11749 2.29456 3.42976L1.60988 6.94503C1.56777 7.15776 1.61425 7.3705 1.73183 7.54167L1.48519 9.07299C1.47808 9.11784 1.46441 9.15995 1.44472 9.19768L0.186357 11.652C0.00698865 12.002 0.114716 12.4346 0.43847 12.6588C0.585582 12.7595 0.757839 12.813 0.932839 12.813C1.0012 12.813 1.0712 12.8048 1.13847 12.7879C1.3791 12.7288 1.58363 12.5697 1.70011 12.3498L3.07059 9.75158C3.11817 9.6608 3.14879 9.56235 3.15864 9.46064L3.22864 8.73275L3.60107 9.01712C3.69896 9.0915 3.75802 9.2047 3.7635 9.32939L3.88271 12.1251C3.89092 12.3433 3.99209 12.5494 4.15724 12.6905C4.29997 12.8125 4.48208 12.8781 4.66967 12.8781C4.7003 12.8781 4.73147 12.8765 4.76209 12.8726L4.82662 12.8644C5.22858 12.8169 5.52663 12.4751 5.52115 12.0676L5.45826 8.84595C5.45389 8.63048 5.36037 8.42322 5.20069 8.27774L3.89748 7.10031C3.79084 7.00352 3.74216 6.86242 3.76732 6.72242L4.13537 5.38969L4.48373 5.74133C4.656 5.91469 4.89389 5.99726 5.13616 5.96938L6.97423 5.74953C7.20666 5.72274 7.41392 5.59422 7.54134 5.39516C7.57088 5.34923 7.59439 5.3011 7.61408 5.2508L7.73986 5.24259C7.77923 5.23986 7.81697 5.25244 7.8465 5.27923C7.87603 5.30439 7.89408 5.34103 7.89681 5.37986L7.96955 6.39923C6.79377 7.06423 6.10026 8.37184 6.24474 9.75378C6.42958 11.5207 7.92755 12.8392 9.66761 12.8392C9.78683 12.8392 9.90825 12.8338 10.0285 12.8196C10.6711 12.7523 11.2678 12.5128 11.7703 12.1239C11.913 12.3985 12.2001 12.5789 12.5206 12.5789C12.5501 12.5789 12.5797 12.5773 12.6087 12.5746C13.062 12.527 13.4011 12.1179 13.3633 11.6629L13.0877 8.3351C13.0582 7.98073 12.8077 7.67994 12.4648 7.58753L12.438 7.58042L13.628 6.67862C13.7708 6.64362 13.8955 6.56104 13.9835 6.44073C14.0798 6.31058 14.1191 6.14542 14.0912 5.98026L14.0912 5.98047ZM2.78999 9.42476C2.78452 9.4778 2.76921 9.5314 2.74405 9.57898L1.37193 12.1772C1.30631 12.303 1.18873 12.3944 1.04982 12.4277C0.911462 12.4611 0.765452 12.4348 0.647866 12.3533C0.477234 12.2358 0.419819 12.0061 0.514975 11.8212L1.77225 9.36843C1.80998 9.29678 1.83514 9.21858 1.84936 9.13327L2.05936 7.83826L2.88404 8.46663L2.78999 9.42476ZM6.93148 5.3828L5.09341 5.60265C4.96435 5.61796 4.84021 5.57476 4.74889 5.48233L4.24795 4.97811C4.18615 4.91631 4.09538 4.89115 4.01115 4.91358C3.92694 4.936 3.86022 5.00162 3.83615 5.08585L3.40795 6.63411C3.40631 6.63849 3.40521 6.64395 3.40521 6.64833C3.35326 6.91849 3.44459 7.19138 3.65022 7.37786L4.95342 8.55529C5.03764 8.6324 5.08631 8.74122 5.08905 8.85497L5.15194 12.075C5.15467 12.2894 4.99771 12.4709 4.78498 12.4966L4.71936 12.5059C4.60342 12.5201 4.48967 12.4851 4.39999 12.4091C4.31194 12.3337 4.25999 12.227 4.25452 12.1094L4.1353 9.31223C4.12545 9.07543 4.01225 8.85996 3.82577 8.71996L2.12603 7.42222C2.00024 7.32707 1.94009 7.17011 1.9718 7.01316L2.65649 3.49789C2.69422 3.30211 2.81892 3.14077 2.99938 3.05382C3.08633 3.01171 3.17874 2.99202 3.26953 2.99202C3.37016 2.99202 3.46969 3.01718 3.56211 3.06476C3.82788 3.20639 4.05375 3.41476 4.21454 3.6696L4.6597 4.36796C4.82213 4.62008 5.11907 4.76117 5.41547 4.72617L6.81 4.55937C7.01728 4.53421 7.21743 4.65343 7.27485 4.83664C7.29727 4.90664 7.30165 4.97664 7.28907 5.04391C7.28907 5.04665 7.28743 5.04938 7.28743 5.05212C7.27758 5.10133 7.25789 5.14891 7.23 5.19375C7.16219 5.30204 7.05446 5.36875 6.93141 5.38298L6.93148 5.3828ZM9.41369 9.6419C9.45033 9.68947 9.50611 9.71627 9.56189 9.71627C9.60127 9.71627 9.64009 9.70369 9.674 9.67854L10.6431 8.94517L11.0128 8.99275C11.2326 9.02064 11.4021 9.19455 11.4256 9.41439L11.5279 10.3889C11.1976 11.0091 10.5884 11.422 9.88837 11.4947C9.32836 11.5538 8.7793 11.3913 8.3429 11.0353C7.90595 10.681 7.63196 10.1773 7.57454 9.61726C7.5018 8.92163 7.77197 8.25062 8.28985 7.80552C8.39212 8.3163 8.80502 8.71005 9.3229 8.77568L10.117 8.87631L9.44924 9.38162C9.36885 9.44451 9.35189 9.5604 9.41369 9.6419ZM9.989 12.4545C8.30354 12.6311 6.78873 11.4029 6.61205 9.71904C6.47916 8.45356 7.13433 7.25811 8.23634 6.67949C8.24454 6.67675 8.25165 6.67238 8.25876 6.66691C8.2697 6.66144 8.28118 6.65597 8.29212 6.64996C8.25548 6.87691 8.23907 7.11589 8.24618 7.368C7.50571 7.8848 7.10813 8.74996 7.20329 9.65561C7.27165 10.3135 7.59377 10.9058 8.10782 11.323C8.55298 11.684 9.09767 11.8759 9.66309 11.8759C9.75004 11.8759 9.83809 11.8715 9.92613 11.8617C10.5868 11.7933 11.1779 11.4658 11.5864 10.9626L11.6662 11.7299C11.1959 12.1379 10.6173 12.3883 9.989 12.4545ZM12.7173 8.37041L12.9935 11.6982C13.0143 11.9531 12.824 12.1827 12.5691 12.209C12.3088 12.2358 12.0748 12.0466 12.0469 11.7863L11.7948 9.37448C11.7543 8.98237 11.4519 8.67284 11.0598 8.62416L9.36995 8.40814C8.98932 8.35892 8.68963 8.05541 8.64206 7.66767C8.63386 7.6004 8.62784 7.53478 8.62401 7.47024C8.62401 7.46586 8.62401 7.46203 8.62237 7.45766C8.53269 5.97786 9.43831 4.92239 9.8348 4.46025L9.84465 4.44931C9.99176 4.27868 10.2072 4.18354 10.4298 4.18354C10.4757 4.18354 10.5222 4.18791 10.5698 4.19611C10.7754 4.23276 10.9603 4.35416 11.0751 4.5308L11.8003 5.63276C11.9036 5.7908 12.0786 5.88213 12.2706 5.87776L13.4787 5.84549C13.5979 5.84385 13.704 5.92971 13.7253 6.04565C13.7362 6.11128 13.7209 6.17745 13.6821 6.23049C13.6427 6.28354 13.5853 6.32018 13.5213 6.33002L11.6996 6.60291C11.6367 6.61276 11.5722 6.5876 11.5345 6.53729L11.1927 6.0976C11.1309 6.0194 11.033 5.98167 10.9351 6.00081C10.8372 6.01885 10.7601 6.09049 10.7322 6.18674L10.4916 7.02401C10.461 7.12901 10.4746 7.23838 10.5282 7.33354C10.5813 7.4287 10.6699 7.49597 10.7749 7.52386L12.3696 7.9537C12.561 8.00237 12.7009 8.17189 12.7173 8.37041ZM10.8695 7.16345C10.8585 7.16072 10.8525 7.15361 10.8498 7.14814C10.847 7.14267 10.8443 7.13392 10.847 7.12408L11.0292 6.49135L11.2408 6.76314C11.3611 6.91737 11.5574 6.99557 11.7532 6.96767L12.8563 6.80251L11.984 7.46315L10.8695 7.16345Z" fill="#FF751F" stroke="#FF751F" stroke-width="0.2"/>
<path id="Vector_2" d="M10.2467 3.32591C10.4316 3.47575 10.6558 3.55396 10.8893 3.55396C10.9259 3.55396 10.962 3.55232 10.9987 3.54849C11.2705 3.5206 11.5155 3.38771 11.6877 3.17442C11.86 2.96169 11.9398 2.69426 11.9103 2.42246C11.8824 2.15067 11.7495 1.90567 11.5362 1.7334C11.3235 1.56113 11.0561 1.48128 10.7843 1.51082C10.2226 1.56989 9.81248 2.07519 9.87155 2.6363C9.90108 2.90919 10.034 3.15255 10.2467 3.32591ZM10.8237 1.87831C10.8477 1.87557 10.8696 1.87393 10.892 1.87393C11.0419 1.87393 11.1846 1.92424 11.3022 2.01941C11.4378 2.12987 11.522 2.28518 11.5401 2.45909C11.5581 2.63245 11.5078 2.80362 11.3973 2.93925C11.2869 3.07488 11.1316 3.16018 10.9577 3.17714C10.7843 3.19519 10.6131 3.14487 10.4775 3.03441C10.3419 2.92394 10.2577 2.76863 10.2396 2.59472C10.2035 2.23816 10.4649 1.91604 10.8237 1.87831Z" fill="#FF751F" stroke="#FF751F" stroke-width="0.2"/>
<path id="Vector_3" d="M3.89373 2.36845C4.51937 2.36845 5.02796 1.86041 5.02796 1.23423C5.02796 0.608593 4.51991 0.1 3.89373 0.1C3.2681 0.1 2.75951 0.608047 2.75951 1.23423C2.75951 1.86041 3.26755 2.36845 3.89373 2.36845ZM3.89373 0.471869C4.31537 0.471869 4.65662 0.814758 4.65662 1.23476C4.65662 1.6564 4.31374 1.99765 3.89373 1.99765C3.47209 1.99765 3.13084 1.65476 3.13084 1.23476C3.1303 0.81312 3.47209 0.471869 3.89373 0.471869Z" fill="#FF751F" stroke="#FF751F" stroke-width="0.2"/>
</g>
</svg>
