<svg preserveAspectRatio="none" width="100%" height="100%" overflow="visible" style="display: block;" viewBox="0 0 16 16" fill="none" xmlns="http://www.w3.org/2000/svg">
<g id="Iconography">
<path id="Vector" fill-rule="evenodd" clip-rule="evenodd" d="M2.73999 11.2532C2.64281 11.2532 2.54608 11.2331 2.4563 11.1959C2.36673 11.1587 2.28477 11.1047 2.21619 11.0361C2.14767 10.9676 2.09354 10.8856 2.0564 10.796C2.01931 10.7063 2 10.6094 2 10.5123L2.00342 10.4397C2.01058 10.3677 2.0286 10.2966 2.0564 10.2295C2.08424 10.1624 2.12158 10.0992 2.16748 10.0432L2.21619 9.98938L6.98938 5.21704C7.05791 5.14851 7.13913 5.09356 7.22864 5.0564C7.3184 5.01921 7.41517 5 7.51233 5C7.60949 5 7.70626 5.01921 7.79602 5.0564C7.86312 5.08426 7.92548 5.12241 7.98145 5.16833L8.03528 5.21704L12.8085 9.98938C12.9469 10.128 13.0245 10.3164 13.0247 10.5123C13.0247 10.7085 12.9471 10.8974 12.8085 11.0361C12.6697 11.1749 12.4809 11.2532 12.2847 11.2532L12.212 11.2489C12.0426 11.2322 11.8832 11.1575 11.7617 11.0361L7.51233 6.78674L3.26294 11.0361L3.20911 11.0848C3.15306 11.1308 3.09002 11.1681 3.02283 11.1959C2.93312 11.2331 2.83709 11.2532 2.73999 11.2532ZM7.51233 5.26318C7.481 5.26318 7.44977 5.26565 7.41919 5.27173L7.51233 5.26318ZM2.26233 10.5132C2.26233 10.4505 2.27507 10.3883 2.29907 10.3303C2.32306 10.2724 2.35816 10.22 2.40247 10.1757L7.1748 5.40247C7.21907 5.35821 7.27164 5.32305 7.32947 5.29907L7.24744 5.34265L7.1748 5.40247L2.40247 10.1757C2.38031 10.1978 2.35998 10.2215 2.34265 10.2474L2.29907 10.3303C2.28715 10.3591 2.27782 10.3888 2.27173 10.4192L2.26233 10.5132ZM2.27087 10.5918C2.27164 10.5963 2.27085 10.601 2.27173 10.6055L2.28711 10.6576C2.28021 10.636 2.27512 10.614 2.27087 10.5918ZM12.7529 10.4192C12.7475 10.3919 12.7391 10.3655 12.729 10.3397C12.7396 10.3668 12.7481 10.3948 12.7538 10.4235L12.7529 10.4192Z" fill="#FF751F"/>
</g>
</svg>
