<svg width="68" height="67" viewBox="0 0 68 67" fill="none" xmlns="http://www.w3.org/2000/svg">
<path d="M27.1904 4.03641C29.5973 3.91483 31.6172 5.39457 32.2706 7.69815C33.756 12.934 34.0966 18.5824 31.9921 23.7063C31.601 24.6584 31.1808 25.4932 30.7009 26.4017C31.7238 27.127 32.5788 27.8923 33.5531 28.6248C33.7556 28.3236 34.1039 27.9326 34.3427 27.6473L35.6552 26.0779L36.9996 24.4665C37.2665 24.147 37.5242 23.8251 37.817 23.5285C38.3499 22.9894 39.3304 23.3152 39.4619 24.0536C39.5014 24.2806 39.4622 24.5143 39.3503 24.7161C39.1916 25.0061 38.5246 25.7562 38.2805 26.0461L36.203 28.5278C35.8833 28.9102 35.3212 29.5463 35.0499 29.9395L35.029 29.9706C35.87 30.598 36.7466 31.6731 37.5145 32.3706L49.3906 22.5571C49.719 22.2865 51.263 21.086 51.3088 20.8333C51.2494 20.491 50.6218 19.9616 50.3632 19.7071L47.8198 17.1797C47.5698 16.9305 47.3251 16.6618 47.0521 16.4381C46.9598 16.3625 46.7742 16.2101 46.6507 16.2128C46.2513 16.2212 42.8214 20.814 42.1504 21.3723C41.99 21.5058 41.7964 21.5937 41.5866 21.6087C41.3047 21.6288 41.0298 21.521 40.8269 21.3275C40.6343 21.1442 40.5211 20.8963 40.5244 20.6301C40.5274 20.4084 40.6068 20.2083 40.7286 20.0253C40.9355 19.7148 41.2077 19.4268 41.4475 19.1402L44.1721 15.8854C44.9175 14.9887 45.3853 14.216 46.6965 14.2265C48.0814 14.2377 48.8046 15.4207 49.7426 16.2827C50.6663 17.1317 51.5452 18.1294 52.4659 18.9914C53.4291 19.8931 53.6108 21.2212 52.7843 22.275C52.4855 22.6534 51.9191 23.0598 51.5299 23.3796L49.5291 25.0296L42.4548 30.8763L40.2126 32.7251C39.7999 33.0656 39.2371 33.5062 38.8626 33.8678L38.8327 33.8969C39.694 34.9148 40.4115 35.8528 41.2369 36.88C42.3151 36.4648 43.0379 36.0797 44.2252 35.7104C48.796 34.2896 53.0417 34.5294 57.6161 35.7124C59.3207 36.1457 61.0161 36.5592 62.2097 37.9243C63.0375 38.8718 63.4495 40.1097 63.3532 41.3615C63.2732 42.5016 62.7509 43.6437 61.8641 44.3746C59.5591 46.274 57.2296 45.0877 54.8071 44.4136C53.5072 44.0473 52.1853 43.7629 50.8493 43.5628C49.5085 43.3824 48.1571 43.2896 46.8041 43.285C46.2599 43.284 45.5291 43.3646 45.04 43.3306C45.0875 43.4868 45.1426 43.649 45.1974 43.8026C45.9249 45.8381 46.405 48.3349 44.9627 50.1822C44.4347 50.8579 43.7972 51.2774 43.006 51.6202C42.0252 52.0456 41.0198 52.3828 40.0081 52.7398L10.4912 63.1786C8.90408 63.7394 7.2177 64.3989 5.53566 63.7394C4.73805 63.4269 3.90655 62.6369 3.58547 61.8416C2.90924 60.1661 3.562 58.4457 4.13173 56.8564L14.587 27.6363C14.9374 26.6581 15.2846 25.7013 15.6643 24.7346C17.2444 20.7117 21.1944 21.3229 24.4872 22.6933C24.4951 22.397 24.5489 22.0163 24.5784 21.7145C24.6211 21.2441 24.6551 20.7729 24.6804 20.3011C24.7834 18.4034 24.6852 16.5002 24.3874 14.6229C24.2175 13.5815 24.0073 12.547 23.7572 11.5217C23.5602 10.718 23.2977 9.88224 23.2003 9.06966C23.0487 7.80522 23.3372 6.54413 24.159 5.55016C24.9522 4.59074 25.9743 4.16135 27.1904 4.03641ZM16.3062 28.743C20.1476 29.9517 23.7321 32.661 26.8029 35.179C27.2032 35.507 27.5967 35.8594 27.9873 36.1999C28.368 36.5322 28.6321 36.9311 28.4475 37.4441C28.3511 37.7106 28.1471 37.9246 27.8848 38.0349C27.4278 38.2255 27.134 38.0792 26.7835 37.7905C26.2396 37.343 25.7197 36.8664 25.178 36.4162C24.0343 35.473 22.8526 34.5763 21.6358 33.7285C20.2282 32.7644 18.7176 31.8749 17.1538 31.1838C16.6145 30.9454 16.1744 30.816 15.6465 30.6074C15.1476 31.9873 14.641 33.5267 14.1127 34.8785C15.2535 35.3623 17.3873 36.7634 18.3923 37.4787C20.5958 39.0552 22.6797 40.7908 24.627 42.6714C25.2582 43.2933 25.9302 44.0347 26.5174 44.6943C28.8425 47.3058 30.9706 50.1151 32.5958 53.2141C32.9622 53.1236 33.3349 52.9922 33.6899 52.862C34.5166 52.5585 35.3607 52.2841 36.1838 51.9729C36.4056 51.9085 36.6609 51.8075 36.8807 51.7259C35.8597 48.7313 34.0222 45.952 32.0554 43.4868C31.6805 43.0122 31.296 42.5449 30.9019 42.0861C30.5906 41.7261 30.2126 41.3592 29.9672 40.9519C29.795 40.6662 29.7975 40.3013 29.9486 40.0073C30.0663 39.7781 30.2691 39.5935 30.5184 39.5172C30.7762 39.4379 31.0309 39.468 31.2656 39.5975C32.0911 40.0516 35.1292 44.2283 35.7667 45.1831C36.3312 46.0247 36.8561 46.8913 37.3402 47.7807C37.7204 48.4819 38.0614 49.2039 38.3609 49.9427C38.5083 50.3093 38.6312 50.6921 38.7739 51.0472C40.0473 50.6452 41.6427 50.1118 42.8041 49.4853C44.3537 48.6487 43.946 46.1855 43.4493 44.8436C41.7141 40.1543 38.2971 36.1124 34.8726 32.5273C32.1163 29.7678 28.1255 26.7134 24.6894 24.9724C23.1533 24.1941 21.4715 23.5773 19.7347 23.687C19.0714 23.7361 18.3542 24.0044 17.9951 24.572C17.2321 25.778 16.8279 27.4237 16.3062 28.743ZM11 43.5922C11.6096 43.9809 12.188 44.4159 12.7706 44.8436C17.1911 48.0869 20.6653 51.8544 23.8348 56.3197C24.7913 56.0565 26.2242 55.5066 27.1849 55.1624C28.308 54.7601 29.5796 54.2842 30.7091 53.9269C29.1091 50.9841 27.1505 48.3964 24.9209 45.8985C22.5586 43.2523 19.7919 40.8746 16.873 38.851C16.0019 38.2433 15.1034 37.6756 14.1804 37.1495C14.0334 37.0672 13.5906 36.8162 13.45 36.7614C12.6091 38.9993 11.8031 41.3351 11 43.5922ZM26.3708 23.5928C26.8334 23.8789 27.3339 24.1467 27.8038 24.4383C28.0716 24.6046 28.8323 25.1132 29.0752 25.2158C31.402 20.7822 31.9891 16.4306 31.0885 11.5117C30.8893 10.4235 30.6553 9.35105 30.3638 8.2839C29.9935 6.92831 28.6986 5.82059 27.2406 6.04815C25.6694 6.24506 24.9984 7.44773 25.2026 8.94045C25.2884 9.56824 25.4768 10.1929 25.6325 10.8073C25.8114 11.5172 25.9737 12.2313 26.1193 12.9488C26.8215 16.4556 26.9066 20.057 26.3708 23.5928ZM7.87727 52.3967C7.72351 52.687 7.5479 53.2237 7.43288 53.5464L6.77284 55.4002L5.96484 57.6544C5.75546 58.2373 5.5335 58.806 5.39534 59.4147C5.18845 60.326 5.22564 61.3462 6.16971 61.8353C6.87301 62.1996 7.92585 61.94 8.6355 61.7178C9.4956 61.4212 10.3566 61.1107 11.2135 60.8072L13.668 59.9409C14.0662 59.7998 14.6085 59.6251 14.99 59.4669C13.224 57.3472 11.4525 55.3606 9.32042 53.6005C8.90561 53.258 8.31194 52.6801 7.87727 52.3967ZM10.2863 45.5461C10.1501 46.0322 9.88816 46.7021 9.71029 47.1988L8.56667 50.3955C8.9746 50.7496 9.43115 51.0802 9.83755 51.4313C10.9469 52.3891 12.2745 53.4826 13.2848 54.5402C14.125 55.4164 14.9388 56.3171 15.7251 57.2415C16.0216 57.59 16.7201 58.4913 16.989 58.7459C17.7517 58.52 18.6581 58.1788 19.4146 57.9083C20.1212 57.6682 21.1996 57.3112 21.8754 57.0361C21.4537 56.3478 20.5938 55.2704 20.071 54.6228C17.687 51.6371 14.9337 48.9628 11.8762 46.6634C11.6073 46.458 10.533 45.6181 10.2863 45.5461ZM50.0155 36.771C47.9579 36.8208 45.9222 37.2023 43.9875 37.9008C43.4224 38.1046 42.9482 38.3345 42.405 38.5449C42.7563 39.0822 43.0963 39.6269 43.4254 40.1781C43.5811 40.4436 43.952 41.1296 44.122 41.3393C44.4138 41.3912 45.2014 41.3351 45.5225 41.3228C46.0859 41.3027 46.6501 41.2957 47.2138 41.3017C49.7406 41.3268 52.2537 41.6696 54.6942 42.3219C55.2822 42.4762 55.8672 42.642 56.449 42.8187C57.63 43.181 59.0527 43.7619 60.2202 43.1007C60.7667 42.7909 61.104 42.3282 61.2694 41.7287C61.4626 41.0266 61.3654 40.2768 60.9998 39.6464C60.3945 38.608 59.426 38.2958 58.3488 37.9824C57.8877 37.847 57.4245 37.7189 56.9596 37.598C54.7234 37.024 52.3304 36.6653 50.0155 36.771Z" fill="#FFAC79"/>
<path d="M60.183 46.9369C61.2229 46.8873 61.5974 47.8233 62.0583 48.5609C62.4916 49.2544 62.8851 49.9867 63.3287 50.6723C63.58 50.7922 63.9336 50.8556 64.2069 50.9263C65.1183 51.1618 66.0493 51.3464 66.9504 51.6182C67.0982 51.6787 67.2841 51.7457 67.409 51.8441C68.5505 52.7441 67.5999 53.6953 66.9926 54.4414C66.4202 55.1449 65.7518 55.8345 65.2684 56.5199L65.2352 56.5674C65.2109 57.9437 65.6535 59.4861 65.4311 60.8524C65.356 61.3148 64.6628 61.8175 64.1923 61.7059C62.9256 61.4047 61.7223 60.7477 60.4914 60.2926C59.8742 60.2632 59.7523 60.5073 59.2261 60.6523C58.149 60.9489 56.4964 62.2832 55.4655 61.3749C55.3187 61.2455 55.1554 60.8924 55.1457 60.7127C55.0737 59.3503 55.3406 57.9681 55.3805 56.5991C55.2782 56.3808 54.9668 56.0363 54.8028 55.8418L53.6134 54.4305C53.3833 54.1567 53.124 53.8833 52.9334 53.5807C52.8272 53.4123 52.7465 53.2293 52.7126 53.0325C52.6372 52.5929 52.7989 52.1496 53.1555 51.8755C53.6732 51.4772 55.6713 51.1122 56.3972 50.9385C56.6731 50.8725 57.0171 50.8232 57.2475 50.6508C57.5925 50.3922 58.747 48.1582 59.153 47.6044C59.4263 47.2315 59.7178 47.0082 60.183 46.9369ZM55.244 53.2458C55.6518 53.7551 56.0671 54.2585 56.4901 54.7552C57.4361 55.8788 57.4381 56.0865 57.3199 57.5771C57.2767 58.1627 57.2279 58.7476 57.1738 59.3322C58.1656 58.9893 59.3755 58.2835 60.354 58.2591C61.2764 58.3519 62.5441 58.9745 63.4369 59.348C63.4014 58.8576 63.3801 57.986 63.2945 57.5295C62.8927 55.3893 64.256 54.8553 65.3501 53.262C64.3536 52.9813 63.2237 52.8224 62.2814 52.4228C61.6287 52.1463 60.5984 49.7356 60.2853 49.5807C59.8271 50.278 58.9555 52.0763 58.298 52.4423C57.9159 52.655 57.4341 52.7322 57.0111 52.8366C56.5147 52.9595 56.017 53.0979 55.5163 53.1993C55.426 53.2171 55.335 53.2326 55.244 53.2458Z" fill="#FFAC79"/>
<path d="M13.1707 0.132094C14.4638 0.0141226 14.616 1.0527 14.9151 1.96811C15.1786 2.77486 15.3695 3.83454 15.6848 4.60524C16.4419 5.03202 18.7203 6.15249 19.2036 6.64496C19.4315 6.87721 19.5932 7.18213 19.5809 7.51343C19.5701 7.80377 19.4395 8.07863 19.253 8.29777C18.9978 8.59772 18.6511 8.8164 18.3309 9.04053L16.8901 10.0462C16.5997 10.2488 16.2234 10.4864 15.9729 10.7284C15.7877 11.2216 15.7731 11.8743 15.6381 12.3869C15.3599 13.4425 15.4689 15.7057 13.8176 15.4638C13.3448 15.3945 12.6345 14.7959 12.2569 14.5035C11.9111 14.2327 11.563 13.9647 11.2129 13.6994C10.9576 13.4949 10.6368 13.1758 10.3255 13.0714C9.62462 12.8363 7.10866 13.6339 6.06189 13.388C5.75334 13.3155 5.4662 13.1486 5.30483 12.8699C5.15894 12.6179 5.13287 12.3151 5.16641 12.0309C5.21943 11.5818 5.40696 11.1476 5.56 10.7248C5.8646 9.88336 6.22681 9.03121 6.45568 8.16777C5.96986 6.90905 5.14114 5.66414 4.80682 4.36199C4.66325 3.80277 5.16524 3.0863 5.76283 3.02335C7.09644 2.88286 8.46819 3.07728 9.80937 3.00535C10.3305 2.49376 10.8559 1.98647 11.3855 1.48352C11.9044 0.983548 12.4631 0.314364 13.1707 0.132094ZM7.18028 4.96409L8.00202 6.73265C8.50256 7.81001 8.60505 8.27547 8.14908 9.43494C7.90962 10.0439 7.71441 10.7217 7.45765 11.3326L8.81334 11.1528C9.76484 11.0212 10.493 10.8726 11.376 11.3542C11.9905 11.7216 12.8941 12.4948 13.5213 12.945C13.6021 12.4154 13.6933 11.8874 13.7948 11.3613C13.9892 10.3025 14.0119 9.69411 14.9088 9.00383C15.5054 8.54468 16.3782 8.02083 16.9302 7.56736C16.0648 7.02561 14.9273 6.58069 14.1471 5.93209C13.6418 5.51205 13.2764 2.94423 12.9766 2.72319C12.5425 3.14337 12.0994 3.56847 11.668 3.9899C11.0322 4.61119 10.616 5.08867 9.6389 5.04405C8.82781 5.00699 7.99315 5.02565 7.18028 4.96409Z" fill="#FFAC79"/>
<path d="M56.3264 0.00225245C56.8288 -0.0252233 57.1671 0.201825 57.5354 0.510515C58.2917 1.14447 59.0308 2.0836 59.8065 2.66676C61.7913 2.7412 65.7608 1.77551 63.9847 5.18167C63.669 5.7871 63.1314 6.89819 62.9242 7.52393C63.1613 8.56087 63.9891 10.0816 64.1059 11.1746C64.1202 11.4964 64.001 11.88 63.7643 12.1C63.2201 12.6055 62.4919 12.4117 61.8408 12.3374C61.0088 12.2427 60.1627 12.0715 59.326 12.0476C59.0773 12.1967 58.911 12.3306 58.6819 12.51L57.1064 13.7167C56.69 14.0321 56.2039 14.3869 55.6481 14.2996C55.2885 14.2432 54.9847 13.9998 54.8121 13.6875C54.5155 13.1509 54.322 11.5133 54.2041 10.8486C54.156 10.5781 54.1271 10.2668 54.0148 10.0145C53.7496 9.41859 51.4516 8.33258 50.8934 7.56733C50.7098 7.31549 50.6192 6.99516 50.6779 6.68572C50.7294 6.41509 50.8901 6.16266 51.0873 5.97364C51.3659 5.70685 51.7271 5.53385 52.0632 5.35137C52.7395 4.98446 53.6214 4.58103 54.2353 4.14956C54.2463 4.14199 54.2566 4.1342 54.2675 4.12654C54.484 3.61246 54.5846 2.9708 54.7692 2.44254C55.1099 1.46822 55.0939 0.223181 56.3264 0.00225245ZM53.3086 6.97851C53.6536 7.17516 54.0617 7.47551 54.3877 7.70558C55.1428 8.23809 55.7188 8.52457 55.9552 9.47864C56.1402 10.2256 56.2315 11.0019 56.3932 11.7466C56.7913 11.4432 58.0228 10.4579 58.3894 10.2795C59.2254 9.93792 59.6169 10.025 60.4958 10.1437L61.794 10.3212C61.6366 9.95302 61.4909 9.52151 61.3574 9.13769C61.0393 8.22544 60.7275 7.63381 61.1017 6.67789C61.3388 6.07339 61.8421 5.19832 62.0145 4.62417C61.3062 4.70934 60.0127 4.68563 59.3074 4.63321C58.4827 4.57192 57.4587 2.95481 56.8022 2.61684C56.6429 3.17174 56.1853 5.05471 55.853 5.41042C55.3267 5.97404 54.0165 6.49981 53.3086 6.97851Z" fill="#FFAC79"/>
<path d="M42.5647 54.7638C43.7451 54.6574 44.4593 55.3434 45.3681 55.9838L49.467 58.8711C50.321 59.4739 51.0339 59.813 51.0498 60.9842C51.0657 62.1583 49.977 62.9612 49.204 63.7295L46.6467 66.268C46.2792 66.6164 45.9133 66.8555 45.4076 66.9569C43.9789 67.2436 43.3679 66.0411 42.6756 65.0704L39.8577 61.1143C39.602 60.7553 39.275 60.3207 39.0562 59.9488C38.9386 59.746 38.8546 59.5254 38.8081 59.2958C38.4801 57.6471 39.9251 56.9188 40.8721 55.8438C41.3678 55.281 41.8173 54.9058 42.5647 54.7638ZM45.1121 64.9928C45.4215 64.6731 45.7346 64.357 46.0517 64.0446L47.9735 62.1313C48.3172 61.7904 48.7575 61.3786 49.0686 61.0285L45.0278 58.1785C44.6011 57.8776 43.2228 56.859 42.837 56.721C42.5236 57.0272 40.8996 58.5847 40.7814 58.8272C40.8136 58.9728 40.8979 59.1304 40.9839 59.2526C41.8476 60.4815 42.7301 61.7108 43.6027 62.9328L44.541 64.2457C44.6884 64.4511 44.9424 64.826 45.1121 64.9928Z" fill="#FFAC79"/>
<path d="M40.3039 0.334696C40.884 0.309588 41.3635 0.516863 41.8492 0.81615C43.0894 1.58005 44.4909 2.24331 45.6696 3.08025C46.2224 3.4677 46.5279 4.66472 46.145 5.22893C45.6805 5.91327 44.975 6.74055 44.4185 7.37953C43.5668 8.35775 42.7557 9.45526 41.8764 10.399C41.1991 11.0385 40.2023 11.2815 39.4128 10.7412C38.4665 10.0938 36.7286 9.60705 36.5297 8.34305C36.4112 7.58889 36.6589 7.04143 36.9093 6.37245C37.5202 4.7395 38.1092 3.11358 38.7354 1.48812C39.0316 0.720809 39.5147 0.443694 40.3039 0.334696ZM40.459 9.02659C40.704 8.69179 40.9976 8.35989 41.2652 8.0387L43.2398 5.68009C43.4971 5.37175 44.0154 4.78633 44.2325 4.48023C43.0014 3.78179 41.7748 3.0755 40.5533 2.36141C40.2382 3.03543 39.8032 4.30839 39.5376 5.02981C39.2275 5.87297 38.7291 7.08275 38.4751 7.92148C39.1166 8.25523 39.8361 8.73337 40.459 9.02659Z" fill="#FFAC79"/>
<path d="M68 19.897C67.8858 20.1635 67.737 21.2092 67.6753 21.5635L66.9488 25.8048C66.7237 27.12 66.6759 28.9082 65.2677 29.5052C64.6027 29.7872 63.5428 29.6731 62.81 29.685C62.2841 29.6936 61.6197 29.7239 61.1057 29.6683C59.1763 29.4596 59.0687 27.7694 58.8124 26.2708L57.9295 21.1491C57.811 20.4609 57.535 19.4331 57.8179 18.7963C58.4524 17.3694 59.7397 17.4391 61.0416 17.4405L63.0159 17.4443C63.3469 17.4449 63.6833 17.4407 64.0146 17.4447C65.8637 17.4671 67.1985 17.1352 68 19.1526V19.897ZM59.6886 19.4878C59.8838 21.0833 60.2972 22.9036 60.5369 24.5121C60.6219 25.0822 60.9769 27.2575 61.1329 27.6543C61.6814 27.721 62.4302 27.6988 62.9999 27.6978C63.4488 27.6971 64.0976 27.7129 64.5256 27.6783C64.6349 27.3877 64.6644 27.2912 64.7212 26.9822C65.1372 24.559 65.6519 21.894 65.9932 19.4786C65.5483 19.4496 65.0725 19.4457 64.6249 19.4541C63.1905 19.4809 61.7269 19.4144 60.2955 19.4631L59.6886 19.4878Z" fill="#FFAC79"/>
<path d="M0 21.1119L0.0166148 21.0834C0.128895 20.8874 0.209672 20.674 0.318367 20.4726C0.635408 19.8705 1.25196 19.5536 1.89211 19.3949C3.00044 19.12 4.11114 18.796 5.21668 18.5138C6.03942 18.3038 7.03425 17.9624 7.86363 17.8856C8.72661 17.8057 9.75621 18.4078 9.99421 19.2474C10.1278 19.7467 10.1618 20.4316 10.2111 20.9585L10.7029 26.2229C10.7523 26.7431 10.8485 27.5406 10.8262 28.0379C10.8075 28.4241 10.6958 28.8003 10.5005 29.1346C9.95659 30.0523 8.84442 30.2448 7.87621 30.4806C6.99401 30.6955 5.91019 31.1639 5.0145 30.9032C3.84439 30.5627 3.44565 29.4312 3.00388 28.4333C2.90216 28.2049 2.78972 27.9707 2.68369 27.742L0.608998 23.2617C0.477328 22.975 0.154045 22.1621 0 21.9276V21.1119ZM4.67796 27.3101C5.25625 28.4784 5.15505 29.3609 6.6047 28.7403C7.13399 28.5136 8.19174 28.4381 8.73172 28.1634C8.9346 27.9168 8.65592 25.75 8.61498 25.3136L8.23836 21.2937C8.2106 21.021 8.16701 20.0631 8.05053 19.902C7.96068 19.869 7.96284 19.8748 7.86555 19.8827C6.64551 20.1776 5.39664 20.543 4.17582 20.858C3.70932 20.9783 2.3477 21.3178 1.99325 21.4878L3.81839 25.4442C3.9957 25.8267 4.56141 26.9674 4.67796 27.3101Z" fill="#FFAC79"/>
</svg>
