<svg preserveAspectRatio="none" width="100%" height="100%" overflow="visible" style="display: block;" viewBox="0 0 16 16" fill="none" xmlns="http://www.w3.org/2000/svg">
<g id="Iconography">
<path id="Vector" d="M13.7492 3.875C13.915 3.875 14.0743 3.94134 14.1916 4.05859C14.3087 4.17577 14.3751 4.33435 14.3752 4.5C14.3752 4.66582 14.3088 4.82513 14.1916 4.94238L6.19257 12.9414C6.13453 12.9995 6.06529 13.0457 5.98944 13.0771C5.91358 13.1086 5.8323 13.125 5.75018 13.125C5.66805 13.125 5.5868 13.1086 5.51093 13.0771C5.43506 13.0457 5.36584 12.9995 5.3078 12.9414L1.80878 9.44238C1.69154 9.32515 1.62521 9.16579 1.62518 9C1.62518 8.83418 1.69152 8.67487 1.80878 8.55762C1.92594 8.44062 2.0846 8.37506 2.25018 8.375C2.41597 8.375 2.57532 8.44041 2.69257 8.55762L5.74921 11.6152L13.3078 4.05859C13.425 3.94142 13.5835 3.8751 13.7492 3.875Z" fill="#FF751F" stroke="#FF751F" stroke-width="0.25"/>
</g>
</svg>
