<svg preserveAspectRatio="none" width="100%" height="100%" overflow="visible" style="display: block;" viewBox="0 0 16 16" fill="none" xmlns="http://www.w3.org/2000/svg">
<g id="Iconography">
<path id="Vector" d="M13.1425 2C13.3699 2 13.5881 2.09032 13.7489 2.25112C13.9097 2.41193 14 2.63013 14 2.85754C13.9999 3.05652 13.9307 3.24817 13.8056 3.40071L13.7489 3.46396L9.2119 8L13.7489 12.536L13.8056 12.5993C13.8588 12.6642 13.9026 12.7364 13.9349 12.8141C13.9779 12.9181 14 13.0299 14 13.1425C14 13.255 13.978 13.3668 13.9349 13.4708C13.8918 13.5748 13.8285 13.6693 13.7489 13.7489C13.6693 13.8285 13.5748 13.8918 13.4708 13.9349C13.3928 13.9672 13.3107 13.988 13.2271 13.9963L13.1425 14C13.0299 14 12.9181 13.9779 12.8141 13.9349C12.7364 13.9026 12.6642 13.8588 12.5993 13.8056L12.536 13.7489L8 9.2119L3.46396 13.7489C3.30322 13.9096 3.08485 13.9999 2.85754 14C2.63013 14 2.41193 13.9097 2.25112 13.7489C2.09032 13.5881 2 13.3699 2 13.1425C2.00007 12.9151 2.09038 12.6968 2.25112 12.536L6.78716 8L2.25112 3.46396C2.09038 3.30322 2.00007 3.08485 2 2.85754C2 2.63013 2.09032 2.41193 2.25112 2.25112C2.41193 2.09032 2.63013 2 2.85754 2L2.94218 2.00372C3.13842 2.02324 3.32329 2.11045 3.46396 2.25112L8 6.78716L12.536 2.25112L12.5993 2.19439C12.7518 2.06932 12.9435 2.00006 13.1425 2Z" fill="#FF751F"/>
</g>
</svg>
