<svg preserveAspectRatio="none" width="100%" height="100%" overflow="visible" style="display: block;" viewBox="0 0 16 16" fill="none" xmlns="http://www.w3.org/2000/svg">
<g id="Iconography">
<g id="Vector">
<path d="M9.05893 9.75754C8.85752 9.27159 8.81788 8.77153 9.02169 8.27675C9.204 7.82604 9.5593 7.46716 10.0081 7.28034C10.4585 7.0936 10.9648 7.09418 11.4147 7.28191C11.8629 7.47072 12.2182 7.82907 12.4031 8.27881C12.5964 8.75142 12.5732 9.26019 12.3751 9.7265C12.3703 9.73779 12.3653 9.749 12.3602 9.76014C13.3371 10.4678 13.7754 11.662 13.732 12.8294C13.7178 13.2144 13.7382 13.6127 13.7305 14H2.35145C2.34678 13.6982 2.34565 13.3964 2.34807 13.0946C2.34841 12.8413 2.34196 12.5819 2.36086 12.3296C2.43659 11.3186 2.90239 10.3716 3.71811 9.75678C3.51506 9.27246 3.47886 8.77071 3.68087 8.27748C3.8622 7.83 4.21357 7.47267 4.65792 7.28381C5.10748 7.09473 5.61392 7.09291 6.06482 7.27876C6.51575 7.46526 6.87406 7.82333 7.06086 8.27413C7.25697 8.7541 7.23366 9.25763 7.03284 9.73125C7.02927 9.7397 7.02564 9.74812 7.02197 9.75652C7.43084 10.0787 7.84056 10.5311 8.03748 11.0171C8.33142 10.4745 8.5522 10.1379 9.05893 9.75754ZM8.38863 13.2885C8.80836 13.3136 9.39473 13.2968 9.82379 13.2966L12.4121 13.2965C12.6131 13.2968 12.8314 13.2928 13.0309 13.2986C13.0099 13.055 13.0395 12.7207 13.0249 12.4534C12.9839 11.7069 12.6719 10.9336 12.0926 10.4456C12.0436 10.4045 11.9939 10.3639 11.9438 10.3241C11.7717 10.4542 11.635 10.5531 11.4447 10.6406C10.8202 10.9279 10.0929 10.8155 9.56277 10.3864C9.542 10.3696 9.49698 10.338 9.47288 10.3284C8.61338 10.9985 8.35 11.9263 8.39395 12.9657C8.39783 13.0574 8.3987 13.1985 8.38863 13.2885ZM10.529 7.86293C9.91963 7.96327 9.50653 8.53807 9.60567 9.14765C9.70482 9.75725 10.2788 10.1715 10.8886 10.0735C11.5001 9.97532 11.9157 9.39939 11.8163 8.7881C11.7169 8.1768 11.1401 7.76229 10.529 7.86293ZM5.18832 7.86287C4.57956 7.96318 4.16661 8.53698 4.26481 9.14608C4.36302 9.75519 4.93538 10.1701 5.54483 10.074C6.15725 9.97746 6.57467 9.40167 6.47598 8.78957C6.37729 8.17749 5.80006 7.76207 5.18832 7.86287ZM4.13179 10.329C3.50237 10.8214 3.1885 11.4356 3.07808 12.2306C3.02739 12.5955 3.0725 12.9401 3.0501 13.2905C3.5201 13.3068 4.0421 13.2965 4.5154 13.2965L7.08008 13.2965C7.27731 13.2968 7.49363 13.2926 7.68929 13.2986C7.68322 13.2002 7.68191 13.0692 7.68722 12.973C7.73436 12.1181 7.53916 11.2681 6.94176 10.6263C6.83736 10.5141 6.72677 10.4234 6.60391 10.3243C6.34416 10.5188 6.14294 10.6558 5.82542 10.7401C5.32384 10.8733 4.78784 10.7792 4.3615 10.4858C4.31113 10.4512 4.1782 10.3452 4.13179 10.329Z" fill="#FF751F"/>
<path d="M2 2H14V5.56599L11.9269 5.56721C11.6547 5.56729 11.1525 5.58545 10.9047 5.56346L10.9012 6.31352C10.6362 6.18182 10.2432 6.05144 9.95743 5.92714C9.69703 5.81389 9.36818 5.68176 9.10099 5.59081C9.00781 5.55909 8.67218 5.56611 8.55402 5.56633L7.87416 5.56809C7.58243 5.56878 7.15237 5.53892 6.86857 5.59727C6.76466 5.61863 6.49896 5.74216 6.39087 5.78595L5.46791 6.15934C5.4 6.18636 5.16689 6.28746 5.11737 6.30161C5.08352 6.24542 5.09861 5.66942 5.10152 5.57198C4.20711 5.55416 3.30643 5.57442 2.41141 5.56793C2.27483 5.56693 2.13631 5.57322 2 5.56558V2ZM2.70357 4.85687L4.73459 4.85894C5.08629 4.85892 5.45397 4.85362 5.80456 4.86269C5.79777 4.99698 5.80157 5.12257 5.80461 5.25672C6.01132 5.18057 6.21426 5.09513 6.4181 5.01171C6.53734 4.9629 6.66157 4.90241 6.78775 4.87426C6.92526 4.84359 9.05342 4.8413 9.20021 4.87343C9.33103 4.90204 9.45748 4.96204 9.58114 5.01262C9.78668 5.09668 9.9914 5.18436 10.2001 5.26024L10.1994 4.86346C10.9424 4.83843 11.7898 4.85899 12.541 4.85882C12.7866 4.85875 13.0507 4.86327 13.2949 4.85805C13.2995 4.15763 13.2822 3.40557 13.2996 2.71083C12.3826 2.69934 11.4519 2.70689 10.534 2.70686L3.58129 2.70679C3.40987 2.70651 3.23845 2.70726 3.06704 2.70905C2.95962 2.70998 2.80807 2.71688 2.70582 2.70096C2.69424 3.4175 2.71214 4.14079 2.70357 4.85687Z" fill="#FF751F"/>
<path d="M4.83861 3.42807C5.0723 3.42682 5.306 3.42717 5.53969 3.42912C5.53793 3.55227 5.55458 4.06303 5.52733 4.14235C5.30391 4.14513 5.04556 4.13475 4.83289 4.14218C4.84062 3.90889 4.83144 3.66655 4.83861 3.42807Z" fill="#FF751F"/>
<path d="M6.2437 3.42794C6.47747 3.42683 6.71123 3.42725 6.945 3.42918C6.94445 3.55517 6.9594 4.05478 6.93338 4.1427C6.72185 4.1432 6.43861 4.13454 6.23825 4.14266C6.2469 3.91872 6.23947 3.65749 6.2437 3.42794Z" fill="#FF751F"/>
<path d="M9.03921 3.42338C9.2035 3.43827 9.5593 3.42803 9.73777 3.4284C9.74333 3.66528 9.7422 3.90227 9.73437 4.13908C9.62043 4.14487 9.14137 4.15933 9.05572 4.12984C9.01938 4.05602 9.03789 3.53989 9.03921 3.42338Z" fill="#FF751F"/>
<path d="M3.42325 3.4261C3.65627 3.42828 3.88929 3.4293 4.12231 3.42916C4.1242 3.58191 4.13662 4.01354 4.11262 4.14159C3.91098 4.14534 3.60158 4.13171 3.41941 4.144L3.42325 3.4261Z" fill="#FF751F"/>
<path d="M11.8587 3.42471C12.0417 3.43784 12.3626 3.4288 12.556 3.42947C12.5594 3.66021 12.5653 3.91216 12.5508 4.14194C12.3931 4.1437 11.9791 4.13261 11.8545 4.1465L11.8587 3.42471Z" fill="#FF751F"/>
<path d="M10.4529 3.425C10.647 3.43719 10.9489 3.42876 11.1504 3.42938C11.1535 3.65817 11.16 3.91444 11.145 4.14207C10.9901 4.14357 10.5716 4.13282 10.4487 4.14635L10.4529 3.425Z" fill="#FF751F"/>
</g>
</g>
</svg>
