<svg preserveAspectRatio="none" width="100%" height="100%" overflow="visible" style="display: block;" viewBox="0 0 16 16" fill="none" xmlns="http://www.w3.org/2000/svg">
<g id="Iconography">
<path id="Vector" d="M12.4584 3.6425C11.9457 3.12467 11.3359 2.71304 10.6639 2.4312C9.99196 2.14936 9.27099 2.00283 8.5423 2H8.49998C7.02235 2 5.60523 2.58699 4.56039 3.63183C3.51554 4.67668 2.92855 6.09379 2.92855 7.57143V10.5714C2.92855 10.9124 3.06401 11.2394 3.30513 11.4806C3.54625 11.7217 3.87327 11.8571 4.21427 11.8571H5.07141C5.4124 11.8571 5.73943 11.7217 5.98055 11.4806C6.22166 11.2394 6.35712 10.9124 6.35712 10.5714V8.42857C6.35712 8.08758 6.22166 7.76055 5.98055 7.51943C5.73943 7.27832 5.4124 7.14286 5.07141 7.14286H3.80498C3.88763 6.24925 4.22329 5.39772 4.7726 4.68806C5.32192 3.9784 6.06213 3.44002 6.9065 3.13602C7.75086 2.83202 8.66438 2.77499 9.54 2.97163C10.4156 3.16826 11.217 3.61041 11.8503 4.24625C12.6244 5.02427 13.1005 6.0495 13.1955 7.14286H11.9286C11.5876 7.14286 11.2605 7.27832 11.0194 7.51943C10.7783 7.76055 10.6428 8.08758 10.6428 8.42857V10.5714C10.6428 10.9124 10.7783 11.2394 11.0194 11.4806C11.2605 11.7217 11.5876 11.8571 11.9286 11.8571H13.2143C13.2143 12.1981 13.0788 12.5252 12.8377 12.7663C12.5966 13.0074 12.2695 13.1429 11.9286 13.1429H8.92855C8.81489 13.1429 8.70588 13.188 8.62551 13.2684C8.54513 13.3488 8.49998 13.4578 8.49998 13.5714C8.49998 13.6851 8.54513 13.7941 8.62551 13.8745C8.70588 13.9548 8.81489 14 8.92855 14H11.9286C12.4969 14 13.0419 13.7742 13.4438 13.3724C13.8456 12.9705 14.0714 12.4255 14.0714 11.8571V7.57143C14.0742 6.84263 13.9332 6.12044 13.6564 5.44624C13.3796 4.77205 12.9725 4.15909 12.4584 3.6425ZM5.07141 8C5.18507 8 5.29408 8.04515 5.37445 8.12553C5.45483 8.2059 5.49998 8.31491 5.49998 8.42857V10.5714C5.49998 10.6851 5.45483 10.7941 5.37445 10.8745C5.29408 10.9548 5.18507 11 5.07141 11H4.21427C4.1006 11 3.99159 10.9548 3.91122 10.8745C3.83085 10.7941 3.78569 10.6851 3.78569 10.5714V8H5.07141ZM11.9286 11C11.8149 11 11.7059 10.9548 11.6255 10.8745C11.5451 10.7941 11.5 10.6851 11.5 10.5714V8.42857C11.5 8.31491 11.5451 8.2059 11.6255 8.12553C11.7059 8.04515 11.8149 8 11.9286 8H13.2143V11H11.9286Z" fill="#FF751F"/>
</g>
</svg>
