<svg preserveAspectRatio="none" width="100%" height="100%" overflow="visible" style="display: block;" viewBox="0 0 16 16" fill="none" xmlns="http://www.w3.org/2000/svg">
<g id="Iconography">
<path id="Vector" d="M14 7.57133V11.8571C14 12.4254 13.7771 12.9705 13.3804 13.3724C12.9837 13.7742 12.4456 14 11.8846 14H8.92306C8.81085 14 8.70324 13.9548 8.6239 13.8745C8.54455 13.7941 8.49998 13.6851 8.49998 13.5714C8.49998 13.4578 8.54455 13.3487 8.6239 13.2684C8.70324 13.188 8.81085 13.1428 8.92306 13.1428H11.8846C12.2212 13.1428 12.544 13.0074 12.7821 12.7663C13.0201 12.5251 13.1538 12.1981 13.1538 11.8571H11.8846C11.548 11.8571 11.2251 11.7217 10.9871 11.4805C10.7491 11.2394 10.6154 10.9124 10.6154 10.5714V8.42849C10.6154 8.08749 10.7491 7.76046 10.9871 7.51934C11.2251 7.27822 11.548 7.14276 11.8846 7.14276H13.1353C13.0552 6.25182 12.7266 5.40235 12.1877 4.69357C11.6488 3.98478 10.922 3.44596 10.0921 3.14002C9.26223 2.83408 8.36354 2.77366 7.50102 2.96582C6.63849 3.15798 5.84775 3.59479 5.22115 4.22521C4.44198 5.00411 3.9614 6.03814 3.86519 7.14276H5.11538C5.452 7.14276 5.77483 7.27822 6.01286 7.51934C6.25088 7.76046 6.3846 8.08749 6.3846 8.42849V10.5714C6.3846 10.9124 6.25088 11.2394 6.01286 11.4805C5.77483 11.7217 5.452 11.8571 5.11538 11.8571H4.26923C3.93261 11.8571 3.60977 11.7217 3.37175 11.4805C3.13372 11.2394 3 10.9124 3 10.5714V7.57133C3.00119 6.46769 3.32557 5.38921 3.93209 4.47241C4.53861 3.55561 5.4 2.84169 6.40723 2.42103C7.41446 2.00038 8.52225 1.89188 9.59038 2.10929C10.6585 2.32669 11.6389 2.86022 12.4076 3.64235C12.9151 4.15895 13.317 4.77191 13.5902 5.44612C13.8635 6.12033 14.0027 6.84252 14 7.57133Z" fill="#FF751F"/>
</g>
</svg>
