<svg preserveAspectRatio="none" width="100%" height="100%" overflow="visible" style="display: block;" viewBox="0 0 16 16" fill="none" xmlns="http://www.w3.org/2000/svg">
<g id="Iconography">
<path id="Vector" d="M13.5769 3.84615H11.2692V3.38462C11.2692 3.01739 11.1234 2.66521 10.8637 2.40554C10.604 2.14588 10.2518 2 9.88462 2H7.11538C6.74816 2 6.39598 2.14588 6.13631 2.40554C5.87665 2.66521 5.73077 3.01739 5.73077 3.38462V3.84615H3.42308C3.30067 3.84615 3.18328 3.89478 3.09672 3.98134C3.01016 4.06789 2.96154 4.18528 2.96154 4.30769C2.96154 4.4301 3.01016 4.54749 3.09672 4.63405C3.18328 4.7206 3.30067 4.76923 3.42308 4.76923H3.88462V13.0769C3.88462 13.3217 3.98187 13.5565 4.15498 13.7296C4.32809 13.9027 4.56288 14 4.80769 14H12.1923C12.4371 14 12.6719 13.9027 12.845 13.7296C13.0181 13.5565 13.1154 13.3217 13.1154 13.0769V4.76923H13.5769C13.6993 4.76923 13.8167 4.7206 13.9033 4.63405C13.9898 4.54749 14.0385 4.4301 14.0385 4.30769C14.0385 4.18528 13.9898 4.06789 13.9033 3.98134C13.8167 3.89478 13.6993 3.84615 13.5769 3.84615ZM6.65385 3.38462C6.65385 3.26221 6.70247 3.14481 6.78903 3.05826C6.87558 2.9717 6.99298 2.92308 7.11538 2.92308H9.88462C10.007 2.92308 10.1244 2.9717 10.211 3.05826C10.2975 3.14481 10.3462 3.26221 10.3462 3.38462V3.84615H6.65385V3.38462ZM12.1923 13.0769H4.80769V4.76923H12.1923V13.0769ZM7.57692 7.07692V10.7692C7.57692 10.8916 7.5283 11.009 7.44174 11.0956C7.35519 11.1821 7.23779 11.2308 7.11538 11.2308C6.99298 11.2308 6.87558 11.1821 6.78903 11.0956C6.70247 11.009 6.65385 10.8916 6.65385 10.7692V7.07692C6.65385 6.95452 6.70247 6.83712 6.78903 6.75057C6.87558 6.66401 6.99298 6.61538 7.11538 6.61538C7.23779 6.61538 7.35519 6.66401 7.44174 6.75057C7.5283 6.83712 7.57692 6.95452 7.57692 7.07692ZM10.3462 7.07692V10.7692C10.3462 10.8916 10.2975 11.009 10.211 11.0956C10.1244 11.1821 10.007 11.2308 9.88462 11.2308C9.76221 11.2308 9.64481 11.1821 9.55826 11.0956C9.4717 11.009 9.42308 10.8916 9.42308 10.7692V7.07692C9.42308 6.95452 9.4717 6.83712 9.55826 6.75057C9.64481 6.66401 9.76221 6.61538 9.88462 6.61538C10.007 6.61538 10.1244 6.66401 10.211 6.75057C10.2975 6.83712 10.3462 6.95452 10.3462 7.07692Z" fill="#FF751F"/>
</g>
</svg>
