<svg preserveAspectRatio="none" width="100%" height="100%" overflow="visible" style="display: block;" viewBox="0 0 16 16" fill="none" xmlns="http://www.w3.org/2000/svg">
<g id="Iconography">
<path id="Vector" d="M13.5417 3.84615H11.25V3.38462C11.25 3.01739 11.1051 2.66521 10.8473 2.40554C10.5894 2.14588 10.2397 2 9.875 2H7.125C6.76033 2 6.41059 2.14588 6.15273 2.40554C5.89487 2.66521 5.75 3.01739 5.75 3.38462V3.84615H3.45833C3.33678 3.84615 3.2202 3.89478 3.13424 3.98134C3.04829 4.06789 3 4.18528 3 4.30769C3 4.4301 3.04829 4.54749 3.13424 4.63405C3.2202 4.7206 3.33678 4.76923 3.45833 4.76923H3.91667V13.0769C3.91667 13.3217 4.01324 13.5565 4.18515 13.7296C4.35706 13.9027 4.59022 14 4.83333 14H12.1667C12.4098 14 12.6429 13.9027 12.8148 13.7296C12.9868 13.5565 13.0833 13.3217 13.0833 13.0769V4.76923H13.5417C13.6632 4.76923 13.7798 4.7206 13.8658 4.63405C13.9517 4.54749 14 4.4301 14 4.30769C14 4.18528 13.9517 4.06789 13.8658 3.98134C13.7798 3.89478 13.6632 3.84615 13.5417 3.84615ZM7.58333 10.7692C7.58333 10.8916 7.53504 11.009 7.44909 11.0956C7.36314 11.1821 7.24656 11.2308 7.125 11.2308C7.00344 11.2308 6.88686 11.1821 6.80091 11.0956C6.71496 11.009 6.66667 10.8916 6.66667 10.7692V7.07692C6.66667 6.95452 6.71496 6.83712 6.80091 6.75057C6.88686 6.66401 7.00344 6.61538 7.125 6.61538C7.24656 6.61538 7.36314 6.66401 7.44909 6.75057C7.53504 6.83712 7.58333 6.95452 7.58333 7.07692V10.7692ZM10.3333 10.7692C10.3333 10.8916 10.285 11.009 10.1991 11.0956C10.1131 11.1821 9.99656 11.2308 9.875 11.2308C9.75344 11.2308 9.63686 11.1821 9.55091 11.0956C9.46496 11.009 9.41667 10.8916 9.41667 10.7692V7.07692C9.41667 6.95452 9.46496 6.83712 9.55091 6.75057C9.63686 6.66401 9.75344 6.61538 9.875 6.61538C9.99656 6.61538 10.1131 6.66401 10.1991 6.75057C10.285 6.83712 10.3333 6.95452 10.3333 7.07692V10.7692ZM10.3333 3.84615H6.66667V3.38462C6.66667 3.26221 6.71496 3.14481 6.80091 3.05826C6.88686 2.9717 7.00344 2.92308 7.125 2.92308H9.875C9.99656 2.92308 10.1131 2.9717 10.1991 3.05826C10.285 3.14481 10.3333 3.26221 10.3333 3.38462V3.84615Z" fill="#FF751F"/>
</g>
</svg>
