<svg preserveAspectRatio="none" width="100%" height="100%" overflow="visible" style="display: block;" viewBox="0 0 16 16" fill="none" xmlns="http://www.w3.org/2000/svg">
<g id="Iconography">
<path id="Vector" d="M14 9.38462C14 9.03914 13.9076 8.70059 13.7333 8.40746C13.559 8.11434 13.3098 7.87839 13.014 7.72646C12.7182 7.57453 12.3877 7.51271 12.0601 7.54803C11.7325 7.58334 11.4208 7.71438 11.1607 7.92624C10.9005 8.1381 10.7023 8.42228 10.5885 8.74647C10.4746 9.07065 10.4498 9.42184 10.5168 9.76009C10.5838 10.0983 10.7399 10.4101 10.9675 10.6599C11.195 10.9097 11.4848 11.0875 11.8039 11.1731C11.8014 11.1922 11.8001 11.2115 11.8 11.2308C11.8 11.7204 11.6146 12.19 11.2845 12.5362C10.9544 12.8824 10.5068 13.0769 10.04 13.0769H8.72C8.25322 13.0769 7.80556 12.8824 7.47549 12.5362C7.14543 12.19 6.96 11.7204 6.96 11.2308V8.89308C8.69085 8.66231 10.04 7.0775 10.04 5.18288V2.46154C10.04 2.33913 9.99364 2.22174 9.91113 2.13518C9.82861 2.04863 9.7167 2 9.6 2H8.28C8.1633 2 8.05139 2.04863 7.96887 2.13518C7.88636 2.22174 7.84 2.33913 7.84 2.46154C7.84 2.58395 7.88636 2.70134 7.96887 2.7879C8.05139 2.87445 8.1633 2.92308 8.28 2.92308H9.16V5.18288C9.16 6.71635 7.99125 7.98038 6.5552 8C6.20556 8.00489 5.85848 7.93687 5.5341 7.7999C5.20973 7.66292 4.91453 7.45972 4.66564 7.20208C4.41675 6.94445 4.21914 6.63751 4.08427 6.29911C3.9494 5.9607 3.87997 5.59756 3.88 5.23077V2.92308H4.76C4.8767 2.92308 4.98861 2.87445 5.07113 2.7879C5.15364 2.70134 5.2 2.58395 5.2 2.46154C5.2 2.33913 5.15364 2.22174 5.07113 2.13518C4.98861 2.04863 4.8767 2 4.76 2H3.44C3.3233 2 3.21139 2.04863 3.12887 2.13518C3.04636 2.22174 3 2.33913 3 2.46154V5.23077C3.00011 6.13002 3.31307 6.99831 3.88015 7.67271C4.44723 8.34711 5.22944 8.78125 6.08 8.89365V11.2308C6.08073 11.965 6.3591 12.6689 6.85404 13.1881C7.34898 13.7072 8.02005 13.9992 8.72 14H10.04C10.7399 13.9992 11.411 13.7072 11.906 13.1881C12.4009 12.6689 12.6793 11.965 12.68 11.2308C12.6799 11.2115 12.6786 11.1922 12.6761 11.1731C13.0548 11.0715 13.3905 10.8406 13.6302 10.5167C13.8699 10.1929 14 9.7946 14 9.38462ZM12.24 9.84615C12.153 9.84615 12.0679 9.81909 11.9955 9.76837C11.9232 9.71766 11.8668 9.64557 11.8335 9.56124C11.8002 9.4769 11.7915 9.3841 11.8085 9.29457C11.8254 9.20504 11.8673 9.12281 11.9289 9.05826C11.9904 8.99371 12.0688 8.94975 12.1542 8.93195C12.2395 8.91414 12.328 8.92328 12.4084 8.95821C12.4888 8.99314 12.5575 9.0523 12.6058 9.1282C12.6542 9.2041 12.68 9.29333 12.68 9.38462C12.68 9.50702 12.6336 9.62442 12.5511 9.71097C12.4686 9.79753 12.3567 9.84615 12.24 9.84615Z" fill="#FF751F"/>
</g>
</svg>
