<svg preserveAspectRatio="none" width="100%" height="100%" overflow="visible" style="display: block;" viewBox="0 0 16 16" fill="none" xmlns="http://www.w3.org/2000/svg">
<g id="Iconography">
<path id="Vector" d="M13.8592 4.06071L11.9393 2.14077C11.8947 2.09615 11.8418 2.06074 11.7835 2.03659C11.7252 2.01243 11.6628 2 11.5997 2C11.5366 2 11.4742 2.01243 11.4159 2.03659C11.3576 2.06074 11.3047 2.09615 11.2601 2.14077L5.50029 7.90059C5.45573 7.9452 5.4204 7.99815 5.39631 8.05642C5.37222 8.11469 5.35984 8.17713 5.35989 8.24018V10.1601C5.35989 10.2874 5.41046 10.4095 5.50048 10.4995C5.59049 10.5895 5.71258 10.6401 5.83988 10.6401H7.75982C7.82287 10.6402 7.88531 10.6278 7.94358 10.6037C8.00185 10.5796 8.0548 10.5443 8.09941 10.4997L13.8592 4.73989C13.9039 4.69531 13.9393 4.64238 13.9634 4.58411C13.9876 4.52584 14 4.46338 14 4.4003C14 4.33722 13.9876 4.27477 13.9634 4.2165C13.9393 4.15823 13.9039 4.10529 13.8592 4.06071ZM7.56123 9.68014H6.31986V8.43878L10.1597 4.5989L11.4011 5.84026L7.56123 9.68014ZM12.0797 5.16168L10.8383 3.92032L11.5997 3.15894L12.8411 4.4003L12.0797 5.16168ZM13.5196 8.24018V13.04C13.5196 13.2946 13.4185 13.5388 13.2385 13.7188C13.0584 13.8989 12.8143 14 12.5597 14H2.95997C2.70537 14 2.4612 13.8989 2.28117 13.7188C2.10114 13.5388 2 13.2946 2 13.04V3.44033C2 3.18573 2.10114 2.94156 2.28117 2.76153C2.4612 2.5815 2.70537 2.48036 2.95997 2.48036H7.75982C7.88712 2.48036 8.00921 2.53093 8.09922 2.62095C8.18923 2.71096 8.2398 2.83305 8.2398 2.96035C8.2398 3.08765 8.18923 3.20973 8.09922 3.29975C8.00921 3.38976 7.88712 3.44033 7.75982 3.44033H2.95997V13.04H12.5597V8.24018C12.5597 8.11288 12.6102 7.9908 12.7003 7.90078C12.7903 7.81077 12.9124 7.7602 13.0397 7.7602C13.167 7.7602 13.289 7.81077 13.3791 7.90078C13.4691 7.9908 13.5196 8.11288 13.5196 8.24018Z" fill="#FF751F"/>
</g>
</svg>
