<svg preserveAspectRatio="none" width="100%" height="100%" overflow="visible" style="display: block;" viewBox="0 0 16 16" fill="none" xmlns="http://www.w3.org/2000/svg">
<g id="Iconography">
<path id="Vector" d="M13.5385 4H2.46154C2.33913 4 2.22174 4.04741 2.13518 4.1318C2.04863 4.21619 2 4.33065 2 4.45V12.1C2 12.3387 2.09725 12.5676 2.27036 12.7364C2.44347 12.9052 2.67826 13 2.92308 13H13.0769C13.3217 13 13.5565 12.9052 13.7296 12.7364C13.9027 12.5676 14 12.3387 14 12.1V4.45C14 4.33065 13.9514 4.21619 13.8648 4.1318C13.7783 4.04741 13.6609 4 13.5385 4ZM12.3517 4.9L8 8.78969L3.64827 4.9H12.3517ZM13.0769 12.1H2.92308V5.47319L7.68788 9.73187C7.77303 9.80809 7.88441 9.85037 8 9.85037C8.11559 9.85037 8.22697 9.80809 8.31212 9.73187L13.0769 5.47319V12.1Z" fill="#FF751F"/>
</g>
</svg>
