<svg preserveAspectRatio="none" width="100%" height="100%" overflow="visible" style="display: block;" viewBox="0 0 16 16" fill="none" xmlns="http://www.w3.org/2000/svg">
<g id="Iconography">
<path id="Vector" d="M8 2C6.81331 2 5.65328 2.35189 4.66658 3.01118C3.67989 3.67047 2.91085 4.60754 2.45673 5.7039C2.0026 6.80025 1.88378 8.00666 2.11529 9.17054C2.3468 10.3344 2.91825 11.4035 3.75736 12.2426C4.59648 13.0818 5.66557 13.6532 6.82946 13.8847C7.99335 14.1162 9.19974 13.9974 10.2961 13.5433C11.3925 13.0891 12.3295 12.3201 12.9888 11.3334C13.6481 10.3467 14 9.18669 14 8C13.9983 6.40922 13.3656 4.88407 12.2408 3.75921C11.1159 2.63436 9.59078 2.00168 8 2ZM7.53846 5.23077C7.53846 5.10836 7.58709 4.99097 7.67364 4.90441C7.7602 4.81786 7.87759 4.76923 8 4.76923C8.12241 4.76923 8.2398 4.81786 8.32636 4.90441C8.41291 4.99097 8.46154 5.10836 8.46154 5.23077V8.46154C8.46154 8.58394 8.41291 8.70134 8.32636 8.78789C8.2398 8.87445 8.12241 8.92308 8 8.92308C7.87759 8.92308 7.7602 8.87445 7.67364 8.78789C7.58709 8.70134 7.53846 8.58394 7.53846 8.46154V5.23077ZM8 11.2308C7.86308 11.2308 7.72923 11.1902 7.61538 11.1141C7.50153 11.038 7.41279 10.9299 7.36039 10.8034C7.30799 10.6769 7.29428 10.5377 7.321 10.4034C7.34771 10.2691 7.41365 10.1457 7.51047 10.0489C7.60729 9.9521 7.73064 9.88617 7.86494 9.85945C7.99923 9.83274 8.13843 9.84645 8.26494 9.89885C8.39144 9.95125 8.49956 10.04 8.57563 10.1538C8.65171 10.2677 8.69231 10.4015 8.69231 10.5385C8.69231 10.7221 8.61937 10.8982 8.48954 11.028C8.3597 11.1578 8.18361 11.2308 8 11.2308Z" fill="#FF751F"/>
</g>
</svg>
