<svg preserveAspectRatio="none" width="100%" height="100%" overflow="visible" style="display: block;" viewBox="0 0 16 16" fill="none" xmlns="http://www.w3.org/2000/svg">
<g id="Iconography">
<g id="Vector">
<path d="M3.99547 1H5.42151L5.43114 1.00521C5.60943 1.10067 5.81802 1.14804 5.87134 1.40496C5.93638 1.71834 5.89935 2.18606 5.90462 2.51432C6.06937 2.50784 6.23425 2.51586 6.39936 2.51622L7.44569 2.51633C8.3221 2.51617 9.22209 2.50594 10.096 2.51718C10.0998 2.28656 10.0989 2.0558 10.0973 1.82552C10.0958 1.59217 10.0868 1.34256 10.27 1.16347C10.3571 1.07833 10.4755 1.05955 10.5668 1H11.9838C12.1772 1.08992 12.4419 1.16002 12.5056 1.40241C12.5776 1.67675 12.548 2.22223 12.5419 2.51553C12.7419 2.50233 12.95 2.51635 13.1516 2.51551C13.6802 2.51337 14.1215 2.46941 14.5505 2.82599C15.0862 3.27132 14.9945 3.83315 14.9934 4.44848L14.9941 13.186C14.9941 13.3667 14.9997 13.5888 14.9768 13.7649C14.9404 14.065 14.8102 14.3473 14.6036 14.5745C14.464 14.7283 14.2852 14.8601 14.0841 14.9233C14.0519 14.9333 13.9055 14.9841 13.8826 15H2.12188C2.07793 14.9772 1.97352 14.9424 1.92179 14.9244C1.45938 14.7692 1.09926 14.3073 1.03409 13.8427C0.98422 13.4872 1.00375 13.0524 1.00386 12.6866L1.00333 3.99219C1.00391 3.54074 1.04239 3.20868 1.39461 2.87128C1.78565 2.4967 2.20241 2.51363 2.70716 2.51486L3.45387 2.51711C3.46066 2.19672 3.42466 1.73762 3.48488 1.43516C3.54018 1.15736 3.80817 1.10307 3.98517 1.00574L3.99547 1ZM14.0791 14.1287C14.3541 13.8094 14.2856 13.4896 14.2959 13.1002C14.2987 12.9968 14.2959 12.892 14.2959 12.7885L14.2951 7.98619C14.2951 7.47177 14.3054 6.92 14.2946 6.40842L2.50856 6.40355C2.36462 6.40362 1.81496 6.42259 1.71224 6.39394C1.69587 6.93802 1.70766 7.53125 1.7077 8.07812L1.7083 12.8153C1.708 12.9964 1.71078 13.1818 1.70704 13.3636C1.70099 13.6586 1.71574 13.9238 1.93607 14.1514C2.09704 14.3178 2.26682 14.3218 2.48631 14.3229C3.30106 14.3223 4.11639 14.3211 4.93102 14.3211L13.2714 14.3222C13.5855 14.3221 13.849 14.3735 14.0791 14.1287ZM3.46002 3.20233C3.21216 3.19918 2.31387 3.1753 2.12185 3.22443C2.03074 3.24852 1.94762 3.29488 1.88055 3.35905C1.65731 3.56986 1.70665 3.89503 1.70675 4.185L1.7086 5.71825L12.7922 5.72151C13.2865 5.72154 13.8017 5.71486 14.294 5.72422L14.2957 4.40971C14.2961 4.10864 14.3609 3.59112 14.1272 3.36597C14.0665 3.30748 13.9834 3.25492 13.9011 3.23069C13.4945 3.14806 12.9485 3.22832 12.5459 3.19692C12.5482 3.48371 12.5816 3.77259 12.3528 3.98953C12.091 4.23783 11.7621 4.21676 11.4263 4.21744L10.9057 4.21783C10.1486 4.21497 10.0872 3.83246 10.1007 3.23167L10.1015 3.20073L7.15108 3.19662L6.37274 3.19883C6.25243 3.19927 6.01806 3.2062 5.90753 3.18779C5.90471 3.30269 5.90604 3.4195 5.90242 3.53565C5.88761 4.01309 5.574 4.23053 5.09278 4.21717C4.40785 4.19817 3.39561 4.39946 3.45608 3.38247C3.4593 3.32857 3.45787 3.259 3.46002 3.20233ZM4.21054 1.67666C4.19368 2.27441 4.20535 2.92388 4.20562 3.52592C4.53902 3.52916 4.87243 3.53042 5.20585 3.52969C5.19197 3.35305 5.2026 3.15689 5.19988 2.97818C5.19343 2.55363 5.21299 2.10828 5.19632 1.68531L4.59698 1.68554C4.48434 1.68591 4.31708 1.69323 4.21054 1.67666ZM11.8525 3.5264C11.8289 2.92706 11.8681 2.28599 11.8478 1.68596C11.6297 1.68382 11.4117 1.6831 11.1937 1.6838C11.0742 1.68403 10.8819 1.6899 10.7693 1.6755C10.7496 2.27041 10.7919 2.95017 10.7605 3.52249C10.9951 3.52943 11.2298 3.53203 11.4645 3.53028C11.5641 3.5304 11.7599 3.53526 11.8525 3.5264Z" fill="#FF751F"/>
<path d="M7.74519 7.27914C8.15207 7.25105 8.20756 7.6111 8.37062 7.90678C8.5646 8.25855 8.72979 8.63288 8.92603 8.98438C9.04821 9.01696 9.29482 9.04709 9.4272 9.06615L10.2796 9.18852C10.4141 9.20781 10.5662 9.22247 10.6949 9.25561C10.8838 9.30427 11.0315 9.48288 10.952 9.67336C10.905 9.79051 10.8087 9.87838 10.717 9.9641C10.3446 10.3121 9.95701 10.6494 9.59457 11.007C9.60546 11.1155 9.65068 11.3204 9.6718 11.4328L9.83268 12.2863C9.8502 12.3795 9.90154 12.6227 9.90448 12.71C9.90609 12.77 9.89338 12.8295 9.8673 12.8841C9.67137 13.2918 9.16452 12.9222 8.88983 12.7898C8.54548 12.6238 8.21124 12.439 7.8641 12.2757C7.68735 12.2308 6.35072 13.0988 6.05353 13.0766C5.58232 13.03 5.7875 12.5442 5.82286 12.2714C5.87546 11.8654 6.02241 11.3958 6.0494 10.9976C5.97765 10.9187 5.82458 10.7842 5.73926 10.7054L5.09085 10.1113C4.96513 9.99615 4.72098 9.80614 4.68733 9.6449C4.66861 9.55384 4.6894 9.45935 4.74484 9.38347C4.77388 9.34351 4.84307 9.28291 4.89287 9.27196C5.31426 9.17932 5.75747 9.14118 6.18391 9.07309C6.36885 9.04356 6.5426 9.02221 6.72325 8.98932C7.00318 8.48099 7.24379 7.94024 7.5304 7.43453C7.58347 7.34088 7.64298 7.3111 7.74519 7.27914ZM5.78093 9.81126C6.06655 10.0459 6.3267 10.3268 6.60877 10.5667C6.8672 10.7866 6.75069 11.0979 6.70019 11.3821C6.65464 11.6296 6.61208 11.8777 6.57254 12.1262C6.83633 11.9958 7.59879 11.5439 7.83829 11.5283C8.12442 11.5889 8.76957 11.9839 9.08146 12.1252L8.95559 11.406C8.83415 10.7296 8.78726 10.7921 9.30911 10.3196L9.86545 9.8111C9.61216 9.77196 9.35823 9.73677 9.10376 9.70554C8.91906 9.68165 8.51912 9.66631 8.41753 9.50511C8.26396 9.26141 8.15237 8.97937 8.00817 8.72838C7.95077 8.6284 7.89431 8.4667 7.81342 8.38951L7.44013 9.11706C7.15512 9.6718 7.16776 9.64083 6.49822 9.71393C6.27316 9.7385 6.00918 9.7835 5.78093 9.81126Z" fill="#FF751F"/>
</g>
</g>
</svg>
