<svg preserveAspectRatio="none" width="100%" height="100%" overflow="visible" style="display: block;" viewBox="0 0 16 16" fill="none" xmlns="http://www.w3.org/2000/svg">
<g id="Iconography" clip-path="url(#clip0_0_299)">
<g id="Vector">
<path d="M7.58075 1H8.41627C8.5074 1.03833 8.78892 1.06786 8.91641 1.09817C9.43887 1.21799 9.93419 1.43484 10.3766 1.73745C11.2973 2.36752 11.9286 3.33882 12.1306 4.43602C12.3351 5.53327 12.0933 6.66676 11.4589 7.58506C11.0345 8.1997 10.4546 8.69069 9.77833 9.00789C9.65223 9.06833 9.4955 9.14775 9.35986 9.17443C9.24615 9.19678 9.20515 9.17106 9.11501 9.10869C9.05353 8.96048 9.04804 8.92825 9.12861 8.78336C9.24711 8.70347 9.43142 8.64746 9.5616 8.58691C9.68432 8.52983 10.2958 8.21189 10.3118 8.09297C10.4224 7.2679 9.98006 6.54658 9.21905 6.22512C9.01393 6.30796 8.89705 6.4174 8.61783 6.50797C8.16144 6.65344 7.66831 6.63291 7.22558 6.45001C7.07388 6.38778 6.92565 6.30224 6.77823 6.22748C6.18483 6.44086 5.75256 7.01977 5.68404 7.64084C5.66653 7.79958 5.66385 7.94941 5.66434 8.10849C5.81601 8.24073 5.99974 8.35528 6.17394 8.45377C6.29777 8.52378 6.8804 8.7607 6.91905 8.85555C6.94415 8.91716 6.93014 9.00224 6.90272 9.06076C6.87922 9.11092 6.83914 9.14741 6.7865 9.16493C6.6095 9.22385 6.31214 9.05569 6.15048 8.97571C5.14485 8.48098 4.37769 7.60607 4.0186 6.54442C3.66416 5.48522 3.74403 4.32872 4.24067 3.32828C4.73685 2.32074 5.61917 1.55649 6.68719 1.20914C6.82909 1.16346 6.96568 1.12554 7.11107 1.09236C7.23425 1.06425 7.46086 1.04223 7.57005 1.00387L7.58075 1ZM5.20412 7.66583C5.31505 6.92356 5.61192 6.35086 6.26664 5.94703C6.29192 5.93145 6.37221 5.885 6.38069 5.86268C6.36938 5.82133 6.15822 5.51633 6.11369 5.42598C5.80624 4.79503 5.8313 4.05274 6.18063 3.44396C6.45528 2.96287 6.91104 2.6117 7.44623 2.46874C7.68784 2.40366 8 2.37087 8.24939 2.41061C8.8399 2.49915 9.32703 2.76232 9.68731 3.24752C10.0203 3.69972 10.1589 4.26617 10.0723 4.82103C10.0126 5.21658 9.84438 5.56137 9.58901 5.86728C10.3741 6.33619 10.6405 6.79146 10.8044 7.67506C10.9613 7.46566 11.1079 7.2761 11.2395 7.0481C11.6508 6.32913 11.8108 5.49369 11.6944 4.67366C11.5556 3.68495 11.0254 2.79342 10.2231 2.19926C9.4585 1.62898 8.64449 1.43094 7.7107 1.48535C6.81749 1.51479 5.8823 1.99541 5.2755 2.64195C4.60283 3.36053 4.24138 4.31584 4.26993 5.29972C4.29662 6.12247 4.62534 7.07094 5.20412 7.66583ZM8.11622 6.12623C9.01358 6.06148 9.68887 5.28207 9.62518 4.38465C9.56149 3.48723 8.78289 2.81102 7.88539 2.87365C6.98639 2.93639 6.3088 3.71657 6.37261 4.61549C6.4364 5.51441 7.21738 6.19107 8.11622 6.12623Z" fill="#FF751F"/>
<path d="M6.81851 10.5681C7.11244 10.0616 7.34599 9.4319 7.66477 8.93841C7.79845 8.77565 8.0691 8.75277 8.24026 8.86196C8.34091 8.92616 8.40942 9.02041 8.45652 9.12144C8.68023 9.60125 8.95148 10.0778 9.16632 10.5599C9.56512 10.6476 10.0488 10.6825 10.4582 10.7531C10.5775 10.7736 10.8633 10.8029 10.9672 10.8431C11.0613 10.8796 11.1414 10.9449 11.1963 11.0296C11.2626 11.1328 11.2845 11.2584 11.257 11.378C11.1877 11.6774 10.1673 12.4822 9.91158 12.7923C9.98267 13.3802 10.1492 13.9719 10.1932 14.5615C10.2123 14.8173 10.0012 14.8923 9.84595 15H9.61643C9.41523 14.8858 9.18096 14.7721 8.97392 14.6647C8.65252 14.4953 8.32934 14.3293 8.00442 14.1668C7.81797 14.2404 7.38363 14.4762 7.19616 14.5769C6.96727 14.6999 6.59727 14.8724 6.38334 15H6.14685C6.01569 14.9212 5.8683 14.8502 5.82739 14.6892C5.75594 14.408 6.04871 13.1781 6.09224 12.7885C5.81466 12.4941 5.49557 12.2256 5.20922 11.9388C5.07447 11.7994 4.90272 11.6724 4.79618 11.5099C4.63832 11.269 4.78969 10.8867 5.07702 10.8289C5.64752 10.714 6.24848 10.6782 6.81851 10.5681ZM5.1971 11.2845C5.40649 11.4467 5.61482 11.6844 5.81243 11.8663C6.03232 12.081 6.26302 12.2883 6.47644 12.509C6.55709 12.5925 6.58744 12.6617 6.5689 12.7746C6.47317 13.3575 6.38016 13.9537 6.26761 14.5328C6.52769 14.3964 7.80329 13.689 8.01116 13.6642C8.17134 13.7045 8.50954 13.8944 8.67234 13.9792L9.73451 14.5306L9.52267 13.3209C9.49736 13.1759 9.47074 13.0312 9.44707 12.8854C9.42773 12.7663 9.40298 12.6597 9.48553 12.5579C9.66401 12.3378 9.89317 12.1583 10.0926 11.9572C10.3166 11.7489 10.5741 11.472 10.8027 11.282C10.3868 11.2184 9.97032 11.158 9.55344 11.1007C9.44621 11.0857 8.96796 11.0313 8.91347 10.9913C8.68354 10.8224 8.14283 9.38895 7.99154 9.28392C7.80597 9.64667 7.62323 10.0109 7.44335 10.3764C7.06837 11.1295 7.20547 10.9966 6.3742 11.1145L5.1971 11.2845Z" fill="#FF751F"/>
<path d="M11.3346 9.46967C11.5521 9.06087 11.7408 8.62079 11.9721 8.2192C12.0034 8.16488 12.0519 8.11382 12.1077 8.08381C12.2097 8.028 12.33 8.01615 12.441 8.051C12.6824 8.1292 12.805 8.48042 12.9113 8.69573L13.2928 9.46141C13.6037 9.53672 13.971 9.55013 14.2897 9.60967C14.6647 9.67971 14.7975 9.61191 15 9.97385V10.1854C14.7535 10.6042 14.1806 10.9757 13.9384 11.3039C13.8319 11.4482 14.2405 12.5781 14.0865 12.9015C14.0379 13.0033 13.9499 13.081 13.8428 13.1165C13.7772 13.1394 13.7064 13.1428 13.639 13.1261C13.4941 13.0904 13.2556 12.9516 13.1149 12.8789C12.8486 12.7413 12.5894 12.5968 12.3179 12.4675C12.2051 12.5086 12.0698 12.592 11.9599 12.6448C11.6591 12.7893 11.3118 13.0061 11.007 13.1286C10.8321 13.068 10.684 12.8939 10.8012 12.771C11.0337 12.5274 11.6121 12.3252 11.917 12.1357C12.0343 12.0628 12.2122 11.9842 12.3059 11.9566C12.4979 12.0094 12.726 12.1439 12.9085 12.2395C13.156 12.3711 13.4049 12.4998 13.6553 12.6256C13.6044 12.405 13.5688 12.1391 13.5288 11.9131C13.4955 11.7251 13.3599 11.2201 13.4832 11.0821C13.7859 10.7433 14.1612 10.4506 14.4651 10.1115C14.0373 10.0632 13.5977 9.98313 13.1695 9.92954C12.905 9.89643 12.8585 9.62202 12.7502 9.42626C12.6012 9.15695 12.4771 8.82212 12.311 8.56327C12.1039 8.95974 11.9221 9.37237 11.7089 9.76578C11.6503 9.87391 11.5846 9.90556 11.4658 9.92638C11.1491 9.98187 10.8281 10.0195 10.5099 10.067C10.3436 10.0917 10.173 10.1188 10.0052 10.1231C9.75614 10.1173 9.72036 9.7308 9.97088 9.67196C10.1306 9.63446 10.283 9.61774 10.4449 9.59519C10.7417 9.5549 11.0382 9.51307 11.3346 9.46967Z" fill="#FF751F"/>
<path d="M2.70216 9.46986L3.10897 8.65639C3.17321 8.52773 3.29206 8.27139 3.37431 8.17091C3.41873 8.11558 3.47823 8.07431 3.54562 8.05209C3.65348 8.01641 3.77735 8.02954 3.87715 8.08289C3.93598 8.11364 3.98653 8.15813 4.02448 8.2126C4.09788 8.31594 4.20581 8.54856 4.26621 8.67054L4.65762 9.46243C5.11111 9.55798 5.59308 9.57218 6.04413 9.68269C6.23949 9.7364 6.24912 9.98814 6.09443 10.093C6.05922 10.1168 5.98621 10.1284 5.94528 10.124C5.59281 10.0859 5.24178 10.0253 4.88998 9.97996C4.75985 9.96319 4.62687 9.94828 4.49952 9.91833C4.3736 9.88772 4.31819 9.83552 4.26063 9.72077C4.12811 9.46442 4.00371 9.19856 3.87468 8.94009C3.82506 8.84071 3.75542 8.68225 3.69467 8.59665L3.67207 8.59497C3.57646 8.71993 3.48291 8.96979 3.40349 9.11305C3.27623 9.34259 3.17725 9.62446 3.02318 9.83501C2.94488 9.94204 2.55446 9.97362 2.42484 9.99143L1.67279 10.0948C1.61378 10.1026 1.57785 10.1065 1.51703 10.1052C1.72573 10.3129 1.93684 10.5181 2.15029 10.7209C2.2672 10.8328 2.5928 11.0875 2.56851 11.2506C2.50384 11.6847 2.4456 12.2001 2.34347 12.6241C2.62195 12.4927 2.90232 12.33 3.17852 12.191C3.33766 12.111 3.50862 12.0063 3.67922 11.9581C3.83361 12.0016 3.96785 12.0799 4.10953 12.1534C4.38547 12.2969 4.66231 12.4406 4.93762 12.5852C5.02199 12.6295 5.1592 12.7014 5.20596 12.7843C5.28185 12.9188 5.17442 13.049 5.05773 13.1074C5.04335 13.1146 5.02881 13.1215 5.01413 13.128C4.83675 13.0754 4.71294 12.9943 4.55137 12.9148C4.26836 12.7757 3.96799 12.5937 3.68254 12.4673C3.39999 12.5911 3.10138 12.7707 2.82254 12.9086C2.69395 12.9722 2.50384 13.0899 2.37089 13.1224C2.2898 13.143 2.20426 13.137 2.12679 13.1054C2.02638 13.0647 1.94204 12.9846 1.89972 12.8845C1.87742 12.8306 1.86637 12.7727 1.86724 12.7144C1.86868 12.5915 1.9071 12.4306 1.92395 12.3077C1.96599 12.0008 2.06512 11.6148 2.08979 11.3151C1.85349 11.0832 1.13293 10.4348 1 10.2003V9.95906C1.09841 9.80056 1.14751 9.70544 1.34079 9.66883C1.78344 9.58499 2.26131 9.5476 2.70216 9.46986Z" fill="#FF751F"/>
<path d="M7.58075 1H8.41627C8.5074 1.03833 8.78892 1.06786 8.91641 1.09817C9.43887 1.21799 9.93419 1.43484 10.3766 1.73745C11.2973 2.36752 11.9286 3.33882 12.1306 4.43602C12.3351 5.53327 12.0933 6.66676 11.4589 7.58506C11.0345 8.1997 10.4546 8.69069 9.77833 9.00789C9.65223 9.06833 9.4955 9.14775 9.35986 9.17443C9.24615 9.19678 9.20515 9.17106 9.11501 9.10869C9.05353 8.96048 9.04804 8.92825 9.12861 8.78336C9.24711 8.70347 9.43142 8.64746 9.5616 8.58691C9.68432 8.52983 10.2958 8.21189 10.3118 8.09297C10.4224 7.2679 9.98006 6.54658 9.21905 6.22512C9.01393 6.30796 8.89705 6.4174 8.61783 6.50797C8.16144 6.65344 7.66831 6.63291 7.22558 6.45001C7.07388 6.38778 6.92565 6.30224 6.77823 6.22748C6.18483 6.44086 5.75256 7.01977 5.68404 7.64084C5.66653 7.79958 5.66385 7.94941 5.66434 8.10849C5.81601 8.24073 5.99974 8.35528 6.17394 8.45377C6.29777 8.52378 6.8804 8.7607 6.91905 8.85555C6.94415 8.91716 6.93014 9.00224 6.90272 9.06076C6.87922 9.11092 6.83914 9.14741 6.7865 9.16493C6.6095 9.22385 6.31214 9.05569 6.15048 8.97571C5.14485 8.48098 4.37769 7.60607 4.0186 6.54442C3.66416 5.48522 3.74403 4.32872 4.24067 3.32828C4.73685 2.32074 5.61917 1.55649 6.68719 1.20914C6.82909 1.16346 6.96568 1.12554 7.11107 1.09236C7.23425 1.06425 7.46086 1.04223 7.57005 1.00387L7.58075 1ZM5.20412 7.66583C5.31505 6.92356 5.61192 6.35086 6.26664 5.94703C6.29192 5.93145 6.37221 5.885 6.38069 5.86268C6.36938 5.82133 6.15822 5.51633 6.11369 5.42598C5.80624 4.79503 5.8313 4.05274 6.18063 3.44396C6.45528 2.96287 6.91104 2.6117 7.44623 2.46874C7.68784 2.40366 8 2.37087 8.24939 2.41061C8.8399 2.49915 9.32703 2.76232 9.68731 3.24752C10.0203 3.69972 10.1589 4.26617 10.0723 4.82103C10.0126 5.21658 9.84438 5.56137 9.58901 5.86728C10.3741 6.33619 10.6405 6.79146 10.8044 7.67506C10.9613 7.46566 11.1079 7.2761 11.2395 7.0481C11.6508 6.32913 11.8108 5.49369 11.6944 4.67366C11.5556 3.68495 11.0254 2.79342 10.2231 2.19926C9.4585 1.62898 8.64449 1.43094 7.7107 1.48535C6.81749 1.51479 5.8823 1.99541 5.2755 2.64195C4.60283 3.36053 4.24138 4.31584 4.26993 5.29972C4.29662 6.12247 4.62534 7.07094 5.20412 7.66583ZM8.11622 6.12623C9.01358 6.06148 9.68887 5.28207 9.62518 4.38465C9.56149 3.48723 8.78289 2.81102 7.88539 2.87365C6.98639 2.93639 6.3088 3.71657 6.37261 4.61549C6.4364 5.51441 7.21738 6.19107 8.11622 6.12623Z" stroke="#FF751F" stroke-width="0.2"/>
<path d="M6.81851 10.5681C7.11244 10.0616 7.34599 9.4319 7.66477 8.93841C7.79845 8.77565 8.0691 8.75277 8.24026 8.86196C8.34091 8.92616 8.40942 9.02041 8.45652 9.12144C8.68023 9.60125 8.95148 10.0778 9.16632 10.5599C9.56512 10.6476 10.0488 10.6825 10.4582 10.7531C10.5775 10.7736 10.8633 10.8029 10.9672 10.8431C11.0613 10.8796 11.1414 10.9449 11.1963 11.0296C11.2626 11.1328 11.2845 11.2584 11.257 11.378C11.1877 11.6774 10.1673 12.4822 9.91158 12.7923C9.98267 13.3802 10.1492 13.9719 10.1932 14.5615C10.2123 14.8173 10.0012 14.8923 9.84595 15H9.61643C9.41523 14.8858 9.18096 14.7721 8.97392 14.6647C8.65252 14.4953 8.32934 14.3293 8.00442 14.1668C7.81797 14.2404 7.38363 14.4762 7.19616 14.5769C6.96727 14.6999 6.59727 14.8724 6.38334 15H6.14685C6.01569 14.9212 5.8683 14.8502 5.82739 14.6892C5.75594 14.408 6.04871 13.1781 6.09224 12.7885C5.81466 12.4941 5.49557 12.2256 5.20922 11.9388C5.07447 11.7994 4.90272 11.6724 4.79618 11.5099C4.63832 11.269 4.78969 10.8867 5.07702 10.8289C5.64752 10.714 6.24848 10.6782 6.81851 10.5681ZM5.1971 11.2845C5.40649 11.4467 5.61482 11.6844 5.81243 11.8663C6.03232 12.081 6.26302 12.2883 6.47644 12.509C6.55709 12.5925 6.58744 12.6617 6.5689 12.7746C6.47317 13.3575 6.38016 13.9537 6.26761 14.5328C6.52769 14.3964 7.80329 13.689 8.01116 13.6642C8.17134 13.7045 8.50954 13.8944 8.67234 13.9792L9.73451 14.5306L9.52267 13.3209C9.49736 13.1759 9.47074 13.0312 9.44707 12.8854C9.42773 12.7663 9.40298 12.6597 9.48553 12.5579C9.66401 12.3378 9.89317 12.1583 10.0926 11.9572C10.3166 11.7489 10.5741 11.472 10.8027 11.282C10.3868 11.2184 9.97032 11.158 9.55344 11.1007C9.44621 11.0857 8.96796 11.0313 8.91347 10.9913C8.68354 10.8224 8.14283 9.38895 7.99154 9.28392C7.80597 9.64667 7.62323 10.0109 7.44335 10.3764C7.06837 11.1295 7.20547 10.9966 6.3742 11.1145L5.1971 11.2845Z" stroke="#FF751F" stroke-width="0.2"/>
<path d="M11.3346 9.46967C11.5521 9.06087 11.7408 8.62079 11.9721 8.2192C12.0034 8.16488 12.0519 8.11382 12.1077 8.08381C12.2097 8.028 12.33 8.01615 12.441 8.051C12.6824 8.1292 12.805 8.48042 12.9113 8.69573L13.2928 9.46141C13.6037 9.53672 13.971 9.55013 14.2897 9.60967C14.6647 9.67971 14.7975 9.61191 15 9.97385V10.1854C14.7535 10.6042 14.1806 10.9757 13.9384 11.3039C13.8319 11.4482 14.2405 12.5781 14.0865 12.9015C14.0379 13.0033 13.9499 13.081 13.8428 13.1165C13.7772 13.1394 13.7064 13.1428 13.639 13.1261C13.4941 13.0904 13.2556 12.9516 13.1149 12.8789C12.8486 12.7413 12.5894 12.5968 12.3179 12.4675C12.2051 12.5086 12.0698 12.592 11.9599 12.6448C11.6591 12.7893 11.3118 13.0061 11.007 13.1286C10.8321 13.068 10.684 12.8939 10.8012 12.771C11.0337 12.5274 11.6121 12.3252 11.917 12.1357C12.0343 12.0628 12.2122 11.9842 12.3059 11.9566C12.4979 12.0094 12.726 12.1439 12.9085 12.2395C13.156 12.3711 13.4049 12.4998 13.6553 12.6256C13.6044 12.405 13.5688 12.1391 13.5288 11.9131C13.4955 11.7251 13.3599 11.2201 13.4832 11.0821C13.7859 10.7433 14.1612 10.4506 14.4651 10.1115C14.0373 10.0632 13.5977 9.98313 13.1695 9.92954C12.905 9.89643 12.8585 9.62202 12.7502 9.42626C12.6012 9.15695 12.4771 8.82212 12.311 8.56327C12.1039 8.95974 11.9221 9.37237 11.7089 9.76578C11.6503 9.87391 11.5846 9.90556 11.4658 9.92638C11.1491 9.98187 10.8281 10.0195 10.5099 10.067C10.3436 10.0917 10.173 10.1188 10.0052 10.1231C9.75614 10.1173 9.72036 9.7308 9.97088 9.67196C10.1306 9.63446 10.283 9.61774 10.4449 9.59519C10.7417 9.5549 11.0382 9.51307 11.3346 9.46967Z" stroke="#FF751F" stroke-width="0.2"/>
<path d="M2.70216 9.46986L3.10897 8.65639C3.17321 8.52773 3.29206 8.27139 3.37431 8.17091C3.41873 8.11558 3.47823 8.07431 3.54562 8.05209C3.65348 8.01641 3.77735 8.02954 3.87715 8.08289C3.93598 8.11364 3.98653 8.15813 4.02448 8.2126C4.09788 8.31594 4.20581 8.54856 4.26621 8.67054L4.65762 9.46243C5.11111 9.55798 5.59308 9.57218 6.04413 9.68269C6.23949 9.7364 6.24912 9.98814 6.09443 10.093C6.05922 10.1168 5.98621 10.1284 5.94528 10.124C5.59281 10.0859 5.24178 10.0253 4.88998 9.97996C4.75985 9.96319 4.62687 9.94828 4.49952 9.91833C4.3736 9.88772 4.31819 9.83552 4.26063 9.72077C4.12811 9.46442 4.00371 9.19856 3.87468 8.94009C3.82506 8.84071 3.75542 8.68225 3.69467 8.59665L3.67207 8.59497C3.57646 8.71993 3.48291 8.96979 3.40349 9.11305C3.27623 9.34259 3.17725 9.62446 3.02318 9.83501C2.94488 9.94204 2.55446 9.97362 2.42484 9.99143L1.67279 10.0948C1.61378 10.1026 1.57785 10.1065 1.51703 10.1052C1.72573 10.3129 1.93684 10.5181 2.15029 10.7209C2.2672 10.8328 2.5928 11.0875 2.56851 11.2506C2.50384 11.6847 2.4456 12.2001 2.34347 12.6241C2.62195 12.4927 2.90232 12.33 3.17852 12.191C3.33766 12.111 3.50862 12.0063 3.67922 11.9581C3.83361 12.0016 3.96785 12.0799 4.10953 12.1534C4.38547 12.2969 4.66231 12.4406 4.93762 12.5852C5.02199 12.6295 5.1592 12.7014 5.20596 12.7843C5.28185 12.9188 5.17442 13.049 5.05773 13.1074C5.04335 13.1146 5.02881 13.1215 5.01413 13.128C4.83675 13.0754 4.71294 12.9943 4.55137 12.9148C4.26836 12.7757 3.96799 12.5937 3.68254 12.4673C3.39999 12.5911 3.10138 12.7707 2.82254 12.9086C2.69395 12.9722 2.50384 13.0899 2.37089 13.1224C2.2898 13.143 2.20426 13.137 2.12679 13.1054C2.02638 13.0647 1.94204 12.9846 1.89972 12.8845C1.87742 12.8306 1.86637 12.7727 1.86724 12.7144C1.86868 12.5915 1.9071 12.4306 1.92395 12.3077C1.96599 12.0008 2.06512 11.6148 2.08979 11.3151C1.85349 11.0832 1.13293 10.4348 1 10.2003V9.95906C1.09841 9.80056 1.14751 9.70544 1.34079 9.66883C1.78344 9.58499 2.26131 9.5476 2.70216 9.46986Z" stroke="#FF751F" stroke-width="0.2"/>
</g>
</g>
<defs>
<clipPath id="clip0_0_299">
<rect width="16" height="16" fill="white"/>
</clipPath>
</defs>
</svg>
