<svg preserveAspectRatio="none" width="100%" height="100%" overflow="visible" style="display: block;" viewBox="0 0 16 16" fill="none" xmlns="http://www.w3.org/2000/svg">
<g id="Iconography">
<path id="Vector" d="M8 1.9248C9.61065 1.92651 11.155 2.56715 12.2939 3.70605C13.4328 4.84495 14.0735 6.38935 14.0752 8C14.0752 9.20152 13.7183 10.376 13.0508 11.375C12.3833 12.3738 11.435 13.1525 10.3252 13.6123C9.21513 14.0721 7.99289 14.1924 6.81445 13.958C5.63618 13.7235 4.55361 13.1454 3.7041 12.2959C2.8546 11.4464 2.27645 10.3638 2.04199 9.18555C1.80759 8.00711 1.92789 6.78487 2.3877 5.6748C2.8475 4.56497 3.62616 3.61666 4.625 2.94922C5.62403 2.28169 6.79848 1.9248 8 1.9248ZM9.91406 3.37891C9.00019 3.00038 7.99458 2.90084 7.02441 3.09375C6.05414 3.28675 5.16242 3.76336 4.46289 4.46289C3.76336 5.16242 3.28675 6.05414 3.09375 7.02441C2.90084 7.99458 3.00038 9.00019 3.37891 9.91406C3.75747 10.828 4.39822 11.6096 5.2207 12.1592C6.04326 12.7088 7.01071 13.002 8 13.002L8.24805 12.9951C9.4838 12.9324 10.6561 12.4142 11.5352 11.5352C12.4729 10.5974 13.0004 9.32612 13.002 8C13.002 7.01071 12.7088 6.04326 12.1592 5.2207C11.6096 4.39821 10.828 3.75747 9.91406 3.37891ZM9.8457 5.61719C9.9162 5.61719 9.98663 5.63123 10.0518 5.6582C10.1168 5.68518 10.1758 5.72463 10.2256 5.77441C10.2754 5.82419 10.3148 5.88322 10.3418 5.94824C10.3688 6.01337 10.3828 6.0838 10.3828 6.1543C10.3828 6.22464 10.3687 6.29439 10.3418 6.35938C10.3148 6.42441 10.2754 6.48341 10.2256 6.5332L8.75781 8L10.2256 9.4668C10.2754 9.51659 10.3148 9.57559 10.3418 9.64062C10.3687 9.70561 10.3828 9.77536 10.3828 9.8457C10.3828 9.9162 10.3688 9.98663 10.3418 10.0518C10.3148 10.1168 10.2754 10.1758 10.2256 10.2256C10.1758 10.2754 10.1168 10.3148 10.0518 10.3418C9.98663 10.3688 9.9162 10.3828 9.8457 10.3828C9.77536 10.3828 9.70561 10.3687 9.64062 10.3418C9.57559 10.3148 9.51659 10.2754 9.4668 10.2256L8 8.75781L6.5332 10.2256C6.48341 10.2754 6.42441 10.3148 6.35938 10.3418C6.29439 10.3687 6.22464 10.3828 6.1543 10.3828C6.0838 10.3828 6.01337 10.3688 5.94824 10.3418C5.88322 10.3148 5.82419 10.2754 5.77441 10.2256C5.72463 10.1758 5.68518 10.1168 5.6582 10.0518C5.63123 9.98663 5.61719 9.9162 5.61719 9.8457C5.61725 9.77536 5.63128 9.70561 5.6582 9.64062C5.68517 9.57559 5.72464 9.51659 5.77441 9.4668L7.24121 8L5.77441 6.5332C5.67388 6.43264 5.61731 6.29648 5.61719 6.1543C5.61719 6.01193 5.67375 5.87508 5.77441 5.77441C5.87508 5.67375 6.01193 5.61719 6.1543 5.61719C6.29648 5.61731 6.43264 5.67388 6.5332 5.77441L8 7.24121L9.4668 5.77441C9.51659 5.72463 9.57559 5.68517 9.64062 5.6582C9.70561 5.63128 9.77536 5.61725 9.8457 5.61719Z" fill="#FF751F" stroke="#FF751F" stroke-width="0.15"/>
</g>
</svg>
