<svg preserveAspectRatio="none" width="100%" height="100%" overflow="visible" style="display: block;" viewBox="0 0 16 16" fill="none" xmlns="http://www.w3.org/2000/svg">
<g id="Iconography">
<path id="Vector" d="M8 2C6.81331 2 5.65328 2.35189 4.66658 3.01118C3.67989 3.67047 2.91085 4.60754 2.45673 5.7039C2.0026 6.80025 1.88378 8.00666 2.11529 9.17054C2.3468 10.3344 2.91825 11.4035 3.75736 12.2426C4.59648 13.0818 5.66557 13.6532 6.82946 13.8847C7.99335 14.1162 9.19974 13.9974 10.2961 13.5433C11.3925 13.0891 12.3295 12.3201 12.9888 11.3334C13.6481 10.3467 14 9.18669 14 8C13.9983 6.40922 13.3656 4.88407 12.2408 3.75921C11.1159 2.63436 9.59078 2.00168 8 2ZM10.1727 9.51961C10.2156 9.5625 10.2496 9.6134 10.2728 9.66943C10.296 9.72546 10.308 9.78551 10.308 9.84615C10.308 9.9068 10.296 9.96685 10.2728 10.0229C10.2496 10.0789 10.2156 10.1298 10.1727 10.1727C10.1298 10.2156 10.0789 10.2496 10.0229 10.2728C9.96685 10.296 9.9068 10.3079 9.84616 10.3079C9.78551 10.3079 9.72546 10.296 9.66943 10.2728C9.61341 10.2496 9.5625 10.2156 9.51962 10.1727L8 8.6525L6.48039 10.1727C6.4375 10.2156 6.3866 10.2496 6.33057 10.2728C6.27454 10.296 6.21449 10.3079 6.15385 10.3079C6.0932 10.3079 6.03315 10.296 5.97713 10.2728C5.9211 10.2496 5.87019 10.2156 5.82731 10.1727C5.78443 10.1298 5.75041 10.0789 5.7272 10.0229C5.704 9.96685 5.69205 9.9068 5.69205 9.84615C5.69205 9.78551 5.704 9.72546 5.7272 9.66943C5.75041 9.6134 5.78443 9.5625 5.82731 9.51961L7.3475 8L5.82731 6.48038C5.74071 6.39378 5.69205 6.27632 5.69205 6.15385C5.69205 6.03137 5.74071 5.91391 5.82731 5.82731C5.91391 5.7407 6.03137 5.69205 6.15385 5.69205C6.27632 5.69205 6.39378 5.7407 6.48039 5.82731L8 7.3475L9.51962 5.82731C9.5625 5.78443 9.61341 5.75041 9.66943 5.7272C9.72546 5.70399 9.78551 5.69205 9.84616 5.69205C9.9068 5.69205 9.96685 5.70399 10.0229 5.7272C10.0789 5.75041 10.1298 5.78443 10.1727 5.82731C10.2156 5.87019 10.2496 5.9211 10.2728 5.97712C10.296 6.03315 10.308 6.0932 10.308 6.15385C10.308 6.21449 10.296 6.27454 10.2728 6.33057C10.2496 6.38659 10.2156 6.4375 10.1727 6.48038L8.6525 8L10.1727 9.51961Z" fill="#FF751F"/>
</g>
</svg>
