<svg preserveAspectRatio="none" width="100%" height="100%" overflow="visible" style="display: block;" viewBox="0 0 16 16" fill="none" xmlns="http://www.w3.org/2000/svg">
<g id="Iconography">
<path id="Vector" d="M8.46154 7.04167V12.5417C8.46154 12.6632 8.41291 12.7798 8.32636 12.8658C8.2398 12.9517 8.12241 13 8 13C7.87759 13 7.7602 12.9517 7.67364 12.8658C7.58709 12.7798 7.53846 12.6632 7.53846 12.5417V7.04167C7.53846 6.92011 7.58709 6.80353 7.67364 6.71758C7.7602 6.63162 7.87759 6.58333 8 6.58333C8.12241 6.58333 8.2398 6.63162 8.32636 6.71758C8.41291 6.80353 8.46154 6.92011 8.46154 7.04167ZM12.1538 11.1667C12.0314 11.1667 11.914 11.215 11.8275 11.3009C11.7409 11.3869 11.6923 11.5034 11.6923 11.625V12.5417C11.6923 12.6632 11.7409 12.7798 11.8275 12.8658C11.914 12.9517 12.0314 13 12.1538 13C12.2763 13 12.3936 12.9517 12.4802 12.8658C12.5668 12.7798 12.6154 12.6632 12.6154 12.5417V11.625C12.6154 11.5034 12.5668 11.3869 12.4802 11.3009C12.3936 11.215 12.2763 11.1667 12.1538 11.1667ZM13.5385 8.41667H12.6154V2.45833C12.6154 2.33678 12.5668 2.2202 12.4802 2.13424C12.3936 2.04829 12.2763 2 12.1538 2C12.0314 2 11.914 2.04829 11.8275 2.13424C11.7409 2.2202 11.6923 2.33678 11.6923 2.45833V8.41667H10.7692C10.6468 8.41667 10.5294 8.46496 10.4429 8.55091C10.3563 8.63686 10.3077 8.75344 10.3077 8.875V9.79167C10.3077 9.91322 10.3563 10.0298 10.4429 10.1158C10.5294 10.2017 10.6468 10.25 10.7692 10.25H13.5385C13.6609 10.25 13.7783 10.2017 13.8648 10.1158C13.9514 10.0298 14 9.91322 14 9.79167V8.875C14 8.75344 13.9514 8.63686 13.8648 8.55091C13.7783 8.46496 13.6609 8.41667 13.5385 8.41667ZM3.84615 9.33333C3.72375 9.33333 3.60635 9.38162 3.5198 9.46758C3.43324 9.55353 3.38462 9.67011 3.38462 9.79167V12.5417C3.38462 12.6632 3.43324 12.7798 3.5198 12.8658C3.60635 12.9517 3.72375 13 3.84615 13C3.96856 13 4.08596 12.9517 4.17251 12.8658C4.25907 12.7798 4.30769 12.6632 4.30769 12.5417V9.79167C4.30769 9.67011 4.25907 9.55353 4.17251 9.46758C4.08596 9.38162 3.96856 9.33333 3.84615 9.33333ZM5.23077 6.58333H4.30769V2.45833C4.30769 2.33678 4.25907 2.2202 4.17251 2.13424C4.08596 2.04829 3.96856 2 3.84615 2C3.72375 2 3.60635 2.04829 3.5198 2.13424C3.43324 2.2202 3.38462 2.33678 3.38462 2.45833V6.58333H2.46154C2.33913 6.58333 2.22174 6.63162 2.13518 6.71758C2.04863 6.80353 2 6.92011 2 7.04167V7.95833C2 8.07989 2.04863 8.19647 2.13518 8.28242C2.22174 8.36838 2.33913 8.41667 2.46154 8.41667H5.23077C5.35318 8.41667 5.47057 8.36838 5.55713 8.28242C5.64368 8.19647 5.69231 8.07989 5.69231 7.95833V7.04167C5.69231 6.92011 5.64368 6.80353 5.55713 6.71758C5.47057 6.63162 5.35318 6.58333 5.23077 6.58333ZM9.38462 3.83333H8.46154V2.45833C8.46154 2.33678 8.41291 2.2202 8.32636 2.13424C8.2398 2.04829 8.12241 2 8 2C7.87759 2 7.7602 2.04829 7.67364 2.13424C7.58709 2.2202 7.53846 2.33678 7.53846 2.45833V3.83333H6.61538C6.49298 3.83333 6.37558 3.88162 6.28903 3.96758C6.20247 4.05353 6.15385 4.17011 6.15385 4.29167V5.20833C6.15385 5.32989 6.20247 5.44647 6.28903 5.53242C6.37558 5.61838 6.49298 5.66667 6.61538 5.66667H9.38462C9.50702 5.66667 9.62442 5.61838 9.71097 5.53242C9.79753 5.44647 9.84615 5.32989 9.84615 5.20833V4.29167C9.84615 4.17011 9.79753 4.05353 9.71097 3.96758C9.62442 3.88162 9.50702 3.83333 9.38462 3.83333Z" fill="#FF751F"/>
</g>
</svg>
