<svg preserveAspectRatio="none" width="100%" height="100%" overflow="visible" style="display: block;" viewBox="0 0 16 16" fill="none" xmlns="http://www.w3.org/2000/svg">
<g id="Iconography">
<path id="Vector" d="M8.46154 8.04167V13.5417C8.46154 13.6632 8.41291 13.7798 8.32636 13.8658C8.2398 13.9517 8.12241 14 8 14C7.87759 14 7.7602 13.9517 7.67364 13.8658C7.58709 13.7798 7.53846 13.6632 7.53846 13.5417V8.04167C7.53846 7.92011 7.58709 7.80353 7.67364 7.71758C7.7602 7.63162 7.87759 7.58333 8 7.58333C8.12241 7.58333 8.2398 7.63162 8.32636 7.71758C8.41291 7.80353 8.46154 7.92011 8.46154 8.04167ZM12.1538 12.1667C12.0314 12.1667 11.914 12.215 11.8275 12.3009C11.7409 12.3869 11.6923 12.5034 11.6923 12.625V13.5417C11.6923 13.6632 11.7409 13.7798 11.8275 13.8658C11.914 13.9517 12.0314 14 12.1538 14C12.2763 14 12.3936 13.9517 12.4802 13.8658C12.5668 13.7798 12.6154 13.6632 12.6154 13.5417V12.625C12.6154 12.5034 12.5668 12.3869 12.4802 12.3009C12.3936 12.215 12.2763 12.1667 12.1538 12.1667ZM13.5385 10.3333H12.6154V3.45833C12.6154 3.33678 12.5668 3.2202 12.4802 3.13424C12.3936 3.04829 12.2763 3 12.1538 3C12.0314 3 11.914 3.04829 11.8275 3.13424C11.7409 3.2202 11.6923 3.33678 11.6923 3.45833V10.3333H10.7692C10.6468 10.3333 10.5294 10.3816 10.4429 10.4676C10.3563 10.5535 10.3077 10.6701 10.3077 10.7917C10.3077 10.9132 10.3563 11.0298 10.4429 11.1158C10.5294 11.2017 10.6468 11.25 10.7692 11.25H13.5385C13.6609 11.25 13.7783 11.2017 13.8648 11.1158C13.9514 11.0298 14 10.9132 14 10.7917C14 10.6701 13.9514 10.5535 13.8648 10.4676C13.7783 10.3816 13.6609 10.3333 13.5385 10.3333ZM3.84615 10.3333C3.72375 10.3333 3.60635 10.3816 3.5198 10.4676C3.43324 10.5535 3.38462 10.6701 3.38462 10.7917V13.5417C3.38462 13.6632 3.43324 13.7798 3.5198 13.8658C3.60635 13.9517 3.72375 14 3.84615 14C3.96856 14 4.08596 13.9517 4.17251 13.8658C4.25907 13.7798 4.30769 13.6632 4.30769 13.5417V10.7917C4.30769 10.6701 4.25907 10.5535 4.17251 10.4676C4.08596 10.3816 3.96856 10.3333 3.84615 10.3333ZM5.23077 8.5H4.30769V3.45833C4.30769 3.33678 4.25907 3.2202 4.17251 3.13424C4.08596 3.04829 3.96856 3 3.84615 3C3.72375 3 3.60635 3.04829 3.5198 3.13424C3.43324 3.2202 3.38462 3.33678 3.38462 3.45833V8.5H2.46154C2.33913 8.5 2.22174 8.54829 2.13518 8.63424C2.04863 8.7202 2 8.83678 2 8.95833C2 9.07989 2.04863 9.19647 2.13518 9.28242C2.22174 9.36838 2.33913 9.41667 2.46154 9.41667H5.23077C5.35318 9.41667 5.47057 9.36838 5.55713 9.28242C5.64368 9.19647 5.69231 9.07989 5.69231 8.95833C5.69231 8.83678 5.64368 8.7202 5.55713 8.63424C5.47057 8.54829 5.35318 8.5 5.23077 8.5ZM9.38462 5.75H8.46154V3.45833C8.46154 3.33678 8.41291 3.2202 8.32636 3.13424C8.2398 3.04829 8.12241 3 8 3C7.87759 3 7.7602 3.04829 7.67364 3.13424C7.58709 3.2202 7.53846 3.33678 7.53846 3.45833V5.75H6.61538C6.49298 5.75 6.37558 5.79829 6.28903 5.88424C6.20247 5.9702 6.15385 6.08678 6.15385 6.20833C6.15385 6.32989 6.20247 6.44647 6.28903 6.53242C6.37558 6.61838 6.49298 6.66667 6.61538 6.66667H9.38462C9.50702 6.66667 9.62442 6.61838 9.71097 6.53242C9.79753 6.44647 9.84615 6.32989 9.84615 6.20833C9.84615 6.08678 9.79753 5.9702 9.71097 5.88424C9.62442 5.79829 9.50702 5.75 9.38462 5.75Z" fill="#FF751F"/>
</g>
</svg>
