<svg preserveAspectRatio="none" width="100%" height="100%" overflow="visible" style="display: block;" viewBox="0 0 16 16" fill="none" xmlns="http://www.w3.org/2000/svg">
<g id="Iconography">
<path id="Vector" d="M10.9321 2H11.3957L11.4055 2.00417C11.51 2.04771 11.6378 2.06784 11.7486 2.11276C12.1312 2.27082 12.4357 2.57363 12.596 2.95525C12.6997 3.20017 12.7213 3.4049 12.722 3.6669C13.1458 4.1087 13.3167 4.62569 13.153 5.23554C13.0977 5.44154 13.01 5.5692 12.9052 5.75024C13.1665 6.46287 13.0844 6.94467 12.6003 7.52946C12.6354 7.69545 12.6593 7.81823 12.6573 7.99083C13.0226 8.00633 13.3946 7.97362 13.7537 8.02144C13.8716 8.03711 13.9488 8.16633 14 8.25984V10.1381L13.9966 10.1485C13.9507 10.2909 13.9378 10.496 13.9055 10.6485C13.684 11.6964 13.0062 12.7102 12.0996 13.2904C12.3853 13.3132 12.6926 13.2688 12.9723 13.3137C13.2538 13.3589 13.3435 13.7532 13.1096 13.9188C13.0687 13.9503 13.0336 13.9733 12.9872 14H3.01231C2.82391 13.8888 2.69325 13.7727 2.7741 13.5378C2.88096 13.2273 3.23255 13.3016 3.48909 13.2959C3.62641 13.2929 3.76102 13.2995 3.90001 13.2939C2.93578 12.6183 2.26995 11.6848 2.06929 10.5088C2.05435 10.4212 2.03289 10.2396 2 10.1651V8.25037C2.02603 8.20806 2.06672 8.13889 2.10137 8.10633C2.14885 8.0615 2.20673 8.02918 2.26979 8.01225C2.38507 7.98164 2.82404 7.99838 2.96653 8.00044C2.94104 7.89477 2.94104 7.76401 2.9344 7.65545C2.8619 6.47029 3.67026 5.27892 4.82429 4.95258C4.79182 4.75099 4.78842 4.53042 4.79916 4.32742C4.81737 3.98352 4.94532 2.96469 5.19666 2.74546C5.2799 2.67286 5.3973 2.66632 5.50251 2.67345C6.15423 2.71757 7.00868 3.00558 7.53479 3.38667C7.7333 3.53047 7.89485 3.69574 8.05579 3.87874C8.13825 3.83287 8.26965 3.7824 8.35889 3.74858C8.64309 2.85422 9.10378 2.49559 10.044 2.4686C10.2145 2.28656 10.4187 2.16361 10.6552 2.08721C10.7402 2.05979 10.8416 2.03559 10.9223 2.00391L10.9321 2ZM12.2389 12.2734C12.8543 11.6522 13.1716 10.9727 13.2783 10.112L6.09864 10.1122L3.80473 10.1123L3.09701 10.1128C2.98854 10.113 2.8273 10.1198 2.72388 10.1116C2.81608 11.0469 3.27868 11.9064 4.00852 12.4986C4.43062 12.8444 4.92743 13.0871 5.4596 13.2077C5.94283 13.3166 6.39672 13.297 6.88685 13.297L8.17746 13.2965L9.26342 13.2968C9.5555 13.2969 9.83696 13.3039 10.1277 13.2736C10.9585 13.187 11.641 12.8395 12.2389 12.2734ZM6.69302 7.99418C7.11451 8.00464 7.55745 7.99906 7.9805 7.99868C8.22719 7.99845 8.56753 8.00904 8.80722 7.99685C8.99213 7.61794 9.175 7.17944 9.34655 6.79138L10.1064 5.06938C10.2024 4.8599 10.2641 4.61775 10.5459 4.62592C10.5964 4.62738 10.643 4.63827 10.6885 4.6603C10.7733 4.70161 10.8376 4.77552 10.8668 4.86514C10.9282 5.05315 10.7549 5.34762 10.6759 5.52627L10.3131 6.34626L9.83635 7.42476C9.76629 7.58386 9.66533 7.83522 9.58807 7.98368C9.58571 7.98824 9.5833 7.99276 9.58082 7.99726C10.3644 7.99973 11.1762 7.98604 11.9564 7.99947C11.9507 7.92995 11.9455 7.85584 11.929 7.78896C11.8774 7.58037 11.7444 7.38871 11.9125 7.19406C11.9755 7.12115 12.0522 7.06508 12.118 6.99776C12.2802 6.82876 12.363 6.59886 12.3459 6.36525C12.3148 5.94787 11.9234 5.77842 12.2368 5.42853C12.4329 5.22882 12.5265 5.02276 12.5066 4.74023C12.4891 4.49288 12.3639 4.27707 12.1695 4.12481C11.9394 3.94453 11.9951 3.82724 12.0112 3.57045C12.0266 3.32562 11.8957 3.06344 11.7089 2.90419C11.5463 2.76617 11.336 2.6976 11.1233 2.71325C11.1068 2.71459 11.0903 2.71646 11.0739 2.71886C10.8172 2.74887 10.6702 2.83524 10.4974 3.02492C10.4374 3.09087 10.381 3.14766 10.2974 3.18413C10.2113 3.22168 10.1008 3.20133 10.0094 3.19501C9.70728 3.1741 9.43462 3.24635 9.23973 3.49231C9.01092 3.7811 9.10704 4.07519 8.97365 4.25269C8.83436 4.43802 8.47495 4.38378 8.22908 4.61876C7.82226 5.00754 8.06591 5.32598 7.9273 5.57477C7.78877 5.82342 7.35615 5.74838 7.15251 6.24501C7.10049 6.37189 7.07711 6.51336 7.0928 6.65004C7.11672 6.85848 7.30466 7.11493 7.15316 7.30742C7.10398 7.3699 7.03774 7.42325 6.97985 7.47777C6.81989 7.62839 6.75028 7.78568 6.69302 7.99418ZM13.2947 9.40297L13.2986 8.7092L5.71566 8.70596L3.63256 8.70551L3.06578 8.70704C2.96369 8.70774 2.80388 8.71489 2.70677 8.70137C2.70245 8.93522 2.70142 9.16911 2.70371 9.40298L9.78624 9.40445L12.1239 9.40444C12.4644 9.40444 12.9633 9.42 13.2947 9.40297ZM3.68438 7.99393C4.04673 7.99951 4.40912 8.00088 4.77148 7.99806C5.17439 7.99824 5.58542 7.99422 5.98768 8.00022C6.01972 7.60519 6.18611 7.30074 6.44095 7.00813C6.36539 6.6568 6.35647 6.39667 6.47608 6.04969C6.50914 5.9538 6.55985 5.85691 6.59199 5.76688C6.20394 5.5996 5.97095 5.51996 5.53305 5.54385C4.21964 5.6385 3.45733 6.71737 3.68438 7.99393ZM7.52727 4.35694C7.13258 3.8608 6.69646 3.67008 6.09035 3.49833C6.00109 3.47304 5.73386 3.43182 5.66827 3.40101C5.53016 3.80279 5.46656 4.40954 5.51848 4.82457C6.21654 4.82394 6.50875 4.9441 7.10341 5.25166C7.13857 5.2331 7.24468 5.18696 7.25402 5.14999C7.28757 4.93868 7.31789 4.77044 7.41266 4.57332C7.44788 4.50007 7.49423 4.42603 7.52727 4.35694Z" fill="#FF751F"/>
</g>
</svg>
