<svg preserveAspectRatio="none" width="100%" height="100%" overflow="visible" style="display: block;" viewBox="0 0 16 16" fill="none" xmlns="http://www.w3.org/2000/svg">
<g id="Iconography">
<g id="Vector">
<path d="M8.05026 2.00584C8.15104 1.99122 8.25899 2.00384 8.35151 2.04618C8.63682 2.17678 8.9193 2.31506 9.20218 2.45079L12.7733 4.16443C13.1182 4.32995 13.4635 4.49315 13.8067 4.66351C14.0325 4.77559 14.1495 4.87793 14.1653 5.14837C14.1912 5.4209 14.1522 5.72903 14.1684 5.99768C14.2155 6.77629 13.5364 6.67768 12.9674 6.66334L12.9686 9.28882C12.9687 9.77243 12.9776 10.2862 12.9645 10.7679C13.3783 10.7723 14.1559 10.6613 14.1657 11.2645C14.1676 11.4041 14.1123 11.5384 14.0126 11.6361C13.8052 11.8395 13.3378 11.7831 13.0537 11.7831L3.24201 11.7835C2.92551 11.7838 2.48137 11.8026 2.16994 11.7526C2.11782 11.7442 2.01074 11.6679 1.97012 11.6264C1.87749 11.5327 1.82676 11.4054 1.82946 11.2737C1.84571 10.6522 2.5999 10.7645 3.02774 10.7811C3.0143 9.40925 3.01579 8.03732 3.03222 6.66554C2.28476 6.6639 1.74102 6.78922 1.82783 5.80111C1.85801 5.45775 1.70705 4.89075 2.10783 4.70081C2.50672 4.51179 2.90426 4.335 3.3026 4.1535L5.70729 3.05625L7.24579 2.35161C7.42562 2.26931 7.87633 2.05068 8.05026 2.00584ZM11.8292 5.65512C12.0334 5.65515 12.9973 5.6822 13.1348 5.64637C13.1797 5.59201 13.172 5.49521 13.1134 5.45671C12.9671 5.36048 12.7983 5.28779 12.6401 5.21181L11.695 4.76134C11.2594 4.55262 8.29604 3.08396 8.11654 3.06606C7.78176 3.20114 7.4056 3.38357 7.07163 3.53604L3.75258 5.05226C3.57355 5.13387 2.89251 5.40017 2.82626 5.55198C2.82585 5.61145 2.81916 5.58818 2.8539 5.63942C3.02366 5.6609 3.30694 5.65503 3.48327 5.65509L11.8292 5.65512ZM7.01594 6.66053C6.99287 8.0174 7.04576 9.42353 7.00849 10.7712L8.37802 10.7746C8.54652 10.7748 8.81937 10.7835 8.98035 10.7739C9.00841 9.41756 8.95349 8.01225 8.98922 6.66753C8.55013 6.66076 8.11099 6.65887 7.67185 6.66189C7.4949 6.66257 7.17858 6.67514 7.01594 6.66053ZM9.97965 10.7721C10.6267 10.7749 11.3256 10.7594 11.9667 10.7785C11.9542 10.5854 11.9643 10.312 11.9653 10.1126L11.9664 8.99273L11.9654 7.4989C11.9652 7.23704 11.9575 6.92445 11.9689 6.66514C11.5468 6.66081 11.1247 6.65981 10.7026 6.66214C10.4781 6.66264 10.2072 6.67009 9.98761 6.65861C9.97143 7.60428 9.99252 8.55873 9.9848 9.50501C9.98168 9.88872 10.0028 10.3978 9.97965 10.7721ZM6.01244 10.7746C6.00126 10.5978 6.01224 10.3514 6.01349 10.1668L6.01455 9.12732C6.01437 8.35042 5.98999 7.43059 6.01763 6.66543C5.57638 6.66093 5.13508 6.65978 4.69382 6.66198C4.50526 6.6624 4.2141 6.67364 4.03349 6.66214L4.03251 9.3804C4.03266 9.80807 4.04816 10.3485 4.02763 10.7691C4.65116 10.7763 5.39366 10.7929 6.01244 10.7746Z" fill="#FF751F"/>
<path d="M1.47447 12.822C1.70228 12.8103 1.98565 12.8178 2.21913 12.818L13.5931 12.8174C13.8739 12.8173 14.5644 12.773 14.7737 12.9096C14.8866 12.9822 14.965 13.0977 14.9907 13.2295C15.0486 13.5357 14.8289 13.7756 14.5359 13.8285C14.0951 13.8581 13.3446 13.8355 12.885 13.8355L4.22954 13.8352C3.37209 13.8352 2.51351 13.8346 1.65596 13.838C1.54809 13.8319 1.44688 13.8399 1.34383 13.8014C1.00926 13.6763 0.90212 13.3277 1.09195 13.0294C1.17927 12.8922 1.31917 12.8483 1.47447 12.822Z" fill="#FF751F"/>
</g>
</g>
</svg>
