<svg preserveAspectRatio="none" width="100%" height="100%" overflow="visible" style="display: block;" viewBox="0 0 16 16" fill="none" xmlns="http://www.w3.org/2000/svg">
<g id="Iconography">
<path id="Vector" d="M4.80557 9.10448C4.80693 9.13218 4.80276 9.15988 4.79332 9.18588C4.78387 9.21188 4.76936 9.23565 4.75065 9.25573C4.73193 9.27582 4.70942 9.2918 4.68448 9.30271C4.65953 9.31362 4.63268 9.31923 4.60555 9.31919H2.39927C2.30898 9.31933 2.2213 9.28824 2.15048 9.23097C2.07966 9.17371 2.02988 9.09363 2.00923 9.00377C1.99636 8.94226 1.99696 8.87861 2.01096 8.81737C2.02497 8.75612 2.05204 8.6988 2.09024 8.64949C2.44318 8.17098 2.91148 7.79421 3.44941 7.55599C3.21324 7.33585 3.03211 7.06108 2.92118 6.75466C2.81025 6.44825 2.77275 6.11912 2.81183 5.79485C2.85091 5.47057 2.96543 5.16059 3.14579 4.89087C3.32615 4.62114 3.5671 4.39953 3.84847 4.24458C4.12984 4.08963 4.44343 4.00587 4.76297 4.0003C5.08252 3.99473 5.39872 4.06752 5.68509 4.21257C5.97146 4.35762 6.21967 4.57071 6.40892 4.83399C6.59817 5.09727 6.72295 5.40308 6.77282 5.72581C6.77926 5.76921 6.77165 5.81357 6.75116 5.85214C6.73067 5.89071 6.69842 5.92139 6.65931 5.9395C6.10443 6.20174 5.63451 6.62078 5.30499 7.14715C4.97547 7.67352 4.8001 8.28527 4.79957 8.91022C4.79957 8.97565 4.79957 9.04007 4.80557 9.10448ZM13.9067 8.64898C13.5546 8.17102 13.0873 7.79446 12.5505 7.55599C12.7867 7.33585 12.9678 7.06108 13.0788 6.75466C13.1897 6.44825 13.2272 6.11912 13.1881 5.79485C13.149 5.47057 13.0345 5.16059 12.8542 4.89087C12.6738 4.62114 12.4328 4.39953 12.1515 4.24458C11.8701 4.08963 11.5565 4.00587 11.237 4.0003C10.9174 3.99473 10.6012 4.06752 10.3149 4.21257C10.0285 4.35762 9.78028 4.57071 9.59103 4.83399C9.40178 5.09727 9.27699 5.40308 9.22713 5.72581C9.22069 5.76921 9.22829 5.81357 9.24878 5.85214C9.26927 5.89071 9.30153 5.92139 9.34064 5.9395C9.89551 6.20174 10.3654 6.62078 10.695 7.14715C11.0245 7.67352 11.1998 8.28527 11.2004 8.91022C11.2004 8.97565 11.2004 9.04007 11.1944 9.10448C11.193 9.13218 11.1972 9.15988 11.2066 9.18588C11.2161 9.21188 11.2306 9.23565 11.2493 9.25573C11.268 9.27582 11.2905 9.2918 11.3155 9.30271C11.3404 9.31362 11.3673 9.31923 11.3944 9.31919H13.6007C13.691 9.31933 13.7786 9.28824 13.8495 9.23097C13.9203 9.17371 13.9701 9.09363 13.9907 9.00377C14.0037 8.94215 14.0031 8.87836 13.989 8.81701C13.9749 8.75566 13.9476 8.69827 13.9092 8.64898H13.9067ZM9.45615 10.8564C9.85448 10.5446 10.1472 10.113 10.2932 9.62223C10.4392 9.1315 10.431 8.60635 10.27 8.12058C10.1089 7.6348 9.80305 7.21283 9.3953 6.91397C8.98755 6.61512 8.49844 6.45439 7.99672 6.45439C7.495 6.45439 7.0059 6.61512 6.59815 6.91397C6.19039 7.21283 5.8845 7.6348 5.72345 8.12058C5.5624 8.60635 5.55429 9.1315 5.70027 9.62223C5.84624 10.113 6.13897 10.5446 6.53729 10.8564C5.83047 11.1695 5.24026 11.7057 4.85308 12.3865C4.81796 12.4487 4.79948 12.5192 4.79948 12.591C4.79949 12.6628 4.81798 12.7334 4.8531 12.7956C4.88822 12.8577 4.93874 12.9094 4.99957 12.9452C5.06039 12.9811 5.12939 13 5.19962 13H10.8003C10.8706 13 10.9396 12.9811 11.0004 12.9452C11.0612 12.9094 11.1117 12.8577 11.1468 12.7956C11.182 12.7334 11.2005 12.6628 11.2005 12.591C11.2005 12.5192 11.182 12.4487 11.1469 12.3865C10.7589 11.7053 10.1675 11.169 9.45965 10.8564H9.45615Z" fill="#FF751F"/>
</g>
</svg>
