<svg preserveAspectRatio="none" width="100%" height="100%" overflow="visible" style="display: block;" viewBox="0 0 16 16" fill="none" xmlns="http://www.w3.org/2000/svg">
<g id="Iconography">
<path id="Vector" d="M15.7851 9.44988C15.7291 9.4919 15.6653 9.52247 15.5975 9.53985C15.5296 9.55723 15.459 9.56108 15.3897 9.55117C15.3204 9.54127 15.2537 9.51781 15.1934 9.48213C15.1332 9.44645 15.0805 9.39925 15.0385 9.34322C14.7171 8.91118 14.2987 8.56064 13.8171 8.31982C13.3354 8.079 12.804 7.95462 12.2655 7.95671C12.1606 7.9567 12.0581 7.92578 11.9707 7.8678C11.8833 7.80982 11.815 7.72737 11.7742 7.63075C11.7465 7.56514 11.7323 7.49465 11.7323 7.42344C11.7323 7.35223 11.7465 7.28174 11.7742 7.21613C11.815 7.11951 11.8833 7.03706 11.9707 6.97908C12.0581 6.9211 12.1606 6.89018 12.2655 6.89017C12.5647 6.89014 12.8579 6.8062 13.1118 6.64789C13.3657 6.48957 13.5701 6.26323 13.7018 5.99456C13.8335 5.7259 13.8873 5.42568 13.8569 5.12801C13.8265 4.83034 13.7133 4.54715 13.5301 4.31061C13.3468 4.07407 13.1009 3.89365 12.8203 3.78986C12.5397 3.68607 12.2355 3.66306 11.9425 3.72345C11.6494 3.78383 11.3792 3.92519 11.1624 4.13147C10.9457 4.33775 10.7911 4.60068 10.7163 4.89039C10.6988 4.95823 10.6681 5.02196 10.626 5.07794C10.5838 5.13392 10.5311 5.18105 10.4707 5.21664C10.4104 5.25223 10.3436 5.27559 10.2742 5.28538C10.2049 5.29516 10.1342 5.29119 10.0664 5.27368C9.99856 5.25618 9.93483 5.22548 9.87885 5.18334C9.82287 5.1412 9.77574 5.08845 9.74015 5.0281C9.70456 4.96775 9.6812 4.90098 9.67142 4.8316C9.66163 4.76222 9.6656 4.6916 9.68311 4.62376C9.78694 4.22201 9.98309 3.85004 10.256 3.53745C10.5289 3.22485 10.8709 2.98026 11.255 2.82313C11.639 2.666 12.0544 2.60067 12.4682 2.63233C12.8819 2.664 13.2825 2.7918 13.6382 3.00555C13.9938 3.2193 14.2947 3.5131 14.5168 3.86359C14.7389 4.21407 14.8762 4.61156 14.9177 5.02443C14.9591 5.4373 14.9037 5.85414 14.7557 6.24181C14.6077 6.62947 14.3713 6.97724 14.0653 7.25746C14.7904 7.57142 15.4208 8.06964 15.8937 8.70263C15.9358 8.7588 15.9663 8.8227 15.9836 8.89068C16.0008 8.95866 16.0045 9.02938 15.9944 9.0988C15.9844 9.16821 15.9607 9.23495 15.9247 9.29519C15.8888 9.35544 15.8414 9.408 15.7851 9.44988ZM12.1935 13.5561C12.2321 13.6168 12.258 13.6847 12.2697 13.7556C12.2813 13.8266 12.2785 13.8992 12.2614 13.969C12.2443 14.0389 12.2132 14.1046 12.1701 14.1621C12.1269 14.2197 12.0726 14.2679 12.0103 14.3039C11.9481 14.3399 11.8792 14.3629 11.8078 14.3716C11.7364 14.3802 11.6639 14.3744 11.5949 14.3543C11.5258 14.3343 11.4615 14.3005 11.4058 14.2549C11.3502 14.2094 11.3043 14.1531 11.2709 14.0894C10.935 13.5205 10.4566 13.0491 9.88284 12.7216C9.30911 12.3942 8.65991 12.2219 7.9993 12.2219C7.33869 12.2219 6.68949 12.3942 6.11576 12.7216C5.54203 13.0491 5.0636 13.5205 4.72767 14.0894C4.69433 14.1531 4.64845 14.2094 4.59278 14.2549C4.53711 14.3005 4.4728 14.3343 4.40373 14.3543C4.33465 14.3744 4.26224 14.3802 4.19084 14.3716C4.11944 14.3629 4.05054 14.3399 3.98827 14.3039C3.926 14.2679 3.87166 14.2197 3.82851 14.1621C3.78536 14.1046 3.75429 14.0389 3.73718 13.969C3.72007 13.8992 3.71727 13.8266 3.72894 13.7556C3.74061 13.6847 3.76652 13.6168 3.80511 13.5561C4.32211 12.6678 5.11042 11.9687 6.05419 11.5616C5.52313 11.155 5.13284 10.5923 4.93818 9.95237C4.74352 9.3125 4.75427 8.6277 4.96892 7.99425C5.18357 7.36079 5.59133 6.81053 6.13489 6.4208C6.67845 6.03108 7.33047 5.82148 7.9993 5.82148C8.66813 5.82148 9.32015 6.03108 9.86371 6.4208C10.4073 6.81053 10.815 7.36079 11.0297 7.99425C11.2443 8.6277 11.2551 9.3125 11.0604 9.95237C10.8658 10.5923 10.4755 11.155 9.94441 11.5616C10.8882 11.9687 11.6765 12.6678 12.1935 13.5561ZM7.9993 11.1564C8.42119 11.1564 8.8336 11.0312 9.18438 10.7969C9.53517 10.5625 9.80857 10.2293 9.97002 9.83956C10.1315 9.44979 10.1737 9.02089 10.0914 8.60711C10.0091 8.19333 9.80594 7.81325 9.50762 7.51494C9.20931 7.21662 8.82922 7.01346 8.41545 6.93115C8.00167 6.84885 7.57277 6.89109 7.183 7.05254C6.79323 7.21399 6.46009 7.48739 6.2257 7.83818C5.99131 8.18896 5.86621 8.60137 5.86621 9.02326C5.86621 9.58899 6.09094 10.1316 6.49098 10.5316C6.89101 10.9316 7.43357 11.1564 7.9993 11.1564ZM4.26639 7.42344C4.26639 7.28201 4.2102 7.14637 4.1102 7.04636C4.01019 6.94635 3.87455 6.89017 3.73311 6.89017C3.4339 6.89014 3.14069 6.8062 2.88679 6.64789C2.63289 6.48957 2.42847 6.26323 2.29676 5.99456C2.16505 5.7259 2.11133 5.42568 2.14169 5.12801C2.17206 4.83034 2.28529 4.54715 2.46853 4.31061C2.65177 4.07407 2.89767 3.89365 3.17831 3.78986C3.45895 3.68607 3.76306 3.66306 4.05612 3.72345C4.34918 3.78383 4.61943 3.92519 4.83617 4.13147C5.05292 4.33775 5.20747 4.60068 5.28227 4.89039C5.31763 5.02741 5.40597 5.14476 5.52785 5.21664C5.64974 5.28852 5.79519 5.30904 5.9322 5.27368C6.06921 5.23832 6.18657 5.14999 6.25845 5.0281C6.33033 4.90622 6.35085 4.76077 6.31549 4.62376C6.21166 4.22201 6.01551 3.85004 5.74263 3.53745C5.46975 3.22485 5.12768 2.98026 4.74364 2.82313C4.35959 2.666 3.94418 2.60067 3.53044 2.63233C3.11671 2.664 2.71607 2.7918 2.36042 3.00555C2.00477 3.2193 1.70391 3.5131 1.48178 3.86359C1.25966 4.21407 1.1224 4.61156 1.08093 5.02443C1.03945 5.4373 1.09491 5.85414 1.24289 6.24181C1.39087 6.62947 1.62728 6.97724 1.93332 7.25746C1.20892 7.57172 0.57928 8.06992 0.106857 8.70263C0.0219088 8.81578 -0.0146129 8.95803 0.00532621 9.09811C0.0252653 9.23818 0.100032 9.3646 0.213178 9.44955C0.326324 9.53449 0.468582 9.57102 0.608656 9.55108C0.74873 9.53114 0.875146 9.45637 0.960094 9.34322C1.28152 8.91118 1.69989 8.56064 2.18153 8.31982C2.66317 8.079 3.19463 7.95462 3.73311 7.95671C3.87455 7.95671 4.01019 7.90053 4.1102 7.80052C4.2102 7.70051 4.26639 7.56487 4.26639 7.42344Z" fill="#FF751F"/>
</g>
</svg>
