<svg preserveAspectRatio="none" width="100%" height="100%" overflow="visible" style="display: block;" viewBox="0 0 16 16" fill="none" xmlns="http://www.w3.org/2000/svg">
<g id="Iconography">
<path id="Vector" d="M8.69231 11C8.69231 11.1369 8.65171 11.2708 8.57563 11.3846C8.49956 11.4985 8.39144 11.5872 8.26494 11.6396C8.13843 11.692 7.99923 11.7057 7.86494 11.679C7.73064 11.6523 7.60729 11.5864 7.51047 11.4895C7.41365 11.3927 7.34771 11.2694 7.321 11.1351C7.29428 11.0008 7.30799 10.8616 7.36039 10.7351C7.41279 10.6086 7.50153 10.5004 7.61538 10.4244C7.72923 10.3483 7.86308 10.3077 8 10.3077C8.18361 10.3077 8.3597 10.3806 8.48954 10.5105C8.61937 10.6403 8.69231 10.8164 8.69231 11ZM8 4.76923C6.72731 4.76923 5.69231 5.70096 5.69231 6.84615V7.07692C5.69231 7.19933 5.74094 7.31672 5.82749 7.40328C5.91405 7.48983 6.03144 7.53846 6.15385 7.53846C6.27626 7.53846 6.39365 7.48983 6.4802 7.40328C6.56676 7.31672 6.61539 7.19933 6.61539 7.07692V6.84615C6.61539 6.21154 7.23673 5.69231 8 5.69231C8.76327 5.69231 9.38462 6.21154 9.38462 6.84615C9.38462 7.48077 8.76327 8 8 8C7.87759 8 7.7602 8.04862 7.67364 8.13518C7.58709 8.22174 7.53846 8.33913 7.53846 8.46154V8.92308C7.53846 9.04548 7.58709 9.16288 7.67364 9.24943C7.7602 9.33599 7.87759 9.38461 8 9.38461C8.12241 9.38461 8.2398 9.33599 8.32636 9.24943C8.41291 9.16288 8.46154 9.04548 8.46154 8.92308V8.88154C9.51385 8.68827 10.3077 7.84885 10.3077 6.84615C10.3077 5.70096 9.27269 4.76923 8 4.76923ZM14 8C14 9.18669 13.6481 10.3467 12.9888 11.3334C12.3295 12.3201 11.3925 13.0891 10.2961 13.5433C9.19974 13.9974 7.99335 14.1162 6.82946 13.8847C5.66557 13.6532 4.59648 13.0818 3.75736 12.2426C2.91825 11.4035 2.3468 10.3344 2.11529 9.17054C1.88378 8.00666 2.0026 6.80025 2.45673 5.7039C2.91085 4.60754 3.67989 3.67047 4.66658 3.01118C5.65328 2.35189 6.81331 2 8 2C9.59078 2.00168 11.1159 2.63436 12.2408 3.75921C13.3656 4.88407 13.9983 6.40922 14 8ZM13.0769 8C13.0769 6.99588 12.7792 6.01431 12.2213 5.17941C11.6634 4.34452 10.8705 3.69379 9.94286 3.30953C9.01517 2.92527 7.99437 2.82473 7.00954 3.02063C6.02472 3.21652 5.1201 3.70005 4.41008 4.41007C3.70006 5.12009 3.21653 6.02471 3.02063 7.00954C2.82474 7.99437 2.92528 9.01517 3.30954 9.94285C3.6938 10.8705 4.34452 11.6634 5.17941 12.2213C6.01431 12.7792 6.99588 13.0769 8 13.0769C9.34602 13.0754 10.6365 12.54 11.5882 11.5882C12.54 10.6365 13.0754 9.34601 13.0769 8Z" fill="#FF751F"/>
</g>
</svg>
