<svg preserveAspectRatio="none" width="100%" height="100%" overflow="visible" style="display: block;" viewBox="0 0 16 16" fill="none" xmlns="http://www.w3.org/2000/svg">
<g id="Iconography">
<path id="Vector" d="M8 2C6.81331 2 5.65328 2.35189 4.66658 3.01118C3.67989 3.67047 2.91085 4.60754 2.45673 5.7039C2.0026 6.80025 1.88378 8.00666 2.11529 9.17054C2.3468 10.3344 2.91825 11.4035 3.75736 12.2426C4.59648 13.0818 5.66557 13.6532 6.82946 13.8847C7.99335 14.1162 9.19974 13.9974 10.2961 13.5433C11.3925 13.0891 12.3295 12.3201 12.9888 11.3334C13.6481 10.3467 14 9.18669 14 8C13.9983 6.40922 13.3656 4.88407 12.2408 3.75921C11.1159 2.63436 9.59078 2.00168 8 2ZM8 11.6923C7.86308 11.6923 7.72923 11.6517 7.61538 11.5756C7.50153 11.4996 7.41279 11.3914 7.36039 11.2649C7.30799 11.1384 7.29428 10.9992 7.321 10.8649C7.34771 10.7306 7.41365 10.6073 7.51047 10.5105C7.60729 10.4136 7.73064 10.3477 7.86494 10.321C7.99923 10.2943 8.13843 10.308 8.26494 10.3604C8.39144 10.4128 8.49956 10.5015 8.57563 10.6154C8.65171 10.7292 8.69231 10.8631 8.69231 11C8.69231 11.1836 8.61937 11.3597 8.48954 11.4895C8.3597 11.6194 8.18361 11.6923 8 11.6923ZM8.46154 8.88154V8.92308C8.46154 9.04548 8.41291 9.16288 8.32636 9.24943C8.2398 9.33599 8.12241 9.38461 8 9.38461C7.87759 9.38461 7.7602 9.33599 7.67364 9.24943C7.58709 9.16288 7.53846 9.04548 7.53846 8.92308V8.46154C7.53846 8.33913 7.58709 8.22174 7.67364 8.13518C7.7602 8.04862 7.87759 8 8 8C8.76327 8 9.38462 7.48077 9.38462 6.84615C9.38462 6.21154 8.76327 5.69231 8 5.69231C7.23673 5.69231 6.61539 6.21154 6.61539 6.84615V7.07692C6.61539 7.19933 6.56676 7.31672 6.4802 7.40328C6.39365 7.48983 6.27626 7.53846 6.15385 7.53846C6.03144 7.53846 5.91405 7.48983 5.82749 7.40328C5.74094 7.31672 5.69231 7.19933 5.69231 7.07692V6.84615C5.69231 5.70096 6.72731 4.76923 8 4.76923C9.27269 4.76923 10.3077 5.70096 10.3077 6.84615C10.3077 7.84885 9.51385 8.68827 8.46154 8.88154Z" fill="#FF751F"/>
</g>
</svg>
