<svg preserveAspectRatio="none" width="100%" height="100%" overflow="visible" style="display: block;" viewBox="0 0 16 16" fill="none" xmlns="http://www.w3.org/2000/svg">
<g id="Iconography">
<path id="Vector" d="M13.2191 7.08089L8.42742 2.28095C8.24772 2.10105 8.00406 2 7.75 2C7.49594 2 7.25228 2.10105 7.07258 2.28095L2.28092 7.08089C2.1915 7.1698 2.12061 7.27563 2.07239 7.39223C2.02416 7.50883 1.99956 7.63387 2.00001 7.76008V13.52C2.00001 13.6473 2.05049 13.7694 2.14035 13.8594C2.23021 13.9494 2.35209 14 2.47917 14H6.3125C6.43958 14 6.56146 13.9494 6.65132 13.8594C6.74118 13.7694 6.79167 13.6473 6.79167 13.52V10.16H8.70833V13.52C8.70833 13.6473 8.75882 13.7694 8.84868 13.8594C8.93854 13.9494 9.06042 14 9.1875 14H13.0208C13.1479 14 13.2698 13.9494 13.3597 13.8594C13.4495 13.7694 13.5 13.6473 13.5 13.52V7.76008C13.5004 7.63387 13.4758 7.50883 13.4276 7.39223C13.3794 7.27563 13.3085 7.1698 13.2191 7.08089ZM12.5417 13.04H9.66667V9.68006C9.66667 9.55275 9.61618 9.43067 9.52632 9.34065C9.43646 9.25063 9.31458 9.20006 9.1875 9.20006H6.3125C6.18542 9.20006 6.06354 9.25063 5.97368 9.34065C5.88382 9.43067 5.83334 9.55275 5.83334 9.68006V13.04H2.95834V7.76008L7.75 2.96014L12.5417 7.76008V13.04Z" fill="#FF751F"/>
</g>
</svg>
