<svg preserveAspectRatio="none" width="100%" height="100%" overflow="visible" style="display: block;" viewBox="0 0 16 16" fill="none" xmlns="http://www.w3.org/2000/svg">
<g id="Iconography" clip-path="url(#clip0_0_165)">
<g id="Vector">
<path d="M7.95979 0C8.05737 0.00228454 8.16265 0.0184548 8.25062 0.0612024C8.67084 0.265402 9.09215 0.479313 9.50963 0.688342L14.4218 3.14727C14.8369 3.35493 15.2605 3.56289 15.6708 3.77793C15.8178 3.85498 15.9355 3.94874 15.9634 4.12432C16.0278 4.53082 15.9801 5.02129 15.9908 5.44068C15.9694 5.74057 16.0257 6.09102 15.9845 6.38585C15.8609 7.27127 15.0944 6.84561 14.663 6.58197C14.6296 8.44884 14.6659 10.3775 14.6573 12.2512C15.0228 12.2477 15.4439 12.3069 15.451 12.7788C15.4535 12.9227 15.3982 13.0615 15.2976 13.1643C15.1753 13.29 15.041 13.3239 14.8724 13.3275C14.5152 13.3352 14.1565 13.3317 13.7993 13.3315C12.9105 13.3273 12.0217 13.3289 11.1329 13.3361C10.9494 13.6139 10.728 13.937 10.4921 14.1694C10.0802 14.5754 9.5748 14.919 9.1184 15.2773C8.83648 15.4986 8.52632 15.7365 8.23027 15.9384C8.19191 15.9646 8.11098 15.987 8.06496 15.999C7.99733 16.0015 7.93318 16.0003 7.86716 15.9836C7.64131 15.9266 5.74577 14.4314 5.49566 14.1787C5.24954 13.93 5.04511 13.6452 4.8638 13.3468C4.68069 13.3229 4.07911 13.336 3.87388 13.3361L1.86655 13.3379C1.65909 13.3382 1.13514 13.3503 0.957517 13.3168C0.855672 13.2981 0.761708 13.2494 0.687637 13.177C0.479807 12.9752 0.489636 12.6277 0.685846 12.4196C0.850786 12.2446 1.10996 12.2611 1.33233 12.2605L1.33421 6.59798C1.10908 6.69314 0.887889 6.84432 0.654647 6.90836C0.40758 6.99192 0.0424917 6.81616 0.0249103 6.52389C-0.0190274 5.79343 0.00749543 5.01526 0.0125099 4.28027C0.0138988 4.07656 0.104094 3.88322 0.287804 3.79072C0.801399 3.53212 1.31649 3.27534 1.83099 3.01803L6.721 0.571085C6.99187 0.435307 7.71773 0.042911 7.95979 0ZM2.40791 6.07296C2.38135 6.5762 2.40072 7.26946 2.40094 7.78647L2.40177 10.7374C2.40184 11.2347 2.41236 11.7742 2.4001 12.2688L4.41228 12.2725C4.24273 11.7522 4.26731 11.1313 4.26553 10.5888C4.26303 9.83184 4.26608 9.07452 4.26481 8.31757C4.26545 7.98693 4.1955 7.47217 4.60846 7.34179C4.85684 7.26338 5.18469 7.43799 5.44518 7.47636C5.68647 7.50966 5.93196 7.49423 6.16718 7.431C6.60479 7.31757 6.98629 7.08041 7.33544 6.79825C7.59016 6.59239 7.72537 6.3925 8.08336 6.41776C8.26143 6.46307 8.34771 6.53828 8.48384 6.65787C8.90448 7.02739 9.41564 7.36276 9.9748 7.46277C10.1845 7.50204 10.3995 7.50312 10.6096 7.46597C10.8216 7.4263 11.0248 7.32363 11.2373 7.31746C11.3798 7.3133 11.5987 7.44723 11.6564 7.56981C11.7651 7.80105 11.7323 8.22245 11.7323 8.4749L11.7322 9.52833C11.732 10.0663 11.7562 10.8917 11.7226 11.4073C11.7039 11.6988 11.6565 11.9878 11.5812 12.27L13.5922 12.2711L13.5925 6.7712C13.5927 6.58482 13.6022 6.24732 13.5836 6.07593C13.3473 5.93419 12.9633 5.75533 12.7101 5.62855L9.16328 3.85301C8.8119 3.67711 8.45877 3.49547 8.10353 3.32761C8.05162 3.30308 7.99996 3.28409 7.94217 3.29688C7.54791 3.47978 7.13365 3.69636 6.74347 3.89173L3.21567 5.65815C2.97493 5.77864 2.63279 5.93838 2.40791 6.07296ZM7.97596 1.14301C7.53983 1.34618 7.08435 1.58384 6.6526 1.80012L2.30156 3.97864C1.90335 4.17798 1.46801 4.38629 1.08032 4.59959C1.06503 4.82549 1.0638 5.30147 1.0816 5.52963C1.40464 5.34406 1.8836 5.12333 2.22552 4.95231L6.64106 2.74349C6.95993 2.58394 7.27869 2.42407 7.59772 2.26483C7.75823 2.18473 7.8406 2.13845 8.02636 2.13203C8.31345 2.18498 9.51163 2.82957 9.85906 2.99982C11.55 3.82838 13.2339 4.71516 14.9278 5.53571C14.9288 5.37571 14.9506 4.70889 14.9002 4.6033C14.7525 4.49398 14.3171 4.28897 14.1265 4.1935L9.36164 1.80801C9.18371 1.71895 8.11502 1.16637 7.97596 1.14301ZM7.96972 7.67623C7.23094 8.22038 6.30572 8.70471 5.35549 8.56233L5.34435 8.56063C5.31357 8.94075 5.33614 9.56433 5.33542 9.96926C5.3332 11.2122 5.21558 12.2156 6.08777 13.2427C6.2048 13.3806 6.3326 13.5089 6.46998 13.6264C6.63851 13.7721 7.90472 14.7699 8.01468 14.775C8.01843 14.7751 8.02219 14.775 8.02596 14.775L8.97726 14.0504C9.2053 13.8768 9.46558 13.6878 9.67245 13.4925C10.1933 12.9958 10.5303 12.3368 10.6283 11.6233C10.681 11.2375 10.6655 10.7514 10.6655 10.3536L10.665 8.56452C10.1794 8.62672 9.6489 8.52983 9.19569 8.35309C8.88583 8.23089 8.59091 8.07369 8.31665 7.88452C8.24989 7.83898 8.03335 7.66773 7.96972 7.67623Z" fill="#FF751F"/>
<path d="M9.14416 9.6043C9.47542 9.59739 9.7197 9.77976 9.73485 10.1252C9.74365 10.3257 9.62327 10.4607 9.49082 10.5948C9.0968 10.9935 8.69855 11.3893 8.30224 11.7858C8.15133 11.937 7.97699 12.1294 7.74404 12.1244C7.42459 12.1177 7.09146 11.6895 6.87218 11.469C6.66069 11.2545 6.29553 10.9767 6.27143 10.689C6.25975 10.5462 6.30587 10.4048 6.3994 10.2965C6.49169 10.1894 6.62341 10.1243 6.76445 10.1162C7.14369 10.0939 7.46071 10.5715 7.76018 10.832C7.89124 10.6414 8.7002 9.86198 8.92285 9.68309C8.98112 9.63628 9.07023 9.61827 9.14416 9.6043Z" fill="#FF751F"/>
</g>
</g>
<defs>
<clipPath id="clip0_0_165">
<rect width="16" height="16" fill="white"/>
</clipPath>
</defs>
</svg>
