<svg preserveAspectRatio="none" width="100%" height="100%" overflow="visible" style="display: block;" viewBox="0 0 16 16" fill="none" xmlns="http://www.w3.org/2000/svg">
<g id="Iconography">
<path id="Vector" d="M13.5 7.75977V13.52C13.5 13.6473 13.4495 13.7694 13.3597 13.8594C13.2698 13.9494 13.1479 14 13.0208 14H9.66667C9.53958 14 9.41771 13.9494 9.32784 13.8594C9.23798 13.7694 9.1875 13.6473 9.1875 13.52V10.3999C9.1875 10.3362 9.16226 10.2752 9.11733 10.2302C9.0724 10.1851 9.01146 10.1599 8.94792 10.1599H6.55208C6.48854 10.1599 6.4276 10.1851 6.38267 10.2302C6.33774 10.2752 6.3125 10.3362 6.3125 10.3999V13.52C6.3125 13.6473 6.26202 13.7694 6.17216 13.8594C6.08229 13.9494 5.96042 14 5.83333 14H2.47917C2.35208 14 2.23021 13.9494 2.14034 13.8594C2.05048 13.7694 2 13.6473 2 13.52V7.75977C2.00012 7.5052 2.10116 7.26109 2.28091 7.08114L7.07258 2.28097C7.25228 2.10106 7.49594 2 7.75 2C8.00406 2 8.24772 2.10106 8.42742 2.28097L13.2191 7.08114C13.3988 7.26109 13.4999 7.5052 13.5 7.75977Z" fill="#FF751F"/>
</g>
</svg>
