<svg preserveAspectRatio="none" width="100%" height="100%" overflow="visible" style="display: block;" viewBox="0 0 16 16" fill="none" xmlns="http://www.w3.org/2000/svg">
<g id="Iconography">
<path id="Vector" d="M12.6982 3.30369C11.9922 2.59689 11.0687 2.14851 10.0766 2.03091C9.08448 1.91331 8.08168 2.13335 7.23001 2.65553C6.37833 3.1777 5.72746 3.97155 5.38243 4.90897C5.0374 5.84639 5.01832 6.87269 5.32829 7.82228L2.26056 10.8895C2.17766 10.9717 2.11193 11.0696 2.0672 11.1774C2.02247 11.2853 1.99963 11.4009 2 11.5177V13.1113C2 13.347 2.09365 13.573 2.26035 13.7397C2.42705 13.9064 2.65314 14 2.88888 14H4.66663C4.78451 14 4.89755 13.9532 4.9809 13.8699C5.06425 13.7865 5.11107 13.6735 5.11107 13.5556V12.6669H5.99995C6.11782 12.6669 6.23086 12.6201 6.31421 12.5368C6.39756 12.4534 6.44439 12.3404 6.44439 12.2226V11.3338H7.33326C7.39164 11.3339 7.44946 11.3224 7.50341 11.3001C7.55737 11.2778 7.6064 11.2451 7.6477 11.2039L8.17881 10.6723C8.62335 10.8169 9.08798 10.8902 9.55545 10.8895H9.56101C10.4396 10.8884 11.2981 10.627 12.0282 10.1383C12.7582 9.64965 13.327 8.95558 13.6627 8.14383C13.9985 7.33207 14.086 6.43905 13.9143 5.57757C13.7426 4.71609 13.3194 3.92481 12.6982 3.30369ZM13.111 6.56252C13.0504 8.45605 11.4582 9.99854 9.56156 10.0008H9.55545C9.10555 10.0015 8.65963 9.9165 8.24158 9.75025C8.15981 9.71476 8.06924 9.70469 7.98166 9.72133C7.89409 9.73797 7.81353 9.78056 7.75048 9.84357L7.14938 10.4451H5.99995C5.88208 10.4451 5.76903 10.4919 5.68568 10.5753C5.60233 10.6586 5.55551 10.7716 5.55551 10.8895V11.7782H4.66663C4.54876 11.7782 4.43572 11.825 4.35237 11.9083C4.26902 11.9917 4.22219 12.1047 4.22219 12.2226V13.1113H2.88888V11.5177L6.15717 8.25053C6.22018 8.18749 6.26278 8.10695 6.27942 8.01939C6.29607 7.93182 6.28599 7.84128 6.2505 7.75952C6.08369 7.34014 5.99865 6.89275 5.99995 6.44143C5.99995 4.54512 7.54492 2.9532 9.43879 2.89266C9.92526 2.87643 10.4099 2.96024 10.8627 3.1389C11.3154 3.31756 11.7267 3.58727 12.0709 3.93131C12.4152 4.27536 12.6851 4.68641 12.864 5.13901C13.0429 5.59161 13.127 6.07612 13.111 6.56252ZM11.3332 5.33498C11.3332 5.4668 11.2941 5.59567 11.2209 5.70528C11.1476 5.8149 11.0435 5.90033 10.9217 5.95078C10.7998 6.00123 10.6658 6.01443 10.5365 5.98871C10.4072 5.96299 10.2884 5.89951 10.1951 5.80629C10.1019 5.71307 10.0384 5.59431 10.0127 5.46501C9.98698 5.33571 10.0002 5.2017 10.0506 5.0799C10.1011 4.95811 10.1865 4.85401 10.2962 4.78077C10.4058 4.70753 10.5347 4.66843 10.6665 4.66843C10.8434 4.66843 11.0129 4.73866 11.1379 4.86366C11.263 4.98866 11.3332 5.1582 11.3332 5.33498Z" fill="#FF751F"/>
</g>
</svg>
