<svg preserveAspectRatio="none" width="100%" height="100%" overflow="visible" style="display: block;" viewBox="0 0 16 16" fill="none" xmlns="http://www.w3.org/2000/svg">
<g id="Iconography">
<path id="Vector" d="M12.6982 3.30369C11.9922 2.59689 11.0687 2.14851 10.0766 2.03091C9.08448 1.91331 8.08168 2.13335 7.23001 2.65553C6.37833 3.1777 5.72746 3.97155 5.38243 4.90897C5.0374 5.84639 5.01832 6.87269 5.32829 7.82228L2.26056 10.8895C2.17766 10.9717 2.11193 11.0696 2.0672 11.1774C2.02247 11.2853 1.99963 11.4009 2 11.5177V13.1113C2 13.347 2.09365 13.573 2.26035 13.7397C2.42705 13.9064 2.65314 14 2.88888 14H4.66663C4.78451 14 4.89755 13.9532 4.9809 13.8699C5.06425 13.7865 5.11107 13.6735 5.11107 13.5556V12.6669H5.99995C6.11782 12.6669 6.23086 12.6201 6.31421 12.5368C6.39756 12.4534 6.44439 12.3404 6.44439 12.2226V11.3338H7.33326C7.39164 11.3339 7.44946 11.3224 7.50341 11.3001C7.55737 11.2778 7.6064 11.2451 7.6477 11.2039L8.17881 10.6723C8.62335 10.8169 9.08798 10.8902 9.55545 10.8895H9.56101C10.4396 10.8884 11.2981 10.627 12.0282 10.1383C12.7582 9.64965 13.327 8.95558 13.6627 8.14383C13.9985 7.33207 14.086 6.43905 13.9143 5.57757C13.7426 4.71609 13.3194 3.92481 12.6982 3.30369ZM10.6665 6.2237C10.4907 6.2237 10.3189 6.17157 10.1727 6.07392C10.0265 5.97627 9.91261 5.83747 9.84533 5.67507C9.77806 5.51268 9.76045 5.33399 9.79475 5.16159C9.82905 4.9892 9.91371 4.83084 10.038 4.70656C10.1623 4.58227 10.3207 4.49762 10.4931 4.46333C10.6656 4.42904 10.8443 4.44664 11.0067 4.5139C11.1691 4.58117 11.3079 4.69508 11.4056 4.84123C11.5033 4.98738 11.5554 5.1592 11.5554 5.33498C11.5554 5.57068 11.4618 5.79673 11.2951 5.9634C11.1284 6.13006 10.9023 6.2237 10.6665 6.2237Z" fill="#FF751F"/>
</g>
</svg>
