<svg preserveAspectRatio="none" width="100%" height="100%" overflow="visible" style="display: block;" viewBox="0 0 16 16" fill="none" xmlns="http://www.w3.org/2000/svg">
<g id="Iconography">
<g id="Vector">
<path d="M12.992 2H8.1944C7.64 2 7.1864 2.4512 7.1864 3.008V7.8056C7.1864 8.36 7.6376 8.8136 8.1944 8.8136H12.992C13.5464 8.8136 14 8.3624 14 7.8056V3.008C14 2.4512 13.5488 2 12.992 2ZM13.52 7.8056C13.52 8.096 13.2824 8.3336 12.992 8.3336H8.1944C7.904 8.3336 7.6664 8.096 7.6664 7.8056V3.008C7.6664 2.7176 7.904 2.48 8.1944 2.48H12.992C13.2824 2.48 13.52 2.7176 13.52 3.008V7.8056Z" fill="#FF751F"/>
<path d="M3.008 14H7.8056C8.36 14 8.8136 13.5488 8.8136 12.992V9.5336C8.8136 9.4016 8.7056 9.2936 8.5736 9.2936C8.4416 9.2936 8.3336 9.4016 8.3336 9.5336V12.992C8.3336 13.2824 8.096 13.52 7.8056 13.52H3.008C2.7176 13.52 2.48 13.2824 2.48 12.992V8.1944C2.48 7.904 2.7176 7.6664 3.008 7.6664H6.4688C6.6008 7.6664 6.7088 7.5584 6.7088 7.4264C6.7088 7.2944 6.6008 7.1864 6.4688 7.1864H3.008C2.4536 7.1864 2 7.6376 2 8.1944V12.992C2 13.5488 2.4512 14 3.008 14Z" fill="#FF751F"/>
<path d="M3.4904 6.6656C3.6224 6.6656 3.7304 6.5576 3.7304 6.4256V6.4016C3.7304 5.4656 4.3616 4.676 5.2184 4.4312L5.1752 4.484C5.0936 4.5872 5.1104 4.7384 5.2136 4.8224C5.2568 4.8584 5.3096 4.8752 5.3624 4.8752C5.432 4.8752 5.504 4.844 5.5496 4.784L5.9648 4.2608C5.972 4.2536 5.9744 4.2416 5.9792 4.232C5.9864 4.2176 5.996 4.2056 6.0008 4.1888C6.0056 4.1744 6.008 4.1576 6.0104 4.1432C6.0128 4.1312 6.0176 4.1216 6.0176 4.112C6.0176 4.1072 6.0152 4.1024 6.0152 4.0976C6.0152 4.0928 6.0176 4.088 6.0152 4.0832C6.0128 4.0712 6.008 4.0616 6.0056 4.0496C6.0008 4.0352 5.9984 4.0184 5.9912 4.004C5.984 3.9896 5.9744 3.98 5.9672 3.968C5.9576 3.956 5.948 3.9416 5.936 3.932C5.9336 3.9296 5.9312 3.9248 5.9264 3.9224L5.4032 3.5072C5.3 3.4256 5.1488 3.4424 5.0648 3.5456C4.9832 3.6488 5 3.8 5.1032 3.884L5.18 3.944C4.0712 4.2128 3.2456 5.2112 3.2456 6.3992V6.4232C3.2504 6.5576 3.356 6.6656 3.4904 6.6656Z" fill="#FF751F"/>
<path d="M10.7864 11.18C10.6832 11.0984 10.532 11.1152 10.448 11.2184L10.0328 11.7416C10.0256 11.7488 10.0232 11.7608 10.0184 11.7704C10.0112 11.7848 10.0016 11.7968 9.9968 11.8136C9.992 11.828 9.9896 11.8448 9.9872 11.8616C9.9848 11.8736 9.98 11.8832 9.98 11.8928C9.98 11.8976 9.9824 11.9024 9.9824 11.9072C9.9824 11.912 9.98 11.9168 9.9824 11.9216C9.9848 11.9336 9.9896 11.9432 9.992 11.9552C9.9968 11.9696 9.9992 11.9864 10.0064 12.0008C10.0136 12.0152 10.0232 12.0248 10.0304 12.0368C10.04 12.0488 10.0496 12.0632 10.0616 12.0728C10.064 12.0752 10.0664 12.08 10.0712 12.0824L10.5944 12.4976C10.6376 12.5336 10.6904 12.5504 10.7432 12.5504C10.8128 12.5504 10.8848 12.5192 10.9304 12.4592C11.012 12.356 10.9952 12.2048 10.892 12.1208L10.8152 12.0608C11.924 11.792 12.7496 10.7936 12.7496 9.6056V9.5816C12.7496 9.4496 12.6416 9.3416 12.5096 9.3416C12.3776 9.3416 12.2696 9.4496 12.2696 9.5816V9.6056C12.2696 10.5416 11.6384 11.3312 10.7816 11.576L10.8248 11.5232C10.9064 11.4128 10.8896 11.2616 10.7864 11.18Z" fill="#FF751F"/>
<path d="M6.4424 12.5768C6.5744 12.5768 6.6824 12.4688 6.6824 12.3368V10.076H7.2128C7.3448 10.076 7.4528 9.968 7.4528 9.836C7.4528 9.704 7.3448 9.596 7.2128 9.596H6.6176L5.4248 8.708C5.3048 8.6048 5.1392 8.5808 4.9928 8.648C4.8488 8.7152 4.7576 8.8544 4.7576 9.0152C4.7576 9.032 4.76 9.0488 4.7624 9.0656L4.8752 9.5984H3.6008C3.4688 9.5984 3.3608 9.7064 3.3608 9.8384C3.3608 9.9704 3.4688 10.0784 3.6008 10.0784H4.532V10.4096C4.0424 10.52 3.6728 10.9592 3.6728 11.4824C3.6728 12.0872 4.1648 12.5816 4.772 12.5816C5.3768 12.5816 5.8712 12.0896 5.8712 11.4824C5.8712 11.3504 5.7632 11.2424 5.6312 11.2424C5.4992 11.2424 5.3912 11.3504 5.3912 11.4824C5.3912 11.8232 5.1128 12.1016 4.772 12.1016C4.4312 12.1016 4.1528 11.8232 4.1528 11.4824C4.1528 11.1416 4.4312 10.8632 4.772 10.8632C4.904 10.8632 5.012 10.7552 5.012 10.6232V10.0784H6.2024V12.3392C6.2024 12.4688 6.3104 12.5768 6.4424 12.5768ZM5.2832 9.2L5.8136 9.5936H5.3672L5.2832 9.2Z" fill="#FF751F"/>
<path d="M11.972 3.7232H9.2168C9.0848 3.7232 8.9768 3.8312 8.9768 3.9632C8.9768 4.0952 9.0848 4.2032 9.2168 4.2032H10.3544V6.8504C10.3544 6.9824 10.4624 7.0904 10.5944 7.0904C10.7264 7.0904 10.8344 6.9824 10.8344 6.8504V4.2032H11.972C12.104 4.2032 12.212 4.0952 12.212 3.9632C12.212 3.8312 12.104 3.7232 11.972 3.7232Z" fill="#FF751F"/>
<path d="M12.992 2H8.1944C7.64 2 7.1864 2.4512 7.1864 3.008V7.8056C7.1864 8.36 7.6376 8.8136 8.1944 8.8136H12.992C13.5464 8.8136 14 8.3624 14 7.8056V3.008C14 2.4512 13.5488 2 12.992 2ZM13.52 7.8056C13.52 8.096 13.2824 8.3336 12.992 8.3336H8.1944C7.904 8.3336 7.6664 8.096 7.6664 7.8056V3.008C7.6664 2.7176 7.904 2.48 8.1944 2.48H12.992C13.2824 2.48 13.52 2.7176 13.52 3.008V7.8056Z" stroke="#FF751F" stroke-width="0.1"/>
<path d="M3.008 14H7.8056C8.36 14 8.8136 13.5488 8.8136 12.992V9.5336C8.8136 9.4016 8.7056 9.2936 8.5736 9.2936C8.4416 9.2936 8.3336 9.4016 8.3336 9.5336V12.992C8.3336 13.2824 8.096 13.52 7.8056 13.52H3.008C2.7176 13.52 2.48 13.2824 2.48 12.992V8.1944C2.48 7.904 2.7176 7.6664 3.008 7.6664H6.4688C6.6008 7.6664 6.7088 7.5584 6.7088 7.4264C6.7088 7.2944 6.6008 7.1864 6.4688 7.1864H3.008C2.4536 7.1864 2 7.6376 2 8.1944V12.992C2 13.5488 2.4512 14 3.008 14Z" stroke="#FF751F" stroke-width="0.1"/>
<path d="M3.4904 6.6656C3.6224 6.6656 3.7304 6.5576 3.7304 6.4256V6.4016C3.7304 5.4656 4.3616 4.676 5.2184 4.4312L5.1752 4.484C5.0936 4.5872 5.1104 4.7384 5.2136 4.8224C5.2568 4.8584 5.3096 4.8752 5.3624 4.8752C5.432 4.8752 5.504 4.844 5.5496 4.784L5.9648 4.2608C5.972 4.2536 5.9744 4.2416 5.9792 4.232C5.9864 4.2176 5.996 4.2056 6.0008 4.1888C6.0056 4.1744 6.008 4.1576 6.0104 4.1432C6.0128 4.1312 6.0176 4.1216 6.0176 4.112C6.0176 4.1072 6.0152 4.1024 6.0152 4.0976C6.0152 4.0928 6.0176 4.088 6.0152 4.0832C6.0128 4.0712 6.008 4.0616 6.0056 4.0496C6.0008 4.0352 5.9984 4.0184 5.9912 4.004C5.984 3.9896 5.9744 3.98 5.9672 3.968C5.9576 3.956 5.948 3.9416 5.936 3.932C5.9336 3.9296 5.9312 3.9248 5.9264 3.9224L5.4032 3.5072C5.3 3.4256 5.1488 3.4424 5.0648 3.5456C4.9832 3.6488 5 3.8 5.1032 3.884L5.18 3.944C4.0712 4.2128 3.2456 5.2112 3.2456 6.3992V6.4232C3.2504 6.5576 3.356 6.6656 3.4904 6.6656Z" stroke="#FF751F" stroke-width="0.1"/>
<path d="M10.7864 11.18C10.6832 11.0984 10.532 11.1152 10.448 11.2184L10.0328 11.7416C10.0256 11.7488 10.0232 11.7608 10.0184 11.7704C10.0112 11.7848 10.0016 11.7968 9.9968 11.8136C9.992 11.828 9.9896 11.8448 9.9872 11.8616C9.9848 11.8736 9.98 11.8832 9.98 11.8928C9.98 11.8976 9.9824 11.9024 9.9824 11.9072C9.9824 11.912 9.98 11.9168 9.9824 11.9216C9.9848 11.9336 9.9896 11.9432 9.992 11.9552C9.9968 11.9696 9.9992 11.9864 10.0064 12.0008C10.0136 12.0152 10.0232 12.0248 10.0304 12.0368C10.04 12.0488 10.0496 12.0632 10.0616 12.0728C10.064 12.0752 10.0664 12.08 10.0712 12.0824L10.5944 12.4976C10.6376 12.5336 10.6904 12.5504 10.7432 12.5504C10.8128 12.5504 10.8848 12.5192 10.9304 12.4592C11.012 12.356 10.9952 12.2048 10.892 12.1208L10.8152 12.0608C11.924 11.792 12.7496 10.7936 12.7496 9.6056V9.5816C12.7496 9.4496 12.6416 9.3416 12.5096 9.3416C12.3776 9.3416 12.2696 9.4496 12.2696 9.5816V9.6056C12.2696 10.5416 11.6384 11.3312 10.7816 11.576L10.8248 11.5232C10.9064 11.4128 10.8896 11.2616 10.7864 11.18Z" stroke="#FF751F" stroke-width="0.1"/>
<path d="M6.4424 12.5768C6.5744 12.5768 6.6824 12.4688 6.6824 12.3368V10.076H7.2128C7.3448 10.076 7.4528 9.968 7.4528 9.836C7.4528 9.704 7.3448 9.596 7.2128 9.596H6.6176L5.4248 8.708C5.3048 8.6048 5.1392 8.5808 4.9928 8.648C4.8488 8.7152 4.7576 8.8544 4.7576 9.0152C4.7576 9.032 4.76 9.0488 4.7624 9.0656L4.8752 9.5984H3.6008C3.4688 9.5984 3.3608 9.7064 3.3608 9.8384C3.3608 9.9704 3.4688 10.0784 3.6008 10.0784H4.532V10.4096C4.0424 10.52 3.6728 10.9592 3.6728 11.4824C3.6728 12.0872 4.1648 12.5816 4.772 12.5816C5.3768 12.5816 5.8712 12.0896 5.8712 11.4824C5.8712 11.3504 5.7632 11.2424 5.6312 11.2424C5.4992 11.2424 5.3912 11.3504 5.3912 11.4824C5.3912 11.8232 5.1128 12.1016 4.772 12.1016C4.4312 12.1016 4.1528 11.8232 4.1528 11.4824C4.1528 11.1416 4.4312 10.8632 4.772 10.8632C4.904 10.8632 5.012 10.7552 5.012 10.6232V10.0784H6.2024V12.3392C6.2024 12.4688 6.3104 12.5768 6.4424 12.5768ZM5.2832 9.2L5.8136 9.5936H5.3672L5.2832 9.2Z" stroke="#FF751F" stroke-width="0.1"/>
<path d="M11.972 3.7232H9.2168C9.0848 3.7232 8.9768 3.8312 8.9768 3.9632C8.9768 4.0952 9.0848 4.2032 9.2168 4.2032H10.3544V6.8504C10.3544 6.9824 10.4624 7.0904 10.5944 7.0904C10.7264 7.0904 10.8344 6.9824 10.8344 6.8504V4.2032H11.972C12.104 4.2032 12.212 4.0952 12.212 3.9632C12.212 3.8312 12.104 3.7232 11.972 3.7232Z" stroke="#FF751F" stroke-width="0.1"/>
</g>
</g>
</svg>
