<svg preserveAspectRatio="none" width="100%" height="100%" overflow="visible" style="display: block;" viewBox="0 0 16 16" fill="none" xmlns="http://www.w3.org/2000/svg">
<g id="Iconography">
<path id="Vector" d="M8.5 4.57145C8.07618 4.57145 7.66187 4.69713 7.30948 4.93259C6.95709 5.16806 6.68243 5.50273 6.52024 5.89429C6.35805 6.28585 6.31561 6.71671 6.3983 7.13239C6.48098 7.54807 6.68507 7.92989 6.98476 8.22958C7.28444 8.52926 7.66627 8.73335 8.08195 8.81604C8.49762 8.89872 8.92848 8.85628 9.32004 8.69409C9.7116 8.5319 10.0463 8.25725 10.2817 7.90485C10.5172 7.55246 10.6429 7.13815 10.6429 6.71433C10.6429 6.14601 10.4171 5.60096 10.0152 5.19909C9.61338 4.79722 9.06833 4.57145 8.5 4.57145ZM8.5 8.00006C8.24571 8.00006 7.99712 7.92465 7.78569 7.78338C7.57425 7.6421 7.40946 7.44129 7.31214 7.20636C7.21483 6.97142 7.18937 6.71291 7.23898 6.4635C7.28859 6.21409 7.41104 5.985 7.59085 5.80519C7.77067 5.62537 7.99976 5.50292 8.24917 5.45331C8.49857 5.4037 8.75709 5.42916 8.99203 5.52648C9.22696 5.62379 9.42777 5.78858 9.56904 6.00002C9.71032 6.21146 9.78573 6.46004 9.78573 6.71433C9.78573 7.05533 9.65027 7.38236 9.40915 7.62348C9.16803 7.8646 8.841 8.00006 8.5 8.00006ZM8.5 2C7.25012 2.00142 6.05183 2.49856 5.16803 3.38236C4.28423 4.26616 3.78709 5.46445 3.78567 6.71433C3.78567 8.39649 4.563 10.1794 6.03569 11.8706C6.69742 12.6349 7.4422 13.323 8.25625 13.9224C8.32831 13.9729 8.41416 14 8.50214 14C8.59013 14 8.67598 13.9729 8.74804 13.9224C9.56059 13.3228 10.3039 12.6346 10.9643 11.8706C12.4349 10.1794 13.2143 8.39649 13.2143 6.71433C13.2129 5.46445 12.7158 4.26616 11.832 3.38236C10.9482 2.49856 9.74988 2.00142 8.5 2ZM8.5 13.0358C7.61446 12.3394 4.64282 9.78133 4.64282 6.71433C4.64282 5.69134 5.0492 4.71026 5.77256 3.98689C6.49592 3.26353 7.47701 2.85715 8.5 2.85715C9.52299 2.85715 10.5041 3.26353 11.2274 3.98689C11.9508 4.71026 12.3572 5.69134 12.3572 6.71433C12.3572 9.78026 9.38554 12.3394 8.5 13.0358Z" fill="#FF751F"/>
</g>
</svg>
