<svg preserveAspectRatio="none" width="100%" height="100%" overflow="visible" style="display: block;" viewBox="0 0 16 16" fill="none" xmlns="http://www.w3.org/2000/svg">
<g id="Iconography">
<path id="Vector" d="M8.5 2C7.30694 2.00142 6.16313 2.49856 5.31951 3.38236C4.47589 4.26616 4.00135 5.46445 4 6.71433C4 10.7483 8.09091 13.7949 8.26528 13.9224C8.33407 13.9729 8.41602 14 8.5 14C8.58398 14 8.66593 13.9729 8.73472 13.9224C8.90909 13.7949 13 10.7483 13 6.71433C12.9986 5.46445 12.5241 4.26616 11.6805 3.38236C10.8369 2.49856 9.69306 2.00142 8.5 2ZM8.5 5.00003C8.82364 5.00003 9.14002 5.10057 9.40911 5.28894C9.67821 5.47731 9.88795 5.74505 10.0118 6.0583C10.1357 6.37155 10.1681 6.71623 10.1049 7.04878C10.0418 7.38132 9.88593 7.68678 9.65708 7.92653C9.42823 8.16628 9.13666 8.32955 8.81924 8.3957C8.50182 8.46184 8.1728 8.42789 7.87379 8.29814C7.57478 8.16839 7.31922 7.94866 7.13941 7.66675C6.95961 7.38483 6.86364 7.05339 6.86364 6.71433C6.86364 6.25967 7.03604 5.82363 7.34292 5.50214C7.64979 5.18064 8.06601 5.00003 8.5 5.00003Z" fill="#FF751F"/>
</g>
</svg>
