<svg preserveAspectRatio="none" width="100%" height="100%" overflow="visible" style="display: block;" viewBox="0 0 16 16" fill="none" xmlns="http://www.w3.org/2000/svg">
<g id="Iconography">
<g id="Vector">
<path d="M13.0881 4.78648C13.2974 4.83463 13.5061 4.70395 13.5542 4.49457C13.6024 4.28524 13.4717 4.07649 13.2624 4.02838L10.6896 3.43682C10.4803 3.38867 10.2716 3.51935 10.2235 3.72873C10.1754 3.93806 10.306 4.14681 10.5153 4.19492L13.0881 4.78648Z" fill="#FF751F"/>
<path fill-rule="evenodd" clip-rule="evenodd" d="M11.8889 7.22322C13.6071 7.22322 15 5.83012 15 4.11161C15 2.39311 13.6071 1 11.8889 1C10.1707 1 8.77778 2.39311 8.77778 4.11161C8.77778 5.83012 10.1707 7.22322 11.8889 7.22322ZM11.8889 6.44532C13.1775 6.44532 14.2222 5.40048 14.2222 4.11161C14.2222 2.82274 13.1775 1.7779 11.8889 1.7779C10.6002 1.7779 9.55556 2.82274 9.55556 4.11161C9.55556 5.40048 10.6002 6.44532 11.8889 6.44532Z" fill="#FF751F"/>
<path fill-rule="evenodd" clip-rule="evenodd" d="M5.19152 2.26221C4.93972 1.66641 4.09762 1.60631 3.75936 2.16L1.11387 6.48997C0.808702 6.98946 1.14991 7.62715 1.74507 7.66962L6.35978 7.99895C6.95494 8.04142 7.38793 7.459 7.16078 6.92151L5.19152 2.26221ZM4.42634 2.56086C4.42576 2.56156 4.42459 2.56304 4.42304 2.56561L1.78167 6.88888C1.78243 6.88938 1.78423 6.89047 1.7863 6.89117C1.78826 6.89187 1.79266 6.89312 1.80043 6.89366L6.41512 7.22299C6.4229 7.22357 6.42764 7.22295 6.43006 7.22248C6.43262 7.22202 6.43441 7.22136 6.43585 7.22066C6.43772 7.2198 6.43958 7.21855 6.44126 7.21704L4.47515 2.5651C4.47441 2.56335 4.47379 2.56218 4.4734 2.56145C4.47111 2.56012 4.46411 2.55682 4.45252 2.55596C4.43968 2.55506 4.43109 2.55791 4.42829 2.55927L4.42634 2.56086Z" fill="#FF751F"/>
<path fill-rule="evenodd" clip-rule="evenodd" d="M12.4275 12.8083C13.5954 12.2636 14.1007 10.875 13.5561 9.70691C13.0115 8.53881 11.6232 8.03345 10.4552 8.57813L6.22581 10.5507C5.05786 11.0954 4.55258 12.4839 5.09718 13.652C5.64182 14.8201 7.03007 15.3255 8.19802 14.7808L12.4275 12.8083ZM6.5545 11.2557C5.77587 11.6188 5.43901 12.5445 5.80208 13.3232C6.16518 14.102 7.0907 14.4389 7.86933 14.0758L9.60611 13.2657L8.29143 10.446L6.5545 11.2557ZM10.311 12.937L8.99622 10.1169L10.7839 9.28315C11.5626 8.92002 12.4881 9.25693 12.8512 10.0357C13.2142 10.8144 12.8774 11.7401 12.0987 12.1032L10.311 12.937Z" fill="#FF751F"/>
</g>
</g>
</svg>
