<svg preserveAspectRatio="none" width="100%" height="100%" overflow="visible" style="display: block;" viewBox="0 0 16 16" fill="none" xmlns="http://www.w3.org/2000/svg">
<g id="Iconography">
<g id="Vector">
<path fill-rule="evenodd" clip-rule="evenodd" d="M14 4.66667C14 6.13943 12.8061 7.33333 11.3333 7.33333C9.86057 7.33333 8.66667 6.13943 8.66667 4.66667C8.66667 3.19391 9.86057 2 11.3333 2C12.8061 2 14 3.19391 14 4.66667ZM12.7608 4.9949C12.7195 5.17433 12.5406 5.28633 12.3612 5.24507L10.156 4.7381C9.9766 4.69687 9.8646 4.51797 9.90583 4.33857C9.9471 4.15917 10.126 4.04713 10.3054 4.0884L12.5106 4.59537C12.69 4.6366 12.802 4.8155 12.7608 4.9949Z" fill="#FF751F"/>
<path d="M5.59273 3.08172C5.3769 2.57112 4.6551 2.51961 4.36517 2.99413L2.0976 6.70493C1.83603 7.133 2.12849 7.6795 2.63863 7.7159L6.5941 7.99813C7.10423 8.03453 7.47537 7.5354 7.28067 7.07477L5.59273 3.08172Z" fill="#FF751F"/>
<path fill-rule="evenodd" clip-rule="evenodd" d="M11.795 12.1197C12.796 11.6529 13.2292 10.463 12.7623 9.46187C12.2955 8.4608 11.1056 8.0277 10.1045 8.4945L6.47927 10.185C5.47817 10.6518 5.04507 11.8417 5.51187 12.8428C5.9787 13.8439 7.16863 14.277 8.16973 13.8102L11.795 12.1197ZM9.98087 12.2301L11.5132 11.5155C12.1806 11.2043 12.4693 10.411 12.1581 9.74363C11.8469 9.07623 11.0536 8.7875 10.3862 9.0987L8.8539 9.81323L9.98087 12.2301Z" fill="#FF751F"/>
</g>
</g>
</svg>
