<svg preserveAspectRatio="none" width="100%" height="100%" overflow="visible" style="display: block;" viewBox="0 0 16 16" fill="none" xmlns="http://www.w3.org/2000/svg">
<g id="Iconography">
<path id="Vector" d="M13.5 11.2998C13.6857 11.2998 13.8638 11.3736 13.9951 11.5049C14.1264 11.6362 14.2002 11.8143 14.2002 12C14.2002 12.1857 14.1264 12.3638 13.9951 12.4951C13.8638 12.6264 13.6857 12.7002 13.5 12.7002H2.5C2.31435 12.7002 2.13616 12.6264 2.00488 12.4951C1.87361 12.3638 1.7998 12.1857 1.7998 12C1.7998 11.8143 1.87361 11.6362 2.00488 11.5049C2.13616 11.3736 2.31435 11.2998 2.5 11.2998H13.5ZM13.5 7.2998C13.6857 7.2998 13.8638 7.37361 13.9951 7.50488C14.1264 7.63616 14.2002 7.81435 14.2002 8C14.2002 8.18565 14.1264 8.36384 13.9951 8.49512C13.8638 8.62639 13.6857 8.7002 13.5 8.7002H2.5C2.31435 8.7002 2.13616 8.62639 2.00488 8.49512C1.87361 8.36384 1.7998 8.18565 1.7998 8C1.7998 7.81435 1.87361 7.63616 2.00488 7.50488C2.13616 7.37361 2.31435 7.2998 2.5 7.2998H13.5ZM13.5 3.2998C13.6857 3.2998 13.8638 3.37361 13.9951 3.50488C14.1264 3.63616 14.2002 3.81435 14.2002 4C14.2002 4.18565 14.1264 4.36384 13.9951 4.49512C13.8638 4.62639 13.6857 4.7002 13.5 4.7002H2.5C2.31435 4.7002 2.13616 4.62639 2.00488 4.49512C1.87361 4.36384 1.7998 4.18565 1.7998 4L1.81348 3.86328C1.84031 3.72855 1.90631 3.60346 2.00488 3.50488C2.13616 3.37361 2.31435 3.2998 2.5 3.2998H13.5Z" fill="#FF751F" stroke="#FF751F" stroke-width="0.4"/>
</g>
</svg>
