<svg preserveAspectRatio="none" width="100%" height="100%" overflow="visible" style="display: block;" viewBox="0 0 16 16" fill="none" xmlns="http://www.w3.org/2000/svg">
<g id="Iconography">
<path id="Vector" d="M13.0769 3H2.92309C2.67828 3 2.44349 3.09658 2.27038 3.26849C2.09727 3.44039 2.00002 3.67355 2.00002 3.91667V13.0833C1.99895 13.2581 2.04875 13.4295 2.14342 13.5769C2.23809 13.7243 2.3736 13.8413 2.53367 13.9141C2.65565 13.9705 2.78854 13.9998 2.92309 14C3.13979 13.9995 3.34929 13.9228 3.51444 13.7834L3.51963 13.7794L5.40386 12.1667H13.0769C13.3217 12.1667 13.5565 12.0701 13.7296 11.8982C13.9027 11.7263 14 11.4931 14 11.25V3.91667C14 3.67355 13.9027 3.44039 13.7296 3.26849C13.5565 3.09658 13.3217 3 13.0769 3ZM9.84616 8.95833H6.15386C6.03145 8.95833 5.91406 8.91005 5.8275 8.82409C5.74095 8.73814 5.69232 8.62156 5.69232 8.5C5.69232 8.37844 5.74095 8.26186 5.8275 8.17591C5.91406 8.08995 6.03145 8.04167 6.15386 8.04167H9.84616C9.96857 8.04167 10.086 8.08995 10.1725 8.17591C10.2591 8.26186 10.3077 8.37844 10.3077 8.5C10.3077 8.62156 10.2591 8.73814 10.1725 8.82409C10.086 8.91005 9.96857 8.95833 9.84616 8.95833ZM9.84616 7.125H6.15386C6.03145 7.125 5.91406 7.07671 5.8275 6.99076C5.74095 6.9048 5.69232 6.78822 5.69232 6.66667C5.69232 6.54511 5.74095 6.42853 5.8275 6.34258C5.91406 6.25662 6.03145 6.20833 6.15386 6.20833H9.84616C9.96857 6.20833 10.086 6.25662 10.1725 6.34258C10.2591 6.42853 10.3077 6.54511 10.3077 6.66667C10.3077 6.78822 10.2591 6.9048 10.1725 6.99076C10.086 7.07671 9.96857 7.125 9.84616 7.125Z" fill="#FF751F"/>
</g>
</svg>
