<svg preserveAspectRatio="none" width="100%" height="100%" overflow="visible" style="display: block;" viewBox="0 0 16 16" fill="none" xmlns="http://www.w3.org/2000/svg">
<g id="Iconography">
<path id="Union" fill-rule="evenodd" clip-rule="evenodd" d="M9.54102 1.87496C9.69802 1.87549 9.86245 1.8815 9.99121 1.90426C10.2736 1.95428 10.5313 2.11519 10.7266 2.32515C10.9219 2.53517 11.0628 2.80217 11.1016 3.07613L11.1182 3.24019C11.1289 3.40278 11.1244 3.56145 11.124 3.70797L11.123 4.51949V12.1982C11.1229 12.6676 11.1703 13.0781 10.8301 13.5341C10.5955 13.8437 10.2457 14.0493 9.8584 14.1054L9.85547 14.1064C9.8231 14.1105 9.79044 14.1133 9.75781 14.1152C9.46831 14.1323 9.09021 14.1222 8.80273 14.122L7.11328 14.1211L5.90918 14.123C5.39125 14.1234 4.85308 14.1773 4.37793 13.7607C4.07971 13.4976 3.90018 13.1269 3.88086 12.7324L3.875 12.3798C3.87593 12.2569 3.87862 12.1347 3.87891 12.0322V3.61519C3.87903 3.48457 3.87063 3.29132 3.89062 3.14254C3.97784 2.49525 4.47993 1.92331 5.18457 1.88765C5.41682 1.86864 5.8382 1.87982 6.07031 1.87984L9.10059 1.87887C9.21332 1.87875 9.39154 1.87446 9.54102 1.87496ZM6.07617 12.3906L4.99414 12.3916C4.96557 12.3917 4.9249 12.3928 4.87695 12.3935C4.82947 12.3943 4.77499 12.3953 4.72168 12.3955C4.6779 12.3956 4.63108 12.3939 4.58691 12.3925C4.58178 12.5309 4.57798 12.6645 4.59375 12.792C4.61394 12.9548 4.66494 13.0912 4.77344 13.1962C4.88151 13.3009 4.96714 13.3525 5.05566 13.3808C5.14761 13.4102 5.25242 13.4184 5.4082 13.4189C6.39029 13.4218 7.3736 13.4201 8.35547 13.4199H9.25586C9.70029 13.4197 9.91921 13.468 10.2119 13.2109C10.3408 13.0471 10.3895 12.927 10.4092 12.8007C10.4271 12.6855 10.4224 12.5661 10.4189 12.3935C8.98354 12.3736 7.51593 12.3902 6.07617 12.3906ZM4.58496 4.39254C4.58443 4.50745 4.58584 4.62122 4.58594 4.67574L4.58789 5.84273V11.1337C4.58791 11.2996 4.59026 11.5231 4.58594 11.7148H7.07617C8.17345 11.7148 9.31389 11.7004 10.415 11.7158L10.417 6.41207C10.417 5.71285 10.4046 4.966 10.418 4.25973C9.92939 4.25188 9.4278 4.25689 8.93652 4.2568L5.08398 4.25777C4.97324 4.25793 4.75202 4.25966 4.58691 4.25484C4.58561 4.29587 4.58519 4.34352 4.58496 4.39254ZM5.30371 2.55953L5.29688 2.56051C5.16368 2.57472 5.06659 2.59541 4.9834 2.63277C4.90246 2.66921 4.82671 2.72547 4.74219 2.8232C4.65316 2.92622 4.61168 3.0563 4.59473 3.20992C4.5815 3.33018 4.58317 3.45312 4.58496 3.58199C6.28706 3.60559 8.03705 3.58525 9.74414 3.58492C9.95692 3.58518 10.194 3.58277 10.417 3.5859C10.4198 3.43843 10.4247 3.30748 10.4072 3.18062C10.386 3.02702 10.3342 2.8925 10.2139 2.7734C10.0436 2.60493 9.87885 2.56552 9.65234 2.55562L9.40332 2.55172L6.57227 2.55269L5.73926 2.55074C5.68635 2.55068 5.59804 2.55002 5.50879 2.55074C5.41674 2.55149 5.33842 2.55404 5.30371 2.55953Z" fill="#FF751F"/>
</g>
</svg>
