<svg preserveAspectRatio="none" width="100%" height="100%" overflow="visible" style="display: block;" viewBox="0 0 16 16" fill="none" xmlns="http://www.w3.org/2000/svg">
<g id="Iconography">
<path id="Vector" d="M12.8536 9.35351L8.35374 13.8534C8.3073 13.8998 8.25216 13.9367 8.19146 13.9619C8.13077 13.987 8.06571 14 8 14C7.93429 14 7.86923 13.987 7.80854 13.9619C7.74784 13.9367 7.6927 13.8998 7.64626 13.8534L3.14641 9.35351C3.05259 9.25969 2.99989 9.13245 2.99989 8.99977C2.99989 8.86709 3.05259 8.73985 3.14641 8.64603C3.24023 8.55221 3.36747 8.49951 3.50015 8.49951C3.63282 8.49951 3.76007 8.55221 3.85389 8.64603L7.50002 12.2928V2.49998C7.50002 2.36738 7.55269 2.24021 7.64646 2.14644C7.74022 2.05268 7.8674 2 8 2C8.1326 2 8.25978 2.05268 8.35354 2.14644C8.44731 2.24021 8.49998 2.36738 8.49998 2.49998V12.2928L12.1461 8.64603C12.2399 8.55221 12.3672 8.49951 12.4999 8.49951C12.6325 8.49951 12.7598 8.55221 12.8536 8.64603C12.9474 8.73985 13.0001 8.86709 13.0001 8.99977C13.0001 9.13245 12.9474 9.25969 12.8536 9.35351Z" fill="#FF751F"/>
</g>
</svg>
