<svg preserveAspectRatio="none" width="100%" height="100%" overflow="visible" style="display: block;" viewBox="0 0 16 16" fill="none" xmlns="http://www.w3.org/2000/svg">
<g id="Iconography">
<path id="Vector" d="M14.1282 8.35373L9.80145 12.8535C9.71124 12.9473 9.58889 13 9.46132 13C9.33374 13 9.21139 12.9473 9.12119 12.8535C9.03098 12.7597 8.9803 12.6324 8.9803 12.4997C8.9803 12.3671 9.03098 12.2398 9.12119 12.146L12.6277 8.49997H3.21152C3.08402 8.49997 2.96174 8.4473 2.87158 8.35353C2.78142 8.25977 2.73077 8.1326 2.73077 8C2.73077 7.8674 2.78142 7.74023 2.87158 7.64647C2.96174 7.5527 3.08402 7.50003 3.21152 7.50003H12.6277L9.12119 3.85398C9.03098 3.76017 8.9803 3.63292 8.9803 3.50025C8.9803 3.36758 9.03098 3.24033 9.12119 3.14652C9.21139 3.0527 9.33374 3 9.46132 3C9.58889 3 9.71124 3.0527 9.80145 3.14652L14.1282 7.64627C14.1729 7.6927 14.2084 7.74784 14.2326 7.80854C14.2568 7.86924 14.2692 7.9343 14.2692 8C14.2692 8.0657 14.2568 8.13076 14.2326 8.19146C14.2084 8.25215 14.1729 8.3073 14.1282 8.35373Z" fill="#FF751F"/>
</g>
</svg>
