<svg preserveAspectRatio="none" width="100%" height="100%" overflow="visible" style="display: block;" viewBox="0 0 16 16" fill="none" xmlns="http://www.w3.org/2000/svg">
<g id="Iconography">
<path id="Vector" d="M13.1592 7.35397C13.1147 7.40045 13.0617 7.43733 13.0035 7.46249C12.9452 7.48766 12.8827 7.50061 12.8197 7.50061C12.7566 7.50061 12.6941 7.48766 12.6359 7.46249C12.5776 7.43733 12.5247 7.40045 12.4801 7.35397L8.97991 3.70721V13.5C8.97991 13.6326 8.92934 13.7598 8.83933 13.8536C8.74932 13.9473 8.62724 14 8.49994 14C8.37265 14 8.25057 13.9473 8.16056 13.8536C8.07054 13.7598 8.01998 13.6326 8.01998 13.5V3.70721L4.51981 7.35397C4.42975 7.44779 4.3076 7.50049 4.18024 7.50049C4.05287 7.50049 3.93072 7.44779 3.84066 7.35397C3.7506 7.26015 3.7 7.13291 3.7 7.00023C3.7 6.86755 3.7506 6.74031 3.84066 6.64649L8.16037 2.14664C8.20494 2.10015 8.25788 2.06327 8.31615 2.03811C8.37441 2.01295 8.43687 2 8.49994 2C8.56302 2 8.62548 2.01295 8.68374 2.03811C8.74201 2.06327 8.79495 2.10015 8.83952 2.14664L13.1592 6.64649C13.2039 6.69293 13.2393 6.74807 13.2634 6.80877C13.2876 6.86946 13.3 6.93452 13.3 7.00023C13.3 7.06593 13.2876 7.131 13.2634 7.19169C13.2393 7.25239 13.2039 7.30753 13.1592 7.35397Z" fill="#FF751F"/>
</g>
</svg>
