<svg preserveAspectRatio="none" width="100%" height="100%" overflow="visible" style="display: block;" viewBox="0 0 16 16" fill="none" xmlns="http://www.w3.org/2000/svg">
<g id="Iconography">
<path id="Vector" d="M13.7692 8C13.7692 8.1326 13.7186 8.25977 13.6284 8.35353C13.5383 8.4473 13.416 8.49997 13.2885 8.49997H3.87232L7.37882 12.146C7.42348 12.1925 7.45891 12.2476 7.48309 12.3083C7.50726 12.369 7.5197 12.4341 7.5197 12.4998C7.5197 12.5654 7.50726 12.6305 7.48309 12.6912C7.45891 12.7519 7.42348 12.807 7.37882 12.8535C7.33415 12.8999 7.28112 12.9368 7.22276 12.9619C7.1644 12.9871 7.10185 13 7.03868 13C6.97551 13 6.91296 12.9871 6.8546 12.9619C6.79624 12.9368 6.74322 12.8999 6.69855 12.8535L2.37177 8.35373C2.32707 8.3073 2.29161 8.25215 2.26742 8.19146C2.24322 8.13076 2.23077 8.0657 2.23077 8C2.23077 7.9343 2.24322 7.86924 2.26742 7.80854C2.29161 7.74784 2.32707 7.6927 2.37177 7.64627L6.69855 3.14652C6.78876 3.0527 6.91111 3 7.03868 3C7.16626 3 7.28861 3.0527 7.37882 3.14652C7.46902 3.24033 7.5197 3.36758 7.5197 3.50025C7.5197 3.63292 7.46902 3.76017 7.37882 3.85398L3.87232 7.50003H13.2885C13.416 7.50003 13.5383 7.5527 13.6284 7.64647C13.7186 7.74023 13.7692 7.8674 13.7692 8Z" fill="#FF751F"/>
</g>
</svg>
