<svg preserveAspectRatio="none" width="100%" height="100%" overflow="visible" style="display: block;" viewBox="0 0 16 16" fill="none" xmlns="http://www.w3.org/2000/svg">
<g id="Iconography">
<path id="Vector" d="M12.0682 2.86364H10.7727V2.43182C10.7727 2.31729 10.7272 2.20746 10.6463 2.12648C10.5653 2.04549 10.4554 2 10.3409 2C10.2264 2 10.1165 2.04549 10.0356 2.12648C9.95459 2.20746 9.90909 2.31729 9.90909 2.43182V2.86364H8.18182V2.43182C8.18182 2.31729 8.13632 2.20746 8.05534 2.12648C7.97436 2.04549 7.86453 2 7.75 2C7.63547 2 7.52564 2.04549 7.44466 2.12648C7.36368 2.20746 7.31818 2.31729 7.31818 2.43182V2.86364H5.59091V2.43182C5.59091 2.31729 5.54541 2.20746 5.46443 2.12648C5.38345 2.04549 5.27362 2 5.15909 2C5.04457 2 4.93473 2.04549 4.85375 2.12648C4.77277 2.20746 4.72727 2.31729 4.72727 2.43182V2.86364H3.43182C3.31729 2.86364 3.20746 2.90913 3.12648 2.99011C3.0455 3.07109 3 3.18093 3 3.29545V11.9318C3 12.3899 3.18198 12.8293 3.50591 13.1532C3.82983 13.4771 4.26917 13.6591 4.72727 13.6591H10.7727C11.2308 13.6591 11.6702 13.4771 11.9941 13.1532C12.318 12.8293 12.5 12.3899 12.5 11.9318V3.29545C12.5 3.18093 12.4545 3.07109 12.3735 2.99011C12.2925 2.90913 12.1827 2.86364 12.0682 2.86364ZM7.31818 4.15909C7.31818 4.04457 7.36368 3.93473 7.44466 3.85375C7.52564 3.77277 7.63547 3.72727 7.75 3.72727C7.86453 3.72727 7.97436 3.77277 8.05534 3.85375C8.13632 3.93473 8.18182 4.04457 8.18182 4.15909V4.59091C8.18182 4.70543 8.13632 4.81527 8.05534 4.89625C7.97436 4.97723 7.86453 5.02273 7.75 5.02273C7.63547 5.02273 7.52564 4.97723 7.44466 4.89625C7.36368 4.81527 7.31818 4.70543 7.31818 4.59091V4.15909ZM5.15909 5.02273C5.04457 5.02273 4.93473 4.97723 4.85375 4.89625C4.77277 4.81527 4.72727 4.70543 4.72727 4.59091V4.15909C4.72727 4.04457 4.77277 3.93473 4.85375 3.85375C4.93473 3.77277 5.04457 3.72727 5.15909 3.72727C5.27362 3.72727 5.38345 3.77277 5.46443 3.85375C5.54541 3.93473 5.59091 4.04457 5.59091 4.15909V4.59091C5.59091 4.70543 5.54541 4.81527 5.46443 4.89625C5.38345 4.97723 5.27362 5.02273 5.15909 5.02273ZM9.47727 10.2045H6.02273C5.9082 10.2045 5.79837 10.1591 5.71739 10.0781C5.6364 9.99709 5.59091 9.88725 5.59091 9.77273C5.59091 9.6582 5.6364 9.54837 5.71739 9.46738C5.79837 9.3864 5.9082 9.34091 6.02273 9.34091H9.47727C9.5918 9.34091 9.70163 9.3864 9.78261 9.46738C9.8636 9.54837 9.90909 9.6582 9.90909 9.77273C9.90909 9.88725 9.8636 9.99709 9.78261 10.0781C9.70163 10.1591 9.5918 10.2045 9.47727 10.2045ZM9.47727 8.47727H6.02273C5.9082 8.47727 5.79837 8.43178 5.71739 8.3508C5.6364 8.26981 5.59091 8.15998 5.59091 8.04545C5.59091 7.93093 5.6364 7.82109 5.71739 7.74011C5.79837 7.65913 5.9082 7.61364 6.02273 7.61364H9.47727C9.5918 7.61364 9.70163 7.65913 9.78261 7.74011C9.8636 7.82109 9.90909 7.93093 9.90909 8.04545C9.90909 8.15998 9.8636 8.26981 9.78261 8.3508C9.70163 8.43178 9.5918 8.47727 9.47727 8.47727ZM10.7727 4.59091C10.7727 4.70543 10.7272 4.81527 10.6463 4.89625C10.5653 4.97723 10.4554 5.02273 10.3409 5.02273C10.2264 5.02273 10.1165 4.97723 10.0356 4.89625C9.95459 4.81527 9.90909 4.70543 9.90909 4.59091V4.15909C9.90909 4.04457 9.95459 3.93473 10.0356 3.85375C10.1165 3.77277 10.2264 3.72727 10.3409 3.72727C10.4554 3.72727 10.5653 3.77277 10.6463 3.85375C10.7272 3.93473 10.7727 4.04457 10.7727 4.15909V4.59091Z" fill="#FF751F"/>
</g>
</svg>
