<svg preserveAspectRatio="none" width="100%" height="100%" overflow="visible" style="display: block;" viewBox="0 0 16 16" fill="none" xmlns="http://www.w3.org/2000/svg">
<g id="Iconography">
<path id="Vector" d="M9.90909 8.22222C9.90909 8.3401 9.8636 8.45314 9.78261 8.53649C9.70163 8.61984 9.5918 8.66667 9.47727 8.66667H6.02273C5.9082 8.66667 5.79837 8.61984 5.71739 8.53649C5.6364 8.45314 5.59091 8.3401 5.59091 8.22222C5.59091 8.10435 5.6364 7.9913 5.71739 7.90795C5.79837 7.8246 5.9082 7.77778 6.02273 7.77778H9.47727C9.5918 7.77778 9.70163 7.8246 9.78261 7.90795C9.8636 7.9913 9.90909 8.10435 9.90909 8.22222ZM9.47727 9.55556H6.02273C5.9082 9.55556 5.79837 9.60238 5.71739 9.68573C5.6364 9.76908 5.59091 9.88213 5.59091 10C5.59091 10.1179 5.6364 10.2309 5.71739 10.3143C5.79837 10.3976 5.9082 10.4444 6.02273 10.4444H9.47727C9.5918 10.4444 9.70163 10.3976 9.78261 10.3143C9.8636 10.2309 9.90909 10.1179 9.90909 10C9.90909 9.88213 9.8636 9.76908 9.78261 9.68573C9.70163 9.60238 9.5918 9.55556 9.47727 9.55556ZM12.5 3.33333V12.2222C12.5 12.6937 12.318 13.1459 11.9941 13.4793C11.6702 13.8127 11.2308 14 10.7727 14H4.72727C4.26917 14 3.82983 13.8127 3.50591 13.4793C3.18198 13.1459 3 12.6937 3 12.2222V3.33333C3 3.21546 3.0455 3.10241 3.12648 3.01906C3.20746 2.93571 3.31729 2.88889 3.43182 2.88889H4.72727V2.44444C4.72727 2.32657 4.77277 2.21352 4.85375 2.13017C4.93473 2.04683 5.04457 2 5.15909 2C5.27362 2 5.38345 2.04683 5.46443 2.13017C5.54541 2.21352 5.59091 2.32657 5.59091 2.44444V2.88889H7.31818V2.44444C7.31818 2.32657 7.36368 2.21352 7.44466 2.13017C7.52564 2.04683 7.63547 2 7.75 2C7.86453 2 7.97436 2.04683 8.05534 2.13017C8.13632 2.21352 8.18182 2.32657 8.18182 2.44444V2.88889H9.90909V2.44444C9.90909 2.32657 9.95459 2.21352 10.0356 2.13017C10.1165 2.04683 10.2264 2 10.3409 2C10.4554 2 10.5653 2.04683 10.6463 2.13017C10.7272 2.21352 10.7727 2.32657 10.7727 2.44444V2.88889H12.0682C12.1827 2.88889 12.2925 2.93571 12.3735 3.01906C12.4545 3.10241 12.5 3.21546 12.5 3.33333ZM11.6364 3.77778H10.7727V4.22222C10.7727 4.3401 10.7272 4.45314 10.6463 4.53649C10.5653 4.61984 10.4554 4.66667 10.3409 4.66667C10.2264 4.66667 10.1165 4.61984 10.0356 4.53649C9.95459 4.45314 9.90909 4.3401 9.90909 4.22222V3.77778H8.18182V4.22222C8.18182 4.3401 8.13632 4.45314 8.05534 4.53649C7.97436 4.61984 7.86453 4.66667 7.75 4.66667C7.63547 4.66667 7.52564 4.61984 7.44466 4.53649C7.36368 4.45314 7.31818 4.3401 7.31818 4.22222V3.77778H5.59091V4.22222C5.59091 4.3401 5.54541 4.45314 5.46443 4.53649C5.38345 4.61984 5.27362 4.66667 5.15909 4.66667C5.04457 4.66667 4.93473 4.61984 4.85375 4.53649C4.77277 4.45314 4.72727 4.3401 4.72727 4.22222V3.77778H3.86364V12.2222C3.86364 12.458 3.95463 12.6841 4.11659 12.8508C4.27855 13.0175 4.49822 13.1111 4.72727 13.1111H10.7727C11.0018 13.1111 11.2214 13.0175 11.3834 12.8508C11.5454 12.6841 11.6364 12.458 11.6364 12.2222V3.77778Z" fill="#FF751F"/>
</g>
</svg>
