<svg preserveAspectRatio="none" width="100%" height="100%" overflow="visible" style="display: block;" viewBox="0 0 16 16" fill="none" xmlns="http://www.w3.org/2000/svg">
<g id="Iconography">
<path id="Vector" d="M12.8888 10.7661C12.5708 10.2146 12.0981 8.65394 12.0981 6.61558C12.0981 5.39146 11.6151 4.21746 10.7554 3.35187C9.89573 2.48628 8.72974 2 7.51396 2C6.29817 2 5.13218 2.48628 4.27249 3.35187C3.4128 4.21746 2.92983 5.39146 2.92983 6.61558C2.92983 8.65452 2.45652 10.2146 2.1385 10.7661C2.05728 10.9064 2.01423 11.0657 2.01368 11.228C2.01312 11.3903 2.05509 11.5499 2.13535 11.6907C2.2156 11.8315 2.33131 11.9485 2.47079 12.0299C2.61028 12.1112 2.76862 12.1542 2.92983 12.1543H5.26831C5.37407 12.6754 5.65534 13.1437 6.06453 13.48C6.47373 13.8163 6.98574 14 7.51396 14C8.04218 14 8.55419 13.8163 8.96338 13.48C9.37258 13.1437 9.65384 12.6754 9.75961 12.1543H12.0981C12.2593 12.1541 12.4175 12.1111 12.5569 12.0296C12.6963 11.9482 12.812 11.8312 12.8921 11.6905C12.9723 11.5497 13.0142 11.3901 13.0137 11.2279C13.0131 11.0656 12.97 10.9063 12.8888 10.7661ZM7.51396 13.0774C7.22964 13.0773 6.95234 12.9885 6.72022 12.8232C6.4881 12.6579 6.31257 12.4242 6.2178 12.1543H8.81012C8.71535 12.4242 8.53982 12.6579 8.3077 12.8232C8.07558 12.9885 7.79828 13.0773 7.51396 13.0774ZM2.92983 11.2312C3.37105 10.4673 3.84666 8.69721 3.84666 6.61558C3.84666 5.63628 4.23303 4.69709 4.92079 4.00462C5.60854 3.31214 6.54133 2.92312 7.51396 2.92312C8.48659 2.92312 9.41938 3.31214 10.1071 4.00462C10.7949 4.69709 11.1813 5.63628 11.1813 6.61558C11.1813 8.69548 11.6557 10.4656 12.0981 11.2312H2.92983Z" fill="#FF751F"/>
</g>
</svg>
