<svg preserveAspectRatio="none" width="100%" height="100%" overflow="visible" style="display: block;" viewBox="0 0 16 16" fill="none" xmlns="http://www.w3.org/2000/svg">
<g id="Iconography">
<path id="Vector" d="M12.9635 10.7661C12.6433 10.2146 12.1673 8.65394 12.1673 6.61558C12.1673 5.39146 11.681 4.21746 10.8154 3.35187C9.94983 2.48628 8.77583 2 7.5517 2C6.32758 2 5.15358 2.48628 4.28799 3.35187C3.4224 4.21746 2.93612 5.39146 2.93612 6.61558C2.93612 8.65452 2.45956 10.2146 2.13935 10.7661C2.05758 10.9064 2.01423 11.0657 2.01368 11.228C2.01312 11.3903 2.05538 11.5499 2.13618 11.6907C2.21699 11.8315 2.33349 11.9485 2.47393 12.0299C2.61437 12.1112 2.7738 12.1542 2.93612 12.1543H5.29065C5.39713 12.6754 5.68033 13.1437 6.09233 13.48C6.50434 13.8163 7.01986 14 7.5517 14C8.08355 14 8.59907 13.8163 9.01108 13.48C9.42308 13.1437 9.70628 12.6754 9.81276 12.1543H12.1673C12.3296 12.1541 12.4889 12.1111 12.6293 12.0296C12.7696 11.9482 12.8861 11.8312 12.9668 11.6905C13.0475 11.5497 13.0897 11.3901 13.0892 11.2279C13.0886 11.0656 13.0452 10.9063 12.9635 10.7661ZM7.5517 13.0774C7.26543 13.0773 6.98623 12.9885 6.75252 12.8232C6.5188 12.6579 6.34207 12.4242 6.24665 12.1543H8.85676C8.76134 12.4242 8.58461 12.6579 8.35089 12.8232C8.11718 12.9885 7.83797 13.0773 7.5517 13.0774Z" fill="#FF751F"/>
</g>
</svg>
