<svg preserveAspectRatio="none" width="100%" height="100%" overflow="visible" style="display: block;" viewBox="0 0 14 10.6946" fill="none" xmlns="http://www.w3.org/2000/svg">
<g id="Group 6">
<path id="Vector" d="M13.8157 3.70361C13.3701 3.39026 12.9009 3.11191 12.4123 2.87108C12.334 2.08863 11.9693 1.3627 11.3884 0.832758C10.8074 0.302816 10.0511 0.00623729 9.26478 0H4.73687C3.95054 0.00623729 3.19424 0.302816 2.61328 0.832758C2.03231 1.3627 1.66766 2.08863 1.58938 2.87108C1.10075 3.11191 0.631529 3.39026 0.185921 3.70361L0 3.83523L1.81149 10.6946H12.1902L14 3.83523L13.8157 3.70361ZM4.73687 0.658127H9.26478C9.82058 0.662733 10.3594 0.850207 10.798 1.19159C11.2367 1.53298 11.5507 2.00929 11.6916 2.54695C8.68094 1.34561 5.324 1.34561 2.31332 2.54695C2.45409 2.00983 2.76763 1.53392 3.20559 1.19259C3.64355 0.851256 4.18163 0.663452 4.73687 0.658127ZM12.0306 8.72018H9.63333V9.3783H11.8578L11.6834 10.0364H2.31825L2.14385 9.3783H8.9752V8.72018H1.97109L0.748619 4.11329C2.48607 2.94512 4.69738 2.30344 7.00082 2.30344C9.30427 2.30344 11.5106 2.94347 13.253 4.11329L12.0306 8.72018Z" fill="#FF751F"/>
<path id="Vector_2" d="M6.01363 3.1261V4.60688H4.53284V6.74579H6.01363V8.22658H8.15254V6.74579H9.63332V4.60688H8.15254V3.1261H6.01363ZM8.9752 5.26501V6.08767H7.49441V7.56845H6.67175V6.08767H5.19097V5.26501H6.67175V3.78422H7.49441V5.26501H8.9752Z" fill="#FF751F"/>
</g>
</svg>
