<svg preserveAspectRatio="none" width="100%" height="100%" overflow="visible" style="display: block;" viewBox="0 0 16 16" fill="none" xmlns="http://www.w3.org/2000/svg">
<g id="Iconography">
<path id="Vector" d="M4.796 3.14005C4.76087 3.09884 4.71823 3.06529 4.67056 3.04135C4.62288 3.01741 4.57112 3.00356 4.51826 3.0006C4.4654 2.99764 4.41251 3.00563 4.36264 3.02411C4.31277 3.04258 4.26692 3.07118 4.22775 3.10823C4.18858 3.14529 4.15686 3.19007 4.13444 3.23998C4.11201 3.28988 4.09933 3.34393 4.09712 3.39898C4.09491 3.45403 4.10322 3.50899 4.12157 3.56067C4.13991 3.61235 4.16793 3.65973 4.204 3.70005L5.166 4.80184C3.35 5.96192 2.569 7.75018 2.5345 7.83137C2.51175 7.88462 2.5 7.94225 2.5 8.00052C2.5 8.05879 2.51175 8.11642 2.5345 8.16967C2.552 8.21078 2.9755 9.18818 3.917 10.1682C5.1715 11.4735 6.756 12.1636 8.5 12.1636C9.39631 12.1689 10.2836 11.9768 11.1035 11.5999L12.2035 12.8599C12.2386 12.9012 12.2813 12.9347 12.3289 12.9587C12.3766 12.9826 12.4284 12.9964 12.4812 12.9994C12.5341 13.0024 12.587 12.9944 12.6369 12.9759C12.6867 12.9574 12.7326 12.9288 12.7717 12.8918C12.8109 12.8547 12.8426 12.8099 12.8651 12.76C12.8875 12.7101 12.9002 12.6561 12.9024 12.601C12.9046 12.546 12.8963 12.491 12.8779 12.4393C12.8596 12.3877 12.8316 12.3403 12.7955 12.2999L4.796 3.14005ZM7.1625 7.08713L9.246 9.47339C8.93225 9.6452 8.57256 9.70368 8.22342 9.63964C7.87427 9.5756 7.55545 9.39268 7.31701 9.11959C7.07857 8.8465 6.93402 8.49872 6.90605 8.13085C6.87808 7.76298 6.96829 7.39586 7.1625 7.08713ZM8.5 11.3309C6.961 11.3309 5.6165 10.7485 4.5035 9.60038C4.04665 9.1278 3.65811 8.58873 3.35 8C3.5845 7.54253 4.333 6.26222 5.7175 5.43003L6.6175 6.45791C6.26907 6.92241 6.08962 7.50018 6.11086 8.08909C6.13211 8.67799 6.35269 9.24012 6.73362 9.67611C7.11454 10.1121 7.63128 10.3939 8.19249 10.4716C8.75371 10.5494 9.32327 10.4181 9.8005 10.1011L10.537 10.9442C9.887 11.2038 9.19619 11.3349 8.5 11.3309ZM8.8 6.36423C8.69577 6.34353 8.60371 6.28057 8.54407 6.18921C8.48444 6.09786 8.46211 5.98558 8.482 5.87709C8.50189 5.7686 8.56237 5.67277 8.65014 5.6107C8.73791 5.54862 8.84577 5.52538 8.95 5.54609C9.4598 5.64896 9.924 5.92063 10.2733 6.32056C10.6227 6.72049 10.8385 7.22726 10.8885 7.76528C10.8984 7.87522 10.8659 7.98474 10.7982 8.06975C10.7305 8.15476 10.6331 8.2083 10.5275 8.21859C10.515 8.21935 10.5025 8.21935 10.49 8.21859C10.39 8.21903 10.2935 8.18049 10.2195 8.11056C10.1454 8.04062 10.0992 7.94436 10.09 7.84074C10.0563 7.48288 9.9126 7.14588 9.68018 6.87986C9.44777 6.61384 9.13907 6.433 8.8 6.36423ZM14.464 8.16967C14.443 8.21859 13.9365 9.38595 12.796 10.4492C12.757 10.4867 12.7113 10.5158 12.6614 10.5347C12.6116 10.5536 12.5586 10.562 12.5056 10.5594C12.4526 10.5567 12.4006 10.5432 12.3527 10.5194C12.3048 10.4957 12.2619 10.4623 12.2265 10.4212C12.1911 10.38 12.1639 10.3319 12.1465 10.2797C12.1292 10.2275 12.122 10.1723 12.1253 10.1172C12.1287 10.062 12.1425 10.0081 12.1661 9.95865C12.1896 9.90916 12.2224 9.86504 12.2625 9.82886C12.822 9.30561 13.2921 8.68718 13.6525 8C13.3437 7.41074 12.9543 6.87129 12.4965 6.39858C11.3835 5.25151 10.039 4.66913 8.5 4.66913C8.17573 4.66872 7.85197 4.69605 7.532 4.75084C7.47997 4.76042 7.42662 4.75917 7.37506 4.74717C7.32349 4.73517 7.27472 4.71265 7.23156 4.68091C7.1884 4.64918 7.15171 4.60886 7.12361 4.56228C7.0955 4.51571 7.07654 4.46379 7.06782 4.40955C7.05911 4.3553 7.0608 4.29979 7.07281 4.24623C7.08481 4.19266 7.1069 4.14211 7.13779 4.09748C7.16867 4.05285 7.20775 4.01504 7.25275 3.98622C7.29776 3.9574 7.3478 3.93814 7.4 3.92957C7.76358 3.86708 8.1315 3.83593 8.5 3.83641C10.244 3.83641 11.8285 4.52653 13.083 5.83233C14.0245 6.81234 14.448 7.79026 14.4655 7.83137C14.4882 7.88462 14.5 7.94225 14.5 8.00052C14.5 8.05879 14.4882 8.11642 14.4655 8.16967H14.464Z" fill="#FF751F"/>
</g>
</svg>
