<svg preserveAspectRatio="none" width="100%" height="100%" overflow="visible" style="display: block;" viewBox="0 0 16 16" fill="none" xmlns="http://www.w3.org/2000/svg">
<g id="Iconography">
<g id="Vector">
<path d="M8.00916 1H8.40369C8.56624 1.08499 9.32264 1.24941 9.52862 1.30184L12.8074 2.14184L13.6755 2.36251C13.9243 2.42551 14.3113 2.50724 14.5231 2.62354C14.7315 2.73733 14.8874 2.92183 14.9597 3.1403C15.0944 3.53616 14.8575 4.12761 14.7448 4.5257L12.3152 13.1752C12.226 13.4939 12.1327 13.8138 12.046 14.1351C11.9438 14.5142 11.7932 14.7739 11.4 14.9286C11.3653 14.9423 11.2528 14.9836 11.2277 15H10.8459C10.7468 14.9463 10.2696 14.8373 10.1351 14.8065C9.25089 14.6041 8.36751 14.3299 7.48505 14.1289C7.39379 14.1074 7.30094 14.0927 7.20732 14.0849C7.04894 14.071 6.81005 14.0774 6.6447 14.0779L2.79405 14.0785L1.97848 14.0806C1.71217 14.0812 1.34665 14.1221 1.14143 13.9351C0.994553 13.8013 1.00285 13.6123 1.00136 13.4329L1.00236 5.09153C1.00182 4.74865 0.995648 4.39082 1.00575 4.04901C1.01868 3.91988 1.04791 3.7983 1.14913 3.70508C1.34991 3.52012 1.77554 3.56908 2.04373 3.56962L3.06818 3.57109L6.71385 3.56975C6.7677 3.43128 6.82283 3.20093 6.86547 3.05364C6.9934 2.61171 7.11056 2.15489 7.24345 1.7152C7.32109 1.47986 7.47009 1.24341 7.70712 1.12832C7.80324 1.08166 7.90579 1.05184 7.9995 1.0049L8.00916 1ZM9.17425 13.5686C9.29164 13.5113 9.45529 13.3938 9.47407 13.2756C9.53577 12.8871 9.50658 12.3123 9.50666 11.9156L9.50689 6.25967C9.50691 5.71997 9.50934 5.18054 9.50589 4.64056C9.50837 4.44306 9.47907 4.25843 9.2941 4.13775C9.27111 4.12275 9.18814 4.08131 9.1617 4.078C8.83405 4.03697 8.46902 4.05227 8.13884 4.05241L3.44224 4.0532C2.91516 4.05318 2.33061 4.04171 1.80894 4.05532C1.70446 4.05884 1.60464 4.06379 1.5002 4.05746L1.50036 12.5142C1.50036 12.8324 1.51388 13.2756 1.49758 13.587C2.09015 13.6102 2.75839 13.5955 3.35806 13.5955L8.2217 13.5961C8.45797 13.5962 8.95916 13.6114 9.17425 13.5686ZM7.23537 3.56921C7.60021 3.57127 7.96506 3.57156 8.32989 3.57008C8.7905 3.56941 9.36481 3.49788 9.7053 3.85142C9.774 3.92273 9.831 3.99559 9.89481 4.07053C10.0615 4.12937 10.4942 4.24002 10.6778 4.27163C10.8202 4.12107 11.1608 3.82557 11.3296 3.68108C11.5506 3.4919 11.9211 3.13179 12.1439 2.96685C12.2841 2.99687 12.4232 3.03111 12.5611 3.06951C12.3884 3.31678 12.2111 3.62082 12.0456 3.87701C11.9397 4.04109 11.7239 4.36357 11.6402 4.52956C11.8372 4.57768 12.1826 4.67486 12.3674 4.70275C12.5464 4.61903 12.7585 4.46958 12.9278 4.40557C13.0197 4.42207 13.1113 4.44036 13.2025 4.46043C12.6736 5.24248 12.7867 4.95035 12.8096 5.85635C12.7425 5.83644 12.5925 5.79548 12.5353 5.76942C12.4306 5.60872 12.3245 5.42226 12.2297 5.25473C12.0126 5.17054 11.7151 5.12501 11.4872 5.05318C11.4977 5.40606 11.5053 5.75902 11.51 6.11201C11.5128 6.30876 11.509 6.56202 11.5216 6.75571C11.3922 6.72432 11.2532 6.69163 11.1257 6.65485C11.067 6.57397 10.9684 6.2058 10.9289 6.0924C10.7865 5.68293 10.6675 5.21642 10.519 4.81262C10.3543 4.75747 10.1644 4.7275 10.015 4.67423C10.0106 4.98645 9.9993 8.33225 10.0277 8.37512C10.1365 8.36236 10.4022 8.44685 10.5166 8.47823C10.4598 8.72688 10.3413 9.16704 10.2589 9.40632C10.2131 9.39254 10.0641 9.34086 10.0291 9.34838C10.001 9.4488 10.0106 9.74873 10.0118 9.86774L10.0124 12.1013C10.0124 12.3805 10.0029 12.6775 10.0119 12.9553C10.0294 13.4935 9.77701 13.9387 9.18539 14.046C9.3506 14.1125 9.52187 14.154 9.69464 14.1972C10.0742 14.292 10.4523 14.3977 10.8334 14.4859C11.4473 14.6281 11.5146 14.1735 11.6324 13.7546L14.2544 4.41964C14.3298 4.15235 14.4069 3.88519 14.4777 3.61673C14.5042 3.5063 14.5289 3.37948 14.4802 3.27184C14.4197 3.13808 14.3201 3.03666 14.1715 2.99179C13.8978 2.9091 13.6139 2.84413 13.3362 2.77356L9.53725 1.80225C9.21348 1.71946 8.88959 1.63677 8.56594 1.55362C8.38249 1.5065 8.27727 1.48194 8.08726 1.49804C7.69924 1.61695 7.705 1.96058 7.60116 2.27953C7.46538 2.69657 7.38354 3.15791 7.23537 3.56921Z" fill="#FF751F"/>
<path d="M5.27605 5.01241C6.9286 4.8929 8.37015 6.07318 8.49678 7.64941C8.62341 9.22564 7.38723 10.6017 5.73489 10.7237C4.08066 10.846 2.63609 9.66514 2.50931 8.08709C2.38254 6.50904 3.62162 5.13206 5.27605 5.01241ZM6.21581 8.45836C6.2602 8.00439 6.25962 7.74434 6.22155 7.28548C5.9289 7.28101 5.63621 7.27959 5.34351 7.28121C5.22342 7.28172 4.90639 7.2932 4.80245 7.27233C4.73299 7.65655 4.74658 8.07012 4.79638 8.45626C5.24503 8.46532 5.76939 8.4728 6.21581 8.45836ZM3.3339 6.7943L4.35484 6.7932C4.4549 6.44843 4.53654 6.10617 4.7005 5.78241C4.72148 5.74097 4.76806 5.66328 4.76376 5.62144L4.74319 5.60753C4.21136 5.78835 3.78417 6.06465 3.45941 6.51458C3.42822 6.55778 3.30509 6.73591 3.30265 6.7772C3.31901 6.78926 3.31644 6.7913 3.3339 6.7943ZM4.28437 7.2819L3.55267 7.28132C3.43513 7.28234 3.1999 7.29352 3.09662 7.27821C2.96322 7.66736 3.00103 8.06241 3.08665 8.45386C3.4731 8.47127 3.88677 8.46025 4.2765 8.4619C4.29037 8.38273 4.2535 8.03689 4.25345 7.92232C4.25335 7.69961 4.26787 7.50387 4.28437 7.2819ZM3.28637 8.93896C3.59754 9.4946 4.03175 9.88591 4.67248 10.102C4.70389 10.1126 4.75202 10.1237 4.78477 10.1264C4.59149 9.75604 4.45291 9.36195 4.37299 8.95535C4.01968 8.92489 3.62288 8.96462 3.28637 8.93896ZM6.63997 6.78769C6.93594 6.79362 7.41989 6.80767 7.70859 6.79192C7.65601 6.53377 7.12931 6.04221 6.89392 5.90104C6.72417 5.79922 6.43115 5.63776 6.23366 5.60618C6.25848 5.70757 6.37309 5.90946 6.41477 6.0225C6.4974 6.24657 6.60133 6.55373 6.63997 6.78769ZM6.21192 10.1482C6.50438 10.0428 6.69101 9.97053 6.95247 9.79263C7.26679 9.57139 7.54615 9.27735 7.72236 8.94304C7.54569 8.94386 6.77686 8.95897 6.64812 8.93963C6.53669 9.36358 6.4282 9.75811 6.21192 10.1482ZM4.87074 6.79235L6.12909 6.79422C6.01411 6.41112 5.8613 5.84591 5.57786 5.51594C5.54823 5.48146 5.49711 5.48175 5.45197 5.48236C5.26636 5.67527 5.06805 6.16618 4.98423 6.42741C4.9485 6.53874 4.91621 6.68664 4.87074 6.79235ZM4.87706 8.94213C4.93981 9.16003 5.25876 10.2942 5.55889 10.2433C5.61942 10.2005 5.72576 10.0085 5.75523 9.94132C5.97226 9.53476 6.00564 9.34785 6.13132 8.9431C5.88577 8.9513 5.62239 8.94418 5.37528 8.94474C5.22849 8.94507 5.01698 8.95286 4.87706 8.94213ZM7.92729 8.41782C7.96668 8.25978 8.09717 7.31971 7.84815 7.28707C7.53175 7.2456 7.04568 7.32103 6.72668 7.27475C6.75187 7.6755 6.77023 8.05486 6.71926 8.45586C6.86456 8.45914 7.85134 8.48185 7.91365 8.44397L7.92729 8.41782Z" fill="#FF751F"/>
<path d="M2.99894 12.1722C3.37049 12.1464 3.9367 12.1636 4.32582 12.1635L6.80091 12.1637C7.08621 12.164 7.65451 12.1807 7.92083 12.1605C7.89274 12.2949 7.94193 12.4901 7.89436 12.6129C7.84362 12.6208 7.78788 12.6301 7.73939 12.6469C7.63896 12.6558 7.38633 12.6483 7.2781 12.6482L6.34108 12.6477C5.23251 12.6477 4.09816 12.6351 2.99247 12.6487C3.01257 12.5409 3.00506 12.2882 2.99894 12.1722Z" fill="#FF751F"/>
<path d="M7.92083 12.1605C7.9777 12.1698 7.97083 12.1596 7.99814 12.1937C8.02596 12.341 8.00608 12.4977 8.00662 12.6487L7.73939 12.6469C7.78788 12.6301 7.84362 12.6208 7.89436 12.6129C7.94193 12.4901 7.89274 12.2949 7.92083 12.1605Z" fill="#FF751F"/>
<path d="M10.9675 10.5797C11.0818 10.5901 11.3368 10.6622 11.4564 10.6934C11.4266 10.7708 11.3898 10.9299 11.366 11.0155L10.5538 13.9129C10.4612 13.9036 10.1638 13.8245 10.061 13.799C10.1754 13.4805 10.3212 12.8926 10.4154 12.552C10.5951 11.9021 10.799 11.2286 10.9675 10.5797Z" fill="#FF751F"/>
<path d="M11.4897 8.73333C11.5608 8.73721 11.8862 8.82664 11.971 8.84874C11.8902 9.15637 11.8051 9.46294 11.7157 9.7684C11.5533 9.73127 11.389 9.68194 11.2254 9.65497C11.3158 9.34835 11.4039 9.04113 11.4897 8.73333Z" fill="#FF751F"/>
<path d="M11.3593 7.47191C11.4807 7.4877 11.7044 7.54944 11.8302 7.58048C11.8023 7.71054 11.7479 7.91774 11.7062 8.04238C11.5668 8.02371 11.3918 7.95878 11.2303 7.93487C11.2714 7.78007 11.3144 7.62573 11.3593 7.47191Z" fill="#FF751F"/>
<path d="M10.417 7.22954C10.5746 7.26378 10.7309 7.30365 10.8854 7.34907C10.8314 7.50701 10.8095 7.63953 10.7452 7.8108C10.6563 7.76885 10.3869 7.71154 10.2846 7.69348C10.3116 7.58446 10.373 7.32626 10.417 7.22954Z" fill="#FF751F"/>
<path d="M12.3208 7.70968L12.7826 7.82434C12.7532 7.94262 12.697 8.18534 12.6474 8.28376C12.4924 8.24448 12.3387 8.20427 12.1817 8.17229C12.2137 8.05307 12.2714 7.81475 12.3208 7.70968Z" fill="#FF751F"/>
</g>
</g>
</svg>
