<svg preserveAspectRatio="none" width="100%" height="100%" overflow="visible" style="display: block;" viewBox="0 0 16 16" fill="none" xmlns="http://www.w3.org/2000/svg">
<g id="Iconography">
<path id="Vector" d="M13.4 4H2.6C2.3613 4 2.13239 4.09482 1.9636 4.2636C1.79482 4.43239 1.7 4.66131 1.7 4.9V12.1C1.7 12.3387 1.79482 12.5676 1.9636 12.7364C2.13239 12.9052 2.3613 13 2.6 13H13.4C13.6387 13 13.8676 12.9052 14.0364 12.7364C14.2052 12.5676 14.3 12.3387 14.3 12.1V4.9C14.3 4.66131 14.2052 4.43239 14.0364 4.2636C13.8676 4.09482 13.6387 4 13.4 4ZM13.4 4.9V6.25H2.6V4.9H13.4ZM13.4 12.1H2.6V7.15H13.4V12.1ZM12.5 10.75C12.5 10.8693 12.4526 10.9838 12.3682 11.0682C12.2838 11.1526 12.1693 11.2 12.05 11.2H10.25C10.1307 11.2 10.0162 11.1526 9.9318 11.0682C9.84741 10.9838 9.8 10.8693 9.8 10.75C9.8 10.6307 9.84741 10.5162 9.9318 10.4318C10.0162 10.3474 10.1307 10.3 10.25 10.3H12.05C12.1693 10.3 12.2838 10.3474 12.3682 10.4318C12.4526 10.5162 12.5 10.6307 12.5 10.75ZM8.9 10.75C8.9 10.8693 8.85259 10.9838 8.7682 11.0682C8.68381 11.1526 8.56935 11.2 8.45 11.2H7.55C7.43065 11.2 7.31619 11.1526 7.2318 11.0682C7.14741 10.9838 7.1 10.8693 7.1 10.75C7.1 10.6307 7.14741 10.5162 7.2318 10.4318C7.31619 10.3474 7.43065 10.3 7.55 10.3H8.45C8.56935 10.3 8.68381 10.3474 8.7682 10.4318C8.85259 10.5162 8.9 10.6307 8.9 10.75Z" fill="#FF751F"/>
</g>
</svg>
