<svg preserveAspectRatio="none" width="100%" height="100%" overflow="visible" style="display: block;" viewBox="0 0 16 16" fill="none" xmlns="http://www.w3.org/2000/svg">
<g id="Iconography">
<path id="Vector" d="M13.1429 4H2.85714C2.62981 4 2.4118 4.09482 2.25105 4.2636C2.09031 4.43239 2 4.66131 2 4.9V12.1C2 12.3387 2.09031 12.5676 2.25105 12.7364C2.4118 12.9052 2.62981 13 2.85714 13H13.1429C13.3702 13 13.5882 12.9052 13.7489 12.7364C13.9097 12.5676 14 12.3387 14 12.1V4.9C14 4.66131 13.9097 4.43239 13.7489 4.2636C13.5882 4.09482 13.3702 4 13.1429 4ZM8.42857 11.2H7.57143C7.45776 11.2 7.34876 11.1526 7.26838 11.0682C7.18801 10.9838 7.14286 10.8693 7.14286 10.75C7.14286 10.6307 7.18801 10.5162 7.26838 10.4318C7.34876 10.3474 7.45776 10.3 7.57143 10.3H8.42857C8.54224 10.3 8.65124 10.3474 8.73162 10.4318C8.81199 10.5162 8.85714 10.6307 8.85714 10.75C8.85714 10.8693 8.81199 10.9838 8.73162 11.0682C8.65124 11.1526 8.54224 11.2 8.42857 11.2ZM11.8571 11.2H10.1429C10.0292 11.2 9.92018 11.1526 9.83981 11.0682C9.75944 10.9838 9.71429 10.8693 9.71429 10.75C9.71429 10.6307 9.75944 10.5162 9.83981 10.4318C9.92018 10.3474 10.0292 10.3 10.1429 10.3H11.8571C11.9708 10.3 12.0798 10.3474 12.1602 10.4318C12.2406 10.5162 12.2857 10.6307 12.2857 10.75C12.2857 10.8693 12.2406 10.9838 12.1602 11.0682C12.0798 11.1526 11.9708 11.2 11.8571 11.2ZM2.85714 6.25V4.9H13.1429V6.25H2.85714Z" fill="#FF751F"/>
</g>
</svg>
