<svg preserveAspectRatio="none" width="100%" height="100%" overflow="visible" style="display: block;" viewBox="0 0 16 16" fill="none" xmlns="http://www.w3.org/2000/svg">
<g id="Iconography">
<path id="Vector" d="M8 2C6.81331 2 5.65328 2.35189 4.66658 3.01118C3.67989 3.67047 2.91085 4.60754 2.45673 5.7039C2.0026 6.80025 1.88378 8.00666 2.11529 9.17054C2.3468 10.3344 2.91825 11.4035 3.75736 12.2426C4.59648 13.0818 5.66557 13.6532 6.82946 13.8847C7.99335 14.1162 9.19974 13.9974 10.2961 13.5433C11.3925 13.0891 12.3295 12.3201 12.9888 11.3334C13.6481 10.3467 14 9.18669 14 8C13.998 6.40931 13.3652 4.88434 12.2404 3.75955C11.1157 2.63476 9.59069 2.00198 8 2ZM5.46154 8.69231C5.32461 8.69231 5.19076 8.6517 5.07692 8.57563C4.96307 8.49956 4.87433 8.39144 4.82193 8.26493C4.76953 8.13843 4.75582 7.99923 4.78254 7.86494C4.80925 7.73064 4.87518 7.60728 4.972 7.51046C5.06883 7.41364 5.19218 7.34771 5.32648 7.32099C5.46077 7.29428 5.59997 7.30799 5.72648 7.36039C5.85298 7.41279 5.9611 7.50152 6.03717 7.61537C6.11325 7.72922 6.15385 7.86307 6.15385 8C6.15385 8.18361 6.08091 8.3597 5.95108 8.48953C5.82124 8.61937 5.64515 8.69231 5.46154 8.69231ZM8 8.69231C7.86308 8.69231 7.72923 8.6517 7.61538 8.57563C7.50153 8.49956 7.41279 8.39144 7.36039 8.26493C7.30799 8.13843 7.29428 7.99923 7.321 7.86494C7.34771 7.73064 7.41365 7.60728 7.51047 7.51046C7.60729 7.41364 7.73064 7.34771 7.86494 7.32099C7.99923 7.29428 8.13843 7.30799 8.26494 7.36039C8.39144 7.41279 8.49956 7.50152 8.57563 7.61537C8.65171 7.72922 8.69231 7.86307 8.69231 8C8.69231 8.18361 8.61937 8.3597 8.48954 8.48953C8.3597 8.61937 8.18361 8.69231 8 8.69231ZM10.5385 8.69231C10.4015 8.69231 10.2677 8.6517 10.1538 8.57563C10.04 8.49956 9.95125 8.39144 9.89885 8.26493C9.84646 8.13843 9.83274 7.99923 9.85946 7.86494C9.88617 7.73064 9.95211 7.60728 10.0489 7.51046C10.1457 7.41364 10.2691 7.34771 10.4034 7.32099C10.5377 7.29428 10.6769 7.30799 10.8034 7.36039C10.9299 7.41279 11.038 7.50152 11.1141 7.61537C11.1902 7.72922 11.2308 7.86307 11.2308 8C11.2308 8.18361 11.1578 8.3597 11.028 8.48953C10.8982 8.61937 10.7221 8.69231 10.5385 8.69231Z" fill="#FF751F"/>
</g>
</svg>
