<svg preserveAspectRatio="none" width="100%" height="100%" overflow="visible" style="display: block;" viewBox="0 0 16 16" fill="none" xmlns="http://www.w3.org/2000/svg">
<g id="Iconography">
<path id="Vector" d="M8 2C6.81331 2 5.65328 2.35189 4.66658 3.01118C3.67989 3.67047 2.91085 4.60754 2.45673 5.7039C2.0026 6.80025 1.88378 8.00666 2.11529 9.17054C2.3468 10.3344 2.91825 11.4035 3.75736 12.2426C4.59648 13.0818 5.66557 13.6532 6.82946 13.8847C7.99335 14.1162 9.19974 13.9974 10.2961 13.5433C11.3925 13.0891 12.3295 12.3201 12.9888 11.3334C13.6481 10.3467 14 9.18669 14 8C13.9983 6.40922 13.3656 4.88407 12.2408 3.75921C11.1159 2.63436 9.59078 2.00168 8 2ZM8 13.0769C6.99588 13.0769 6.01431 12.7792 5.17941 12.2213C4.34452 11.6634 3.6938 10.8705 3.30954 9.94285C2.92528 9.01517 2.82474 7.99437 3.02063 7.00954C3.21653 6.02471 3.70006 5.12009 4.41008 4.41007C5.1201 3.70005 6.02472 3.21652 7.00954 3.02063C7.99437 2.82473 9.01517 2.92527 9.94286 3.30953C10.8705 3.69379 11.6634 4.34452 12.2213 5.17941C12.7792 6.01431 13.0769 6.99588 13.0769 8C13.0754 9.34601 12.54 10.6365 11.5882 11.5882C10.6365 12.54 9.34602 13.0754 8 13.0769ZM8.69231 8C8.69231 8.13692 8.65171 8.27077 8.57563 8.38462C8.49956 8.49847 8.39144 8.58721 8.26494 8.63961C8.13843 8.69201 7.99923 8.70572 7.86494 8.679C7.73064 8.65229 7.60729 8.58635 7.51047 8.48953C7.41365 8.39271 7.34771 8.26936 7.321 8.13506C7.29428 8.00077 7.30799 7.86157 7.36039 7.73506C7.41279 7.60856 7.50153 7.50044 7.61538 7.42437C7.72923 7.34829 7.86308 7.30769 8 7.30769C8.18361 7.30769 8.3597 7.38063 8.48954 7.51046C8.61937 7.6403 8.69231 7.81639 8.69231 8ZM11.2308 8C11.2308 8.13692 11.1902 8.27077 11.1141 8.38462C11.038 8.49847 10.9299 8.58721 10.8034 8.63961C10.6769 8.69201 10.5377 8.70572 10.4034 8.679C10.2691 8.65229 10.1457 8.58635 10.0489 8.48953C9.95211 8.39271 9.88617 8.26936 9.85946 8.13506C9.83274 8.00077 9.84646 7.86157 9.89885 7.73506C9.95125 7.60856 10.04 7.50044 10.1538 7.42437C10.2677 7.34829 10.4015 7.30769 10.5385 7.30769C10.7221 7.30769 10.8982 7.38063 11.028 7.51046C11.1578 7.6403 11.2308 7.81639 11.2308 8ZM6.15385 8C6.15385 8.13692 6.11325 8.27077 6.03717 8.38462C5.9611 8.49847 5.85298 8.58721 5.72648 8.63961C5.59997 8.69201 5.46077 8.70572 5.32648 8.679C5.19218 8.65229 5.06883 8.58635 4.972 8.48953C4.87518 8.39271 4.80925 8.26936 4.78254 8.13506C4.75582 8.00077 4.76953 7.86157 4.82193 7.73506C4.87433 7.60856 4.96307 7.50044 5.07692 7.42437C5.19076 7.34829 5.32461 7.30769 5.46154 7.30769C5.64515 7.30769 5.82124 7.38063 5.95108 7.51046C6.08091 7.6403 6.15385 7.81639 6.15385 8Z" fill="#FF751F"/>
</g>
</svg>
