<svg preserveAspectRatio="none" width="100%" height="100%" overflow="visible" style="display: block;" viewBox="0 0 16 16" fill="none" xmlns="http://www.w3.org/2000/svg">
<g id="Iconography">
<path id="Vector" d="M13.993 11.0648C13.886 11.8778 13.4867 12.6241 12.8697 13.1642C12.2527 13.7044 11.4602 14.0015 10.6401 14C5.87609 14 2.00005 10.124 2.00005 5.35991C1.99858 4.53988 2.29566 3.74735 2.83582 3.13035C3.37597 2.51334 4.12225 2.11406 4.93528 2.00708C5.14087 1.98197 5.34907 2.02404 5.5288 2.12698C5.70852 2.22993 5.85013 2.38824 5.93249 2.57828L7.1997 5.40731V5.41451C7.26275 5.55999 7.28879 5.71881 7.2755 5.8768C7.2622 6.03479 7.20998 6.18703 7.1235 6.31992C7.1127 6.33612 7.1013 6.35112 7.0893 6.36612L5.84009 7.84694C6.28949 8.76014 7.2447 9.70695 8.16991 10.1576L9.63032 8.91495C9.64467 8.90289 9.65969 8.89167 9.67532 8.88135C9.8081 8.79279 9.96086 8.73873 10.1198 8.72406C10.2787 8.70939 10.4388 8.73458 10.5855 8.79734L10.5933 8.80094L13.42 10.0676C13.6103 10.1496 13.769 10.2911 13.8723 10.4709C13.9756 10.6506 14.0179 10.859 13.993 11.0648Z" fill="#FF751F"/>
</g>
</svg>
