<svg preserveAspectRatio="none" width="100%" height="100%" overflow="visible" style="display: block;" viewBox="0 0 16 16" fill="none" xmlns="http://www.w3.org/2000/svg">
<g id="Iconography">
<path id="Vector" d="M13.4222 10.0676L10.5956 8.80094L10.5878 8.79734C10.441 8.73458 10.281 8.70939 10.122 8.72406C9.96312 8.73873 9.81036 8.79279 9.67758 8.88135C9.66195 8.89167 9.64693 8.90289 9.63258 8.91495L8.17217 10.16C7.24697 9.71055 6.29176 8.76254 5.84236 7.84934L7.08917 6.36672C7.10117 6.35172 7.11257 6.33672 7.12337 6.32052C7.21002 6.1881 7.2626 6.03631 7.27642 5.87866C7.29024 5.72101 7.26487 5.56239 7.20257 5.41691V5.40971L5.93236 2.57828C5.85 2.38824 5.70839 2.22993 5.52867 2.12698C5.34894 2.02404 5.14074 1.98197 4.93515 2.00708C4.12213 2.11406 3.37585 2.51334 2.8357 3.13035C2.29554 3.74735 1.99846 4.53988 1.99993 5.35991C1.99993 10.124 5.87596 14 10.64 14C11.46 14.0015 12.2525 13.7044 12.8695 13.1642C13.4865 12.6241 13.8858 11.8778 13.9928 11.0648C14.018 10.8592 13.976 10.6511 13.8732 10.4714C13.7703 10.2917 13.6121 10.15 13.4222 10.0676ZM10.64 13.04C8.6038 13.0378 6.65164 12.2279 5.21183 10.7881C3.77202 9.34828 2.96216 7.39611 2.95994 5.35991C2.95768 4.774 3.16877 4.2073 3.55378 3.76564C3.9388 3.32398 4.47141 3.03757 5.05215 2.95989C5.05191 2.96228 5.05191 2.96469 5.05215 2.96709L6.31216 5.78712L5.07195 7.27153C5.05936 7.28601 5.04793 7.30146 5.03775 7.31773C4.94746 7.45628 4.89449 7.61581 4.88398 7.78085C4.87347 7.94589 4.90577 8.11085 4.97775 8.25974C5.52135 9.37155 6.64156 10.4834 7.76537 11.0264C7.91535 11.0977 8.08126 11.1289 8.2469 11.1169C8.41254 11.1049 8.57223 11.0501 8.71038 10.958C8.72578 10.9476 8.7406 10.9364 8.75478 10.9244L10.2134 9.67995L13.0334 10.943C13.0334 10.943 13.0382 10.943 13.04 10.943C12.9633 11.5245 12.6773 12.0582 12.2356 12.4442C11.7938 12.8302 11.2266 13.042 10.64 13.04Z" fill="#FF751F"/>
</g>
</svg>
