<svg preserveAspectRatio="none" width="100%" height="100%" overflow="visible" style="display: block;" viewBox="0 0 16 16" fill="none" xmlns="http://www.w3.org/2000/svg">
<g id="Iconography" clip-path="url(#clip0_0_211)">
<path id="Vector" d="M10.1683 3.53413V6.27565C10.1683 6.39395 10.0723 6.48993 9.954 6.48993C9.8357 6.48993 9.73972 6.39395 9.73972 6.27565V3.53413C9.73972 2.79754 9.26093 2.18984 8.54835 2.02187C6.15056 1.44376 3.69191 1.28696 1.23883 1.55648C1.12108 1.5682 1.01506 1.4845 1.00223 1.36676C0.989398 1.24957 1.07422 1.14355 1.19196 1.13072C3.69475 0.855612 6.20297 1.01521 8.64762 1.60504C9.54268 1.81654 10.1683 2.61003 10.1683 3.53413ZM1.20651 6.5955C1.34992 6.60108 1.49278 6.60387 1.63563 6.60387C3.08316 6.60387 4.52513 6.30979 5.85366 5.74507C5.57241 6.99393 5.96583 7.98045 6.34919 8.94143C6.7878 10.0413 7.20241 11.0798 6.50712 12.4671C6.18067 12.9068 6.11986 13.4855 6.34919 13.981C6.53557 14.3912 6.89271 14.6925 7.38209 14.8527C8.04838 15.0703 8.87706 14.9861 9.49247 14.6378C9.72405 14.5062 9.97125 14.4967 10.2084 14.6122C10.7419 14.87 11.3172 15 11.8954 15C12.2888 15 12.6838 14.9397 13.0672 14.8181C13.253 14.7595 13.4171 14.7349 13.6146 14.7349C14.3451 14.7349 14.7686 14.4319 14.9209 14.1479C15.0303 13.9448 15.0253 13.7249 14.9064 13.5458C14.8026 13.389 14.5214 13.1356 13.8038 13.2015C13.7262 13.2093 13.6498 13.2199 13.5716 13.2311C13.2351 13.2791 12.9176 13.3248 12.3858 13.1105C11.493 12.754 10.1683 11.5871 10.1683 10.7054V9.28805C10.1683 9.16975 10.0723 9.07377 9.95405 9.07377C9.83575 9.07377 9.73977 9.16975 9.73977 9.28805V10.7054C9.73977 11.894 11.3592 13.1618 12.2263 13.5078C12.8647 13.7651 13.2726 13.7065 13.6325 13.6551C13.7045 13.6451 13.7748 13.6345 13.844 13.6278C14.2631 13.5898 14.4857 13.6869 14.5488 13.7818C14.5789 13.827 14.5767 13.8817 14.5432 13.9442C14.4467 14.1239 14.1219 14.3052 13.6141 14.3052C13.3736 14.3052 13.1654 14.337 12.9378 14.4084C12.0946 14.6757 11.1917 14.6105 10.3954 14.2254C10.031 14.0485 9.63538 14.0619 9.28103 14.2639C8.76597 14.5552 8.0718 14.6261 7.51493 14.4442C7.25545 14.3593 6.91003 14.1796 6.73817 13.8019C6.57243 13.4436 6.61931 13.0251 6.85981 12.7098C6.86763 12.6992 6.87488 12.6886 6.88046 12.6769C7.67508 11.1088 7.20299 9.92581 6.74653 8.7824C6.33249 7.74393 5.9402 6.75459 6.38662 5.43704C6.38885 5.43146 6.38996 5.42588 6.39164 5.4203C6.46251 5.21328 6.5529 4.999 6.66842 4.77467C6.72254 4.66976 6.68125 4.54031 6.57634 4.48618C6.47144 4.43205 6.34198 4.47334 6.28785 4.57825C6.17625 4.79476 6.08584 5.00347 6.01219 5.20547C4.52337 5.90077 2.86884 6.23391 1.22274 6.16751C1.105 6.16416 1.00456 6.25456 1.00009 6.37286C0.996741 6.4906 1.08821 6.59047 1.20651 6.5955ZM8.2789 11.7895C8.19743 11.7036 8.06183 11.7003 7.97589 11.7817C7.77668 11.9709 7.66229 12.236 7.66229 12.5083C7.66229 12.7806 7.77668 13.0456 7.97589 13.2348C8.01719 13.2739 8.0702 13.2934 8.1232 13.2934C8.17956 13.2934 8.23648 13.2711 8.27889 13.2264C8.36036 13.1405 8.35701 13.0049 8.27107 12.9234C8.15668 12.8146 8.09083 12.6634 8.09083 12.5077C8.09083 12.352 8.15668 12.2008 8.27107 12.0925C8.35701 12.0111 8.36037 11.8755 8.2789 11.7895ZM8.28281 7.68805C8.23928 7.83369 8.26272 7.98101 8.34865 8.10265C8.66059 8.5513 9.1734 8.8041 9.69627 8.8041C9.89995 8.8041 10.1047 8.76559 10.3006 8.6858L10.9223 8.43859C11.357 8.97932 12.0071 9.28845 12.6991 9.28845C12.7711 9.28845 12.8436 9.28399 12.9161 9.27729L14.6337 10.9948C14.6755 11.0367 14.7302 11.0573 14.7854 11.0573C14.8401 11.0573 14.8954 11.0367 14.9372 10.9948C15.0209 10.9111 15.0209 10.7755 14.9372 10.6918L13.1466 8.90229C13.1454 8.90117 13.1438 8.90061 13.1421 8.8995C13.1237 8.88164 13.1025 8.86713 13.0785 8.85709C13.0757 8.85597 13.0735 8.85485 13.0707 8.8543C13.0478 8.84537 13.0238 8.84035 12.9981 8.84035C12.9953 8.84035 12.9925 8.8409 12.9892 8.8409C12.9808 8.8409 12.973 8.8409 12.9646 8.84202C12.2587 8.94023 11.5707 8.64057 11.1705 8.05799C11.1678 8.05353 11.1638 8.05018 11.1611 8.04683C11.156 8.04014 11.1505 8.03288 11.1443 8.0273C11.1399 8.02284 11.1343 8.01893 11.1293 8.01502C11.1237 8.01056 11.1181 8.00554 11.112 8.00107C11.1064 7.99773 11.1002 7.99438 11.0947 7.99159C11.088 7.98824 11.0818 7.98433 11.0751 7.98154C11.0695 7.97931 11.064 7.9782 11.0584 7.97596C11.0506 7.97373 11.0433 7.97094 11.0355 7.96927C11.0305 7.96815 11.0255 7.96815 11.0199 7.96759C11.0115 7.96648 11.0031 7.96536 10.9942 7.96536C10.9886 7.96536 10.9836 7.96648 10.978 7.96648C10.9697 7.96703 10.9618 7.96759 10.9535 7.96927C10.9462 7.97094 10.939 7.97317 10.9323 7.9754C10.9267 7.97708 10.9211 7.9782 10.9155 7.98043L10.1399 8.28902C9.62482 8.4994 9.01993 8.3186 8.69963 7.85767C8.69126 7.8454 8.68679 7.83312 8.69405 7.80913C8.69795 7.79573 8.70298 7.78457 8.72641 7.77509L11.3062 6.73436C11.4161 6.69028 11.4691 6.56528 11.4245 6.45535C11.3804 6.34542 11.256 6.29242 11.1455 6.33705L8.56356 7.37889C8.42238 7.43692 8.32298 7.54854 8.28281 7.68805ZM12.5673 5.61666C12.6666 5.6334 12.7486 5.67581 12.8234 5.75114L14.6336 7.56139C14.6755 7.60325 14.7302 7.62389 14.7854 7.62389C14.8401 7.62389 14.8954 7.60325 14.9372 7.56139C15.0209 7.47769 15.0209 7.34208 14.9372 7.25839L13.1264 5.44814C12.9886 5.3103 12.8245 5.22493 12.6409 5.1948L10.7051 4.83878C10.5896 4.81701 10.4769 4.89402 10.4557 5.01064C10.4345 5.12671 10.5115 5.23888 10.6275 5.26008L12.5673 5.61666Z" fill="#FF751F" stroke="#FF751F" stroke-width="0.2"/>
</g>
<defs>
<clipPath id="clip0_0_211">
<rect width="16" height="16" fill="white"/>
</clipPath>
</defs>
</svg>
