<svg preserveAspectRatio="none" width="100%" height="100%" overflow="visible" style="display: block;" viewBox="0 0 16 16" fill="none" xmlns="http://www.w3.org/2000/svg">
<g id="Iconography">
<path id="Vector" d="M13.0992 2.90199C12.5216 2.32445 11.7383 2 10.9215 2C10.1047 2 9.32136 2.32445 8.7438 2.90199L2.87455 8.7705C2.30908 9.35051 1.99489 10.13 2.00006 10.94C2.00524 11.75 2.32935 12.5254 2.90219 13.0981C3.47503 13.6709 4.25046 13.9949 5.06051 13.9999C5.87056 14.005 6.64998 13.6907 7.22994 13.1252L13.0998 7.25668C13.6763 6.6787 14.0001 5.8956 14 5.07921C13.9999 4.26282 13.6759 3.47981 13.0992 2.90199ZM6.57594 12.4712C6.17191 12.8753 5.62389 13.1023 5.05245 13.1024C4.48101 13.1025 3.93295 12.8755 3.52884 12.4715C3.12474 12.0675 2.89768 11.5195 2.89763 10.948C2.89757 10.3766 3.12452 9.82858 3.52856 9.42448L6.13589 6.81722L9.18327 9.86394L6.57594 12.4712ZM12.4452 6.60269L9.83669 9.20995L6.79047 6.16323L9.39838 3.55597C9.80401 3.15972 10.3495 2.93935 10.9166 2.94267C11.4836 2.94598 12.0265 3.1727 12.4275 3.57367C12.8285 3.97463 13.0552 4.51751 13.0585 5.08455C13.0618 5.65159 12.8414 6.19707 12.4452 6.60269ZM11.5529 5.37336C11.596 5.41633 11.6301 5.46734 11.6534 5.5235C11.6766 5.57966 11.6886 5.63985 11.6886 5.70065C11.6886 5.76144 11.6766 5.82163 11.6534 5.87779C11.6301 5.93395 11.596 5.98496 11.5529 6.02793L10.1651 7.41569C10.1222 7.45863 10.0711 7.49269 10.015 7.51591C9.95886 7.53914 9.89869 7.55108 9.83793 7.55105C9.77718 7.55102 9.71702 7.53903 9.6609 7.51576C9.60478 7.49248 9.55379 7.45838 9.51085 7.4154C9.46791 7.37242 9.43385 7.32141 9.41062 7.26527C9.3874 7.20913 9.37546 7.14896 9.37548 7.08821C9.37551 7.02745 9.3875 6.9673 9.41078 6.91118C9.43406 6.85506 9.46816 6.80407 9.51114 6.76113L10.8989 5.37336C10.9857 5.28668 11.1033 5.23798 11.2259 5.23798C11.3486 5.23798 11.4662 5.28668 11.5529 5.37336Z" fill="#FF751F"/>
</g>
</svg>
