<svg preserveAspectRatio="none" width="100%" height="100%" overflow="visible" style="display: block;" viewBox="0 0 16 16" fill="none" xmlns="http://www.w3.org/2000/svg">
<g id="Iconography">
<path id="Vector" d="M13.0997 2.90203C12.5221 2.32447 11.7386 2 10.9217 2C10.1049 2 9.32143 2.32447 8.74377 2.90203L2.87455 8.77052C2.30907 9.35053 1.99489 10.13 2.00006 10.94C2.00524 11.75 2.32935 12.5254 2.90218 13.0981C3.47502 13.6709 4.25045 13.9949 5.0605 13.9999C5.87054 14.005 6.64996 13.6907 7.22992 13.1252L13.0997 7.2567C13.6762 6.67873 14 5.89571 14 5.07937C14 4.26303 13.6762 3.48001 13.0997 2.90203ZM12.4451 6.60272L9.51053 9.53668L6.46374 6.49055L9.39835 3.55602C9.80398 3.15976 10.3495 2.9394 10.9165 2.94271C11.4836 2.94603 12.0265 3.17275 12.4274 3.57371C12.8284 3.97468 13.0551 4.51755 13.0585 5.08458C13.0618 5.65162 12.8414 6.1971 12.4451 6.60272ZM11.5529 5.3734C11.5959 5.41636 11.63 5.46738 11.6533 5.52354C11.6766 5.57969 11.6886 5.63989 11.6886 5.70068C11.6886 5.76147 11.6766 5.82167 11.6533 5.87782C11.63 5.93398 11.5959 5.985 11.5529 6.02796L10.1651 7.41572C10.1221 7.45866 10.0711 7.49271 10.015 7.51594C9.95882 7.53916 9.89866 7.5511 9.8379 7.55108C9.77714 7.55105 9.71699 7.53906 9.66087 7.51578C9.60475 7.49251 9.55376 7.45841 9.51082 7.41543C9.46787 7.37245 9.43382 7.32143 9.41059 7.26529C9.38737 7.20915 9.37543 7.14899 9.37545 7.08823C9.37548 7.02748 9.38747 6.96732 9.41075 6.91121C9.43402 6.85509 9.46812 6.8041 9.51111 6.76116L10.8989 5.3734C10.9856 5.28671 11.1033 5.23802 11.2259 5.23802C11.3485 5.23802 11.4662 5.28671 11.5529 5.3734Z" fill="#FF751F"/>
</g>
</svg>
