<svg preserveAspectRatio="none" width="100%" height="100%" overflow="visible" style="display: block;" viewBox="0 0 16 16" fill="none" xmlns="http://www.w3.org/2000/svg">
<g id="Iconography">
<path id="Vector" d="M14.25 12.625H13.8125V8.25C13.8125 8.01794 13.7203 7.79538 13.5562 7.63128C13.3921 7.46719 13.1696 7.375 12.9375 7.375H9.875V3.875C9.875 3.64294 9.78281 3.42038 9.61872 3.25628C9.45462 3.09219 9.23206 3 9 3H3.75C3.51794 3 3.29538 3.09219 3.13128 3.25628C2.96719 3.42038 2.875 3.64294 2.875 3.875V12.625H2.4375C2.32147 12.625 2.21019 12.6711 2.12814 12.7531C2.04609 12.8352 2 12.9465 2 13.0625C2 13.1785 2.04609 13.2898 2.12814 13.3719C2.21019 13.4539 2.32147 13.5 2.4375 13.5H14.25C14.366 13.5 14.4773 13.4539 14.5594 13.3719C14.6414 13.2898 14.6875 13.1785 14.6875 13.0625C14.6875 12.9465 14.6414 12.8352 14.5594 12.7531C14.4773 12.6711 14.366 12.625 14.25 12.625ZM12.9375 8.25V12.625H9.875V8.25H12.9375ZM3.75 3.875H9V12.625H8.125V10C8.125 9.88397 8.07891 9.77269 7.99686 9.69064C7.91481 9.60859 7.80353 9.5625 7.6875 9.5625H5.0625C4.94647 9.5625 4.83519 9.60859 4.75314 9.69064C4.67109 9.77269 4.625 9.88397 4.625 10V12.625H3.75V3.875ZM7.25 12.625H5.5V10.4375H7.25V12.625Z" fill="#FF751F"/>
</g>
</svg>
