<svg preserveAspectRatio="none" width="100%" height="100%" overflow="visible" style="display: block;" viewBox="0 0 16 16" fill="none" xmlns="http://www.w3.org/2000/svg">
<g id="Iconography">
<path id="Union" d="M8.44727 0.904202C8.51679 0.89328 8.58905 0.904664 8.65332 0.939358L8.6543 0.938382L14.9307 4.28604L14.9336 4.28701C14.9552 4.29925 14.9738 4.31423 14.9902 4.32901C14.9985 4.33575 15.0067 4.34334 15.0137 4.35147H15.0127C15.0351 4.37514 15.0543 4.40174 15.0684 4.43155L15.0762 4.44717L15.0918 4.50088C15.0942 4.51231 15.0946 4.52417 15.0957 4.53604L15.0996 4.54776V11.4345C15.0996 11.5514 15.0341 11.6593 14.9307 11.7147L8.6543 15.0614L8.64648 15.0663L8.6377 15.0683C8.63238 15.07 8.6258 15.0729 8.61816 15.0751L8.61719 15.0741C8.60232 15.0801 8.58761 15.0861 8.57324 15.0897L8.56543 15.0927V15.0917C8.55695 15.0931 8.54213 15.0954 8.52637 15.0966L8.52441 15.0976C8.52212 15.0979 8.51659 15.0989 8.51074 15.0995L8.5 15.1005L8.48926 15.0995C8.48358 15.0989 8.47833 15.098 8.47559 15.0976C8.47277 15.0971 8.47168 15.0966 8.47168 15.0966V15.0956C8.4611 15.0945 8.44393 15.0933 8.42578 15.0888V15.0897C8.41451 15.087 8.40346 15.0821 8.39258 15.078V15.079C8.38396 15.0764 8.36766 15.0717 8.35156 15.0644L8.3457 15.0614L2.07129 11.7138C1.96757 11.6587 1.90129 11.5522 1.90039 11.4345V4.56045C1.90304 4.4943 1.92708 4.43193 1.96582 4.38076C1.96763 4.37809 1.96689 4.37863 1.9707 4.37295C1.97314 4.36932 1.97615 4.36375 1.98047 4.3583L1.9873 4.35049L2.02832 4.31826C2.03966 4.30717 2.05418 4.29599 2.05566 4.29483L2.0625 4.28994L2.07031 4.28604L4.41895 3.03311C4.42022 3.03239 4.42117 3.03154 4.42188 3.03116C4.42306 3.03051 4.42383 3.03018 4.42383 3.03018L4.42676 3.02823L8.3457 0.938382L8.34668 0.937405C8.37646 0.922019 8.41061 0.910718 8.44727 0.905178V0.904202ZM2.54688 11.2411L8.17676 14.244V8.10147L2.54688 5.09854V11.2411ZM12.7393 6.01358V7.92666L12.7383 7.93155C12.7382 7.93469 12.7368 7.93874 12.7363 7.94326L12.7373 7.94424C12.7363 7.95624 12.7345 7.96802 12.7334 7.97451C12.7314 7.98641 12.7278 7.99807 12.7266 8.00283L12.7227 8.01846L12.6279 7.98428L12.7217 8.01846C12.7174 8.03023 12.711 8.04602 12.7021 8.06241H12.7012V8.06338L12.7021 8.06241H12.7031C12.7029 8.06276 12.702 8.06337 12.7012 8.06436L12.6953 8.07608L12.6914 8.07901C12.686 8.08783 12.6822 8.09639 12.6787 8.10147L12.6768 8.1044H12.6758C12.6475 8.14247 12.6114 8.17376 12.5693 8.19619L11.0146 9.0253C10.8898 9.09205 10.7344 9.07007 10.6328 8.97061L10.6299 8.96866C10.6227 8.96111 10.6102 8.94706 10.5986 8.93057C10.5919 8.92106 10.5856 8.91104 10.5801 8.90225L10.5762 8.89737C10.5619 8.8711 10.5512 8.84218 10.5449 8.81241L10.5459 8.81143L10.5381 8.76651V8.75674C10.5378 8.75068 10.5371 8.74591 10.5371 8.74502V7.18741L8.82324 8.10147V14.2431L14.4521 11.2411V5.09854L12.7393 6.01358ZM3.23438 10.3095C3.29642 10.3051 3.35796 10.3194 3.41113 10.3476L4.88867 11.1356H4.88965C4.96363 11.1757 5.02149 11.243 5.0459 11.3261H5.04492C5.06988 11.4081 5.06004 11.4958 5.01855 11.5702L5.01758 11.5692C4.97613 11.6441 4.9069 11.6988 4.82617 11.7226H4.8252C4.76375 11.7398 4.69888 11.7392 4.63867 11.7206L4.58008 11.6962L3.10254 10.9081C3.02733 10.8681 2.97151 10.7995 2.94727 10.7187C2.92211 10.6367 2.93196 10.5488 2.97363 10.4745C3.02641 10.3791 3.12496 10.3172 3.23438 10.3095ZM3.23438 9.22647C3.2955 9.22219 3.35751 9.23477 3.41211 9.26455H3.41113L4.88867 10.0517C4.96346 10.0913 5.02043 10.1597 5.04492 10.2411C5.06387 10.3027 5.06335 10.3683 5.04395 10.4286L5.01855 10.4862C4.97754 10.5602 4.9078 10.6151 4.82617 10.6386C4.7643 10.6566 4.69901 10.6562 4.63867 10.6376L4.58008 10.6132L3.10254 9.8251V9.82412C3.02841 9.78398 2.97174 9.71703 2.94727 9.63565L2.93457 9.57315C2.92872 9.51049 2.94246 9.44714 2.97363 9.39151L3.02148 9.32608C3.07673 9.26788 3.15269 9.23223 3.23438 9.22647ZM10.5654 8.84951C10.5659 8.88219 10.5826 8.90887 10.5947 8.9208C10.6071 8.93283 10.6327 8.94676 10.6641 8.94717V8.84951H10.5654ZM10.709 8.93643C10.7106 8.9356 10.7132 8.93641 10.7148 8.93545L10.7168 8.9335C10.7143 8.93503 10.7114 8.93523 10.709 8.93643ZM10.6299 8.75576L10.6279 8.75674H10.6309C10.6333 8.75583 10.6354 8.7547 10.6377 8.75381V8.75283C10.6351 8.75346 10.6325 8.75483 10.6299 8.75576ZM11.1846 6.8417V8.20987L12.0918 7.72549V6.35733L11.1846 6.8417ZM2.90137 4.56436L8.5 7.54873L10.1826 6.65127L4.58496 3.6669L2.90137 4.56436ZM5.26367 3.30557L10.8613 6.28994L11.7363 5.82412L6.13965 2.8378L5.26367 3.30557ZM6.81836 2.47647L12.416 5.46182L14.0977 4.56533L8.49902 1.57998L6.81836 2.47647Z" fill="#FF751F"/>
</g>
</svg>
