<svg preserveAspectRatio="none" width="100%" height="100%" overflow="visible" style="display: block;" viewBox="0 0 16 16" fill="none" xmlns="http://www.w3.org/2000/svg">
<g id="Iconography">
<path id="Vector" d="M7.07692 7.54545C7.07692 7.72526 7.02279 7.90102 6.92136 8.05052C6.81993 8.20002 6.67576 8.31654 6.50709 8.38535C6.33842 8.45415 6.15282 8.47216 5.97376 8.43708C5.7947 8.402 5.63023 8.31542 5.50113 8.18828C5.37204 8.06114 5.28412 7.89916 5.24851 7.72281C5.21289 7.54646 5.23117 7.36368 5.30103 7.19756C5.3709 7.03145 5.48921 6.88947 5.64101 6.78957C5.79281 6.68968 5.97128 6.63636 6.15385 6.63636C6.39866 6.63636 6.63345 6.73214 6.80656 6.90263C6.97967 7.07312 7.07692 7.30435 7.07692 7.54545ZM14 3.90909V12.0909C14 12.332 13.9027 12.5632 13.7296 12.7337C13.5565 12.9042 13.3217 13 13.0769 13H2.92308C2.67826 13 2.44347 12.9042 2.27036 12.7337C2.09725 12.5632 2 12.332 2 12.0909V3.90909C2 3.66799 2.09725 3.43675 2.27036 3.26627C2.44347 3.09578 2.67826 3 2.92308 3H13.0769C13.3217 3 13.5565 3.09578 13.7296 3.26627C13.9027 3.43675 14 3.66799 14 3.90909ZM8.44712 10.1591C8.29776 9.60989 7.94363 9.13634 7.45538 8.83295C7.71467 8.57911 7.89159 8.25516 7.96372 7.90217C8.03584 7.54919 7.99993 7.18306 7.86052 6.8502C7.72111 6.51734 7.48449 6.23274 7.18066 6.03248C6.87682 5.83221 6.51945 5.7253 6.15385 5.7253C5.78824 5.7253 5.43087 5.83221 5.12704 6.03248C4.8232 6.23274 4.58658 6.51734 4.44717 6.8502C4.30777 7.18306 4.27185 7.54919 4.34397 7.90217C4.4161 8.25516 4.59302 8.57911 4.85231 8.83295C4.36438 9.13668 4.01035 9.61009 3.86058 10.1591C3.82998 10.2759 3.84773 10.3999 3.90994 10.5037C3.97216 10.6076 4.07373 10.6829 4.19231 10.7131C4.31089 10.7432 4.43677 10.7257 4.54226 10.6644C4.64775 10.6032 4.72421 10.5031 4.75481 10.3864C4.90712 9.80398 5.50827 9.36364 6.15385 9.36364C6.79942 9.36364 7.40115 9.80284 7.55288 10.3864C7.58349 10.5031 7.65994 10.6032 7.76543 10.6644C7.87092 10.7257 7.9968 10.7432 8.11538 10.7131C8.23397 10.6829 8.33554 10.6076 8.39775 10.5037C8.45996 10.3999 8.47772 10.2759 8.44712 10.1591ZM12.1538 8.90909C12.1538 8.78854 12.1052 8.67292 12.0187 8.58768C11.9321 8.50243 11.8147 8.45455 11.6923 8.45455H9.38462C9.26221 8.45455 9.14481 8.50243 9.05826 8.58768C8.9717 8.67292 8.92308 8.78854 8.92308 8.90909C8.92308 9.02964 8.9717 9.14526 9.05826 9.2305C9.14481 9.31575 9.26221 9.36364 9.38462 9.36364H11.6923C11.8147 9.36364 11.9321 9.31575 12.0187 9.2305C12.1052 9.14526 12.1538 9.02964 12.1538 8.90909ZM12.1538 7.09091C12.1538 6.97036 12.1052 6.85474 12.0187 6.7695C11.9321 6.68425 11.8147 6.63636 11.6923 6.63636H9.38462C9.26221 6.63636 9.14481 6.68425 9.05826 6.7695C8.9717 6.85474 8.92308 6.97036 8.92308 7.09091C8.92308 7.21146 8.9717 7.32708 9.05826 7.41232C9.14481 7.49757 9.26221 7.54545 9.38462 7.54545H11.6923C11.8147 7.54545 11.9321 7.49757 12.0187 7.41232C12.1052 7.32708 12.1538 7.21146 12.1538 7.09091Z" fill="#FF751F"/>
</g>
</svg>
