<svg preserveAspectRatio="none" width="100%" height="100%" overflow="visible" style="display: block;" viewBox="0 0 9.85369 14" fill="none" xmlns="http://www.w3.org/2000/svg">
<g id="Group 8">
<path id="Vector" d="M5.52308 1.50796C5.57616 1.51787 5.63274 1.52546 5.68699 1.53479V6.68535C5.68699 6.74427 5.70916 6.80085 5.74941 6.84401L7.2275 8.43583V11.9631H6.90785C6.78886 11.9631 6.68852 12.0529 6.67569 12.1719L6.5077 13.7416C6.5007 13.8075 6.5217 13.8734 6.56603 13.9224C6.61036 13.9714 6.67336 14 6.73986 14H8.18179C8.24828 14 8.31128 13.972 8.35562 13.9224C8.39995 13.8734 8.42095 13.8075 8.41395 13.7416L8.24596 12.1719C8.23312 12.0535 8.13338 11.9631 8.0138 11.9631H7.69415V8.43583L9.17224 6.84401C9.21191 6.80085 9.23466 6.74427 9.23466 6.68535V1.53479C9.2889 1.52546 9.34548 1.51846 9.39857 1.50796C9.54848 1.47937 9.67739 1.39305 9.76139 1.26414C9.84597 1.13406 9.87397 0.973071 9.83897 0.821997L9.74972 0.439349C9.68089 0.143608 9.39565 -0.0453794 9.1005 0.00945321C8.08905 0.196693 6.83253 0.196693 5.82174 0.00945321C5.52658 -0.0442117 5.24193 0.143614 5.17251 0.439349L5.08268 0.821997C5.04769 0.973071 5.07569 1.13406 5.16026 1.26414C5.24426 1.39305 5.37317 1.47996 5.52308 1.50796ZM7.92216 13.5328H6.99936L7.11719 12.4297H7.80375L7.92158 13.5328H7.92216ZM7.46077 8.00126L6.153 6.59374V4.6186H8.768V6.59374L7.46077 8.00126ZM8.76854 4.15208H6.15353V1.60188C6.57701 1.65263 7.01858 1.68121 7.4613 1.68121C7.90403 1.68121 8.3456 1.65263 8.76849 1.60188L8.76854 4.15208ZM5.53697 0.928721L5.6268 0.546072C5.6373 0.499992 5.67813 0.466743 5.72129 0.466743C5.72654 0.466743 5.73179 0.467326 5.73646 0.467909C6.80041 0.665065 8.12164 0.665065 9.18559 0.467909C9.23459 0.458576 9.28359 0.493575 9.29526 0.545489L9.3845 0.928137C9.39092 0.956136 9.38567 0.985301 9.3705 1.00922C9.36059 1.02438 9.3425 1.04363 9.31217 1.04946C8.1689 1.26645 6.75377 1.26645 5.60993 1.04946C5.5796 1.04363 5.56151 1.02438 5.5516 1.00922C5.53643 0.985301 5.5306 0.955553 5.5376 0.928137L5.53697 0.928721Z" fill="#FF751F"/>
<path id="Vector_2" d="M0.454789 1.50796C0.50787 1.51787 0.564451 1.52546 0.618705 1.53479V6.68535C0.618705 6.74427 0.64087 6.80085 0.681118 6.84401L2.15921 8.43583V11.9631H1.83956C1.72057 11.9631 1.62023 12.0529 1.6074 12.1719L1.43941 13.7416C1.43241 13.8075 1.45341 13.8734 1.49774 13.9224C1.54207 13.9714 1.60507 14 1.67157 14H3.1135C3.17999 14 3.24299 13.972 3.28733 13.9224C3.33166 13.8734 3.35266 13.8075 3.34566 13.7416L3.17767 12.1719C3.16483 12.0535 3.06509 11.9631 2.94551 11.9631H2.62586V8.43583L4.10395 6.84401C4.14362 6.80085 4.16637 6.74427 4.16637 6.68535L4.16695 1.53479C4.2212 1.52546 4.27778 1.51846 4.33086 1.50796C4.48077 1.47937 4.60969 1.39305 4.69368 1.26414C4.77826 1.13406 4.80626 0.973071 4.77126 0.821997L4.68143 0.439349C4.61202 0.143608 4.32678 -0.0447969 4.03221 0.00945333C3.02076 0.196694 1.76424 0.196694 0.75345 0.00945333C0.457709 -0.0447939 0.173646 0.143614 0.104224 0.439931L0.0149775 0.82258C-0.0206039 0.973653 0.00797776 1.13464 0.0925569 1.26472C0.176553 1.39363 0.305466 1.48054 0.455375 1.50854L0.454789 1.50796ZM2.85387 13.5328H1.93107L2.0489 12.4297H2.73546L2.85329 13.5328H2.85387ZM2.39306 8.00126L1.08587 6.59374V4.6186H3.70087V6.59374L2.39306 8.00126ZM3.70025 4.15208H1.08524V1.60188C1.50872 1.65263 1.95029 1.68121 2.39243 1.68121C2.83457 1.68121 3.27673 1.65263 3.7002 1.60188L3.70025 4.15208ZM0.469274 0.928124L0.55852 0.545475C0.569019 0.499394 0.609851 0.466145 0.653015 0.466145C0.658265 0.466145 0.663515 0.466729 0.668181 0.467312C1.73213 0.664467 3.05337 0.664467 4.11732 0.467312C4.16515 0.457396 4.21531 0.492978 4.22698 0.544891L4.31681 0.92754C4.32323 0.955539 4.31798 0.984703 4.30281 1.00862C4.29289 1.02379 4.27481 1.04303 4.24448 1.04887C3.10121 1.26585 1.68548 1.26585 0.542234 1.04887C0.511903 1.04303 0.493237 1.02379 0.483904 1.00862C0.468739 0.984703 0.463489 0.954955 0.469905 0.92754L0.469274 0.928124Z" fill="#FF751F"/>
</g>
</svg>
