<svg preserveAspectRatio="none" width="100%" height="100%" overflow="visible" style="display: block;" viewBox="0 0 10.9537 14.1" fill="none" xmlns="http://www.w3.org/2000/svg">
<g id="Group 9">
<path id="Vector" d="M6.57311 1.55797C6.62619 1.56789 6.68277 1.57547 6.73703 1.58481V6.73537C6.73703 6.79428 6.75919 6.85086 6.79944 6.89403L8.27753 8.48584V12.0131H7.95788C7.83889 12.0131 7.73855 12.1029 7.72573 12.2219L7.55774 13.7916C7.55074 13.8575 7.57173 13.9234 7.61607 13.9724C7.6604 14.0214 7.72339 14.05 7.7899 14.05H9.23182C9.29832 14.05 9.36131 14.022 9.40565 13.9724C9.44998 13.9234 9.47098 13.8575 9.46398 13.7916L9.29599 12.2219C9.28316 12.1035 9.18341 12.0131 9.06383 12.0131H8.74418V8.48584L10.2223 6.89403C10.2619 6.85086 10.2847 6.79428 10.2847 6.73537V1.58481C10.3389 1.57547 10.3955 1.56847 10.4486 1.55797C10.5985 1.52939 10.7274 1.44306 10.8114 1.31415C10.896 1.18408 10.924 1.02309 10.889 0.872013L10.7998 0.489364C10.7309 0.193623 10.4457 0.00463601 10.1505 0.0594686C9.13908 0.246709 7.88256 0.246709 6.87177 0.0594686C6.57661 0.00580374 6.29197 0.193629 6.22255 0.489364L6.13272 0.872013C6.09772 1.02309 6.12572 1.18407 6.2103 1.31415C6.29429 1.44306 6.4232 1.52997 6.57311 1.55797ZM8.97219 13.5828H8.0494L8.16722 12.4797H8.85378L8.97161 13.5828H8.97219ZM8.5108 8.05128L7.20303 6.64376V4.66862H9.81803V6.64376L8.5108 8.05128ZM9.81857 4.20209H7.20357V1.6519C7.62704 1.70265 8.06861 1.73123 8.51134 1.73123C8.95406 1.73123 9.39563 1.70265 9.81852 1.6519L9.81857 4.20209ZM6.587 0.978736L6.67683 0.596088C6.68733 0.550007 6.72816 0.516758 6.77132 0.516758C6.77657 0.516758 6.78182 0.517341 6.78649 0.517924C7.85044 0.71508 9.17168 0.71508 10.2356 0.517924C10.2846 0.508592 10.3336 0.543591 10.3453 0.595504L10.4345 0.978153C10.441 1.00615 10.4357 1.03532 10.4205 1.05923C10.4106 1.0744 10.3925 1.09365 10.3622 1.09948C9.21893 1.31647 7.8038 1.31647 6.65996 1.09948C6.62963 1.09365 6.61155 1.0744 6.60163 1.05923C6.58646 1.03532 6.58063 1.00557 6.58763 0.978153L6.587 0.978736Z" fill="#FF751F" stroke="#FF751F" stroke-width="0.1"/>
<path id="Vector_2" d="M0.50479 1.55797C0.557871 1.56788 0.614452 1.57547 0.668705 1.5848V6.73536C0.668705 6.79428 0.690871 6.85086 0.731119 6.89402L2.20921 8.48584V12.0131H1.88956C1.77057 12.0131 1.67023 12.1029 1.6574 12.2219L1.48941 13.7916C1.48241 13.8575 1.50341 13.9234 1.54774 13.9724C1.59207 14.0214 1.65507 14.05 1.72157 14.05H3.1635C3.22999 14.05 3.29299 14.022 3.33733 13.9724C3.38166 13.9234 3.40266 13.8575 3.39566 13.7916L3.22767 12.2219C3.21483 12.1035 3.11509 12.0131 2.99551 12.0131H2.67586V8.48584L4.15395 6.89402C4.19362 6.85086 4.21637 6.79428 4.21637 6.73536L4.21695 1.5848C4.2712 1.57547 4.32778 1.56847 4.38087 1.55797C4.53077 1.52938 4.65969 1.44306 4.74368 1.31415C4.82826 1.18407 4.85626 1.02308 4.82126 0.872007L4.73143 0.489358C4.66202 0.193618 4.37678 0.00521272 4.08221 0.059463C3.07076 0.246703 1.81424 0.246703 0.803451 0.059463C0.50771 0.00521571 0.223646 0.193624 0.154225 0.489941L0.0649783 0.872589C0.0293969 1.02366 0.0579786 1.18465 0.142558 1.31473C0.226554 1.44364 0.355467 1.53055 0.505376 1.55855L0.50479 1.55797ZM2.90387 13.5828H1.98107L2.0989 12.4797H2.78546L2.90329 13.5828H2.90387ZM2.44306 8.05127L1.13587 6.64375V4.66861H3.75087V6.64375L2.44306 8.05127ZM3.75025 4.20209H1.13525V1.65189C1.55872 1.70264 2.00029 1.73122 2.44243 1.73122C2.88457 1.73122 3.32673 1.70264 3.7502 1.65189L3.75025 4.20209ZM0.519274 0.978133L0.608521 0.595485C0.61902 0.549404 0.659852 0.516155 0.703016 0.516155C0.708266 0.516155 0.713515 0.516738 0.718181 0.517322C1.78213 0.714477 3.10337 0.714477 4.16732 0.517322C4.21515 0.507405 4.26532 0.542988 4.27698 0.594901L4.36681 0.97755C4.37323 1.00555 4.36798 1.03471 4.35281 1.05863C4.3429 1.07379 4.32481 1.09304 4.29448 1.09888C3.15121 1.31586 1.73548 1.31586 0.592235 1.09888C0.561904 1.09304 0.543238 1.07379 0.533905 1.05863C0.51874 1.03471 0.513489 1.00496 0.519906 0.97755L0.519274 0.978133Z" fill="#FF751F" stroke="#FF751F" stroke-width="0.1"/>
</g>
</svg>
