<svg preserveAspectRatio="none" width="100%" height="100%" overflow="visible" style="display: block;" viewBox="0 0 16 16" fill="none" xmlns="http://www.w3.org/2000/svg">
<g id="Iconography">
<g id="Vector">
<path d="M10.8735 6.85484H10.1336V6.01756C10.1336 5.09129 9.40023 4.33682 8.49992 4.33682C7.59962 4.33682 6.86629 5.09129 6.86629 6.01756V6.85484H6.12635V10.5295H10.8735V6.85484ZM7.50706 6.01818C7.50706 5.45463 7.9521 4.99676 8.49985 4.99676C9.04759 4.99676 9.49263 5.45463 9.49263 6.01818V6.85546H7.50644V6.01818H7.50706ZM10.2327 9.87035H6.76658V7.51415H10.2327V9.87035Z" fill="#FF751F"/>
<path d="M3.00008 6.91116C3.00008 8.68396 3.65053 10.3715 4.82898 11.6599C4.88363 11.7223 4.94429 11.7854 4.99895 11.841C5.52448 12.3749 6.12989 12.8167 6.80248 13.1528L8.49685 14L10.1977 13.1528C10.8703 12.8167 11.4757 12.3749 12.0012 11.841C12.0559 11.7848 12.1165 11.7223 12.1712 11.663C12.7219 11.0599 13.161 10.3679 13.4685 9.60659C13.821 8.75325 14 7.84676 14 6.9106V3.58867L8.49669 2L3 3.58931L3.00008 6.91116ZM3.64032 4.09036L8.49617 2.68645L13.3586 4.09036V6.91116C13.3586 7.75833 13.1983 8.57893 12.8782 9.35009C12.5965 10.0422 12.2025 10.6681 11.7028 11.212C11.6517 11.2682 11.5971 11.3238 11.549 11.3732C11.0752 11.8577 10.5274 12.2562 9.91847 12.5596L8.49625 13.2684L7.08064 12.5596C6.47223 12.2562 5.92449 11.8577 5.45008 11.3732C5.40203 11.3238 5.34738 11.2676 5.29633 11.212C4.22966 10.0422 3.6404 8.51597 3.6404 6.91116L3.64032 4.09036Z" fill="#FF751F"/>
<path d="M10.8735 6.85484H10.1336V6.01756C10.1336 5.09129 9.40023 4.33682 8.49992 4.33682C7.59962 4.33682 6.86629 5.09129 6.86629 6.01756V6.85484H6.12635V10.5295H10.8735V6.85484ZM7.50706 6.01818C7.50706 5.45463 7.9521 4.99676 8.49985 4.99676C9.04759 4.99676 9.49263 5.45463 9.49263 6.01818V6.85546H7.50644V6.01818H7.50706ZM10.2327 9.87035H6.76658V7.51415H10.2327V9.87035Z" stroke="#FF751F" stroke-width="0.1"/>
<path d="M3.00008 6.91116C3.00008 8.68396 3.65053 10.3715 4.82898 11.6599C4.88363 11.7223 4.94429 11.7854 4.99895 11.841C5.52448 12.3749 6.12989 12.8167 6.80248 13.1528L8.49685 14L10.1977 13.1528C10.8703 12.8167 11.4757 12.3749 12.0012 11.841C12.0559 11.7848 12.1165 11.7223 12.1712 11.663C12.7219 11.0599 13.161 10.3679 13.4685 9.60659C13.821 8.75325 14 7.84676 14 6.9106V3.58867L8.49669 2L3 3.58931L3.00008 6.91116ZM3.64032 4.09036L8.49617 2.68645L13.3586 4.09036V6.91116C13.3586 7.75833 13.1983 8.57893 12.8782 9.35009C12.5965 10.0422 12.2025 10.6681 11.7028 11.212C11.6517 11.2682 11.5971 11.3238 11.549 11.3732C11.0752 11.8577 10.5274 12.2562 9.91847 12.5596L8.49625 13.2684L7.08064 12.5596C6.47223 12.2562 5.92449 11.8577 5.45008 11.3732C5.40203 11.3238 5.34738 11.2676 5.29633 11.212C4.22966 10.0422 3.6404 8.51597 3.6404 6.91116L3.64032 4.09036Z" stroke="#FF751F" stroke-width="0.1"/>
</g>
</g>
</svg>
