<svg preserveAspectRatio="none" width="100%" height="100%" overflow="visible" style="display: block;" viewBox="0 0 16 16" fill="none" xmlns="http://www.w3.org/2000/svg">
<g id="Iconography">
<path id="Vector" fill-rule="evenodd" clip-rule="evenodd" d="M6.95566 1.70078C8.33879 1.66956 9.6819 2.17333 10.7037 3.10605C11.7253 4.03906 12.3486 5.33121 12.443 6.71152C12.5308 8.00035 12.1509 9.27464 11.3795 10.3033L14.0768 12.9996L14.1715 13.1158C14.1987 13.1567 14.2228 13.201 14.2418 13.2467C14.2799 13.3388 14.2994 13.439 14.2994 13.5387L14.2848 13.6871C14.2751 13.7356 14.2608 13.7838 14.2418 13.8297C14.2035 13.922 14.1474 14.0061 14.0768 14.0768C14.0061 14.1474 13.922 14.2035 13.8297 14.2418C13.7376 14.2799 13.6383 14.2993 13.5387 14.2994C13.439 14.2994 13.3388 14.2799 13.2467 14.2418C13.201 14.2228 13.1567 14.1987 13.1158 14.1715L12.9996 14.0768L10.3033 11.3795C9.27464 12.1509 8.00035 12.5308 6.71152 12.443C5.33121 12.3486 4.03906 11.7253 3.10605 10.7037C2.17333 9.6819 1.66956 8.33879 1.70078 6.95566C1.73232 5.57218 2.29647 4.25352 3.275 3.275C4.25352 2.29647 5.57218 1.73232 6.95566 1.70078ZM7.83457 3.3082C7.08827 3.15989 6.31395 3.23588 5.61093 3.52695C4.90779 3.81825 4.30631 4.31214 3.88339 4.94492C3.46056 5.57776 3.23409 6.32249 3.23398 7.08359L3.23984 7.27402C3.28804 8.22483 3.68667 9.12779 4.36289 9.80429C5.08435 10.5256 6.06344 10.9308 7.08359 10.9322C7.84466 10.9322 8.58941 10.7075 9.22226 10.2848C9.85511 9.86188 10.3489 9.26037 10.6402 8.55722C10.9315 7.85403 11.0074 7.07911 10.859 6.33261C10.7104 5.58634 10.3433 4.90003 9.80527 4.36191C9.26712 3.82398 8.58084 3.45673 7.83457 3.3082Z" fill="#FF751F"/>
</g>
</svg>
