<svg preserveAspectRatio="none" width="100%" height="100%" overflow="visible" style="display: block;" viewBox="0 0 16 16" fill="none" xmlns="http://www.w3.org/2000/svg">
<g id="Iconography">
<path id="Vector" d="M13.9685 3.08752C13.9685 3.08752 13.9685 3.09288 13.9685 3.09555L10.8505 13.3801C10.8033 13.5471 10.7061 13.6957 10.5721 13.8059C10.438 13.9162 10.2734 13.9828 10.1004 13.9968C10.0758 13.9989 10.0511 14 10.0265 14C9.86438 14.0005 9.7055 13.9546 9.56861 13.8677C9.43172 13.7809 9.32254 13.6566 9.25395 13.5097L7.30384 9.50716C7.28433 9.46705 7.27781 9.42184 7.28521 9.37785C7.2926 9.33386 7.31354 9.29328 7.34509 9.26175L10.4481 6.15829C10.5251 6.07725 10.5674 5.96934 10.566 5.85756C10.5645 5.74578 10.5195 5.63899 10.4405 5.55994C10.3614 5.4809 10.2547 5.43586 10.1429 5.43443C10.0311 5.433 9.92324 5.47529 9.8422 5.55228L6.73756 8.65574C6.70604 8.6873 6.66546 8.70824 6.62147 8.71564C6.57749 8.72303 6.53229 8.71652 6.49219 8.697L2.48641 6.74716C2.32977 6.672 2.19966 6.55101 2.11333 6.40022C2.02699 6.24943 1.98851 6.07597 2.00298 5.90281C2.01744 5.72966 2.08418 5.56499 2.19433 5.43062C2.30449 5.29625 2.45287 5.19854 2.61981 5.15042L12.9029 2.03195H12.911C13.0574 1.99082 13.2121 1.98937 13.3592 2.02778C13.5064 2.06618 13.6407 2.14304 13.7483 2.25049C13.856 2.35793 13.9331 2.49208 13.9718 2.63917C14.0105 2.78626 14.0094 2.941 13.9685 3.08752Z" fill="#FF751F"/>
</g>
</svg>
