<svg preserveAspectRatio="none" width="100%" height="100%" overflow="visible" style="display: block;" viewBox="0 0 16 16" fill="none" xmlns="http://www.w3.org/2000/svg">
<g id="Iconography">
<path id="Vector" d="M13.7214 3H9.86429C9.53162 3 9.20352 3.0753 8.90597 3.21994C8.60842 3.36458 8.3496 3.57459 8.15 3.83333C7.9504 3.57459 7.69158 3.36458 7.39403 3.21994C7.09648 3.0753 6.76838 3 6.43571 3H2.57857C2.46491 3 2.3559 3.0439 2.27553 3.12204C2.19515 3.20018 2.15 3.30616 2.15 3.41667V10.9167C2.15 11.0272 2.19515 11.1332 2.27553 11.2113C2.3559 11.2894 2.46491 11.3333 2.57857 11.3333H6.43571C6.77671 11.3333 7.10373 11.465 7.34485 11.6994C7.58597 11.9339 7.72143 12.2518 7.72143 12.5833C7.72143 12.6938 7.76658 12.7998 7.84695 12.878C7.92733 12.9561 8.03634 13 8.15 13C8.26366 13 8.37267 12.9561 8.45305 12.878C8.53342 12.7998 8.57857 12.6938 8.57857 12.5833C8.57857 12.2518 8.71403 11.9339 8.95515 11.6994C9.19627 11.465 9.52329 11.3333 9.86429 11.3333H13.7214C13.8351 11.3333 13.9441 11.2894 14.0245 11.2113C14.1048 11.1332 14.15 11.0272 14.15 10.9167V3.41667C14.15 3.30616 14.1048 3.20018 14.0245 3.12204C13.9441 3.0439 13.8351 3 13.7214 3ZM6.43571 10.5H3.00714V3.83333H6.43571C6.77671 3.83333 7.10373 3.96503 7.34485 4.19945C7.58597 4.43387 7.72143 4.75181 7.72143 5.08333V10.9167C7.35086 10.6456 6.89948 10.4993 6.43571 10.5ZM13.2929 10.5H9.86429C9.40052 10.4993 8.94914 10.6456 8.57857 10.9167V5.08333C8.57857 4.75181 8.71403 4.43387 8.95515 4.19945C9.19627 3.96503 9.52329 3.83333 9.86429 3.83333H13.2929V10.5Z" fill="#FF751F"/>
</g>
</svg>
