<svg preserveAspectRatio="none" width="100%" height="100%" overflow="visible" style="display: block;" viewBox="0 0 16 16" fill="none" xmlns="http://www.w3.org/2000/svg">
<g id="Iconography">
<path id="Vector" d="M14.2 3.41661V10.9156C14.2 11.0261 14.1548 11.132 14.0745 11.2102C13.9941 11.2883 13.8851 11.3322 13.7714 11.3322H9.91429C9.57385 11.3322 9.24731 11.4634 9.00628 11.6971C8.76526 11.9309 8.62942 12.248 8.62857 12.5789C8.63029 12.664 8.60483 12.7474 8.55571 12.8179C8.50659 12.8883 8.43621 12.9421 8.35429 12.9721C8.28925 12.9965 8.21907 13.0051 8.14983 12.9971C8.0806 12.9892 8.0144 12.965 7.95698 12.9265C7.89956 12.8881 7.85265 12.8367 7.82031 12.7766C7.78798 12.7166 7.7712 12.6498 7.77143 12.582C7.77143 12.2505 7.63597 11.9326 7.39485 11.6983C7.15373 11.4639 6.82671 11.3322 6.48571 11.3322H2.62857C2.51491 11.3322 2.4059 11.2883 2.32553 11.2102C2.24515 11.132 2.2 11.0261 2.2 10.9156V3.41661C2.2 3.30612 2.24515 3.20015 2.32553 3.12202C2.4059 3.04389 2.51491 3 2.62857 3H6.05714C6.5118 3 6.94784 3.17557 7.26933 3.48809C7.59082 3.80061 7.77143 4.22447 7.77143 4.66644V9.23508C7.76994 9.34259 7.81038 9.44667 7.88463 9.52638C7.95887 9.60608 8.0614 9.65551 8.17161 9.66471C8.23023 9.66849 8.28903 9.66052 8.34435 9.64128C8.39967 9.62205 8.45033 9.59196 8.49318 9.55289C8.53603 9.51382 8.57017 9.4666 8.59346 9.41417C8.61675 9.36174 8.6287 9.30521 8.62857 9.2481V4.66644C8.62857 4.22447 8.80918 3.80061 9.13067 3.48809C9.45217 3.17557 9.8882 3 10.3429 3H13.7714C13.8851 3 13.9941 3.04389 14.0745 3.12202C14.1548 3.20015 14.2 3.30612 14.2 3.41661Z" fill="#FF751F"/>
</g>
</svg>
