<svg preserveAspectRatio="none" width="100%" height="100%" overflow="visible" style="display: block;" viewBox="0 0 16 16" fill="none" xmlns="http://www.w3.org/2000/svg">
<g id="Iconography">
<path id="Subtract" fill-rule="evenodd" clip-rule="evenodd" d="M7.01363 2C6.45555 2 5.97927 2.40778 5.88752 2.96416L5.77874 3.62383C5.76647 3.69824 5.70913 3.78449 5.59813 3.83844C5.38864 3.94026 5.18809 4.05772 4.99795 4.1893C4.89659 4.25944 4.7941 4.26658 4.72414 4.24009L4.10359 4.00513C3.58098 3.80725 2.99342 4.02024 2.71438 4.50871L2.15301 5.49143C1.87398 5.97991 1.98525 6.60069 2.41611 6.95918L2.92788 7.38499C2.9855 7.43293 3.03062 7.52605 3.02143 7.64968C3.01282 7.76539 3.00845 7.88222 3.00845 8C3.00845 8.11782 3.01282 8.2347 3.02144 8.35046C3.03063 8.47409 2.98551 8.56721 2.92789 8.61515L2.41611 9.04097C1.98525 9.39946 1.87398 10.0202 2.15301 10.5087L2.71438 11.4914C2.99342 11.9799 3.58098 12.1929 4.10359 11.995L4.72428 11.76C4.79423 11.7335 4.89672 11.7407 4.99808 11.8108C5.18818 11.9423 5.38869 12.0598 5.59813 12.1616C5.70913 12.2155 5.76647 12.3018 5.77874 12.3762L5.88752 13.0358C5.97927 13.5922 6.45555 14 7.01363 14H8.13637C8.69445 14 9.17073 13.5922 9.26248 13.0358L9.37126 12.3762C9.38353 12.3018 9.44087 12.2155 9.55187 12.1616C9.76136 12.0597 9.96191 11.9423 10.152 11.8107C10.2534 11.7406 10.3559 11.7334 10.4259 11.7599L11.0464 11.9949C11.569 12.1928 12.1566 11.9798 12.4356 11.4913L12.997 10.5086C13.276 10.0201 13.1647 9.39931 12.7339 9.04082L12.2221 8.61501C12.1645 8.56707 12.1194 8.47395 12.1286 8.35033C12.1372 8.23461 12.1416 8.11778 12.1416 8C12.1416 7.88218 12.1372 7.76531 12.1286 7.64954C12.1194 7.52591 12.1645 7.43279 12.2221 7.38485L12.7339 6.95903C13.1648 6.60054 13.276 5.97976 12.997 5.49129L12.4356 4.50857C12.1566 4.02009 11.569 3.8071 11.0464 4.00498L10.4257 4.24C10.3558 4.26649 10.2533 4.25935 10.1519 4.18921C9.96182 4.05767 9.76131 3.94024 9.55187 3.83844C9.44087 3.78449 9.38353 3.69824 9.37126 3.62383L9.26248 2.96415C9.17073 2.40778 8.69445 2 8.13637 2H7.01363ZM7.57507 10.3077C8.83609 10.3077 9.85835 9.2745 9.85835 8C9.85835 6.7255 8.83609 5.69231 7.57507 5.69231C6.31406 5.69231 5.2918 6.7255 5.2918 8C5.2918 9.2745 6.31406 10.3077 7.57507 10.3077Z" fill="#FF751F"/>
</g>
</svg>
