<svg preserveAspectRatio="none" width="100%" height="100%" overflow="visible" style="display: block;" viewBox="0 0 16 16" fill="none" xmlns="http://www.w3.org/2000/svg">
<g id="Iconography">
<g id="Union">
<path fill-rule="evenodd" clip-rule="evenodd" d="M7.66906 5.60938C8.94162 5.60945 9.97355 6.64056 9.97375 7.91309C9.97362 9.18567 8.94166 10.2177 7.66906 10.2178C6.39642 10.2178 5.36451 9.18571 5.36438 7.91309C5.36458 6.64053 6.39647 5.6094 7.66906 5.60938ZM7.66906 6.60938C6.94875 6.6094 6.36458 7.19281 6.36438 7.91309C6.3645 8.63342 6.9487 9.21775 7.66906 9.21777C8.38938 9.2177 8.97362 8.63339 8.97375 7.91309C8.97355 7.19285 8.38933 6.60945 7.66906 6.60938Z" fill="#FF751F"/>
<path fill-rule="evenodd" clip-rule="evenodd" d="M8.44934 2C9.02449 2.00007 9.51591 2.41606 9.61047 2.9834L9.7384 3.75391C9.74707 3.80515 9.78726 3.87324 9.87512 3.92188C9.92503 3.94951 9.97482 3.97838 10.0236 4.00781C10.1093 4.0594 10.1878 4.0601 10.2364 4.04199L10.9689 3.76758C11.5075 3.56591 12.1129 3.78316 12.4005 4.28125L13.1808 5.63281C13.4679 6.13087 13.3532 6.76347 12.9093 7.12891L12.3058 7.62695C12.2656 7.66002 12.2269 7.72748 12.2286 7.82715C12.2292 7.85551 12.2296 7.8846 12.2296 7.91309C12.2296 7.94157 12.2292 7.97065 12.2286 7.99902C12.2268 8.09882 12.2656 8.16712 12.3058 8.2002L12.9093 8.69824C13.3531 9.0638 13.4681 9.69633 13.1808 10.1943L12.4005 11.5459C12.1129 12.0438 11.5074 12.2611 10.9689 12.0596L10.2364 11.7852C10.1877 11.767 10.1094 11.7676 10.0236 11.8193C9.97473 11.8488 9.92512 11.8776 9.87512 11.9053C9.78706 11.954 9.74695 12.022 9.7384 12.0732L9.61047 12.8438C9.51583 13.411 9.02442 13.8271 8.44934 13.8271H6.88879C6.3138 13.827 5.82329 13.4109 5.72863 12.8438L5.59973 12.0732C5.59118 12.022 5.5518 11.954 5.46399 11.9053C5.41394 11.8776 5.36344 11.8488 5.31457 11.8193C5.22868 11.7676 5.15035 11.7669 5.10168 11.7852L4.37024 12.0596C3.83167 12.2613 3.22528 12.0439 2.93762 11.5459L2.15735 10.1943C1.87012 9.69637 1.98513 9.06376 2.42883 8.69824L3.03332 8.2002C3.07339 8.16703 3.11127 8.09858 3.10949 7.99902V7.82715C3.11122 7.72791 3.07327 7.66017 3.03332 7.62695L2.42883 7.12891C1.98511 6.76345 1.87026 6.13078 2.15735 5.63281L2.93762 4.28125C3.22522 3.7831 3.83158 3.56578 4.37024 3.76758L5.10168 4.04199C5.15035 4.06013 5.2288 4.05941 5.31457 4.00781C5.36351 3.97826 5.41386 3.94962 5.46399 3.92188C5.55178 3.87325 5.59106 3.80514 5.59973 3.75391L5.72863 2.9834C5.82318 2.41612 6.31371 2.00015 6.88879 2H8.44934ZM6.88879 3C6.80262 3.00015 6.72923 3.06247 6.71496 3.14746L6.58606 3.91797C6.51959 4.31634 6.25915 4.62369 5.94836 4.7959C5.90931 4.81751 5.87029 4.84026 5.83215 4.86328C5.52737 5.04732 5.12994 5.12027 4.7511 4.97852L4.01867 4.7041C3.93785 4.67395 3.84697 4.70652 3.80383 4.78125L3.02356 6.13281C2.98078 6.20753 2.99806 6.30266 3.06457 6.35742L3.66906 6.85449C3.98031 7.11098 4.11597 7.49021 4.10949 7.8457V7.98047C4.11602 8.33611 3.98054 8.71613 3.66906 8.97266L3.06457 9.46973C2.99802 9.52454 2.98064 9.6196 3.02356 9.69434L3.80383 11.0459C3.84702 11.1204 3.93795 11.1531 4.01867 11.123L4.7511 10.8486C5.13001 10.7068 5.52731 10.7798 5.83215 10.9639C5.8702 10.9868 5.9094 11.0087 5.94836 11.0303C6.25927 11.2025 6.51963 11.5106 6.58606 11.9092L6.71496 12.6797C6.72938 12.7645 6.80275 12.827 6.88879 12.8271H8.44934C8.53551 12.8271 8.60977 12.7646 8.62414 12.6797L8.75207 11.9092C8.81852 11.5105 9.07968 11.2025 9.39074 11.0303C9.42974 11.0087 9.46886 10.9869 9.50695 10.9639C9.81183 10.7798 10.2091 10.7067 10.588 10.8486L11.3195 11.123C11.4002 11.1532 11.4911 11.1205 11.5343 11.0459L12.3146 9.69434C12.3576 9.61964 12.34 9.5246 12.2736 9.46973L11.67 8.97266C11.3584 8.71613 11.2221 8.33618 11.2286 7.98047C11.229 7.95829 11.2296 7.93539 11.2296 7.91309C11.2296 7.89079 11.229 7.86791 11.2286 7.8457C11.2222 7.49005 11.3585 7.11098 11.67 6.85449L12.2736 6.35742C12.3401 6.30266 12.3574 6.20753 12.3146 6.13281L11.5343 4.78125C11.4911 4.70647 11.4003 4.67383 11.3195 4.7041L10.588 4.97852C10.2092 5.12042 9.8118 5.04719 9.50695 4.86328C9.46882 4.84025 9.42979 4.81751 9.39074 4.7959C9.07976 4.62375 8.81859 4.31652 8.75207 3.91797L8.62414 3.14746C8.60991 3.06236 8.53562 3.00007 8.44934 3H6.88879Z" fill="#FF751F"/>
</g>
</g>
</svg>
