<svg preserveAspectRatio="none" width="100%" height="100%" overflow="visible" style="display: block;" viewBox="0 0 16 16" fill="none" xmlns="http://www.w3.org/2000/svg">
<g id="Iconography">
<path id="Vector" d="M7.7 6.28571C7.36377 6.28571 7.03509 6.38626 6.75553 6.57462C6.47597 6.76299 6.25807 7.03073 6.12941 7.34397C6.00074 7.65722 5.96707 8.0019 6.03267 8.33444C6.09826 8.66698 6.26017 8.97244 6.49792 9.21218C6.73567 9.45193 7.03858 9.6152 7.36835 9.68135C7.69811 9.74749 8.03993 9.71354 8.35056 9.58379C8.6612 9.45404 8.9267 9.23432 9.1135 8.95241C9.3003 8.67049 9.4 8.33905 9.4 8C9.4 7.54534 9.22089 7.10931 8.90208 6.78782C8.58327 6.46633 8.15087 6.28571 7.7 6.28571ZM7.7 8.85714C7.53189 8.85714 7.36755 8.80687 7.22777 8.71269C7.08798 8.6185 6.97904 8.48464 6.9147 8.32801C6.85037 8.17139 6.83354 7.99905 6.86633 7.83278C6.89913 7.66651 6.98009 7.51378 7.09896 7.39391C7.21783 7.27404 7.36929 7.1924 7.53417 7.15933C7.69906 7.12625 7.86996 7.14323 8.02528 7.2081C8.1806 7.27298 8.31335 7.38284 8.40675 7.5238C8.50015 7.66475 8.55 7.83047 8.55 8C8.55 8.22733 8.46045 8.44535 8.30104 8.60609C8.14163 8.76684 7.92543 8.85714 7.7 8.85714ZM7.7 5.42857C8.03623 5.42857 8.36491 5.32803 8.64447 5.13966C8.92403 4.95129 9.14193 4.68356 9.27059 4.37031C9.39926 4.05707 9.43293 3.71238 9.36733 3.37985C9.30174 3.04731 9.13983 2.74185 8.90208 2.5021C8.66433 2.26236 8.36142 2.09909 8.03165 2.03294C7.70189 1.96679 7.36007 2.00074 7.04944 2.13049C6.7388 2.26024 6.4733 2.47997 6.2865 2.76188C6.0997 3.04379 6 3.37523 6 3.71429C6 4.16894 6.17911 4.60498 6.49792 4.92647C6.81673 5.24796 7.24913 5.42857 7.7 5.42857ZM7.7 2.85714C7.86811 2.85714 8.03245 2.90741 8.17223 3.0016C8.31202 3.09578 8.42096 3.22965 8.4853 3.38627C8.54963 3.54289 8.56646 3.71524 8.53367 3.88151C8.50087 4.04778 8.41991 4.2005 8.30104 4.32038C8.18217 4.44025 8.03071 4.52189 7.86583 4.55496C7.70094 4.58803 7.53004 4.57106 7.37472 4.50618C7.2194 4.44131 7.08665 4.33145 6.99325 4.19049C6.89985 4.04953 6.85 3.88381 6.85 3.71429C6.85 3.48696 6.93955 3.26894 7.09896 3.10819C7.25837 2.94745 7.47457 2.85714 7.7 2.85714ZM7.7 10.5714C7.36377 10.5714 7.03509 10.672 6.75553 10.8603C6.47597 11.0487 6.25807 11.3164 6.12941 11.6297C6.00074 11.9429 5.96707 12.2876 6.03267 12.6202C6.09826 12.9527 6.26017 13.2581 6.49792 13.4979C6.73567 13.7376 7.03858 13.9009 7.36835 13.9671C7.69811 14.0332 8.03993 13.9993 8.35056 13.8695C8.6612 13.7398 8.9267 13.52 9.1135 13.2381C9.3003 12.9562 9.4 12.6248 9.4 12.2857C9.4 11.8311 9.22089 11.395 8.90208 11.0735C8.58327 10.752 8.15087 10.5714 7.7 10.5714ZM7.7 13.1429C7.53189 13.1429 7.36755 13.0926 7.22777 12.9984C7.08798 12.9042 6.97904 12.7704 6.9147 12.6137C6.85037 12.4571 6.83354 12.2848 6.86633 12.1185C6.89913 11.9522 6.98009 11.7995 7.09896 11.6796C7.21783 11.5597 7.36929 11.4781 7.53417 11.445C7.69906 11.412 7.86996 11.4289 8.02528 11.4938C8.1806 11.5587 8.31335 11.6686 8.40675 11.8095C8.50015 11.9505 8.55 12.1162 8.55 12.2857C8.55 12.513 8.46045 12.7311 8.30104 12.8918C8.14163 13.0526 7.92543 13.1429 7.7 13.1429Z" fill="#FF751F"/>
</g>
</svg>
