<svg preserveAspectRatio="none" width="100%" height="100%" overflow="visible" style="display: block;" viewBox="0 0 16 16" fill="none" xmlns="http://www.w3.org/2000/svg">
<g id="Iconography">
<path id="Vector" d="M9.4 7.55714C9.4 7.89337 9.3003 8.22205 9.1135 8.50161C8.9267 8.78117 8.6612 8.99907 8.35056 9.12774C8.03993 9.2564 7.69811 9.29007 7.36835 9.22448C7.03858 9.15888 6.73567 8.99697 6.49792 8.75922C6.26017 8.52147 6.09826 8.21856 6.03267 7.88879C5.96707 7.55903 6.00074 7.21721 6.12941 6.90658C6.25807 6.59595 6.47597 6.33044 6.75553 6.14364C7.03509 5.95685 7.36377 5.85714 7.7 5.85714C8.15087 5.85714 8.58327 6.03625 8.90208 6.35506C9.22089 6.67387 9.4 7.10627 9.4 7.55714ZM7.7 4.4C8.03623 4.4 8.36491 4.3003 8.64447 4.1135C8.92403 3.9267 9.14193 3.6612 9.27059 3.35056C9.39926 3.03993 9.43293 2.69811 9.36733 2.36835C9.30174 2.03858 9.13983 1.73567 8.90208 1.49792C8.66433 1.26017 8.36142 1.09826 8.03165 1.03267C7.70189 0.967071 7.36007 1.00074 7.04944 1.12941C6.7388 1.25807 6.4733 1.47597 6.2865 1.75553C6.0997 2.03509 6 2.36377 6 2.7C6 3.15087 6.17911 3.58327 6.49792 3.90208C6.81673 4.22089 7.24913 4.4 7.7 4.4ZM7.7 10.7143C7.36377 10.7143 7.03509 10.814 6.75553 11.0008C6.47597 11.1876 6.25807 11.4531 6.12941 11.7637C6.00074 12.0744 5.96707 12.4162 6.03267 12.7459C6.09826 13.0757 6.26017 13.3786 6.49792 13.6164C6.73567 13.8541 7.03858 14.016 7.36835 14.0816C7.69811 14.1472 8.03993 14.1135 8.35056 13.9849C8.6612 13.8562 8.9267 13.6383 9.1135 13.3588C9.3003 13.0792 9.4 12.7505 9.4 12.4143C9.4 11.9634 9.22089 11.531 8.90208 11.2122C8.58327 10.8934 8.15087 10.7143 7.7 10.7143Z" fill="#FF751F"/>
</g>
</svg>
