<svg preserveAspectRatio="none" width="100%" height="100%" overflow="visible" style="display: block;" viewBox="0 0 16 16" fill="none" xmlns="http://www.w3.org/2000/svg">
<g id="Iconography">
<path id="Vector" d="M13.8743 7.83513L9.5887 11.9648C9.52877 12.0226 9.45237 12.062 9.3692 12.078C9.28602 12.0939 9.1998 12.0857 9.12145 12.0545C9.0431 12.0232 8.97614 11.9702 8.92905 11.9022C8.88197 11.8343 8.85687 11.7543 8.85694 11.6726V9.61966C5.79809 9.78691 3.70082 11.6984 3.11208 12.3039C3.01964 12.3991 2.89841 12.4637 2.76565 12.4886C2.63288 12.5135 2.49535 12.4974 2.37263 12.4426C2.24991 12.3878 2.14824 12.2971 2.0821 12.1835C2.01596 12.0698 1.98872 11.9389 2.00425 11.8094C2.203 10.1441 3.14958 8.54234 4.6699 7.29931C5.93255 6.26689 7.46733 5.61182 8.85694 5.49722V3.41329C8.85687 3.33157 8.88197 3.25166 8.92905 3.18369C8.97614 3.11572 9.0431 3.06274 9.12145 3.03145C9.1998 3.00017 9.28602 2.99199 9.3692 3.00795C9.45237 3.02391 9.52877 3.0633 9.5887 3.12112L13.8743 7.25078C13.9142 7.28914 13.9458 7.33468 13.9673 7.38482C13.9889 7.43495 14 7.48869 14 7.54296C14 7.59723 13.9889 7.65097 13.9673 7.7011C13.9458 7.75123 13.9142 7.79678 13.8743 7.83513Z" fill="#FF751F"/>
</g>
</svg>
