<svg preserveAspectRatio="none" width="100%" height="100%" overflow="visible" style="display: block;" viewBox="0 0 16 16" fill="none" xmlns="http://www.w3.org/2000/svg">
<g id="Iconography">
<path id="Vector" d="M13.8748 7.25148L9.58904 3.12114C9.52913 3.06334 9.45279 3.02396 9.36966 3.00798C9.28653 2.992 9.20035 3.00014 9.12201 3.03136C9.04368 3.06258 8.97672 3.11549 8.92959 3.1834C8.88246 3.2513 8.85728 3.33115 8.85724 3.41284V5.49608C7.46757 5.6107 5.93272 6.26639 4.67002 7.29846C3.14963 8.54169 2.20301 10.1437 2.00425 11.8093C1.98872 11.9388 2.01596 12.0697 2.08211 12.1834C2.14825 12.2971 2.24992 12.3878 2.37265 12.4426C2.49538 12.4974 2.63291 12.5135 2.76568 12.4886C2.89845 12.4637 3.01968 12.3991 3.11213 12.3039C3.70143 11.6993 5.79825 9.7875 8.85724 9.61919V11.6735C8.85728 11.7552 8.88246 11.8351 8.92959 11.903C8.97672 11.9709 9.04368 12.0238 9.12201 12.055C9.20035 12.0862 9.28653 12.0944 9.36966 12.0784C9.45279 12.0624 9.52913 12.023 9.58904 11.9652L13.8748 7.83489C13.955 7.75746 14 7.65255 14 7.54318C14 7.43381 13.955 7.32891 13.8748 7.25148ZM9.7144 10.6766V9.19532C9.7144 9.08577 9.66925 8.98072 9.58887 8.90326C9.5085 8.8258 9.39949 8.78228 9.28582 8.78228C7.78151 8.78228 6.3163 9.16073 4.93092 9.9078C4.22534 10.29 3.56793 10.7494 2.97177 11.277C3.28249 10.0462 4.06572 8.87573 5.22449 7.92834C6.46845 6.91176 7.98669 6.30408 9.28582 6.30408C9.39949 6.30408 9.5085 6.26056 9.58887 6.1831C9.66925 6.10565 9.7144 6.00059 9.7144 5.89105V4.41032L12.9657 7.54318L9.7144 10.6766Z" fill="#FF751F"/>
</g>
</svg>
