<svg preserveAspectRatio="none" width="100%" height="100%" overflow="visible" style="display: block;" viewBox="0 0 16 16" fill="none" xmlns="http://www.w3.org/2000/svg">
<g id="Iconography">
<g id="Vector">
<path d="M12.7355 2.86919C12.8982 2.85957 13.0518 2.94493 13.1122 3.09968C13.1427 3.17953 13.1401 3.26819 13.1052 3.34616C13.0416 3.48975 12.1717 4.32455 12.0012 4.49518L11.5016 4.99487C11.3568 5.13952 11.251 5.28125 11.0566 5.35433C10.8084 5.37378 10.5895 5.1579 10.6577 4.91987C10.7069 4.74836 10.9818 4.51092 11.1133 4.37927L12.293 3.20056C12.4377 3.05634 12.5311 2.91899 12.7355 2.86919Z" fill="#FF751F"/>
<path d="M13.1868 4.84286C13.3112 4.8206 13.4381 4.86698 13.5188 4.96429C13.5995 5.06159 13.6217 5.1948 13.5769 5.31302C13.532 5.43124 13.4271 5.51621 13.3021 5.53549C13.1121 5.56479 12.9338 5.43581 12.9023 5.24615C12.8707 5.0565 12.9975 4.87671 13.1868 4.84286Z" fill="#FF751F"/>
<path d="M8.3635 5.07312C8.73286 4.69344 9.08839 4.43626 9.07985 3.8546C9.0731 3.39493 8.80184 2.88712 8.28386 2.89265C8.08957 2.89472 7.9119 2.9696 7.75229 2.81316C7.68601 2.74819 7.64866 2.65926 7.6487 2.56644C7.64881 2.2123 8.02859 2.17396 8.29754 2.1795C8.68175 2.18877 9.04675 2.34937 9.31316 2.62638C9.63222 2.96174 9.79523 3.45402 9.78311 3.91278C9.77389 4.36019 9.60413 4.78939 9.30481 5.12206C9.18482 5.2568 9.04275 5.3817 8.92381 5.51238C9.45822 5.98741 9.97497 6.45406 10.4281 7.0107C10.4436 7.0298 10.4695 7.04873 10.4943 7.05207C10.5276 7.03395 10.8173 6.73903 10.8845 6.68047C11.3752 6.25348 12.0504 6.10742 12.6737 6.29336C13.0739 6.41247 13.4497 6.66786 13.6473 7.04639C13.8061 7.35017 13.872 7.72307 13.7779 8.06775C13.6868 8.40144 13.3154 8.46543 13.1224 8.16386C13.0589 8.03067 13.1137 7.84877 13.1113 7.71461C13.0984 6.98811 12.1634 6.7622 11.6127 7.03761C11.3552 7.16641 11.1186 7.4336 10.9204 7.64289C11.3751 8.25566 12.4091 9.89629 11.5265 10.5769C11.3878 10.6839 10.9857 10.834 10.809 10.9092L4.83556 13.4603C4.49486 13.6058 4.15313 13.7514 3.81356 13.8997C3.74689 13.9288 3.56339 13.9714 3.52176 14H3.09321C3.03322 13.9667 2.92981 13.9464 2.85899 13.9209C2.54052 13.8061 2.25666 13.5489 2.11523 13.2408C2.07025 13.1429 2.04966 13.0129 2.00344 12.9148C2.00229 12.9128 2.00115 12.9107 2 12.9086V12.4803C2.03758 12.4165 2.09712 12.1952 2.13641 12.1026L4.67827 6.15658L5.12614 5.10519C5.29039 4.71996 5.40089 4.28696 5.85282 4.16989C6.4473 4.01589 7.06539 4.31088 7.58146 4.58479C7.87217 4.7373 8.10584 4.92662 8.3635 5.07312ZM10.8487 8.85324C10.7128 8.59523 10.5818 8.38986 10.4159 8.14839C10.2152 8.34143 9.91436 8.74011 9.62632 8.43607C9.55933 8.36653 9.52333 8.27284 9.52654 8.17634C9.53468 7.94473 9.82296 7.74252 9.98406 7.57689C9.59638 7.10837 9.17299 6.67057 8.71769 6.26742C8.64868 6.20724 8.48856 6.06424 8.41576 6.01937C8.20331 6.23386 7.8719 6.69266 7.56016 6.36842C7.49379 6.30072 7.45782 6.20892 7.46054 6.11415C7.46839 5.90122 7.7093 5.73413 7.8467 5.58507C7.46806 5.30221 6.89333 4.97715 6.43268 4.86688C6.32052 4.84003 6.19857 4.83808 6.08391 4.83894C6.03145 4.85666 6.00213 4.86963 5.97725 4.92057C5.89273 5.09368 6.00852 5.41429 6.06921 5.58107C6.63086 7.12433 8.68183 9.13818 10.1608 9.8228C10.3644 9.91704 10.8373 10.1115 11.0604 10.0298C11.1002 10.0153 11.1293 9.98837 11.147 9.94993C11.2291 9.77182 11.1029 9.42564 11.0367 9.25638C10.9831 9.11906 10.9205 8.98203 10.8487 8.85324ZM3.48927 10.7352L2.99241 11.8916C2.93166 12.0337 2.87025 12.1759 2.81039 12.3183C2.72485 12.5219 2.65927 12.6937 2.74558 12.9127C2.80352 13.0624 2.92011 13.182 3.06834 13.2438C3.25205 13.3211 3.41185 13.2989 3.58932 13.2255C3.61593 13.2145 3.64246 13.2032 3.6689 13.1917C3.87414 13.1031 4.3857 12.8694 4.57791 12.8128C4.53656 12.6984 4.45517 12.5515 4.39774 12.4409L3.72604 11.1497C3.68455 11.07 3.54073 10.7684 3.48927 10.7352ZM4.69024 7.92563L4.13232 9.22309C4.04858 9.41908 3.95209 9.63452 3.87929 9.83238C3.85111 9.90898 4.0772 10.299 4.12168 10.3845L4.98448 12.0405C5.04909 12.1644 5.15915 12.3899 5.2344 12.4939C5.31613 12.5064 5.72289 12.3157 5.81459 12.2725C6.15727 12.1381 6.50478 11.9745 6.84836 11.8353C6.65164 11.4721 4.73424 7.95034 4.69024 7.92563ZM5.48703 6.06225C5.33613 6.40271 5.1897 6.74514 5.0478 7.08945L7.21905 11.0413C7.29838 11.1858 7.41746 11.4187 7.50243 11.5494C7.98297 11.3585 8.46071 11.1393 8.93928 10.941C9.26042 10.7996 9.63718 10.6302 9.9632 10.5103C8.66674 9.92982 7.33482 8.70673 6.4585 7.59349C6.20861 7.2812 5.98218 6.95084 5.78105 6.60514C5.74524 6.54305 5.50119 6.06973 5.48703 6.06225Z" fill="#FF751F"/>
<path d="M4.33512 2H4.53025C4.81498 2.1596 4.79468 2.28104 4.78871 2.57443C4.97015 2.57889 5.15628 2.5761 5.28221 2.73153C5.33661 2.79748 5.36217 2.88254 5.35313 2.96755C5.32224 3.24843 5.03524 3.32811 4.79424 3.29793C4.79111 3.44979 4.80506 3.61811 4.69357 3.73788C4.55578 3.8859 4.33769 3.89329 4.19123 3.75247C4.06905 3.63499 4.08166 3.46268 4.07943 3.30615C4.05385 3.30637 4.02828 3.30637 4.0027 3.30614C3.85658 3.30464 3.71994 3.28186 3.61371 3.17045C3.55112 3.10586 3.51741 3.01865 3.52031 2.92876C3.52395 2.83564 3.56496 2.74791 3.63405 2.68538C3.7641 2.56588 3.92234 2.57935 4.08414 2.58567C4.07634 2.28929 4.06113 2.16635 4.33512 2Z" fill="#FF751F"/>
<path d="M12.7091 10.8358C12.7077 10.8223 12.7069 10.8086 12.7066 10.795C12.7031 10.6423 12.7041 10.4916 12.8188 10.3737C12.8819 10.308 12.9691 10.271 13.0602 10.2713C13.154 10.2719 13.2436 10.3101 13.3089 10.3773C13.4341 10.5057 13.4168 10.6593 13.4134 10.8242C13.7089 10.8326 13.852 10.811 14 11.1051V11.2692C13.8629 11.5287 13.7033 11.5841 13.4189 11.5467C13.4155 11.703 13.4303 11.8717 13.3118 11.9932C13.1716 12.1371 12.9565 12.1396 12.8127 11.9982C12.6914 11.8788 12.7055 11.7116 12.7047 11.5546C12.5317 11.5553 12.373 11.5544 12.2412 11.4226C12.1008 11.2821 12.1137 11.0658 12.2587 10.9344C12.3894 10.816 12.5473 10.8295 12.7091 10.8358Z" fill="#FF751F"/>
<path d="M11.0852 2H11.28C11.7741 2.27829 11.4716 2.76805 11.1131 2.6964C11.0215 2.6784 10.9415 2.62308 10.8923 2.54372C10.7425 2.30571 10.8785 2.12588 11.0852 2Z" fill="#FF751F"/>
</g>
</g>
</svg>
