<svg preserveAspectRatio="none" width="100%" height="100%" overflow="visible" style="display: block;" viewBox="0 0 16 16" fill="none" xmlns="http://www.w3.org/2000/svg">
<g id="Iconography">
<path id="Star 1" d="M7.80979 1.58541C7.86966 1.40115 8.13034 1.40115 8.19021 1.58541L9.5267 5.69868C9.55347 5.78109 9.63026 5.83688 9.71691 5.83688H14.0419C14.2356 5.83688 14.3162 6.0848 14.1594 6.19868L10.6605 8.74083C10.5904 8.79176 10.561 8.88203 10.5878 8.96443L11.9243 13.0777C11.9842 13.262 11.7733 13.4152 11.6165 13.3013L8.11756 10.7592C8.04746 10.7082 7.95254 10.7082 7.88244 10.7592L4.38348 13.3013C4.22674 13.4152 4.01584 13.262 4.07571 13.0777L5.4122 8.96443C5.43897 8.88203 5.40964 8.79176 5.33954 8.74083L1.84058 6.19868C1.68384 6.0848 1.7644 5.83688 1.95814 5.83688H6.28309C6.36974 5.83688 6.44653 5.78109 6.4733 5.69868L7.80979 1.58541Z" fill="#FF751F"/>
</g>
</svg>
