<svg preserveAspectRatio="none" width="100%" height="100%" overflow="visible" style="display: block;" viewBox="0 0 16 16" fill="none" xmlns="http://www.w3.org/2000/svg">
<g id="Iconography">
<path id="Vector" d="M8 1.9502C9.60403 1.95189 11.1421 2.58941 12.2764 3.72363C13.4106 4.85785 14.0481 6.39597 14.0498 8C14.0498 9.19658 13.6951 10.3664 13.0303 11.3613C12.3655 12.3562 11.4209 13.132 10.3154 13.5898C9.20994 14.0478 7.99292 14.167 6.81934 13.9336C5.6459 13.7001 4.56769 13.1243 3.72168 12.2783C2.87566 11.4323 2.2999 10.3541 2.06641 9.18066C1.83297 8.00708 1.95225 6.79006 2.41016 5.68457C2.86805 4.57915 3.64383 3.6345 4.63867 2.96973C5.63359 2.30494 6.80342 1.9502 8 1.9502ZM9.92383 3.35547C9.00537 2.97503 7.99457 2.87545 7.01953 3.06934C6.0444 3.2633 5.14834 3.74228 4.44531 4.44531C3.74229 5.14834 3.2633 6.0444 3.06934 7.01953C2.87545 7.99457 2.97503 9.00537 3.35547 9.92383C3.73592 10.8423 4.38042 11.6273 5.20703 12.1797C6.0337 12.7321 7.00577 13.0273 8 13.0273L8.24902 13.0205C9.49106 12.9576 10.6692 12.4363 11.5527 11.5527C12.4951 10.6103 13.0258 9.33275 13.0273 8C13.0273 7.00577 12.7321 6.0337 12.1797 5.20703C11.6273 4.38042 10.8423 3.73592 9.92383 3.35547ZM10.3076 6.10352C10.3748 6.10352 10.4418 6.11684 10.5039 6.14258C10.5659 6.16832 10.6225 6.20642 10.6699 6.25391C10.7173 6.30133 10.7546 6.35799 10.7803 6.41992C10.8059 6.48191 10.8193 6.54815 10.8193 6.61523C10.8193 6.68246 10.806 6.74942 10.7803 6.81152C10.7545 6.87347 10.7174 6.93013 10.6699 6.97754L7.43848 10.208C7.391 10.2555 7.33449 10.2936 7.27246 10.3193C7.21054 10.3449 7.14415 10.3584 7.07715 10.3584C7.00992 10.3584 6.94296 10.3451 6.88086 10.3193C6.81878 10.2936 6.76234 10.2556 6.71484 10.208L5.33008 8.82324C5.23435 8.72738 5.18076 8.59739 5.18066 8.46191C5.18066 8.32625 5.23419 8.19558 5.33008 8.09961C5.42606 8.00363 5.55665 7.9502 5.69238 7.9502C5.82809 7.95021 5.95872 8.00365 6.05469 8.09961L7.07715 9.12207L9.94531 6.25391C9.99271 6.20646 10.0494 6.16832 10.1113 6.14258C10.1734 6.11685 10.2404 6.10353 10.3076 6.10352Z" fill="#FF751F" stroke="#FF751F" stroke-width="0.1"/>
</g>
</svg>
