<svg preserveAspectRatio="none" width="100%" height="100%" overflow="visible" style="display: block;" viewBox="0 0 16 16" fill="none" xmlns="http://www.w3.org/2000/svg">
<g id="Iconography">
<path id="Vector" d="M8 2C6.81331 2 5.65328 2.35189 4.66658 3.01118C3.67989 3.67047 2.91085 4.60754 2.45673 5.7039C2.0026 6.80025 1.88378 8.00666 2.11529 9.17054C2.3468 10.3344 2.91825 11.4035 3.75736 12.2426C4.59648 13.0818 5.66557 13.6532 6.82946 13.8847C7.99335 14.1162 9.19974 13.9974 10.2961 13.5433C11.3925 13.0891 12.3295 12.3201 12.9888 11.3334C13.6481 10.3467 14 9.18669 14 8C13.9983 6.40922 13.3656 4.88407 12.2408 3.75921C11.1159 2.63436 9.59078 2.00168 8 2ZM8 13.0769C6.99588 13.0769 6.01431 12.7792 5.17941 12.2213C4.34452 11.6634 3.6938 10.8705 3.30954 9.94285C2.92528 9.01517 2.82474 7.99437 3.02063 7.00954C3.21653 6.02471 3.70006 5.12009 4.41008 4.41007C5.1201 3.70005 6.02472 3.21652 7.00954 3.02063C7.99437 2.82473 9.01517 2.92527 9.94286 3.30953C10.8705 3.69379 11.6634 4.34452 12.2213 5.17941C12.7792 6.01431 13.0769 6.99588 13.0769 8C13.0754 9.34601 12.54 10.6365 11.5882 11.5882C10.6365 12.54 9.34602 13.0754 8 13.0769ZM11.6923 8C11.6923 8.12241 11.6437 8.2398 11.5571 8.32636C11.4706 8.41291 11.3532 8.46154 11.2308 8.46154H8C7.87759 8.46154 7.7602 8.41291 7.67364 8.32636C7.58709 8.2398 7.53846 8.12241 7.53846 8V4.76923C7.53846 4.64682 7.58709 4.52943 7.67364 4.44287C7.7602 4.35632 7.87759 4.30769 8 4.30769C8.12241 4.30769 8.2398 4.35632 8.32636 4.44287C8.41291 4.52943 8.46154 4.64682 8.46154 4.76923V7.53846H11.2308C11.3532 7.53846 11.4706 7.58709 11.5571 7.67364C11.6437 7.7602 11.6923 7.87759 11.6923 8Z" fill="#FF751F"/>
</g>
</svg>
