<svg preserveAspectRatio="none" width="100%" height="100%" overflow="visible" style="display: block;" viewBox="0 0 16 16" fill="none" xmlns="http://www.w3.org/2000/svg">
<g id="Iconography">
<path id="Vector" d="M9.83501 1H11.6744L11.6847 1.0053C11.7604 1.0439 11.8484 1.07093 11.9282 1.10706C12.6825 1.44895 12.5402 2.27525 12.5401 2.9634L12.5408 4.34703C12.8464 4.35188 13.152 4.35308 13.4577 4.35066C13.6947 4.35014 14.077 4.33365 14.2902 4.39006C14.4611 4.43518 14.6163 4.52617 14.7391 4.65319C14.9051 4.82625 14.914 4.94669 15 5.14512V13.3975C14.8322 13.7884 14.6571 14.1032 14.1875 14.1806C14.1666 14.567 14.2642 14.7807 13.8749 15H13.6632C13.2794 14.7765 13.3525 14.5918 13.3624 14.1897C12.7533 14.1691 12.1328 14.1945 11.5229 14.1883C11.3875 14.1869 11.2565 14.1964 11.1213 14.1798C11.1016 14.5729 11.2125 14.7663 10.813 15H10.6009C10.2172 14.7759 10.2902 14.5925 10.3 14.19C9.8252 14.1852 9.35033 14.1837 8.87548 14.1853C8.70584 14.1857 8.31943 14.1996 8.16639 14.1786C8.16263 14.5706 8.24266 14.7761 7.85932 15H7.64757C7.26369 14.7767 7.33683 14.5916 7.3467 14.1897C6.25908 14.1711 5.13041 14.185 4.04037 14.1848L3.19186 14.1857C3.03302 14.1869 2.79282 14.1972 2.64315 14.1797C2.63823 14.5705 2.72085 14.7752 2.3363 15H2.12437C1.73931 14.7792 1.81799 14.5778 1.81879 14.1848C1.78741 14.1779 1.75638 14.1694 1.7258 14.1595C1.48181 14.0801 1.30168 13.9711 1.16048 13.7472C1.08458 13.6268 1.06081 13.5282 1 13.4139V7.85158C1.01767 7.8265 1.04886 7.74536 1.06332 7.71117C1.12128 7.57415 1.18077 7.46261 1.28731 7.35692C1.40769 7.23813 1.55845 7.15478 1.72305 7.11598C1.91688 7.07064 2.38616 7.08457 2.60334 7.08471L4.00717 7.08732C4.00791 6.97159 4.00794 6.85586 4.00727 6.74012C4.0064 6.24807 3.94634 5.78274 4.32084 5.40973C4.44791 5.28263 4.60622 5.19125 4.77982 5.14478C5.01296 5.08233 5.37914 5.09959 5.63004 5.09989L6.53621 5.10128C6.58053 4.9347 6.68527 4.74917 6.80703 4.62741C6.92289 4.51039 7.06866 4.42743 7.22843 4.38756C7.43281 4.3346 7.80002 4.34981 8.02404 4.35039L8.9835 4.35288L8.98376 2.92485C8.98373 2.8094 8.98816 2.67635 8.98373 2.56291C8.9616 1.99593 8.97171 1.42955 9.54101 1.12841C9.63305 1.07972 9.73383 1.05267 9.82478 1.00539L9.83501 1ZM6.52871 13.3587C6.51742 13.1466 6.52337 12.9011 6.52351 12.6868L6.52375 11.5687L6.52366 7.91716L4.3759 7.91332C4.2384 7.9135 3.56145 7.92705 3.47012 7.90622C3.45264 8.06829 3.46058 8.36146 3.46083 8.53174L3.46218 9.62084L3.46166 13.3562L6.52871 13.3587ZM12.5364 13.3578L12.5393 5.18305L10.1132 5.17877L9.43801 5.18194C9.30754 5.1829 9.11668 5.19234 8.99263 5.17129C8.97188 5.3902 8.9844 5.83206 8.98448 6.06693L8.98509 7.77023L8.98484 13.3563L11.2481 13.359C11.6678 13.3589 12.1188 13.3674 12.5364 13.3578ZM8.16439 5.18283C7.9242 5.1828 7.66997 5.17722 7.43161 5.18782C7.39373 5.21233 7.35396 5.24508 7.35109 5.29248C7.3392 5.48885 7.3445 5.72712 7.34447 5.92201L7.3442 7.4852L7.34404 11.6978L7.34427 12.7036C7.34431 12.8369 7.33641 13.1727 7.36273 13.2865C7.45303 13.3964 7.95127 13.3605 8.09912 13.3596L8.14767 13.3537C8.17898 13.3118 8.1636 12.5017 8.16354 12.3628L8.16447 10.5836L8.16439 5.18283ZM13.3598 13.3564C13.5165 13.3581 14.0241 13.384 14.1378 13.3248C14.1713 13.2416 14.176 13.1909 14.177 13.1024C14.1831 12.5561 14.1804 12.0075 14.1805 11.4612L14.1806 8.34475L14.1804 6.37381C14.1803 6.1752 14.197 5.37801 14.1491 5.22652C14.0424 5.1368 13.549 5.20722 13.3672 5.17097C13.3472 5.40747 13.3594 5.83386 13.3595 6.08391L13.3601 7.79489L13.3598 13.3564ZM9.95668 1.83657C9.8884 1.88546 9.82302 1.93615 9.81561 2.02464C9.79587 2.26046 9.80444 2.52886 9.80466 2.76615L9.80638 4.34707C10.3322 4.35266 10.858 4.35407 11.3838 4.3513L11.718 4.35312L11.7197 2.8821C11.72 2.63313 11.7385 2.36778 11.714 2.12118C11.7069 2.04895 11.6943 1.93454 11.6421 1.88167C11.5518 1.79031 10.3623 1.82328 10.163 1.82633L9.95668 1.83657ZM5.18831 5.92849L4.98028 5.93832C4.89962 5.99455 4.84567 6.05233 4.83735 6.15491C4.81387 6.44477 4.82802 6.79223 4.83053 7.08337L6.15088 7.08568L6.52273 7.08769C6.52318 6.71166 6.51592 6.30503 6.52634 5.9315C6.10066 5.92856 5.61079 5.91522 5.18831 5.92849ZM1.90834 7.92241C1.8712 7.94612 1.83404 7.97348 1.82955 8.02045C1.81571 8.16531 1.82078 8.33981 1.82076 8.48494L1.82071 9.50955L1.82099 11.8742C1.82105 12.1521 1.79066 13.1019 1.84861 13.3004C1.94836 13.3888 2.4171 13.3592 2.57568 13.3597L2.62172 13.3515C2.65819 13.2868 2.63994 12.8223 2.64005 12.7144L2.64132 11.4493L2.64119 7.91712C2.40111 7.91698 2.14657 7.9116 1.90834 7.92241Z" fill="#FF751F"/>
</g>
</svg>
