<svg preserveAspectRatio="none" width="100%" height="100%" overflow="visible" style="display: block;" viewBox="0 0 16 16" fill="none" xmlns="http://www.w3.org/2000/svg">
<g id="Iconography">
<g id="Vector">
<path d="M5.39999 4.2403L5.39897 3.61402C5.39869 3.10728 5.41124 2.68922 5.81797 2.32076C6.17636 1.9961 6.54899 2.00893 6.99922 2.00939L8.5203 2.00942C9.12242 2.00954 9.79078 1.90519 10.2441 2.38818C10.5892 2.7558 10.5998 3.08876 10.5993 3.56937L10.5975 4.17009C10.5972 4.18973 10.5967 4.20934 10.596 4.22897C11.2788 4.25326 11.9824 4.22758 12.6667 4.23676C13.0035 4.24129 13.536 4.20822 13.848 4.28523C14.1347 4.35523 14.3949 4.50934 14.5964 4.72847C14.7421 4.8879 14.8574 5.07818 14.9189 5.28699C14.9383 5.35251 14.9766 5.49759 15 5.55388V12.6703C14.9602 12.7919 14.9264 12.9253 14.8791 13.0414C14.7409 13.3795 14.4882 13.656 14.1668 13.8206C13.7373 14.0405 13.2908 13.9964 12.8237 13.9963H3.17122C2.95018 13.9963 2.68829 14.0028 2.47082 13.9902C2.30922 13.9795 2.14975 13.9469 1.99662 13.8932C1.62556 13.7665 1.30542 13.4542 1.13666 13.0989C1.08977 13.0002 1.03127 12.7485 1 12.7017V5.52014L1.005 5.51002C1.05958 5.39723 1.09124 5.24875 1.14336 5.12473C1.34654 4.64139 1.86369 4.26979 2.38239 4.24598C2.83416 4.22524 3.30409 4.23602 3.75888 4.23612L4.8116 4.23665C4.99357 4.23679 5.22096 4.23086 5.39999 4.2403ZM4.00985 13.1403L9.68078 13.1443C10.4468 13.1443 11.2259 13.1363 11.9901 13.1456L11.9915 5.08725C11.372 5.11137 10.5948 5.08799 9.96191 5.08835L6.4365 5.08896C6.30605 5.08972 6.11349 5.09967 5.99002 5.0883C5.64414 5.48445 5.66385 6.04952 6.00563 6.44176C6.44924 6.53811 6.96538 6.51085 7.38121 6.66634C7.48025 6.70337 7.79783 7.30314 7.86387 7.41965L8.45775 8.46817L8.83639 9.13486C8.89962 9.24632 8.99071 9.38866 9.0388 9.50523C9.13118 9.72915 9.02452 9.93433 8.83005 10.0503C8.2277 10.4094 7.62382 10.7644 7.01784 11.117C6.74366 11.2776 6.53723 11.2129 6.37687 10.9305C6.0786 10.4051 5.78338 9.87777 5.4841 9.35284L5.11878 8.71227C5.03672 8.56839 4.81236 8.22453 4.86165 8.06472C4.98223 7.67379 5.18409 7.30304 5.32182 6.91703C4.91724 6.30191 4.80369 5.79248 5.02916 5.07663C4.88452 5.09081 4.13344 5.1081 4.022 5.07585C3.99924 5.17295 4.00744 5.63942 4.00759 5.76269L4.00985 13.1403ZM12.8146 13.1403C13.219 13.1399 13.6827 13.2319 13.9775 12.9365C14.1529 12.7382 14.1772 12.5917 14.1801 12.3316C14.1828 12.0931 14.1806 11.8543 14.1802 11.6158L14.1801 7.20831C14.1801 6.73666 14.1849 6.26016 14.1762 5.78794C14.1719 5.5545 14.1069 5.40837 13.9432 5.24742C13.6506 4.9599 13.1168 5.16137 12.8268 5.07571C12.8039 5.17267 12.8121 5.64117 12.8123 5.76315L12.8139 7.22749L12.8146 13.1403ZM6.05848 7.30685C5.94561 7.56866 5.83525 7.83157 5.72743 8.09556C5.88887 8.43703 6.19585 8.90967 6.37872 9.25747C6.46451 9.42065 6.83316 10.0705 6.91887 10.173C7.00398 10.1868 7.37701 9.93124 7.48458 9.87568C7.58999 9.81037 8.01811 9.57795 8.07101 9.51966C8.04606 9.36645 7.06528 7.68553 6.91407 7.42012C6.6262 7.35462 6.32025 7.35988 6.05848 7.30685ZM6.22095 4.2289C6.63958 4.24399 7.07886 4.23729 7.49895 4.23717L9.47041 4.23712C9.56626 4.23751 9.68071 4.23505 9.77499 4.24021C9.7755 3.89404 9.79077 3.53513 9.76221 3.19325C9.74885 3.03324 9.5921 2.86858 9.4375 2.86811C8.55547 2.86534 7.63897 2.8456 6.75947 2.86329C6.68479 2.8648 6.61013 2.86687 6.53548 2.86949C6.43591 2.8912 6.35738 2.94235 6.30116 3.02983C6.157 3.25413 6.23301 3.94142 6.22095 4.2289ZM3.1855 13.1456L3.18683 5.08722C2.94547 5.09624 2.70565 5.08264 2.46599 5.0963C2.16342 5.10455 1.87069 5.31629 1.83752 5.63733C1.80581 5.94416 1.82068 6.2823 1.82068 6.59342L1.82064 11.0165C1.82067 11.4849 1.82096 11.9531 1.82386 12.4215C1.82651 12.8487 2.0945 13.1332 2.52208 13.1448C2.73596 13.1447 2.97364 13.1393 3.1855 13.1456Z" fill="#FF751F"/>
<path d="M9.77952 5.91792C10.4529 5.84325 11.0588 6.3367 11.1352 7.02182C11.2115 7.70695 10.7295 8.32602 10.0568 8.40679C9.37993 8.48806 8.76714 7.99358 8.69032 7.30414C8.6135 6.61468 9.10194 5.99305 9.77952 5.91792ZM10.0171 7.56246C10.2336 7.50423 10.3629 7.27831 10.3057 7.0578C10.2486 6.83731 10.0267 6.70567 9.8101 6.76378C9.59338 6.8219 9.46401 7.04789 9.52117 7.2685C9.57834 7.4891 9.80038 7.62072 10.0171 7.56246Z" fill="#FF751F"/>
</g>
</g>
</svg>
