<svg preserveAspectRatio="none" width="100%" height="100%" overflow="visible" style="display: block;" viewBox="0 0 16 16" fill="none" xmlns="http://www.w3.org/2000/svg">
<g id="Iconography">
<g id="Vector">
<path d="M9.03723 1.00098C9.14749 0.996199 9.2578 1.00897 9.3642 1.03882C9.58448 1.10018 9.7614 1.22614 9.87608 1.43183C10.0759 1.79023 9.92977 2.1847 9.83193 2.55553C9.77509 2.77575 9.71554 2.99525 9.65329 3.21394C9.99733 3.22374 10.7676 3.17079 11.0374 3.2967C11.2104 3.37697 11.3438 3.52522 11.4072 3.70741C11.4963 3.96438 11.4416 4.17067 11.3345 4.40317C11.3873 4.45433 11.4556 4.53726 11.5118 4.57987C11.6965 4.71979 11.8938 4.83656 12.0808 4.9761C12.4005 5.21452 12.6958 5.48492 12.9623 5.78325C14.0305 6.97454 14.5911 8.54739 14.5212 10.1577C15.1718 10.5305 15.6307 11.009 15.8676 11.7454C16.0875 12.426 16.0318 13.1674 15.7129 13.8062C15.387 14.4584 14.8186 14.9514 14.1337 15.1761C13.3423 15.4353 12.6723 15.2901 11.9564 14.9151C11.7899 14.9919 11.4508 15.228 11.228 15.3422C9.75344 16.0987 8.16315 16.1909 6.60232 15.6797C5.75759 15.4183 4.8971 14.8394 4.27677 14.2083C4.14959 14.0789 4.0295 13.921 3.89047 13.8067C3.83012 13.7974 3.85262 13.7929 3.80298 13.8183C3.67575 14.0114 4.12175 14.9885 4.04512 15.2403C3.99387 15.4087 3.60106 15.6017 3.44829 15.6792C3.35912 15.7244 3.23774 15.7717 3.13888 15.7313C3.00669 15.6774 2.53067 14.5655 2.44281 14.3776C1.90935 14.6002 1.48819 14.4549 1.21434 13.9287C1.1046 13.7178 1.01087 13.6019 1.00085 13.3448C0.991546 13.1377 1.05855 12.9344 1.18877 12.7748C1.36206 12.5621 1.66213 12.4326 1.88632 12.2643C2.17587 12.0469 2.48162 11.791 2.7251 11.5223C2.68702 11.3172 2.63603 11.122 2.60106 10.9091C2.27607 8.93402 2.92156 6.92222 4.32959 5.52162C4.67581 5.175 4.99389 4.9422 5.39778 4.66125C5.50702 4.58526 5.3487 3.47735 5.4961 3.31883C5.61718 3.18858 6.21575 3.23729 6.37565 3.22495C6.61007 2.98317 6.84013 2.71525 7.125 2.53646C7.36396 2.36871 7.88964 2.41594 8.05591 2.17855C8.4186 1.6607 8.21608 1.11896 9.03723 1.00098ZM11.4271 5.50207C11.7484 5.92591 11.6286 6.35317 11.2386 6.66353C11.4579 7.22613 11.1411 7.75355 10.5335 7.76633C10.1421 7.77457 9.75818 7.74615 9.36672 7.74531L8.41553 7.74668C8.06048 7.74717 7.78763 7.77496 7.45232 7.62309C7.02615 7.43007 6.73962 7.15278 6.38251 6.87076C5.59932 6.82617 5.37399 7.07969 5.43209 6.08937C5.447 5.83536 5.43025 5.50493 5.43941 5.24169C4.22786 6.06849 3.38941 7.35098 3.10882 8.80658C2.9653 9.54663 2.96371 10.3594 3.13522 11.0952C3.33068 10.8275 3.66215 10.519 3.83036 10.278C3.85563 10.0054 3.88306 9.78176 4.1051 9.58568C4.38064 9.34236 4.89515 9.37356 5.12682 9.66496C5.2617 9.83463 5.38402 10.0756 5.49389 10.2686L6.49922 12.0384C6.64747 12.2994 6.83373 12.5443 6.80096 12.8605C6.79047 12.9595 6.76253 13.0559 6.71845 13.1449C6.59725 13.3401 6.4681 13.455 6.24359 13.5228C5.96896 13.6056 5.69668 13.405 5.55302 13.4151C5.22376 13.4383 4.75668 13.6077 4.42744 13.6455C5.45299 14.7943 6.76525 15.4194 8.28856 15.4941C9.23119 15.5395 10.1691 15.3337 11.0094 14.8971C11.1294 14.8353 11.3855 14.7002 11.4847 14.6214C11.4903 14.61 11.5019 14.593 11.4968 14.5859C11.385 14.4302 11.2223 14.2525 11.1161 14.0908C10.5878 13.2842 10.5225 12.2527 10.9447 11.3839C11.2548 10.7372 11.8083 10.2448 12.4801 10.0182C13.0327 9.83123 13.4895 9.84417 14.0482 9.97018C14.0186 9.59833 14.0329 9.38131 13.9696 8.98686C13.7579 7.67876 13.0986 6.48865 12.1078 5.62646C11.9821 5.51786 11.7183 5.3017 11.5751 5.22804C11.5275 5.33571 11.4882 5.40094 11.4271 5.50207ZM13.5884 14.7875C14.783 14.644 15.6373 13.544 15.4973 12.3296C15.3572 11.1153 14.2757 10.2459 13.0808 10.3872C11.8845 10.5287 11.0279 11.6297 11.1681 12.8456C11.3084 14.0614 12.3923 14.9311 13.5884 14.7875ZM5.92179 3.73863C5.90336 4.59009 5.94451 5.51257 5.91426 6.34868C6.10565 6.35513 6.36184 6.34574 6.54092 6.38532C6.63681 6.4065 6.76085 6.55259 6.84202 6.61776C7.09671 6.82224 7.51903 7.17967 7.84136 7.22538C8.00819 7.24903 8.37035 7.23846 8.55147 7.23707C8.75704 7.23695 9.07344 7.22694 9.27017 7.24159C9.22703 6.97114 9.25904 6.87706 9.33371 6.6141C8.95707 6.31408 8.92246 5.88146 9.19647 5.49373C8.92764 5.09805 8.95663 4.65632 9.34392 4.3547C9.32286 4.30762 9.3082 4.25844 9.26828 4.23069C9.15957 4.29462 9.08878 4.43734 8.94213 4.50897C8.71965 4.61761 8.56759 4.6601 8.30953 4.60158C8.07879 4.54927 8.06326 4.26097 8.24806 4.14837C8.30118 4.116 8.43292 4.12945 8.49629 4.12592C8.76996 4.12447 8.94661 3.85181 9.03135 3.61619C9.14353 3.30423 9.212 2.96671 9.30324 2.64741C9.36833 2.40172 9.44302 2.15554 9.48654 1.90579C9.5428 1.58292 9.25387 1.47052 8.98311 1.50591C8.93628 1.53061 8.86634 1.56953 8.84014 1.61519C8.65489 1.93797 8.67441 2.21818 8.41155 2.52473C8.07671 2.91525 7.69699 2.78304 7.32368 2.99977C7.08626 3.1376 6.79649 3.58567 6.53896 3.71334C6.43926 3.76276 6.04174 3.75424 5.92179 3.73863ZM9.90778 4.73761C9.8086 4.73927 9.66478 4.72139 9.5878 4.798C9.53823 4.8473 9.49297 4.94 9.4948 5.01147C9.49619 5.06579 9.5219 5.11213 9.56156 5.1476C9.7384 5.30579 10.5167 5.24371 10.7647 5.24226C10.8242 5.23968 10.8941 5.23851 10.9526 5.23326C11.0068 5.19883 11.0745 5.15385 11.0975 5.09044C11.2046 4.79477 10.9444 4.72557 10.7184 4.72942C10.4436 4.73409 10.1776 4.72723 9.90778 4.73761ZM2.03187 13.9895C2.20493 13.9559 2.34968 13.8511 2.49969 13.757C2.40344 13.6033 2.02835 12.8903 1.94592 12.8314C1.57029 13.0443 1.32583 13.1721 1.6113 13.6474C1.72536 13.8373 1.79415 13.9617 2.03187 13.9895ZM9.6851 5.75021C9.59044 5.79515 9.55418 5.83121 9.5175 5.93238C9.49754 5.98746 9.4896 6.04249 9.51561 6.09707C9.54889 6.16691 9.62447 6.2102 9.6947 6.23221C9.86334 6.28506 10.6996 6.26709 10.923 6.24767C11.1595 6.16882 11.1785 5.94508 11.0157 5.77458C10.762 5.72148 9.96984 5.73356 9.6851 5.75021ZM10.5524 7.26897C10.7243 7.25599 10.8412 7.14 10.8286 6.96235C10.8084 6.67716 10.2236 6.76088 10.0212 6.7678C9.85764 6.77058 9.7342 6.84751 9.73502 7.0303C9.73645 7.35328 10.3266 7.27193 10.5524 7.26897ZM9.92471 3.7222C9.68243 3.81732 9.66655 4.13801 9.89523 4.19757C10.1077 4.25292 10.555 4.24084 10.7726 4.22041C11.0122 4.13903 11.0381 3.83215 10.8395 3.75722C10.6322 3.67904 10.1478 3.70924 9.92471 3.7222ZM2.87252 14.1395C3.00973 14.4372 3.18824 14.789 3.31392 15.0825C3.33558 15.129 3.32142 15.1151 3.36626 15.1355C3.42496 15.1303 3.48094 15.0896 3.53267 15.0581L3.3786 14.3952C3.35508 14.2938 3.31518 14.0978 3.27881 14.0063C3.2369 13.991 3.25462 13.9924 3.21134 14.0001C3.09214 14.0437 2.98891 14.0883 2.87252 14.1395ZM3.43807 13.3971C3.81737 13.2854 4.20058 13.1878 4.58691 13.1046C4.73246 13.0719 5.14048 12.9922 5.26033 12.9479C5.27193 12.8823 5.16168 12.707 5.12606 12.6444C4.77664 12.0301 4.43449 11.4107 4.07587 10.802C4.07137 10.7943 4.06074 10.7847 4.05434 10.7787C3.54578 11.3522 2.96858 12.0509 2.36831 12.5176C2.41915 12.6457 2.88779 13.4971 2.96875 13.5345C3.085 13.5313 3.32065 13.437 3.43807 13.3971ZM4.55006 9.91312C4.42421 9.94858 4.26932 10.0963 4.33469 10.2317C4.50824 10.5914 4.72207 10.9435 4.91979 11.2918L5.51827 12.3454C5.60149 12.4917 5.68475 12.6393 5.76865 12.7851C5.86231 12.9479 5.89908 13.036 6.10186 13.0443C6.18984 13.0114 6.25262 12.9856 6.29652 12.8941C6.32345 12.8378 6.32665 12.7728 6.30539 12.714C6.20685 12.4445 5.9032 11.9878 5.75675 11.7178C5.45648 11.1643 5.12316 10.617 4.81419 10.0675C4.74489 9.94425 4.68496 9.92513 4.55006 9.91312Z" fill="#FF751F"/>
<path d="M13.3047 10.8046C13.519 10.8046 13.5599 10.9402 13.5887 11.1199C13.9475 11.1965 14.3176 11.3944 14.4302 11.7762C14.4863 11.9661 14.441 12.2416 14.1931 12.2121C14.1305 12.2046 14.0801 12.1684 14.0281 12.1351C13.9485 11.9622 13.9865 11.845 13.7699 11.6998C13.5129 11.5275 12.6151 11.5867 12.7066 12.0347C12.7668 12.3299 13.3335 12.3222 13.5914 12.3672C13.7324 12.3912 13.8689 12.4376 13.9957 12.5049C14.5376 12.7971 14.6326 13.4322 14.1296 13.8209C13.9669 13.9466 13.796 14.0052 13.6025 14.0632C13.5947 14.0903 13.5866 14.1173 13.5781 14.1443C13.5334 14.2853 13.4971 14.3132 13.3713 14.379C13.152 14.3809 13.1083 14.2469 13.081 14.0621C12.702 13.946 12.3832 13.8342 12.2334 13.4027C12.1294 13.1032 12.3704 12.7993 12.6337 13.053C12.7032 13.12 12.6973 13.3855 12.9067 13.4806C13.1174 13.5946 13.2866 13.5769 13.5154 13.5562C13.7241 13.5374 14.13 13.2906 13.9192 13.0521C13.7239 12.8313 13.3211 12.8575 13.0411 12.8023C12.4616 12.6881 11.9788 12.1992 12.3222 11.5806C12.4767 11.3081 12.7743 11.1953 13.0658 11.1269C13.1189 10.9364 13.1118 10.8667 13.3047 10.8046Z" fill="#FF751F"/>
</g>
</g>
</svg>
