<svg preserveAspectRatio="none" width="100%" height="100%" overflow="visible" style="display: block;" viewBox="0 0 16 16" fill="none" xmlns="http://www.w3.org/2000/svg">
<g id="Iconography">
<path id="Vector" fill-rule="evenodd" clip-rule="evenodd" d="M2 4.29762C2 3.76505 2.40295 3.33334 2.9 3.33334H10.7C11.1971 3.33334 11.6 3.76505 11.6 4.29762V6.36396L14 4.61905V11.0476L11.6 9.39455V11.3691C11.6 11.9016 11.1971 12.3333 10.7 12.3333H2.9C2.40295 12.3333 2 11.9016 2 11.3691V4.29762ZM2.9 3.97619H10.7C10.8657 3.97619 11 4.1201 11 4.29762V11.3691C11 11.5466 10.8657 11.6905 10.7 11.6905H2.9C2.73432 11.6905 2.6 11.5466 2.6 11.3691V4.29762C2.6 4.1201 2.73432 3.97619 2.9 3.97619Z" fill="#FF751F"/>
</g>
</svg>
