<svg preserveAspectRatio="none" width="100%" height="100%" overflow="visible" style="display: block;" viewBox="0 0 16 16" fill="none" xmlns="http://www.w3.org/2000/svg">
<g id="Iconography">
<path id="Vector" d="M14.8 11.8453L9.33462 2.73323C9.19805 2.50999 9.00307 2.32489 8.76903 2.19627C8.53498 2.06766 8.26999 2 8.00031 2C7.73064 2 7.46564 2.06766 7.2316 2.19627C6.99755 2.32489 6.80258 2.50999 6.66601 2.73323L1.20066 11.8453C1.06925 12.0613 1 12.3069 1 12.5569C1 12.807 1.06925 13.0526 1.20066 13.2685C1.33548 13.4931 1.53012 13.6792 1.76461 13.8078C1.99909 13.9363 2.26497 14.0026 2.53497 13.9999H13.4657C13.7354 14.0024 14.0011 13.936 14.2353 13.8075C14.4696 13.6789 14.664 13.4929 14.7987 13.2685C14.9303 13.0527 14.9998 12.8072 15 12.5571C15.0002 12.307 14.9312 12.0614 14.8 11.8453ZM13.9331 12.7879C13.8855 12.866 13.8171 12.9304 13.7349 12.9747C13.6528 13.019 13.5599 13.0415 13.4657 13.0399H2.53497C2.44077 13.0415 2.34783 13.019 2.26569 12.9747C2.18354 12.9304 2.11514 12.866 2.06749 12.7879C2.02433 12.7178 2.00157 12.6378 2.00157 12.5563C2.00157 12.4749 2.02433 12.3949 2.06749 12.3247L7.53284 3.21263C7.58144 3.13497 7.65016 3.07071 7.73229 3.0261C7.81443 2.98149 7.90719 2.95805 8.00156 2.95805C8.09593 2.95805 8.18869 2.98149 8.27083 3.0261C8.35297 3.07071 8.42168 3.13497 8.47029 3.21263L13.9356 12.3247C13.9784 12.3951 14.0007 12.4752 14.0003 12.5567C13.9999 12.6381 13.9767 12.718 13.9331 12.7879ZM7.50034 9.19997V6.79999C7.50034 6.67269 7.55301 6.5506 7.64678 6.46058C7.74054 6.37057 7.86771 6.32 8.00031 6.32C8.13291 6.32 8.26008 6.37057 8.35385 6.46058C8.44761 6.5506 8.50029 6.67269 8.50029 6.79999V9.19997C8.50029 9.32727 8.44761 9.44936 8.35385 9.53938C8.26008 9.62939 8.13291 9.67996 8.00031 9.67996C7.86771 9.67996 7.74054 9.62939 7.64678 9.53938C7.55301 9.44936 7.50034 9.32727 7.50034 9.19997ZM8.75027 11.3599C8.75027 11.5023 8.70629 11.6416 8.62388 11.76C8.54148 11.8784 8.42435 11.9706 8.28731 12.0251C8.15027 12.0796 7.99948 12.0939 7.854 12.0661C7.70852 12.0383 7.57489 11.9698 7.47001 11.8691C7.36512 11.7684 7.2937 11.6401 7.26476 11.5004C7.23582 11.3607 7.25067 11.216 7.30744 11.0844C7.3642 10.9529 7.46033 10.8404 7.58366 10.7613C7.70699 10.6822 7.85198 10.64 8.00031 10.64C8.19921 10.64 8.38997 10.7158 8.53061 10.8508C8.67126 10.9859 8.75027 11.169 8.75027 11.3599Z" fill="#FF751F"/>
</g>
</svg>
