<svg preserveAspectRatio="none" width="100%" height="100%" overflow="visible" style="display: block;" viewBox="0 0 16 16" fill="none" xmlns="http://www.w3.org/2000/svg">
<g id="Iconography">
<path id="Vector" d="M14.8 11.8453L9.33462 2.73323C9.19805 2.50999 9.00307 2.32489 8.76903 2.19627C8.53498 2.06766 8.26999 2 8.00031 2C7.73064 2 7.46564 2.06766 7.2316 2.19627C6.99755 2.32489 6.80258 2.50999 6.66601 2.73323L1.20066 11.8453C1.06925 12.0613 1 12.3069 1 12.5569C1 12.807 1.06925 13.0526 1.20066 13.2685C1.33548 13.4931 1.53012 13.6792 1.76461 13.8078C1.99909 13.9363 2.26497 14.0026 2.53497 13.9999H13.4657C13.7354 14.0024 14.0011 13.936 14.2353 13.8075C14.4696 13.6789 14.664 13.4929 14.7987 13.2685C14.9303 13.0527 14.9998 12.8072 15 12.5571C15.0002 12.307 14.9312 12.0614 14.8 11.8453ZM7.50034 6.79999C7.50034 6.67269 7.55301 6.5506 7.64678 6.46058C7.74054 6.37057 7.86771 6.32 8.00031 6.32C8.13291 6.32 8.26008 6.37057 8.35385 6.46058C8.44761 6.5506 8.50029 6.67269 8.50029 6.79999V9.19997C8.50029 9.32727 8.44761 9.44936 8.35385 9.53938C8.26008 9.62939 8.13291 9.67996 8.00031 9.67996C7.86771 9.67996 7.74054 9.62939 7.64678 9.53938C7.55301 9.44936 7.50034 9.32727 7.50034 9.19997V6.79999ZM8.00031 12.0799C7.85198 12.0799 7.70699 12.0377 7.58366 11.9586C7.46033 11.8795 7.3642 11.767 7.30744 11.6355C7.25067 11.5039 7.23582 11.3591 7.26476 11.2195C7.2937 11.0798 7.36512 10.9515 7.47001 10.8508C7.57489 10.7501 7.70852 10.6816 7.854 10.6538C7.99948 10.626 8.15027 10.6403 8.28731 10.6948C8.42435 10.7493 8.54148 10.8415 8.62388 10.9599C8.70629 11.0783 8.75027 11.2175 8.75027 11.3599C8.75027 11.5509 8.67126 11.734 8.53061 11.8691C8.38997 12.0041 8.19921 12.0799 8.00031 12.0799Z" fill="#FF751F"/>
</g>
</svg>
