<svg preserveAspectRatio="none" width="100%" height="100%" overflow="visible" style="display: block;" viewBox="0 0 16 16" fill="none" xmlns="http://www.w3.org/2000/svg">
<g id="Iconography">
<path id="Vector" d="M6.71995 5.58015C6.28863 5.13441 6.03425 4.69835 6.03536 4.04106C6.03289 3.49541 6.2422 2.97154 6.61639 2.58676C6.98548 2.2083 7.48503 1.9972 8.00484 2.00003C8.53066 2.00264 9.03359 2.22269 9.40149 2.61112C9.76668 2.99379 9.96952 3.51103 9.96519 4.0486C9.95811 4.66723 9.71763 5.13782 9.29666 5.5606L9.27834 5.57886C10.5298 6.13355 11.3459 7.13489 11.5471 8.54185C11.9151 8.43581 12.3148 8.26143 12.6788 8.19052C13.1691 8.09506 13.7149 8.42379 13.9034 8.89362C13.9434 8.98758 13.9629 9.10361 14 9.19963V9.55529C13.9644 9.65415 13.9298 9.78435 13.8944 9.87215C13.8009 10.1044 13.5405 10.3748 13.3119 10.4667C13.1092 10.5483 12.7079 10.6976 12.4982 10.744C12.8918 11.0819 13.1365 11.4569 13.184 11.9977C13.2284 12.4809 13.0832 12.9624 12.781 13.3339C12.5321 13.6398 12.1938 13.861 11.8156 13.9502C11.5622 14.0099 11.2954 13.9969 11.0364 13.9969L10.1647 13.9963L7.41678 13.9962H5.38995C5.13798 13.9962 4.5588 14.0123 4.33749 13.9785C4.0057 13.9309 3.69368 13.7873 3.43736 13.5644C3.07285 13.2431 2.84851 12.8086 2.8127 12.3129C2.77435 11.8378 2.9237 11.3668 3.22671 11.0073C3.30951 10.9086 3.39228 10.8357 3.48941 10.7531C3.05378 10.5693 2.57855 10.538 2.26641 10.139C2.19547 10.0484 2.16653 10.0097 2.11656 9.9051C2.08624 9.84164 2.02341 9.61504 2 9.58055V9.1634C2.04806 9.07775 2.0755 8.95231 2.11748 8.85569C2.25012 8.55 2.50644 8.32037 2.81798 8.22814C2.95907 8.18546 3.10657 8.17008 3.25307 8.18277C3.50305 8.20637 4.17413 8.45739 4.45464 8.54698C4.46275 8.4223 4.50639 8.22147 4.53758 8.09744C4.72361 7.37072 5.11798 6.7192 5.66885 6.22853C5.99134 5.9369 6.32604 5.7445 6.71995 5.58015ZM6.22344 10.89C6.42492 10.9745 7.91901 11.4915 8.035 11.4808L9.18359 11.0968C9.31705 11.052 9.65231 10.9488 9.76996 10.8941C9.46446 10.6023 9.27461 10.2409 9.26608 9.80661C9.25463 9.22604 9.27105 8.64118 9.26417 8.06096C9.26026 7.73068 9.29476 7.31918 9.20905 7.0068C9.05004 6.42723 8.54285 6.06664 7.97356 6.07445C7.58783 6.10351 7.30816 6.20721 7.04389 6.51798C6.69582 6.9273 6.73611 7.37963 6.73633 7.88584L6.73757 9.034C6.73828 9.69909 6.80745 10.4302 6.22344 10.89ZM11.3733 11.1519C11.1636 11.191 10.9688 11.2647 10.7663 11.3327L9.99446 11.5925C9.83098 11.6476 9.28413 11.8192 9.15786 11.8848C9.7835 12.1015 10.2772 12.2068 10.6075 12.8937C10.6115 12.902 10.6154 12.9103 10.6193 12.9186C10.6632 13.0258 10.7068 13.1397 10.7323 13.2535C11.2288 13.2703 11.7576 13.3425 12.1506 12.9635C12.356 12.7678 12.4765 12.4948 12.4851 12.2061C12.4969 11.9313 12.4003 11.6632 12.2173 11.4634C12.0398 11.2683 11.7946 11.154 11.5356 11.1458C11.4896 11.1445 11.4197 11.1478 11.3733 11.1519ZM9.1147 13.2614C9.35516 13.2611 9.76791 13.2474 9.99488 13.2661C9.84352 12.9585 9.6992 12.8321 9.37864 12.7241L6.30502 11.6928L5.3397 11.3688C4.99795 11.2529 4.7487 11.1299 4.38162 11.1509C3.80327 11.2576 3.41991 11.7451 3.52735 12.3588C3.57764 12.6462 3.73603 12.9012 3.96784 13.0681C4.29725 13.3034 4.64443 13.2618 5.02439 13.2612L5.93834 13.2612L9.1147 13.2614ZM9.892 6.82448C9.99218 7.16018 9.96807 7.7153 9.96785 8.08145L9.96642 9.27518C9.96618 9.48838 9.94929 9.80684 10.009 9.99927C10.0697 10.1888 10.1991 10.3466 10.3699 10.4395C10.5961 10.5641 10.8166 10.5501 11.054 10.4695C11.6386 10.2709 12.2237 10.0738 12.8096 9.87942C12.8962 9.85068 12.9871 9.82065 13.0683 9.778C13.1862 9.68804 13.2641 9.60025 13.2875 9.44151C13.3054 9.31777 13.2753 9.19174 13.2037 9.09086C12.7735 8.49585 11.3248 9.76015 10.9552 9.27248C10.9243 9.23249 10.9021 9.18606 10.8902 9.13638C10.8704 9.05494 10.8662 8.88885 10.8608 8.79935C10.8533 8.6655 10.8359 8.53243 10.8089 8.40129C10.7035 7.92143 10.4872 7.47513 10.1785 7.10058C10.1284 7.03975 9.96349 6.84409 9.892 6.82448ZM6.07841 6.82882C5.56587 7.32964 5.24652 7.90681 5.15135 8.63889C5.11291 8.94269 5.19372 9.39459 4.76158 9.3965C4.62957 9.38834 4.4947 9.33081 4.37054 9.29078C4.00801 9.17389 3.65128 9.03113 3.28464 8.93049C3.0005 8.8525 2.71702 9.0414 2.70453 9.35224C2.69968 9.4791 2.7445 9.60264 2.82885 9.6949C2.8746 9.74536 2.9306 9.78472 2.99283 9.8101C3.43197 9.97053 3.89959 10.1136 4.34319 10.2675C4.52115 10.3293 5.03299 10.5105 5.19158 10.5282C5.3309 10.5431 5.47147 10.5177 5.59769 10.4549C5.78082 10.3632 5.9213 10.2001 5.9883 10.0015C6.06414 9.77347 6.02851 9.21519 6.0338 8.94468C6.04394 8.42682 6.02013 7.87915 6.03596 7.36215C6.0387 7.23297 6.05131 7.10422 6.07367 6.9771C6.08102 6.93447 6.10169 6.86592 6.08898 6.83346L6.07841 6.82882ZM7.92481 2.73399C7.22995 2.77624 6.70009 3.39342 6.74193 4.11179C6.78379 4.83016 7.38148 5.37711 8.07623 5.33282C8.76957 5.2886 9.29729 4.67216 9.25552 3.95523C9.21375 3.23832 8.61828 2.69183 7.92481 2.73399Z" fill="#FF751F"/>
</g>
</svg>
